G04 EAGLE Gerber RS-274X export*
G75*
%MOMM*%
%FSLAX34Y34*%
%LPD*%
%INBottom Copper*%
%IPPOS*%
%AMOC8*
5,1,8,0,0,1.08239X$1,22.5*%
G01*
%ADD10C,2.540000*%
%ADD11P,2.749271X8X202.500000*%
%ADD12C,1.930400*%
%ADD13C,1.524000*%
%ADD14P,1.429621X8X22.500000*%
%ADD15P,1.429621X8X112.500000*%
%ADD16P,1.429621X8X292.500000*%
%ADD17C,1.524000*%
%ADD18P,1.649562X8X202.500000*%
%ADD19C,1.905000*%
%ADD20P,2.061953X8X202.500000*%
%ADD21C,0.756400*%
%ADD22C,0.152400*%


D10*
X774700Y114300D03*
D11*
X723900Y114300D03*
D12*
X254000Y660400D03*
X254000Y762000D03*
X139700Y762000D03*
X139700Y660400D03*
D13*
X170180Y304800D02*
X185420Y304800D01*
X185420Y330200D02*
X170180Y330200D01*
X170180Y355600D02*
X185420Y355600D01*
X185420Y381000D02*
X170180Y381000D01*
D14*
X317500Y508000D03*
X304800Y527050D03*
X292100Y508000D03*
X393700Y355600D03*
X381000Y374650D03*
X368300Y355600D03*
X469900Y508000D03*
X457200Y527050D03*
X444500Y508000D03*
D15*
X762000Y444500D03*
X762000Y520700D03*
D16*
X762000Y698500D03*
X762000Y622300D03*
X635000Y342900D03*
X635000Y266700D03*
D15*
X635000Y444500D03*
X635000Y520700D03*
X635000Y622300D03*
X635000Y698500D03*
D13*
X96520Y419100D02*
X81280Y419100D01*
X81280Y444500D02*
X96520Y444500D01*
X96520Y469900D02*
X81280Y469900D01*
X81280Y495300D02*
X96520Y495300D01*
D17*
X723900Y787400D03*
X698500Y787400D03*
X673100Y787400D03*
D13*
X388620Y114300D02*
X373380Y114300D01*
X406400Y157480D02*
X406400Y172720D01*
X355600Y172720D02*
X355600Y157480D01*
D18*
X88900Y203200D03*
X88900Y228600D03*
X88900Y254000D03*
X88900Y279400D03*
X88900Y304800D03*
X88900Y330200D03*
D19*
X482600Y749300D03*
D20*
X431800Y749300D03*
D21*
X330200Y546100D03*
D22*
X368300Y584200D01*
D21*
X368300Y584200D03*
X723900Y596900D03*
D22*
X673100Y546100D01*
X596900Y546100D01*
D21*
X596900Y546100D03*
X508000Y342900D03*
D22*
X647700Y203200D01*
X787400Y203200D01*
D21*
X787400Y203200D03*
X127000Y241300D03*
D22*
X482600Y241300D01*
X508000Y266700D02*
X508000Y342900D01*
X508000Y266700D02*
X482600Y241300D01*
D21*
X355600Y508000D03*
D22*
X406400Y508000D01*
D21*
X406400Y508000D03*
X266700Y546100D03*
D22*
X266700Y482600D01*
X304800Y444500D01*
D21*
X304800Y444500D03*
X279400Y88900D03*
D22*
X241300Y88900D01*
D21*
X241300Y88900D03*
X495300Y508000D03*
D22*
X533400Y469900D01*
X584200Y469900D01*
X596900Y457200D01*
X596900Y279400D01*
D21*
X596900Y279400D03*
X330200Y635000D03*
D22*
X241300Y546100D01*
D21*
X241300Y546100D03*
X228600Y304800D03*
D22*
X368300Y444500D01*
X546100Y444500D01*
D21*
X546100Y444500D03*
M02*
