G04 EAGLE Gerber RS-274X export*
G75*
%MOMM*%
%FSLAX34Y34*%
%LPD*%
%INTop Copper*%
%IPPOS*%
%AMOC8*
5,1,8,0,0,1.08239X$1,22.5*%
G01*
%ADD10C,2.540000*%
%ADD11P,2.749271X8X202.500000*%
%ADD12C,1.930400*%
%ADD13C,1.524000*%
%ADD14P,1.429621X8X22.500000*%
%ADD15P,1.429621X8X112.500000*%
%ADD16P,1.429621X8X292.500000*%
%ADD17C,1.524000*%
%ADD18P,1.649562X8X202.500000*%
%ADD19C,1.905000*%
%ADD20P,2.061953X8X202.500000*%
%ADD21C,0.152400*%
%ADD22C,0.756400*%

G36*
X815145Y10160D02*
X815145Y10160D01*
X815144Y10160D01*
X815145Y10160D01*
X815145Y837440D01*
X815140Y837445D01*
X815140Y837444D01*
X815140Y837445D01*
X10160Y837445D01*
X10155Y837440D01*
X10156Y837440D01*
X10155Y837440D01*
X10155Y10160D01*
X10160Y10155D01*
X10160Y10156D01*
X10160Y10155D01*
X815140Y10155D01*
X815145Y10160D01*
G37*
%LPC*%
G36*
X239104Y83599D02*
X239104Y83599D01*
X236086Y86617D01*
X236083Y86618D01*
X236082Y86619D01*
X75255Y86619D01*
X61219Y100655D01*
X61219Y204145D01*
X80821Y223747D01*
X80821Y223754D01*
X79761Y224814D01*
X79761Y232386D01*
X85114Y237739D01*
X86614Y237739D01*
X86619Y237744D01*
X86618Y237744D01*
X86619Y237744D01*
X86619Y244856D01*
X86614Y244861D01*
X86614Y244860D01*
X86614Y244861D01*
X85114Y244861D01*
X79761Y250214D01*
X79761Y257786D01*
X85114Y263139D01*
X86614Y263139D01*
X86619Y263144D01*
X86618Y263144D01*
X86619Y263144D01*
X86619Y270256D01*
X86614Y270261D01*
X86614Y270260D01*
X86614Y270261D01*
X85114Y270261D01*
X79761Y275614D01*
X79761Y283186D01*
X80821Y284246D01*
X80821Y284252D01*
X80821Y284253D01*
X62557Y302517D01*
X61219Y303855D01*
X61219Y394645D01*
X62557Y395983D01*
X77387Y410813D01*
X77387Y410814D01*
X77388Y410814D01*
X77387Y410816D01*
X77387Y410820D01*
X77386Y410820D01*
X77385Y410821D01*
X76103Y411352D01*
X73532Y413923D01*
X72141Y417282D01*
X72141Y420918D01*
X73532Y424277D01*
X76103Y426848D01*
X79462Y428239D01*
X86614Y428239D01*
X86619Y428244D01*
X86618Y428244D01*
X86619Y428244D01*
X86619Y435356D01*
X86614Y435361D01*
X86614Y435360D01*
X86614Y435361D01*
X79462Y435361D01*
X76103Y436752D01*
X73532Y439323D01*
X72141Y442682D01*
X72141Y446318D01*
X73532Y449677D01*
X76103Y452248D01*
X77385Y452779D01*
X77386Y452780D01*
X77387Y452782D01*
X77388Y452785D01*
X77387Y452786D01*
X77387Y452787D01*
X37157Y493017D01*
X35819Y494355D01*
X35819Y737545D01*
X113355Y815081D01*
X648645Y815081D01*
X649983Y813743D01*
X668384Y795342D01*
X668386Y795342D01*
X668387Y795342D01*
X668388Y795342D01*
X668389Y795341D01*
X671282Y796539D01*
X674918Y796539D01*
X678277Y795148D01*
X680848Y792577D01*
X682239Y789218D01*
X682239Y785582D01*
X680848Y782223D01*
X678277Y779652D01*
X674918Y778261D01*
X671282Y778261D01*
X667923Y779652D01*
X665352Y782223D01*
X663961Y785582D01*
X663961Y789218D01*
X665159Y792111D01*
X665159Y792112D01*
X665158Y792113D01*
X665158Y792114D01*
X665158Y792116D01*
X646757Y810517D01*
X646754Y810518D01*
X646753Y810519D01*
X115247Y810519D01*
X115245Y810517D01*
X115243Y810517D01*
X40383Y735657D01*
X40382Y735654D01*
X40381Y735653D01*
X40381Y496247D01*
X40383Y496245D01*
X40383Y496243D01*
X82985Y453641D01*
X82988Y453640D01*
X82989Y453639D01*
X98338Y453639D01*
X101697Y452248D01*
X104268Y449677D01*
X105659Y446318D01*
X105659Y442682D01*
X104268Y439323D01*
X101697Y436752D01*
X98338Y435361D01*
X91186Y435361D01*
X91181Y435356D01*
X91182Y435356D01*
X91181Y435356D01*
X91181Y428244D01*
X91186Y428239D01*
X91186Y428240D01*
X91186Y428239D01*
X98338Y428239D01*
X101697Y426848D01*
X104268Y424277D01*
X105466Y421384D01*
X105469Y421383D01*
X105471Y421381D01*
X140645Y421381D01*
X171885Y390141D01*
X171888Y390141D01*
X171888Y390140D01*
X171889Y390139D01*
X187238Y390139D01*
X190597Y388748D01*
X193168Y386177D01*
X194559Y382818D01*
X194559Y379182D01*
X193168Y375823D01*
X190597Y373252D01*
X187238Y371861D01*
X180086Y371861D01*
X180081Y371856D01*
X180081Y364744D01*
X180086Y364739D01*
X180086Y364740D01*
X180086Y364739D01*
X187238Y364739D01*
X190597Y363348D01*
X193168Y360777D01*
X194559Y357418D01*
X194559Y353782D01*
X193168Y350423D01*
X190597Y347852D01*
X187238Y346461D01*
X168362Y346461D01*
X165003Y347852D01*
X162432Y350423D01*
X161041Y353782D01*
X161041Y357418D01*
X162432Y360777D01*
X165003Y363348D01*
X168362Y364739D01*
X175514Y364739D01*
X175519Y364744D01*
X175518Y364744D01*
X175519Y364744D01*
X175519Y371856D01*
X175514Y371861D01*
X175514Y371860D01*
X175514Y371861D01*
X168362Y371861D01*
X165003Y373252D01*
X162432Y375823D01*
X161041Y379182D01*
X161041Y382818D01*
X162432Y386177D01*
X165003Y388748D01*
X166285Y389279D01*
X166286Y389280D01*
X166287Y389282D01*
X166288Y389285D01*
X166287Y389286D01*
X166287Y389287D01*
X138757Y416817D01*
X138754Y416817D01*
X138754Y416818D01*
X138753Y416819D01*
X105471Y416819D01*
X105468Y416816D01*
X105466Y416816D01*
X104268Y413923D01*
X101697Y411352D01*
X98338Y409961D01*
X82989Y409961D01*
X82987Y409959D01*
X82985Y409959D01*
X65783Y392757D01*
X65783Y392755D01*
X65782Y392755D01*
X65782Y392754D01*
X65781Y392753D01*
X65781Y305747D01*
X65783Y305745D01*
X65783Y305743D01*
X84047Y287479D01*
X84054Y287479D01*
X85114Y288539D01*
X92686Y288539D01*
X98039Y283186D01*
X98039Y275614D01*
X92686Y270261D01*
X91186Y270261D01*
X91181Y270256D01*
X91182Y270256D01*
X91181Y270256D01*
X91181Y263144D01*
X91186Y263139D01*
X91186Y263140D01*
X91186Y263139D01*
X92686Y263139D01*
X98039Y257786D01*
X98039Y250214D01*
X92686Y244861D01*
X91186Y244861D01*
X91181Y244856D01*
X91182Y244856D01*
X91181Y244856D01*
X91181Y237744D01*
X91186Y237739D01*
X91186Y237740D01*
X91186Y237739D01*
X92686Y237739D01*
X98039Y232386D01*
X98039Y224814D01*
X92686Y219461D01*
X85114Y219461D01*
X84054Y220521D01*
X84052Y220521D01*
X84051Y220522D01*
X84050Y220522D01*
X84049Y220521D01*
X84048Y220521D01*
X84047Y220521D01*
X65783Y202257D01*
X65782Y202254D01*
X65781Y202253D01*
X65781Y102547D01*
X65783Y102545D01*
X65783Y102543D01*
X77143Y91183D01*
X77146Y91182D01*
X77147Y91181D01*
X236082Y91181D01*
X236084Y91183D01*
X236086Y91183D01*
X239104Y94201D01*
X243496Y94201D01*
X246601Y91096D01*
X246601Y86704D01*
X243496Y83599D01*
X239104Y83599D01*
G37*
%LPD*%
%LPC*%
G36*
X278455Y73919D02*
X278455Y73919D01*
X150119Y202255D01*
X150119Y305745D01*
X151457Y307083D01*
X166287Y321913D01*
X166287Y321914D01*
X166288Y321914D01*
X166287Y321916D01*
X166287Y321920D01*
X166286Y321920D01*
X166285Y321921D01*
X165003Y322452D01*
X162432Y325023D01*
X161234Y327916D01*
X161231Y327917D01*
X161229Y327919D01*
X115247Y327919D01*
X115245Y327917D01*
X115243Y327917D01*
X96979Y309653D01*
X96979Y309646D01*
X98039Y308586D01*
X98039Y301014D01*
X92686Y295661D01*
X85114Y295661D01*
X79761Y301014D01*
X79761Y308586D01*
X85114Y313939D01*
X92686Y313939D01*
X93746Y312879D01*
X93752Y312879D01*
X93753Y312879D01*
X112017Y331143D01*
X113355Y332481D01*
X161229Y332481D01*
X161232Y332484D01*
X161234Y332484D01*
X162432Y335377D01*
X165003Y337948D01*
X168362Y339339D01*
X187238Y339339D01*
X190597Y337948D01*
X193168Y335377D01*
X194559Y332018D01*
X194559Y328382D01*
X193168Y325023D01*
X190597Y322452D01*
X187238Y321061D01*
X171889Y321061D01*
X171887Y321059D01*
X171885Y321059D01*
X154683Y303857D01*
X154683Y303855D01*
X154681Y303854D01*
X154682Y303853D01*
X154681Y303853D01*
X154681Y204147D01*
X154683Y204145D01*
X154683Y204143D01*
X280343Y78483D01*
X280346Y78482D01*
X280347Y78481D01*
X684853Y78481D01*
X684855Y78483D01*
X684857Y78483D01*
X712229Y105855D01*
X712229Y105857D01*
X712230Y105858D01*
X712229Y105859D01*
X712229Y105862D01*
X709681Y108410D01*
X709681Y120190D01*
X718010Y128519D01*
X729790Y128519D01*
X738119Y120190D01*
X738119Y108410D01*
X729790Y100081D01*
X718010Y100081D01*
X715462Y102629D01*
X715456Y102629D01*
X715455Y102629D01*
X688083Y75257D01*
X686745Y73919D01*
X278455Y73919D01*
G37*
%LPD*%
%LPC*%
G36*
X771872Y100081D02*
X771872Y100081D01*
X766646Y102246D01*
X762646Y106246D01*
X760481Y111472D01*
X760481Y117128D01*
X762646Y122354D01*
X766646Y126354D01*
X771872Y128519D01*
X772414Y128519D01*
X772419Y128524D01*
X772418Y128524D01*
X772419Y128524D01*
X772419Y430853D01*
X772417Y430855D01*
X772417Y430857D01*
X766134Y437139D01*
X766132Y437140D01*
X766130Y437140D01*
X766128Y437140D01*
X766128Y437139D01*
X766127Y437139D01*
X765365Y436377D01*
X758635Y436377D01*
X753877Y441135D01*
X753877Y442214D01*
X753872Y442219D01*
X753872Y442218D01*
X753872Y442219D01*
X722955Y442219D01*
X646757Y518417D01*
X646754Y518418D01*
X646753Y518419D01*
X643128Y518419D01*
X643123Y518414D01*
X643123Y517335D01*
X638365Y512577D01*
X631635Y512577D01*
X626877Y517335D01*
X626877Y518414D01*
X626872Y518419D01*
X626872Y518418D01*
X626872Y518419D01*
X623247Y518419D01*
X623245Y518417D01*
X623243Y518417D01*
X551403Y446577D01*
X551402Y446574D01*
X551401Y446573D01*
X551401Y442304D01*
X548296Y439199D01*
X543904Y439199D01*
X540799Y442304D01*
X540799Y446696D01*
X543904Y449801D01*
X548173Y449801D01*
X548175Y449803D01*
X548177Y449803D01*
X621355Y522981D01*
X626872Y522981D01*
X626877Y522986D01*
X626876Y522986D01*
X626877Y522986D01*
X626877Y524065D01*
X631635Y528823D01*
X632714Y528823D01*
X632719Y528828D01*
X632718Y528828D01*
X632719Y528828D01*
X632719Y614172D01*
X632714Y614177D01*
X632714Y614176D01*
X632714Y614177D01*
X631635Y614177D01*
X626877Y618935D01*
X626877Y625665D01*
X631635Y630423D01*
X638365Y630423D01*
X643123Y625665D01*
X643123Y618935D01*
X638365Y614177D01*
X637286Y614177D01*
X637281Y614172D01*
X637281Y528828D01*
X637286Y528823D01*
X637286Y528824D01*
X637286Y528823D01*
X638365Y528823D01*
X643123Y524065D01*
X643123Y522986D01*
X643128Y522981D01*
X643128Y522982D01*
X643128Y522981D01*
X648645Y522981D01*
X724843Y446783D01*
X724846Y446782D01*
X724847Y446781D01*
X753872Y446781D01*
X753877Y446786D01*
X753876Y446786D01*
X753877Y446786D01*
X753877Y447865D01*
X758635Y452623D01*
X765365Y452623D01*
X770123Y447865D01*
X770123Y441135D01*
X769361Y440373D01*
X769360Y440371D01*
X769359Y440370D01*
X769360Y440369D01*
X769360Y440366D01*
X769361Y440366D01*
X775643Y434083D01*
X776981Y432745D01*
X776981Y128524D01*
X776986Y128519D01*
X776986Y128520D01*
X776986Y128519D01*
X777528Y128519D01*
X782754Y126354D01*
X786754Y122354D01*
X788919Y117128D01*
X788919Y111472D01*
X786754Y106246D01*
X782754Y102246D01*
X777528Y100081D01*
X771872Y100081D01*
G37*
%LPD*%
%LPC*%
G36*
X758635Y512577D02*
X758635Y512577D01*
X753877Y517335D01*
X753877Y524065D01*
X754639Y524827D01*
X754640Y524834D01*
X754639Y524834D01*
X684857Y594617D01*
X683519Y595955D01*
X683519Y684853D01*
X683517Y684855D01*
X683517Y684857D01*
X621357Y747017D01*
X621354Y747018D01*
X621353Y747019D01*
X493613Y747019D01*
X493610Y747016D01*
X493608Y747016D01*
X491963Y743044D01*
X488856Y739937D01*
X484884Y738292D01*
X484883Y738289D01*
X484881Y738287D01*
X484881Y697555D01*
X373603Y586277D01*
X373602Y586274D01*
X373601Y586273D01*
X373601Y582004D01*
X370496Y578899D01*
X366104Y578899D01*
X362999Y582004D01*
X362999Y586396D01*
X366104Y589501D01*
X370373Y589501D01*
X370375Y589503D01*
X370377Y589503D01*
X480317Y699443D01*
X480318Y699446D01*
X480319Y699447D01*
X480319Y738287D01*
X480316Y738290D01*
X480316Y738292D01*
X476344Y739937D01*
X473237Y743044D01*
X471556Y747103D01*
X471556Y751497D01*
X473237Y755556D01*
X476344Y758663D01*
X480403Y760344D01*
X484797Y760344D01*
X488856Y758663D01*
X491963Y755556D01*
X493608Y751584D01*
X493611Y751583D01*
X493613Y751581D01*
X623245Y751581D01*
X688081Y686745D01*
X688081Y597847D01*
X688083Y597845D01*
X688083Y597843D01*
X757866Y528061D01*
X757872Y528060D01*
X757872Y528061D01*
X757873Y528061D01*
X758635Y528823D01*
X765365Y528823D01*
X770123Y524065D01*
X770123Y517335D01*
X765365Y512577D01*
X758635Y512577D01*
G37*
%LPD*%
%LPC*%
G36*
X377635Y366527D02*
X377635Y366527D01*
X372877Y371285D01*
X372877Y378015D01*
X377635Y382773D01*
X378714Y382773D01*
X378719Y382778D01*
X378718Y382778D01*
X378719Y382778D01*
X378719Y532453D01*
X378717Y532455D01*
X378717Y532457D01*
X260271Y650903D01*
X260268Y650903D01*
X260266Y650904D01*
X256222Y649229D01*
X251778Y649229D01*
X247672Y650929D01*
X244529Y654072D01*
X242829Y658178D01*
X242829Y662622D01*
X244529Y666728D01*
X247672Y669871D01*
X251778Y671571D01*
X256222Y671571D01*
X260328Y669871D01*
X263471Y666728D01*
X265171Y662622D01*
X265171Y658178D01*
X263496Y654134D01*
X263497Y654131D01*
X263497Y654129D01*
X381943Y535683D01*
X383281Y534345D01*
X383281Y382778D01*
X383286Y382773D01*
X383286Y382774D01*
X383286Y382773D01*
X384365Y382773D01*
X389123Y378015D01*
X389123Y376936D01*
X389128Y376931D01*
X389128Y376932D01*
X389128Y376931D01*
X424503Y376931D01*
X424505Y376933D01*
X424507Y376933D01*
X591597Y544023D01*
X591598Y544026D01*
X591599Y544027D01*
X591599Y548296D01*
X594704Y551401D01*
X599096Y551401D01*
X602201Y548296D01*
X602201Y543904D01*
X599096Y540799D01*
X594827Y540799D01*
X594825Y540797D01*
X594823Y540797D01*
X426395Y372369D01*
X389128Y372369D01*
X389123Y372364D01*
X389124Y372364D01*
X389123Y372364D01*
X389123Y371285D01*
X384365Y366527D01*
X377635Y366527D01*
G37*
%LPD*%
%LPC*%
G36*
X277204Y83599D02*
X277204Y83599D01*
X274099Y86704D01*
X274099Y91096D01*
X277204Y94201D01*
X281596Y94201D01*
X284614Y91183D01*
X284617Y91182D01*
X284618Y91181D01*
X354653Y91181D01*
X354655Y91183D01*
X354657Y91183D01*
X369487Y106013D01*
X369487Y106014D01*
X369488Y106014D01*
X369487Y106016D01*
X369487Y106020D01*
X369486Y106020D01*
X369485Y106021D01*
X368203Y106552D01*
X365632Y109123D01*
X364241Y112482D01*
X364241Y116118D01*
X365632Y119477D01*
X368203Y122048D01*
X371562Y123439D01*
X378714Y123439D01*
X378719Y123444D01*
X378718Y123444D01*
X378719Y123444D01*
X378719Y140645D01*
X397259Y159185D01*
X397259Y159187D01*
X397260Y159187D01*
X397259Y159187D01*
X397260Y159188D01*
X397261Y159189D01*
X397261Y174538D01*
X398652Y177897D01*
X401223Y180468D01*
X404582Y181859D01*
X408218Y181859D01*
X411577Y180468D01*
X414148Y177897D01*
X415539Y174538D01*
X415539Y167386D01*
X415544Y167381D01*
X415544Y167382D01*
X415544Y167381D01*
X532453Y167381D01*
X532455Y167383D01*
X532457Y167383D01*
X627639Y262566D01*
X627640Y262572D01*
X627639Y262572D01*
X627639Y262573D01*
X626877Y263335D01*
X626877Y270065D01*
X627639Y270827D01*
X627640Y270829D01*
X627641Y270830D01*
X627640Y270831D01*
X627640Y270834D01*
X627639Y270834D01*
X621357Y277117D01*
X621354Y277118D01*
X621353Y277119D01*
X602118Y277119D01*
X602116Y277117D01*
X602114Y277117D01*
X599096Y274099D01*
X594704Y274099D01*
X591599Y277204D01*
X591599Y281596D01*
X594704Y284701D01*
X599096Y284701D01*
X602114Y281683D01*
X602117Y281683D01*
X602117Y281682D01*
X602118Y281681D01*
X623245Y281681D01*
X630866Y274061D01*
X630872Y274060D01*
X630872Y274061D01*
X630873Y274061D01*
X631635Y274823D01*
X638365Y274823D01*
X643123Y270065D01*
X643123Y263335D01*
X638365Y258577D01*
X631635Y258577D01*
X630873Y259339D01*
X630866Y259340D01*
X630866Y259339D01*
X535683Y164157D01*
X534345Y162819D01*
X415544Y162819D01*
X415539Y162814D01*
X415540Y162814D01*
X415539Y162814D01*
X415539Y155662D01*
X414148Y152303D01*
X411577Y149732D01*
X408218Y148341D01*
X404582Y148341D01*
X401223Y149732D01*
X398652Y152303D01*
X398121Y153585D01*
X398120Y153586D01*
X398118Y153587D01*
X398117Y153588D01*
X398116Y153588D01*
X398115Y153588D01*
X398114Y153587D01*
X398113Y153587D01*
X383283Y138757D01*
X383282Y138754D01*
X383281Y138753D01*
X383281Y123444D01*
X383286Y123439D01*
X383286Y123440D01*
X383286Y123439D01*
X390438Y123439D01*
X393797Y122048D01*
X396368Y119477D01*
X397759Y116118D01*
X397759Y112482D01*
X396368Y109123D01*
X393797Y106552D01*
X390438Y105161D01*
X375089Y105161D01*
X375087Y105159D01*
X375085Y105159D01*
X356545Y86619D01*
X284618Y86619D01*
X284616Y86617D01*
X284614Y86617D01*
X281596Y83599D01*
X277204Y83599D01*
G37*
%LPD*%
%LPC*%
G36*
X785204Y197899D02*
X785204Y197899D01*
X782099Y201004D01*
X782099Y205396D01*
X785204Y208501D01*
X789473Y208501D01*
X789475Y208503D01*
X789477Y208503D01*
X797817Y216843D01*
X797818Y216846D01*
X797819Y216847D01*
X797819Y672153D01*
X797817Y672155D01*
X797817Y672157D01*
X773757Y696217D01*
X773754Y696218D01*
X773753Y696219D01*
X770128Y696219D01*
X770123Y696214D01*
X770124Y696214D01*
X770123Y696214D01*
X770123Y695135D01*
X765365Y690377D01*
X758635Y690377D01*
X753877Y695135D01*
X753877Y701865D01*
X758635Y706623D01*
X759714Y706623D01*
X759719Y706628D01*
X759718Y706628D01*
X759719Y706628D01*
X759719Y748353D01*
X759717Y748355D01*
X759717Y748357D01*
X728616Y779458D01*
X728612Y779458D01*
X728611Y779459D01*
X725718Y778261D01*
X722082Y778261D01*
X718723Y779652D01*
X716152Y782223D01*
X714761Y785582D01*
X714761Y789218D01*
X716152Y792577D01*
X718723Y795148D01*
X722082Y796539D01*
X725718Y796539D01*
X729077Y795148D01*
X731648Y792577D01*
X733039Y789218D01*
X733039Y785582D01*
X731841Y782689D01*
X731842Y782687D01*
X731842Y782686D01*
X731842Y782684D01*
X762943Y751583D01*
X764281Y750245D01*
X764281Y706628D01*
X764286Y706623D01*
X764286Y706624D01*
X764286Y706623D01*
X765365Y706623D01*
X770123Y701865D01*
X770123Y700786D01*
X770128Y700781D01*
X770128Y700782D01*
X770128Y700781D01*
X775645Y700781D01*
X802381Y674045D01*
X802381Y214955D01*
X792703Y205277D01*
X792703Y205275D01*
X792701Y205274D01*
X792702Y205273D01*
X792701Y205273D01*
X792701Y201004D01*
X789596Y197899D01*
X785204Y197899D01*
G37*
%LPD*%
%LPC*%
G36*
X303855Y277119D02*
X303855Y277119D01*
X289819Y291155D01*
X289819Y499872D01*
X289814Y499877D01*
X289814Y499876D01*
X289814Y499877D01*
X288735Y499877D01*
X283977Y504635D01*
X283977Y511365D01*
X288735Y516123D01*
X295465Y516123D01*
X300223Y511365D01*
X300223Y504635D01*
X295465Y499877D01*
X294386Y499877D01*
X294381Y499872D01*
X294382Y499872D01*
X294381Y499872D01*
X294381Y293047D01*
X294383Y293045D01*
X294383Y293043D01*
X305743Y281683D01*
X305746Y281683D01*
X305746Y281682D01*
X305747Y281681D01*
X570553Y281681D01*
X570555Y281683D01*
X570557Y281683D01*
X627639Y338766D01*
X627640Y338767D01*
X627640Y338768D01*
X627640Y338772D01*
X627639Y338772D01*
X627639Y338773D01*
X626877Y339535D01*
X626877Y346265D01*
X631635Y351023D01*
X638365Y351023D01*
X643123Y346265D01*
X643123Y339535D01*
X638365Y334777D01*
X631635Y334777D01*
X630873Y335539D01*
X630866Y335540D01*
X630866Y335539D01*
X572445Y277119D01*
X303855Y277119D01*
G37*
%LPD*%
%LPC*%
G36*
X353782Y148341D02*
X353782Y148341D01*
X350423Y149732D01*
X347852Y152303D01*
X346461Y155662D01*
X346461Y171011D01*
X346459Y171013D01*
X346459Y171015D01*
X251719Y265755D01*
X251719Y521645D01*
X253055Y522981D01*
X297369Y522981D01*
X297370Y522982D01*
X297372Y522982D01*
X297372Y522984D01*
X297374Y522986D01*
X297372Y522987D01*
X297372Y522990D01*
X296677Y523685D01*
X296677Y530415D01*
X301435Y535173D01*
X308165Y535173D01*
X308927Y534411D01*
X308934Y534410D01*
X308934Y534411D01*
X321567Y547043D01*
X322905Y548381D01*
X324982Y548381D01*
X324984Y548383D01*
X324986Y548383D01*
X328004Y551401D01*
X332396Y551401D01*
X335501Y548296D01*
X335501Y543904D01*
X332396Y540799D01*
X328004Y540799D01*
X324986Y543817D01*
X324983Y543818D01*
X324982Y543819D01*
X324797Y543819D01*
X324795Y543817D01*
X324793Y543817D01*
X312161Y531184D01*
X312160Y531178D01*
X312161Y531178D01*
X312161Y531177D01*
X312923Y530415D01*
X312923Y523685D01*
X308165Y518927D01*
X301435Y518927D01*
X300673Y519689D01*
X300670Y519690D01*
X300669Y519691D01*
X300668Y519690D01*
X300666Y519690D01*
X300666Y519689D01*
X299395Y518419D01*
X256286Y518419D01*
X256281Y518414D01*
X256281Y267647D01*
X256283Y267645D01*
X256283Y267643D01*
X347313Y176613D01*
X347314Y176613D01*
X347314Y176612D01*
X347316Y176613D01*
X347320Y176613D01*
X347320Y176614D01*
X347321Y176615D01*
X347852Y177897D01*
X350423Y180468D01*
X353782Y181859D01*
X357418Y181859D01*
X360777Y180468D01*
X363348Y177897D01*
X364739Y174538D01*
X364739Y155662D01*
X363348Y152303D01*
X360777Y149732D01*
X357418Y148341D01*
X353782Y148341D01*
G37*
%LPD*%
%LPC*%
G36*
X392755Y327919D02*
X392755Y327919D01*
X372434Y348239D01*
X372428Y348240D01*
X372428Y348239D01*
X372427Y348239D01*
X371665Y347477D01*
X364935Y347477D01*
X360177Y352235D01*
X360177Y358965D01*
X364935Y363723D01*
X371665Y363723D01*
X376423Y358965D01*
X376423Y352235D01*
X375661Y351473D01*
X375660Y351470D01*
X375660Y351469D01*
X375660Y351466D01*
X375661Y351466D01*
X394643Y332483D01*
X394646Y332482D01*
X394647Y332481D01*
X545153Y332481D01*
X545155Y332483D01*
X545157Y332483D01*
X632717Y420043D01*
X632717Y420045D01*
X632719Y420047D01*
X632719Y436372D01*
X632714Y436377D01*
X632714Y436376D01*
X632714Y436377D01*
X631635Y436377D01*
X626877Y441135D01*
X626877Y447865D01*
X631635Y452623D01*
X638365Y452623D01*
X643123Y447865D01*
X643123Y441135D01*
X638365Y436377D01*
X637286Y436377D01*
X637281Y436372D01*
X637282Y436372D01*
X637281Y436372D01*
X637281Y418155D01*
X547045Y327919D01*
X392755Y327919D01*
G37*
%LPD*%
%LPC*%
G36*
X79462Y460761D02*
X79462Y460761D01*
X76103Y462152D01*
X73532Y464723D01*
X72141Y468082D01*
X72141Y471718D01*
X73532Y475077D01*
X76103Y477648D01*
X79462Y479039D01*
X86614Y479039D01*
X86619Y479044D01*
X86618Y479044D01*
X86619Y479044D01*
X86619Y486156D01*
X86614Y486161D01*
X86614Y486160D01*
X86614Y486161D01*
X79462Y486161D01*
X76103Y487552D01*
X73532Y490123D01*
X72141Y493482D01*
X72141Y497118D01*
X73532Y500477D01*
X76103Y503048D01*
X79462Y504439D01*
X98338Y504439D01*
X101697Y503048D01*
X104268Y500477D01*
X105466Y497584D01*
X105469Y497583D01*
X105471Y497581D01*
X189553Y497581D01*
X189555Y497583D01*
X189557Y497583D01*
X235997Y544023D01*
X235998Y544026D01*
X235999Y544027D01*
X235999Y548296D01*
X239104Y551401D01*
X243496Y551401D01*
X246601Y548296D01*
X246601Y543904D01*
X243496Y540799D01*
X239227Y540799D01*
X239225Y540797D01*
X239223Y540797D01*
X191445Y493019D01*
X105471Y493019D01*
X105468Y493016D01*
X105466Y493016D01*
X104268Y490123D01*
X101697Y487552D01*
X98338Y486161D01*
X91186Y486161D01*
X91181Y486156D01*
X91182Y486156D01*
X91181Y486156D01*
X91181Y479044D01*
X91186Y479039D01*
X91186Y479040D01*
X91186Y479039D01*
X98338Y479039D01*
X101697Y477648D01*
X104268Y475077D01*
X105659Y471718D01*
X105659Y468082D01*
X104268Y464723D01*
X101697Y462152D01*
X98338Y460761D01*
X79462Y460761D01*
G37*
%LPD*%
%LPC*%
G36*
X468955Y480319D02*
X468955Y480319D01*
X467617Y481657D01*
X448634Y500639D01*
X448632Y500640D01*
X448631Y500640D01*
X448630Y500640D01*
X448628Y500640D01*
X448628Y500639D01*
X448627Y500639D01*
X447865Y499877D01*
X441135Y499877D01*
X436377Y504635D01*
X436377Y511365D01*
X441135Y516123D01*
X447865Y516123D01*
X452623Y511365D01*
X452623Y504635D01*
X451861Y503873D01*
X451860Y503871D01*
X451860Y503870D01*
X451860Y503866D01*
X451861Y503866D01*
X470843Y484883D01*
X470846Y484882D01*
X470847Y484881D01*
X481653Y484881D01*
X481655Y484883D01*
X481657Y484883D01*
X607317Y610543D01*
X607318Y610546D01*
X607319Y610547D01*
X607319Y674045D01*
X627639Y694366D01*
X627640Y694372D01*
X627639Y694372D01*
X627639Y694373D01*
X626877Y695135D01*
X626877Y701865D01*
X631635Y706623D01*
X638365Y706623D01*
X643123Y701865D01*
X643123Y695135D01*
X638365Y690377D01*
X631635Y690377D01*
X630873Y691139D01*
X630866Y691140D01*
X630866Y691139D01*
X611883Y672157D01*
X611882Y672154D01*
X611881Y672153D01*
X611881Y608655D01*
X483545Y480319D01*
X468955Y480319D01*
G37*
%LPD*%
%LPC*%
G36*
X137478Y750829D02*
X137478Y750829D01*
X133372Y752529D01*
X130229Y755672D01*
X128529Y759778D01*
X128529Y764222D01*
X130229Y768328D01*
X133372Y771471D01*
X137478Y773171D01*
X141922Y773171D01*
X146028Y771471D01*
X149171Y768328D01*
X150845Y764284D01*
X150849Y764283D01*
X150850Y764281D01*
X242850Y764281D01*
X242853Y764284D01*
X242855Y764284D01*
X244529Y768328D01*
X247672Y771471D01*
X251778Y773171D01*
X256222Y773171D01*
X260328Y771471D01*
X263471Y768328D01*
X265171Y764222D01*
X265171Y759778D01*
X263471Y755672D01*
X260328Y752529D01*
X256222Y750829D01*
X251778Y750829D01*
X247672Y752529D01*
X244529Y755672D01*
X242855Y759716D01*
X242851Y759717D01*
X242850Y759719D01*
X150850Y759719D01*
X150847Y759716D01*
X150845Y759716D01*
X149171Y755672D01*
X146028Y752529D01*
X141922Y750829D01*
X137478Y750829D01*
G37*
%LPD*%
%LPC*%
G36*
X264504Y540799D02*
X264504Y540799D01*
X261399Y543904D01*
X261399Y548173D01*
X261397Y548175D01*
X261397Y548177D01*
X151457Y658117D01*
X151454Y658118D01*
X151453Y658119D01*
X150850Y658119D01*
X150847Y658116D01*
X150845Y658116D01*
X149171Y654072D01*
X146028Y650929D01*
X141922Y649229D01*
X137478Y649229D01*
X133372Y650929D01*
X130229Y654072D01*
X128529Y658178D01*
X128529Y662622D01*
X130229Y666728D01*
X133372Y669871D01*
X137478Y671571D01*
X141922Y671571D01*
X146028Y669871D01*
X149171Y666728D01*
X150845Y662684D01*
X150849Y662683D01*
X150850Y662681D01*
X153345Y662681D01*
X264623Y551403D01*
X264626Y551402D01*
X264627Y551401D01*
X268896Y551401D01*
X272001Y548296D01*
X272001Y543904D01*
X268896Y540799D01*
X264504Y540799D01*
G37*
%LPD*%
%LPC*%
G36*
X328004Y629699D02*
X328004Y629699D01*
X324899Y632804D01*
X324899Y637196D01*
X327917Y640214D01*
X327917Y640216D01*
X327918Y640217D01*
X327919Y640218D01*
X327919Y648645D01*
X422374Y743100D01*
X422374Y743107D01*
X420756Y744725D01*
X420756Y753875D01*
X427225Y760344D01*
X436375Y760344D01*
X442844Y753875D01*
X442844Y744725D01*
X436375Y738256D01*
X427225Y738256D01*
X425607Y739874D01*
X425601Y739874D01*
X425600Y739874D01*
X332483Y646757D01*
X332482Y646754D01*
X332481Y646753D01*
X332481Y640218D01*
X332483Y640216D01*
X332483Y640214D01*
X335501Y637196D01*
X335501Y632804D01*
X332396Y629699D01*
X328004Y629699D01*
G37*
%LPD*%
%LPC*%
G36*
X505804Y337599D02*
X505804Y337599D01*
X502699Y340704D01*
X502699Y344973D01*
X502697Y344975D01*
X502697Y344977D01*
X494357Y353317D01*
X494354Y353318D01*
X494353Y353319D01*
X401828Y353319D01*
X401823Y353314D01*
X401824Y353314D01*
X401823Y353314D01*
X401823Y352235D01*
X397065Y347477D01*
X390335Y347477D01*
X385577Y352235D01*
X385577Y358965D01*
X390335Y363723D01*
X397065Y363723D01*
X401823Y358965D01*
X401823Y357886D01*
X401828Y357881D01*
X401828Y357882D01*
X401828Y357881D01*
X496245Y357881D01*
X505923Y348203D01*
X505926Y348202D01*
X505927Y348201D01*
X510196Y348201D01*
X513301Y345096D01*
X513301Y340704D01*
X510196Y337599D01*
X505804Y337599D01*
G37*
%LPD*%
%LPC*%
G36*
X302604Y439199D02*
X302604Y439199D01*
X299499Y442304D01*
X299499Y446696D01*
X302604Y449801D01*
X306873Y449801D01*
X306875Y449803D01*
X306877Y449803D01*
X315217Y458143D01*
X315218Y458146D01*
X315219Y458147D01*
X315219Y499872D01*
X315214Y499877D01*
X315214Y499876D01*
X315214Y499877D01*
X314135Y499877D01*
X309377Y504635D01*
X309377Y511365D01*
X314135Y516123D01*
X320865Y516123D01*
X325623Y511365D01*
X325623Y510286D01*
X325628Y510281D01*
X325628Y510282D01*
X325628Y510281D01*
X350382Y510281D01*
X350384Y510283D01*
X350386Y510283D01*
X353404Y513301D01*
X357796Y513301D01*
X360901Y510196D01*
X360901Y505804D01*
X357796Y502699D01*
X353404Y502699D01*
X350386Y505717D01*
X350383Y505718D01*
X350382Y505718D01*
X350382Y505719D01*
X325628Y505719D01*
X325623Y505714D01*
X325623Y504635D01*
X320865Y499877D01*
X319786Y499877D01*
X319781Y499872D01*
X319782Y499872D01*
X319781Y499872D01*
X319781Y456255D01*
X310103Y446577D01*
X310102Y446574D01*
X310101Y446573D01*
X310101Y442304D01*
X306996Y439199D01*
X302604Y439199D01*
G37*
%LPD*%
%LPC*%
G36*
X168362Y295661D02*
X168362Y295661D01*
X165003Y297052D01*
X162432Y299623D01*
X161041Y302982D01*
X161041Y306618D01*
X162432Y309977D01*
X165003Y312548D01*
X168362Y313939D01*
X187238Y313939D01*
X190597Y312548D01*
X193168Y309977D01*
X194366Y307084D01*
X194369Y307083D01*
X194371Y307081D01*
X223382Y307081D01*
X223384Y307083D01*
X223386Y307083D01*
X226404Y310101D01*
X230796Y310101D01*
X233901Y306996D01*
X233901Y302604D01*
X230796Y299499D01*
X226404Y299499D01*
X223386Y302517D01*
X223383Y302518D01*
X223382Y302519D01*
X194371Y302519D01*
X194368Y302516D01*
X194366Y302516D01*
X193168Y299623D01*
X190597Y297052D01*
X187238Y295661D01*
X168362Y295661D01*
G37*
%LPD*%
%LPC*%
G36*
X85114Y194061D02*
X85114Y194061D01*
X79761Y199414D01*
X79761Y206986D01*
X85114Y212339D01*
X92686Y212339D01*
X93746Y211279D01*
X93752Y211279D01*
X93753Y211279D01*
X121697Y239223D01*
X121698Y239226D01*
X121699Y239227D01*
X121699Y243496D01*
X124804Y246601D01*
X129196Y246601D01*
X132301Y243496D01*
X132301Y239104D01*
X129196Y235999D01*
X124927Y235999D01*
X124925Y235997D01*
X124923Y235997D01*
X96979Y208053D01*
X96979Y208051D01*
X96979Y208046D01*
X98039Y206986D01*
X98039Y199414D01*
X92686Y194061D01*
X85114Y194061D01*
G37*
%LPD*%
%LPC*%
G36*
X404204Y502699D02*
X404204Y502699D01*
X401099Y505804D01*
X401099Y510196D01*
X404204Y513301D01*
X408473Y513301D01*
X408475Y513303D01*
X408477Y513303D01*
X424505Y529331D01*
X449072Y529331D01*
X449077Y529336D01*
X449076Y529336D01*
X449077Y529336D01*
X449077Y530415D01*
X453835Y535173D01*
X460565Y535173D01*
X465323Y530415D01*
X465323Y523685D01*
X460565Y518927D01*
X453835Y518927D01*
X449077Y523685D01*
X449077Y524764D01*
X449072Y524769D01*
X449072Y524768D01*
X449072Y524769D01*
X426397Y524769D01*
X426395Y524767D01*
X426393Y524767D01*
X411703Y510077D01*
X411702Y510074D01*
X411701Y510073D01*
X411701Y505804D01*
X408596Y502699D01*
X404204Y502699D01*
G37*
%LPD*%
%LPC*%
G36*
X721704Y591599D02*
X721704Y591599D01*
X718599Y594704D01*
X718599Y599096D01*
X721704Y602201D01*
X726096Y602201D01*
X729114Y599183D01*
X729117Y599182D01*
X729118Y599181D01*
X735653Y599181D01*
X735655Y599183D01*
X735657Y599183D01*
X754639Y618166D01*
X754640Y618172D01*
X754639Y618172D01*
X754639Y618173D01*
X753877Y618935D01*
X753877Y625665D01*
X758635Y630423D01*
X765365Y630423D01*
X770123Y625665D01*
X770123Y618935D01*
X765365Y614177D01*
X758635Y614177D01*
X757873Y614939D01*
X757866Y614940D01*
X757866Y614939D01*
X738883Y595957D01*
X737545Y594619D01*
X729118Y594619D01*
X729116Y594617D01*
X729114Y594617D01*
X726096Y591599D01*
X721704Y591599D01*
G37*
%LPD*%
%LPC*%
G36*
X23032Y813595D02*
X23032Y813595D01*
X18656Y815407D01*
X15307Y818756D01*
X13495Y823132D01*
X13495Y827868D01*
X15307Y832244D01*
X18656Y835593D01*
X23032Y837405D01*
X27768Y837405D01*
X32144Y835593D01*
X35493Y832244D01*
X37305Y827868D01*
X37305Y823132D01*
X35493Y818756D01*
X32144Y815407D01*
X27768Y813595D01*
X23032Y813595D01*
G37*
%LPD*%
%LPC*%
G36*
X23032Y13495D02*
X23032Y13495D01*
X18656Y15307D01*
X15307Y18656D01*
X13495Y23032D01*
X13495Y27768D01*
X15307Y32144D01*
X18656Y35493D01*
X23032Y37305D01*
X27768Y37305D01*
X32144Y35493D01*
X35493Y32144D01*
X37305Y27768D01*
X37305Y23032D01*
X35493Y18656D01*
X32144Y15307D01*
X27768Y13495D01*
X23032Y13495D01*
G37*
%LPD*%
%LPC*%
G36*
X797732Y813595D02*
X797732Y813595D01*
X793356Y815407D01*
X790007Y818756D01*
X788195Y823132D01*
X788195Y827868D01*
X790007Y832244D01*
X793356Y835593D01*
X797732Y837405D01*
X802468Y837405D01*
X806844Y835593D01*
X810193Y832244D01*
X812005Y827868D01*
X812005Y823132D01*
X810193Y818756D01*
X806844Y815407D01*
X802468Y813595D01*
X797732Y813595D01*
G37*
%LPD*%
%LPC*%
G36*
X797732Y13495D02*
X797732Y13495D01*
X793356Y15307D01*
X790007Y18656D01*
X788195Y23032D01*
X788195Y27768D01*
X790007Y32144D01*
X793356Y35493D01*
X797732Y37305D01*
X802468Y37305D01*
X806844Y35493D01*
X810193Y32144D01*
X812005Y27768D01*
X812005Y23032D01*
X810193Y18656D01*
X806844Y15307D01*
X802468Y13495D01*
X797732Y13495D01*
G37*
%LPD*%
%LPC*%
G36*
X466535Y499877D02*
X466535Y499877D01*
X461777Y504635D01*
X461777Y511365D01*
X466535Y516123D01*
X473265Y516123D01*
X478023Y511365D01*
X478023Y510286D01*
X478028Y510281D01*
X478028Y510282D01*
X478028Y510281D01*
X490082Y510281D01*
X490084Y510283D01*
X490086Y510283D01*
X493104Y513301D01*
X497496Y513301D01*
X500601Y510196D01*
X500601Y505804D01*
X497496Y502699D01*
X493104Y502699D01*
X490086Y505717D01*
X490083Y505718D01*
X490082Y505718D01*
X490082Y505719D01*
X478028Y505719D01*
X478023Y505714D01*
X478023Y504635D01*
X473265Y499877D01*
X466535Y499877D01*
G37*
%LPD*%
%LPC*%
G36*
X85114Y321061D02*
X85114Y321061D01*
X79761Y326414D01*
X79761Y333986D01*
X85114Y339339D01*
X92686Y339339D01*
X98039Y333986D01*
X98039Y326414D01*
X92686Y321061D01*
X85114Y321061D01*
G37*
%LPD*%
%LPC*%
G36*
X696682Y778261D02*
X696682Y778261D01*
X693323Y779652D01*
X690752Y782223D01*
X689361Y785582D01*
X689361Y789218D01*
X690752Y792577D01*
X693323Y795148D01*
X696682Y796539D01*
X700318Y796539D01*
X703677Y795148D01*
X706248Y792577D01*
X707639Y789218D01*
X707639Y785582D01*
X706248Y782223D01*
X703677Y779652D01*
X700318Y778261D01*
X696682Y778261D01*
G37*
%LPD*%
D10*
X774700Y114300D03*
D11*
X723900Y114300D03*
D12*
X254000Y660400D03*
X254000Y762000D03*
X139700Y762000D03*
X139700Y660400D03*
D13*
X170180Y304800D02*
X185420Y304800D01*
X185420Y330200D02*
X170180Y330200D01*
X170180Y355600D02*
X185420Y355600D01*
X185420Y381000D02*
X170180Y381000D01*
D14*
X317500Y508000D03*
X304800Y527050D03*
X292100Y508000D03*
X393700Y355600D03*
X381000Y374650D03*
X368300Y355600D03*
X469900Y508000D03*
X457200Y527050D03*
X444500Y508000D03*
D15*
X762000Y444500D03*
X762000Y520700D03*
D16*
X762000Y698500D03*
X762000Y622300D03*
X635000Y342900D03*
X635000Y266700D03*
D15*
X635000Y444500D03*
X635000Y520700D03*
X635000Y622300D03*
X635000Y698500D03*
D13*
X96520Y419100D02*
X81280Y419100D01*
X81280Y444500D02*
X96520Y444500D01*
X96520Y469900D02*
X81280Y469900D01*
X81280Y495300D02*
X96520Y495300D01*
D17*
X723900Y787400D03*
X698500Y787400D03*
X673100Y787400D03*
D13*
X388620Y114300D02*
X373380Y114300D01*
X406400Y157480D02*
X406400Y172720D01*
X355600Y172720D02*
X355600Y157480D01*
D18*
X88900Y203200D03*
X88900Y228600D03*
X88900Y254000D03*
X88900Y279400D03*
X88900Y304800D03*
X88900Y330200D03*
D19*
X482600Y749300D03*
D20*
X431800Y749300D03*
D21*
X323850Y546100D02*
X304800Y527050D01*
X323850Y546100D02*
X330200Y546100D01*
D22*
X330200Y546100D03*
X368300Y584200D03*
D21*
X304800Y527050D02*
X298450Y520700D01*
X254000Y520700D01*
X254000Y266700D01*
X355600Y165100D01*
X762000Y520700D02*
X685800Y596900D01*
X685800Y685800D01*
X482600Y698500D02*
X482600Y749300D01*
X482600Y698500D02*
X368300Y584200D01*
X482600Y749300D02*
X622300Y749300D01*
X685800Y685800D01*
X292100Y508000D02*
X292100Y292100D01*
X304800Y279400D01*
X571500Y279400D02*
X635000Y342900D01*
X571500Y279400D02*
X304800Y279400D01*
X381000Y533400D02*
X254000Y660400D01*
X381000Y533400D02*
X381000Y374650D01*
X736600Y596900D02*
X762000Y622300D01*
X736600Y596900D02*
X723900Y596900D01*
D22*
X723900Y596900D03*
X596900Y546100D03*
D21*
X425450Y374650D01*
X381000Y374650D01*
X762000Y749300D02*
X723900Y787400D01*
X762000Y749300D02*
X762000Y698500D01*
X495300Y355600D02*
X393700Y355600D01*
X495300Y355600D02*
X508000Y342900D01*
D22*
X508000Y342900D03*
X787400Y203200D03*
D21*
X800100Y215900D01*
X800100Y673100D01*
X774700Y698500D02*
X762000Y698500D01*
X774700Y698500D02*
X800100Y673100D01*
D22*
X127000Y241300D03*
D21*
X88900Y203200D01*
X317500Y508000D02*
X355600Y508000D01*
D22*
X355600Y508000D03*
X406400Y508000D03*
D21*
X425450Y527050D01*
X457200Y527050D01*
X152400Y660400D02*
X139700Y660400D01*
X152400Y660400D02*
X266700Y546100D01*
D22*
X266700Y546100D03*
X304800Y444500D03*
D21*
X317500Y457200D01*
X317500Y508000D01*
X254000Y762000D02*
X139700Y762000D01*
X368300Y355600D02*
X393700Y330200D01*
X546100Y330200D01*
X635000Y419100D01*
X635000Y444500D01*
X469900Y482600D02*
X444500Y508000D01*
X469900Y482600D02*
X482600Y482600D01*
X609600Y609600D01*
X609600Y673100D01*
X635000Y698500D01*
X177800Y330200D02*
X152400Y304800D01*
X152400Y203200D01*
X279400Y76200D01*
X685800Y76200D02*
X723900Y114300D01*
X685800Y76200D02*
X279400Y76200D01*
X88900Y304800D02*
X114300Y330200D01*
X177800Y330200D01*
X177800Y355600D02*
X177800Y381000D01*
X88900Y419100D02*
X88900Y444500D01*
X647700Y812800D02*
X673100Y787400D01*
X647700Y812800D02*
X114300Y812800D01*
X38100Y736600D01*
X38100Y495300D02*
X88900Y444500D01*
X38100Y495300D02*
X38100Y736600D01*
X88900Y419100D02*
X139700Y419100D01*
X177800Y381000D01*
X381000Y139700D02*
X381000Y114300D01*
X381000Y139700D02*
X406400Y165100D01*
X381000Y114300D02*
X355600Y88900D01*
X279400Y88900D01*
D22*
X279400Y88900D03*
X241300Y88900D03*
D21*
X76200Y88900D01*
X533400Y165100D02*
X635000Y266700D01*
X533400Y165100D02*
X406400Y165100D01*
X469900Y508000D02*
X495300Y508000D01*
D22*
X495300Y508000D03*
X596900Y279400D03*
D21*
X622300Y279400D01*
X635000Y266700D01*
X76200Y88900D02*
X63500Y101600D01*
X63500Y203200D01*
X88900Y228600D01*
X88900Y254000D01*
X88900Y279400D01*
X63500Y304800D01*
X63500Y393700D02*
X88900Y419100D01*
X63500Y393700D02*
X63500Y304800D01*
X88900Y469900D02*
X88900Y495300D01*
D22*
X330200Y635000D03*
X241300Y546100D03*
D21*
X190500Y495300D01*
X88900Y495300D01*
X330200Y635000D02*
X330200Y647700D01*
X431800Y749300D01*
X635000Y622300D02*
X635000Y520700D01*
X647700Y520700D01*
X723900Y444500D01*
X762000Y444500D01*
X774700Y431800D01*
X774700Y114300D01*
X228600Y304800D02*
X177800Y304800D01*
D22*
X228600Y304800D03*
X546100Y444500D03*
D21*
X622300Y520700D01*
X635000Y520700D01*
M02*
