G04 EAGLE Gerber RS-274X export*
G75*
%MOMM*%
%FSLAX34Y34*%
%LPD*%
%INTop Copper*%
%IPPOS*%
%AMOC8*
5,1,8,0,0,1.08239X$1,22.5*%
G01*
%ADD10C,1.320800*%
%ADD11C,2.540000*%
%ADD12P,2.749271X8X202.500000*%
%ADD13C,1.930400*%
%ADD14C,1.524000*%
%ADD15P,1.429621X8X112.500000*%
%ADD16P,1.429621X8X22.500000*%
%ADD17P,1.429621X8X292.500000*%
%ADD18C,1.524000*%
%ADD19C,0.756400*%
%ADD20C,0.152400*%

G36*
X599245Y10160D02*
X599245Y10160D01*
X599244Y10160D01*
X599245Y10160D01*
X599245Y583440D01*
X599240Y583445D01*
X599240Y583444D01*
X599240Y583445D01*
X10160Y583445D01*
X10155Y583440D01*
X10155Y10160D01*
X10160Y10155D01*
X10160Y10156D01*
X10160Y10155D01*
X599240Y10155D01*
X599245Y10160D01*
G37*
%LPC*%
G36*
X55280Y156977D02*
X55280Y156977D01*
X52295Y158213D01*
X50009Y160499D01*
X48773Y163484D01*
X48773Y166716D01*
X50009Y169701D01*
X52295Y171987D01*
X55280Y173223D01*
X61214Y173223D01*
X61219Y173228D01*
X61218Y173228D01*
X61219Y173228D01*
X61219Y182372D01*
X61214Y182377D01*
X61214Y182376D01*
X61214Y182377D01*
X55280Y182377D01*
X52295Y183613D01*
X50009Y185899D01*
X48773Y188884D01*
X48773Y192116D01*
X50009Y195101D01*
X52295Y197387D01*
X53060Y197704D01*
X53061Y197704D01*
X53062Y197704D01*
X53062Y197706D01*
X53063Y197710D01*
X53062Y197710D01*
X53062Y197712D01*
X35819Y214955D01*
X35819Y331145D01*
X37155Y332481D01*
X46929Y332481D01*
X46932Y332484D01*
X46934Y332484D01*
X48132Y335377D01*
X50703Y337948D01*
X51985Y338479D01*
X51986Y338480D01*
X51987Y338482D01*
X51988Y338485D01*
X51987Y338486D01*
X51987Y338487D01*
X23119Y367355D01*
X23119Y445445D01*
X126055Y548381D01*
X410149Y548381D01*
X410152Y548384D01*
X410154Y548384D01*
X411352Y551277D01*
X413923Y553848D01*
X417282Y555239D01*
X420918Y555239D01*
X424277Y553848D01*
X426848Y551277D01*
X428239Y547918D01*
X428239Y544282D01*
X426848Y540923D01*
X424277Y538352D01*
X420918Y536961D01*
X417282Y536961D01*
X413923Y538352D01*
X411352Y540923D01*
X410154Y543816D01*
X410151Y543817D01*
X410149Y543819D01*
X127947Y543819D01*
X127945Y543817D01*
X127943Y543817D01*
X27683Y443557D01*
X27682Y443554D01*
X27681Y443553D01*
X27681Y369247D01*
X27683Y369245D01*
X27683Y369243D01*
X57585Y339341D01*
X57588Y339340D01*
X57589Y339339D01*
X72938Y339339D01*
X76297Y337948D01*
X78868Y335377D01*
X80066Y332484D01*
X80069Y332483D01*
X80071Y332481D01*
X89845Y332481D01*
X180081Y242245D01*
X180081Y214955D01*
X178743Y213617D01*
X163913Y198787D01*
X163913Y198786D01*
X163912Y198786D01*
X163913Y198785D01*
X163912Y198784D01*
X163913Y198783D01*
X163913Y198780D01*
X163914Y198780D01*
X163915Y198779D01*
X165197Y198248D01*
X167768Y195677D01*
X169159Y192318D01*
X169159Y188682D01*
X167768Y185323D01*
X165197Y182752D01*
X161838Y181361D01*
X142962Y181361D01*
X139603Y182752D01*
X137032Y185323D01*
X135641Y188682D01*
X135641Y192318D01*
X137032Y195677D01*
X139603Y198248D01*
X142962Y199639D01*
X150114Y199639D01*
X150119Y199644D01*
X150118Y199644D01*
X150119Y199644D01*
X150119Y206756D01*
X150114Y206761D01*
X150114Y206760D01*
X150114Y206761D01*
X142962Y206761D01*
X139603Y208152D01*
X137032Y210723D01*
X135641Y214082D01*
X135641Y217718D01*
X137032Y221077D01*
X139603Y223648D01*
X142962Y225039D01*
X161838Y225039D01*
X165197Y223648D01*
X167768Y221077D01*
X169159Y217718D01*
X169159Y214082D01*
X167768Y210723D01*
X165197Y208152D01*
X161838Y206761D01*
X154686Y206761D01*
X154681Y206756D01*
X154682Y206756D01*
X154681Y206756D01*
X154681Y199644D01*
X154686Y199639D01*
X154686Y199640D01*
X154686Y199639D01*
X158311Y199639D01*
X158313Y199641D01*
X158315Y199641D01*
X175517Y216843D01*
X175518Y216846D01*
X175519Y216847D01*
X175519Y240353D01*
X175517Y240355D01*
X175517Y240357D01*
X87957Y327917D01*
X87954Y327918D01*
X87953Y327919D01*
X80071Y327919D01*
X80068Y327916D01*
X80066Y327916D01*
X78868Y325023D01*
X76297Y322452D01*
X72938Y321061D01*
X65786Y321061D01*
X65781Y321056D01*
X65782Y321056D01*
X65781Y321056D01*
X65781Y313944D01*
X65786Y313939D01*
X65786Y313940D01*
X65786Y313939D01*
X72938Y313939D01*
X76297Y312548D01*
X78868Y309977D01*
X80259Y306618D01*
X80259Y302982D01*
X78868Y299623D01*
X76297Y297052D01*
X72938Y295661D01*
X54062Y295661D01*
X50703Y297052D01*
X48132Y299623D01*
X46741Y302982D01*
X46741Y306618D01*
X48132Y309977D01*
X50703Y312548D01*
X54062Y313939D01*
X61214Y313939D01*
X61219Y313944D01*
X61219Y321056D01*
X61214Y321061D01*
X61214Y321060D01*
X61214Y321061D01*
X54062Y321061D01*
X50703Y322452D01*
X48132Y325023D01*
X46934Y327916D01*
X46931Y327917D01*
X46929Y327919D01*
X40386Y327919D01*
X40381Y327914D01*
X40382Y327914D01*
X40381Y327914D01*
X40381Y216847D01*
X40383Y216845D01*
X40383Y216843D01*
X58601Y198625D01*
X58604Y198624D01*
X58605Y198623D01*
X61214Y198623D01*
X61219Y198628D01*
X61218Y198628D01*
X61219Y198628D01*
X61219Y207772D01*
X61214Y207777D01*
X61214Y207776D01*
X61214Y207777D01*
X55280Y207777D01*
X52295Y209013D01*
X50009Y211299D01*
X48773Y214284D01*
X48773Y217516D01*
X50009Y220501D01*
X52295Y222787D01*
X55280Y224023D01*
X71720Y224023D01*
X74705Y222787D01*
X76991Y220501D01*
X78227Y217516D01*
X78227Y214284D01*
X76991Y211299D01*
X74705Y209013D01*
X71720Y207777D01*
X65786Y207777D01*
X65781Y207772D01*
X65782Y207772D01*
X65781Y207772D01*
X65781Y198628D01*
X65786Y198623D01*
X65786Y198624D01*
X65786Y198623D01*
X71720Y198623D01*
X74705Y197387D01*
X76991Y195101D01*
X78227Y192116D01*
X78227Y188884D01*
X76991Y185899D01*
X74705Y183613D01*
X71720Y182377D01*
X65786Y182377D01*
X65781Y182372D01*
X65782Y182372D01*
X65781Y182372D01*
X65781Y173228D01*
X65786Y173223D01*
X65786Y173224D01*
X65786Y173223D01*
X71720Y173223D01*
X74705Y171987D01*
X76991Y169701D01*
X78227Y166716D01*
X78227Y163484D01*
X76991Y160499D01*
X74705Y158213D01*
X71720Y156977D01*
X55280Y156977D01*
G37*
%LPD*%
%LPC*%
G36*
X142962Y130561D02*
X142962Y130561D01*
X139603Y131952D01*
X137032Y134523D01*
X135641Y137882D01*
X135641Y141518D01*
X137032Y144877D01*
X139603Y147448D01*
X142962Y148839D01*
X158311Y148839D01*
X158313Y148841D01*
X158315Y148841D01*
X305829Y296355D01*
X305829Y296362D01*
X305446Y296746D01*
X303281Y301972D01*
X303281Y307628D01*
X305446Y312854D01*
X309446Y316854D01*
X314672Y319019D01*
X320328Y319019D01*
X325554Y316854D01*
X329554Y312854D01*
X331719Y307628D01*
X331719Y307086D01*
X331724Y307081D01*
X331724Y307082D01*
X331724Y307081D01*
X354653Y307081D01*
X354655Y307083D01*
X354657Y307083D01*
X424439Y376866D01*
X424440Y376867D01*
X424441Y376868D01*
X424440Y376869D01*
X424440Y376872D01*
X424439Y376872D01*
X424439Y376873D01*
X423677Y377635D01*
X423677Y384365D01*
X428435Y389123D01*
X435165Y389123D01*
X435398Y388890D01*
X435405Y388889D01*
X435405Y388890D01*
X435406Y388890D01*
X488456Y452550D01*
X488456Y452551D01*
X488456Y452552D01*
X488456Y452553D01*
X488455Y452557D01*
X487177Y453835D01*
X487177Y460565D01*
X491935Y465323D01*
X498665Y465323D01*
X503423Y460565D01*
X503423Y453835D01*
X498665Y449077D01*
X491935Y449077D01*
X491702Y449310D01*
X491695Y449311D01*
X491695Y449310D01*
X491694Y449310D01*
X438644Y385650D01*
X438645Y385643D01*
X439923Y384365D01*
X439923Y377635D01*
X439161Y376873D01*
X439160Y376870D01*
X439159Y376869D01*
X439160Y376868D01*
X439160Y376866D01*
X439161Y376866D01*
X483543Y332483D01*
X483546Y332482D01*
X483547Y332481D01*
X487172Y332481D01*
X487177Y332486D01*
X487176Y332486D01*
X487177Y332486D01*
X487177Y333565D01*
X491935Y338323D01*
X498665Y338323D01*
X503423Y333565D01*
X503423Y326835D01*
X498665Y322077D01*
X491935Y322077D01*
X487177Y326835D01*
X487177Y327914D01*
X487172Y327919D01*
X487172Y327918D01*
X487172Y327919D01*
X481655Y327919D01*
X435934Y373639D01*
X435928Y373640D01*
X435928Y373639D01*
X435927Y373639D01*
X435165Y372877D01*
X428435Y372877D01*
X427673Y373639D01*
X427666Y373640D01*
X427666Y373639D01*
X356545Y302519D01*
X331724Y302519D01*
X331719Y302514D01*
X331720Y302514D01*
X331719Y302514D01*
X331719Y301972D01*
X329554Y296746D01*
X325554Y292746D01*
X320328Y290581D01*
X314672Y290581D01*
X309446Y292746D01*
X309062Y293129D01*
X309055Y293129D01*
X163913Y147987D01*
X163913Y147986D01*
X163912Y147986D01*
X163913Y147985D01*
X163912Y147984D01*
X163913Y147983D01*
X163913Y147980D01*
X163914Y147980D01*
X163915Y147979D01*
X165197Y147448D01*
X167768Y144877D01*
X169159Y141518D01*
X169159Y137882D01*
X167768Y134523D01*
X165197Y131952D01*
X161838Y130561D01*
X142962Y130561D01*
G37*
%LPD*%
%LPC*%
G36*
X188304Y274099D02*
X188304Y274099D01*
X185199Y277204D01*
X185199Y281596D01*
X188217Y284614D01*
X188218Y284617D01*
X188219Y284618D01*
X188219Y328676D01*
X188214Y328681D01*
X188214Y328680D01*
X188214Y328681D01*
X187672Y328681D01*
X182446Y330846D01*
X178446Y334846D01*
X176281Y340072D01*
X176281Y345728D01*
X178446Y350954D01*
X182446Y354954D01*
X187672Y357119D01*
X188214Y357119D01*
X188219Y357124D01*
X188218Y357124D01*
X188219Y357124D01*
X188219Y405581D01*
X188217Y405582D01*
X188217Y405584D01*
X141229Y452573D01*
X141229Y458793D01*
X141227Y458795D01*
X141227Y458797D01*
X137484Y462539D01*
X137482Y462540D01*
X137480Y462540D01*
X137478Y462540D01*
X137478Y462539D01*
X137477Y462539D01*
X136715Y461777D01*
X129985Y461777D01*
X125227Y466535D01*
X125227Y473265D01*
X129985Y478023D01*
X136715Y478023D01*
X141473Y473265D01*
X141473Y466535D01*
X140711Y465773D01*
X140710Y465771D01*
X140710Y465770D01*
X140710Y465766D01*
X140711Y465766D01*
X144453Y462023D01*
X145091Y461386D01*
X145097Y461385D01*
X145097Y461386D01*
X145098Y461386D01*
X149035Y465323D01*
X155765Y465323D01*
X160523Y460565D01*
X160523Y453835D01*
X159761Y453073D01*
X159760Y453071D01*
X159760Y453070D01*
X159760Y453069D01*
X159760Y453066D01*
X159761Y453066D01*
X242243Y370583D01*
X242246Y370582D01*
X242247Y370581D01*
X375782Y370581D01*
X375784Y370583D01*
X375786Y370583D01*
X378804Y373601D01*
X383196Y373601D01*
X386301Y370496D01*
X386301Y366104D01*
X383196Y362999D01*
X378804Y362999D01*
X375786Y366017D01*
X375783Y366018D01*
X375782Y366019D01*
X240355Y366019D01*
X156534Y449839D01*
X156532Y449840D01*
X156530Y449840D01*
X156528Y449840D01*
X156528Y449839D01*
X156527Y449839D01*
X155765Y449077D01*
X151189Y449077D01*
X151188Y449076D01*
X151186Y449076D01*
X151186Y449074D01*
X151184Y449072D01*
X151186Y449071D01*
X151185Y449068D01*
X192781Y407473D01*
X192781Y357124D01*
X192786Y357119D01*
X192786Y357120D01*
X192786Y357119D01*
X193328Y357119D01*
X198554Y354954D01*
X202554Y350954D01*
X204719Y345728D01*
X204719Y340072D01*
X202554Y334846D01*
X198554Y330846D01*
X193328Y328681D01*
X192786Y328681D01*
X192781Y328676D01*
X192782Y328676D01*
X192781Y328676D01*
X192781Y284618D01*
X192783Y284616D01*
X192783Y284614D01*
X195801Y281596D01*
X195801Y277204D01*
X192696Y274099D01*
X188304Y274099D01*
G37*
%LPD*%
%LPC*%
G36*
X543878Y204729D02*
X543878Y204729D01*
X539772Y206429D01*
X536629Y209572D01*
X534929Y213678D01*
X534929Y218122D01*
X536629Y222228D01*
X539772Y225371D01*
X543816Y227045D01*
X543817Y227049D01*
X543819Y227050D01*
X543819Y242245D01*
X556517Y254943D01*
X556518Y254946D01*
X556519Y254947D01*
X556519Y372872D01*
X556514Y372877D01*
X556514Y372876D01*
X556514Y372877D01*
X555435Y372877D01*
X550677Y377635D01*
X550677Y384365D01*
X551439Y385127D01*
X551440Y385131D01*
X551440Y385134D01*
X551439Y385134D01*
X531119Y405455D01*
X531119Y468953D01*
X531117Y468955D01*
X531117Y468957D01*
X513407Y486667D01*
X513404Y486668D01*
X513403Y486669D01*
X325628Y486669D01*
X325623Y486664D01*
X325624Y486664D01*
X325623Y486664D01*
X325623Y485585D01*
X320865Y480827D01*
X314135Y480827D01*
X309377Y485585D01*
X309377Y492315D01*
X314135Y497073D01*
X320865Y497073D01*
X325623Y492315D01*
X325623Y491236D01*
X325628Y491231D01*
X325628Y491232D01*
X325628Y491231D01*
X515295Y491231D01*
X535681Y470845D01*
X535681Y407347D01*
X535683Y407345D01*
X535683Y407343D01*
X554666Y388361D01*
X554672Y388360D01*
X554672Y388361D01*
X554673Y388361D01*
X555435Y389123D01*
X562165Y389123D01*
X566923Y384365D01*
X566923Y377635D01*
X562165Y372877D01*
X561086Y372877D01*
X561081Y372872D01*
X561082Y372872D01*
X561081Y372872D01*
X561081Y253055D01*
X559743Y251717D01*
X548383Y240357D01*
X548382Y240354D01*
X548381Y240353D01*
X548381Y227050D01*
X548384Y227047D01*
X548384Y227045D01*
X552428Y225371D01*
X555571Y222228D01*
X557271Y218122D01*
X557271Y213678D01*
X555571Y209572D01*
X552428Y206429D01*
X548322Y204729D01*
X543878Y204729D01*
G37*
%LPD*%
%LPC*%
G36*
X315682Y135641D02*
X315682Y135641D01*
X312323Y137032D01*
X309752Y139603D01*
X308361Y142962D01*
X308361Y161838D01*
X309752Y165197D01*
X312323Y167768D01*
X315216Y168966D01*
X315217Y168969D01*
X315219Y168971D01*
X315219Y214953D01*
X315217Y214955D01*
X315217Y214957D01*
X294177Y235997D01*
X294174Y235998D01*
X294173Y235999D01*
X289904Y235999D01*
X286799Y239104D01*
X286799Y243496D01*
X289904Y246601D01*
X294296Y246601D01*
X297401Y243496D01*
X297401Y239227D01*
X297403Y239225D01*
X297403Y239223D01*
X317496Y219130D01*
X317503Y219129D01*
X317503Y219130D01*
X317504Y219130D01*
X341955Y243581D01*
X518414Y243581D01*
X518419Y243586D01*
X518418Y243586D01*
X518419Y243586D01*
X518419Y354653D01*
X518417Y354655D01*
X518417Y354657D01*
X499434Y373639D01*
X499428Y373640D01*
X499428Y373639D01*
X499427Y373639D01*
X498665Y372877D01*
X491935Y372877D01*
X487177Y377635D01*
X487177Y384365D01*
X491935Y389123D01*
X498665Y389123D01*
X503423Y384365D01*
X503423Y377635D01*
X502661Y376873D01*
X502660Y376870D01*
X502659Y376869D01*
X502660Y376868D01*
X502660Y376866D01*
X502661Y376866D01*
X521643Y357883D01*
X522981Y356545D01*
X522981Y240355D01*
X521645Y239019D01*
X343847Y239019D01*
X343845Y239017D01*
X343843Y239017D01*
X319783Y214957D01*
X319782Y214954D01*
X319781Y214953D01*
X319781Y168971D01*
X319784Y168968D01*
X319784Y168966D01*
X322677Y167768D01*
X325248Y165197D01*
X326639Y161838D01*
X326639Y142962D01*
X325248Y139603D01*
X322677Y137032D01*
X319318Y135641D01*
X315682Y135641D01*
G37*
%LPD*%
%LPC*%
G36*
X55280Y131577D02*
X55280Y131577D01*
X52295Y132813D01*
X50009Y135099D01*
X48773Y138084D01*
X48773Y141316D01*
X50009Y144301D01*
X52295Y146587D01*
X55280Y147823D01*
X68395Y147823D01*
X68397Y147825D01*
X68399Y147825D01*
X87955Y167381D01*
X135829Y167381D01*
X135832Y167384D01*
X135834Y167384D01*
X137032Y170277D01*
X139603Y172848D01*
X142962Y174239D01*
X158311Y174239D01*
X158313Y174241D01*
X158315Y174241D01*
X264417Y280343D01*
X264417Y280345D01*
X264418Y280345D01*
X264417Y280345D01*
X264418Y280346D01*
X264419Y280347D01*
X264419Y290576D01*
X264414Y290581D01*
X264414Y290580D01*
X264414Y290581D01*
X260810Y290581D01*
X252481Y298910D01*
X252481Y310690D01*
X260810Y319019D01*
X272590Y319019D01*
X280919Y310690D01*
X280919Y298910D01*
X272590Y290581D01*
X268986Y290581D01*
X268981Y290576D01*
X268982Y290576D01*
X268981Y290576D01*
X268981Y278455D01*
X267643Y277117D01*
X163913Y173387D01*
X163913Y173386D01*
X163912Y173386D01*
X163913Y173385D01*
X163912Y173384D01*
X163913Y173383D01*
X163913Y173380D01*
X163914Y173380D01*
X163915Y173379D01*
X165197Y172848D01*
X167768Y170277D01*
X169159Y166918D01*
X169159Y163282D01*
X167768Y159923D01*
X165197Y157352D01*
X161838Y155961D01*
X142962Y155961D01*
X139603Y157352D01*
X137032Y159923D01*
X135834Y162816D01*
X135831Y162817D01*
X135829Y162819D01*
X89847Y162819D01*
X89845Y162817D01*
X89843Y162817D01*
X73938Y146912D01*
X73938Y146911D01*
X73937Y146911D01*
X73938Y146909D01*
X73938Y146905D01*
X73939Y146905D01*
X73940Y146904D01*
X74705Y146587D01*
X76991Y144301D01*
X78227Y141316D01*
X78227Y138084D01*
X76991Y135099D01*
X74705Y132813D01*
X71720Y131577D01*
X55280Y131577D01*
G37*
%LPD*%
%LPC*%
G36*
X133810Y328681D02*
X133810Y328681D01*
X125481Y337010D01*
X125481Y340614D01*
X125476Y340619D01*
X125476Y340618D01*
X125476Y340619D01*
X100655Y340619D01*
X69415Y371859D01*
X69412Y371860D01*
X69411Y371860D01*
X69411Y371861D01*
X65786Y371861D01*
X65781Y371856D01*
X65781Y364744D01*
X65786Y364739D01*
X65786Y364740D01*
X65786Y364739D01*
X72938Y364739D01*
X76297Y363348D01*
X78868Y360777D01*
X80259Y357418D01*
X80259Y353782D01*
X78868Y350423D01*
X76297Y347852D01*
X72938Y346461D01*
X54062Y346461D01*
X50703Y347852D01*
X48132Y350423D01*
X46741Y353782D01*
X46741Y357418D01*
X48132Y360777D01*
X50703Y363348D01*
X54062Y364739D01*
X61214Y364739D01*
X61219Y364744D01*
X61218Y364744D01*
X61219Y364744D01*
X61219Y371856D01*
X61214Y371861D01*
X61214Y371860D01*
X61214Y371861D01*
X54062Y371861D01*
X50703Y373252D01*
X48132Y375823D01*
X46741Y379182D01*
X46741Y382818D01*
X48132Y386177D01*
X50703Y388748D01*
X54062Y390139D01*
X72938Y390139D01*
X76297Y388748D01*
X78868Y386177D01*
X80259Y382818D01*
X80259Y379182D01*
X78868Y375823D01*
X76297Y373252D01*
X75015Y372721D01*
X75014Y372720D01*
X75013Y372718D01*
X75012Y372715D01*
X75013Y372714D01*
X75013Y372713D01*
X102543Y345183D01*
X102546Y345182D01*
X102547Y345181D01*
X125476Y345181D01*
X125481Y345186D01*
X125480Y345186D01*
X125481Y345186D01*
X125481Y348790D01*
X133810Y357119D01*
X145590Y357119D01*
X153919Y348790D01*
X153919Y337010D01*
X145590Y328681D01*
X133810Y328681D01*
G37*
%LPD*%
%LPC*%
G36*
X353404Y375699D02*
X353404Y375699D01*
X350386Y378717D01*
X350383Y378718D01*
X350382Y378719D01*
X278455Y378719D01*
X219969Y437205D01*
X219969Y461772D01*
X219964Y461777D01*
X219964Y461776D01*
X219964Y461777D01*
X218885Y461777D01*
X214127Y466535D01*
X214127Y473265D01*
X214889Y474027D01*
X214890Y474034D01*
X214889Y474034D01*
X208607Y480317D01*
X208604Y480318D01*
X208603Y480319D01*
X160528Y480319D01*
X160523Y480314D01*
X160524Y480314D01*
X160523Y480314D01*
X160523Y479235D01*
X155765Y474477D01*
X149035Y474477D01*
X144277Y479235D01*
X144277Y485965D01*
X149035Y490723D01*
X155765Y490723D01*
X160523Y485965D01*
X160523Y484886D01*
X160528Y484881D01*
X160528Y484882D01*
X160528Y484881D01*
X210495Y484881D01*
X218116Y477261D01*
X218122Y477260D01*
X218122Y477261D01*
X218123Y477261D01*
X218885Y478023D01*
X225615Y478023D01*
X230373Y473265D01*
X230373Y466535D01*
X225615Y461777D01*
X224536Y461777D01*
X224531Y461772D01*
X224532Y461772D01*
X224531Y461772D01*
X224531Y439097D01*
X224533Y439095D01*
X224533Y439093D01*
X280343Y383283D01*
X280346Y383282D01*
X280347Y383281D01*
X350382Y383281D01*
X350384Y383283D01*
X350386Y383283D01*
X353404Y386301D01*
X357796Y386301D01*
X360901Y383196D01*
X360901Y378804D01*
X357796Y375699D01*
X353404Y375699D01*
G37*
%LPD*%
%LPC*%
G36*
X333462Y92461D02*
X333462Y92461D01*
X330103Y93852D01*
X327532Y96423D01*
X326141Y99782D01*
X326141Y103418D01*
X327532Y106777D01*
X330103Y109348D01*
X333462Y110739D01*
X340614Y110739D01*
X340619Y110744D01*
X340618Y110744D01*
X340619Y110744D01*
X340619Y127945D01*
X359159Y146485D01*
X359159Y146487D01*
X359160Y146487D01*
X359159Y146487D01*
X359160Y146488D01*
X359161Y146489D01*
X359161Y161838D01*
X360552Y165197D01*
X363123Y167768D01*
X366482Y169159D01*
X370118Y169159D01*
X373477Y167768D01*
X376048Y165197D01*
X377439Y161838D01*
X377439Y142962D01*
X376048Y139603D01*
X373477Y137032D01*
X370118Y135641D01*
X366482Y135641D01*
X363123Y137032D01*
X360552Y139603D01*
X360021Y140885D01*
X360020Y140886D01*
X360018Y140887D01*
X360017Y140887D01*
X360017Y140888D01*
X360016Y140888D01*
X360015Y140888D01*
X360014Y140887D01*
X360013Y140887D01*
X345183Y126057D01*
X345182Y126054D01*
X345181Y126053D01*
X345181Y110744D01*
X345186Y110739D01*
X345186Y110740D01*
X345186Y110739D01*
X352338Y110739D01*
X355697Y109348D01*
X358268Y106777D01*
X359659Y103418D01*
X359659Y99782D01*
X358268Y96423D01*
X355697Y93852D01*
X352338Y92461D01*
X333462Y92461D01*
G37*
%LPD*%
%LPC*%
G36*
X480378Y103129D02*
X480378Y103129D01*
X476272Y104829D01*
X473129Y107972D01*
X471429Y112078D01*
X471429Y116522D01*
X473129Y120628D01*
X476272Y123771D01*
X480378Y125471D01*
X484822Y125471D01*
X488928Y123771D01*
X492071Y120628D01*
X493745Y116584D01*
X493749Y116583D01*
X493750Y116581D01*
X534950Y116581D01*
X534953Y116584D01*
X534955Y116584D01*
X536629Y120628D01*
X539772Y123771D01*
X543878Y125471D01*
X548322Y125471D01*
X552428Y123771D01*
X555571Y120628D01*
X557271Y116522D01*
X557271Y112078D01*
X555571Y107972D01*
X552428Y104829D01*
X548322Y103129D01*
X543878Y103129D01*
X539772Y104829D01*
X536629Y107972D01*
X534955Y112016D01*
X534951Y112017D01*
X534950Y112019D01*
X493750Y112019D01*
X493747Y112016D01*
X493745Y112016D01*
X492071Y107972D01*
X488928Y104829D01*
X484822Y103129D01*
X480378Y103129D01*
G37*
%LPD*%
%LPC*%
G36*
X555435Y449077D02*
X555435Y449077D01*
X550677Y453835D01*
X550677Y460565D01*
X551439Y461327D01*
X551440Y461334D01*
X551439Y461334D01*
X474616Y538158D01*
X474612Y538158D01*
X474611Y538159D01*
X471718Y536961D01*
X468082Y536961D01*
X464723Y538352D01*
X462152Y540923D01*
X460761Y544282D01*
X460761Y547918D01*
X462152Y551277D01*
X464723Y553848D01*
X468082Y555239D01*
X471718Y555239D01*
X475077Y553848D01*
X477648Y551277D01*
X479039Y547918D01*
X479039Y544282D01*
X477841Y541389D01*
X477842Y541386D01*
X477842Y541384D01*
X554666Y464561D01*
X554672Y464560D01*
X554672Y464561D01*
X554673Y464561D01*
X555435Y465323D01*
X562165Y465323D01*
X566923Y460565D01*
X566923Y453835D01*
X562165Y449077D01*
X555435Y449077D01*
G37*
%LPD*%
%LPC*%
G36*
X391504Y375699D02*
X391504Y375699D01*
X388399Y378804D01*
X388399Y383073D01*
X388397Y383075D01*
X388397Y383077D01*
X308934Y462539D01*
X308932Y462540D01*
X308930Y462540D01*
X308928Y462540D01*
X308928Y462539D01*
X308927Y462539D01*
X308165Y461777D01*
X301435Y461777D01*
X296677Y466535D01*
X296677Y473265D01*
X301435Y478023D01*
X308165Y478023D01*
X312923Y473265D01*
X312923Y466535D01*
X312161Y465773D01*
X312160Y465771D01*
X312160Y465770D01*
X312160Y465766D01*
X312161Y465766D01*
X391623Y386303D01*
X391626Y386302D01*
X391627Y386301D01*
X395896Y386301D01*
X399001Y383196D01*
X399001Y378804D01*
X395896Y375699D01*
X391504Y375699D01*
G37*
%LPD*%
%LPC*%
G36*
X480378Y204729D02*
X480378Y204729D01*
X476272Y206429D01*
X473129Y209572D01*
X471455Y213616D01*
X471451Y213617D01*
X471450Y213619D01*
X418155Y213619D01*
X408477Y223297D01*
X408474Y223298D01*
X408473Y223299D01*
X404204Y223299D01*
X401099Y226404D01*
X401099Y230796D01*
X404204Y233901D01*
X408596Y233901D01*
X411701Y230796D01*
X411701Y226527D01*
X411703Y226525D01*
X411703Y226523D01*
X420043Y218183D01*
X420046Y218182D01*
X420047Y218181D01*
X471450Y218181D01*
X471453Y218184D01*
X471455Y218184D01*
X473129Y222228D01*
X476272Y225371D01*
X480378Y227071D01*
X484822Y227071D01*
X488928Y225371D01*
X492071Y222228D01*
X493771Y218122D01*
X493771Y213678D01*
X492071Y209572D01*
X488928Y206429D01*
X484822Y204729D01*
X480378Y204729D01*
G37*
%LPD*%
%LPC*%
G36*
X391504Y426499D02*
X391504Y426499D01*
X388399Y429604D01*
X388399Y433996D01*
X391504Y437101D01*
X395773Y437101D01*
X395775Y437103D01*
X395777Y437103D01*
X418155Y459481D01*
X423672Y459481D01*
X423677Y459486D01*
X423676Y459486D01*
X423677Y459486D01*
X423677Y460565D01*
X428435Y465323D01*
X435165Y465323D01*
X439923Y460565D01*
X439923Y453835D01*
X435165Y449077D01*
X428435Y449077D01*
X423677Y453835D01*
X423677Y454914D01*
X423672Y454919D01*
X423672Y454918D01*
X423672Y454919D01*
X420047Y454919D01*
X420045Y454917D01*
X420043Y454917D01*
X399003Y433877D01*
X399002Y433874D01*
X399001Y433873D01*
X399001Y429604D01*
X395896Y426499D01*
X391504Y426499D01*
G37*
%LPD*%
%LPC*%
G36*
X35732Y26195D02*
X35732Y26195D01*
X31356Y28007D01*
X28007Y31356D01*
X26195Y35732D01*
X26195Y40468D01*
X28007Y44844D01*
X31356Y48193D01*
X35732Y50005D01*
X40468Y50005D01*
X44844Y48193D01*
X48193Y44844D01*
X50005Y40468D01*
X50005Y35732D01*
X48193Y31356D01*
X44844Y28007D01*
X40468Y26195D01*
X35732Y26195D01*
G37*
%LPD*%
%LPC*%
G36*
X569132Y26195D02*
X569132Y26195D01*
X564756Y28007D01*
X561407Y31356D01*
X559595Y35732D01*
X559595Y40468D01*
X561407Y44844D01*
X564756Y48193D01*
X569132Y50005D01*
X573868Y50005D01*
X578244Y48193D01*
X581593Y44844D01*
X583405Y40468D01*
X583405Y35732D01*
X581593Y31356D01*
X578244Y28007D01*
X573868Y26195D01*
X569132Y26195D01*
G37*
%LPD*%
%LPC*%
G36*
X569132Y546895D02*
X569132Y546895D01*
X564756Y548707D01*
X561407Y552056D01*
X559595Y556432D01*
X559595Y561168D01*
X561407Y565544D01*
X564756Y568893D01*
X569132Y570705D01*
X573868Y570705D01*
X578244Y568893D01*
X581593Y565544D01*
X583405Y561168D01*
X583405Y556432D01*
X581593Y552056D01*
X578244Y548707D01*
X573868Y546895D01*
X569132Y546895D01*
G37*
%LPD*%
%LPC*%
G36*
X35732Y546895D02*
X35732Y546895D01*
X31356Y548707D01*
X28007Y552056D01*
X26195Y556432D01*
X26195Y561168D01*
X28007Y565544D01*
X31356Y568893D01*
X35732Y570705D01*
X40468Y570705D01*
X44844Y568893D01*
X48193Y565544D01*
X50005Y561168D01*
X50005Y556432D01*
X48193Y552056D01*
X44844Y548707D01*
X40468Y546895D01*
X35732Y546895D01*
G37*
%LPD*%
%LPC*%
G36*
X55280Y233177D02*
X55280Y233177D01*
X52295Y234413D01*
X50009Y236699D01*
X48773Y239684D01*
X48773Y242916D01*
X50009Y245901D01*
X52295Y248187D01*
X55280Y249423D01*
X71720Y249423D01*
X74705Y248187D01*
X76991Y245901D01*
X78227Y242916D01*
X78227Y239684D01*
X76991Y236699D01*
X74705Y234413D01*
X71720Y233177D01*
X55280Y233177D01*
G37*
%LPD*%
%LPC*%
G36*
X264504Y426499D02*
X264504Y426499D01*
X261399Y429604D01*
X261399Y433873D01*
X261397Y433875D01*
X261397Y433877D01*
X245434Y449839D01*
X245432Y449840D01*
X245430Y449840D01*
X245428Y449840D01*
X245428Y449839D01*
X245427Y449839D01*
X244665Y449077D01*
X237935Y449077D01*
X233177Y453835D01*
X233177Y460565D01*
X237935Y465323D01*
X244665Y465323D01*
X249423Y460565D01*
X249423Y453835D01*
X248661Y453073D01*
X248660Y453071D01*
X248660Y453070D01*
X248660Y453069D01*
X248660Y453066D01*
X248661Y453066D01*
X264623Y437103D01*
X264626Y437102D01*
X264627Y437101D01*
X268896Y437101D01*
X272001Y433996D01*
X272001Y429604D01*
X268896Y426499D01*
X264504Y426499D01*
G37*
%LPD*%
%LPC*%
G36*
X491935Y245877D02*
X491935Y245877D01*
X487177Y250635D01*
X487177Y251714D01*
X487172Y251719D01*
X487172Y251718D01*
X487172Y251719D01*
X475118Y251719D01*
X475116Y251717D01*
X475114Y251717D01*
X472096Y248699D01*
X467704Y248699D01*
X464599Y251804D01*
X464599Y256196D01*
X467704Y259301D01*
X472096Y259301D01*
X475114Y256283D01*
X475117Y256283D01*
X475117Y256282D01*
X475118Y256281D01*
X487172Y256281D01*
X487177Y256286D01*
X487176Y256286D01*
X487177Y256286D01*
X487177Y257365D01*
X491935Y262123D01*
X498665Y262123D01*
X503423Y257365D01*
X503423Y250635D01*
X498665Y245877D01*
X491935Y245877D01*
G37*
%LPD*%
%LPC*%
G36*
X428435Y322077D02*
X428435Y322077D01*
X423677Y326835D01*
X423677Y333565D01*
X424439Y334327D01*
X424440Y334330D01*
X424440Y334331D01*
X424440Y334332D01*
X424440Y334334D01*
X424439Y334334D01*
X421177Y337597D01*
X421174Y337598D01*
X421173Y337599D01*
X416904Y337599D01*
X413799Y340704D01*
X413799Y345096D01*
X416904Y348201D01*
X421296Y348201D01*
X424401Y345096D01*
X424401Y340827D01*
X424403Y340825D01*
X424403Y340823D01*
X427666Y337561D01*
X427672Y337560D01*
X427672Y337561D01*
X427673Y337561D01*
X428435Y338323D01*
X435165Y338323D01*
X439923Y333565D01*
X439923Y326835D01*
X435165Y322077D01*
X428435Y322077D01*
G37*
%LPD*%
%LPC*%
G36*
X442682Y536961D02*
X442682Y536961D01*
X439323Y538352D01*
X436752Y540923D01*
X435361Y544282D01*
X435361Y547918D01*
X436752Y551277D01*
X439323Y553848D01*
X442682Y555239D01*
X446318Y555239D01*
X449677Y553848D01*
X452248Y551277D01*
X453639Y547918D01*
X453639Y544282D01*
X452248Y540923D01*
X449677Y538352D01*
X446318Y536961D01*
X442682Y536961D01*
G37*
%LPD*%
%LPC*%
G36*
X428435Y245877D02*
X428435Y245877D01*
X423677Y250635D01*
X423677Y257365D01*
X428435Y262123D01*
X435165Y262123D01*
X439923Y257365D01*
X439923Y250635D01*
X435165Y245877D01*
X428435Y245877D01*
G37*
%LPD*%
%LPC*%
G36*
X326835Y461777D02*
X326835Y461777D01*
X322077Y466535D01*
X322077Y473265D01*
X326835Y478023D01*
X333565Y478023D01*
X338323Y473265D01*
X338323Y466535D01*
X333565Y461777D01*
X326835Y461777D01*
G37*
%LPD*%
%LPC*%
G36*
X237935Y474477D02*
X237935Y474477D01*
X233177Y479235D01*
X233177Y485965D01*
X237935Y490723D01*
X244665Y490723D01*
X249423Y485965D01*
X249423Y479235D01*
X244665Y474477D01*
X237935Y474477D01*
G37*
%LPD*%
D10*
X56896Y241300D02*
X70104Y241300D01*
X70104Y215900D02*
X56896Y215900D01*
X56896Y190500D02*
X70104Y190500D01*
X70104Y165100D02*
X56896Y165100D01*
X56896Y139700D02*
X70104Y139700D01*
D11*
X190500Y342900D03*
D12*
X139700Y342900D03*
D11*
X317500Y304800D03*
D12*
X266700Y304800D03*
D13*
X546100Y215900D03*
X546100Y114300D03*
X482600Y114300D03*
X482600Y215900D03*
D14*
X160020Y139700D02*
X144780Y139700D01*
X144780Y165100D02*
X160020Y165100D01*
X160020Y190500D02*
X144780Y190500D01*
X144780Y215900D02*
X160020Y215900D01*
D15*
X152400Y482600D03*
X133350Y469900D03*
X152400Y457200D03*
D16*
X330200Y469900D03*
X317500Y488950D03*
X304800Y469900D03*
D15*
X241300Y482600D03*
X222250Y469900D03*
X241300Y457200D03*
D17*
X495300Y457200D03*
X495300Y381000D03*
X558800Y457200D03*
X558800Y381000D03*
X431800Y330200D03*
X431800Y254000D03*
D15*
X495300Y254000D03*
X495300Y330200D03*
X431800Y381000D03*
X431800Y457200D03*
D14*
X71120Y304800D02*
X55880Y304800D01*
X55880Y330200D02*
X71120Y330200D01*
X71120Y355600D02*
X55880Y355600D01*
X55880Y381000D02*
X71120Y381000D01*
D18*
X469900Y546100D03*
X444500Y546100D03*
X419100Y546100D03*
D14*
X350520Y101600D02*
X335280Y101600D01*
X368300Y144780D02*
X368300Y160020D01*
X317500Y160020D02*
X317500Y144780D01*
D19*
X190500Y279400D03*
D20*
X190500Y342900D01*
X495300Y381000D02*
X520700Y355600D01*
X520700Y241300D01*
X342900Y241300D01*
X143510Y459740D02*
X133350Y469900D01*
X143510Y459740D02*
X143510Y453518D01*
X190500Y406528D02*
X190500Y342900D01*
X190500Y406528D02*
X143510Y453518D01*
X342900Y241300D02*
X317500Y215900D01*
X317500Y152400D01*
D19*
X190500Y279400D03*
X292100Y241300D03*
D20*
X317500Y215900D01*
X431800Y330200D02*
X419100Y342900D01*
D19*
X419100Y342900D03*
X381000Y368300D03*
D20*
X241300Y368300D01*
X152400Y457200D01*
X546100Y241300D02*
X546100Y215900D01*
X546100Y241300D02*
X558800Y254000D01*
X558800Y381000D01*
X533400Y406400D01*
X533400Y469900D01*
X514350Y488950D01*
X317500Y488950D01*
X469900Y546100D02*
X558800Y457200D01*
X482600Y215900D02*
X419100Y215900D01*
X406400Y228600D01*
D19*
X406400Y228600D03*
X355600Y381000D03*
D20*
X279400Y381000D01*
X222250Y438150D02*
X222250Y469900D01*
X222250Y438150D02*
X279400Y381000D01*
X209550Y482600D02*
X152400Y482600D01*
X209550Y482600D02*
X222250Y469900D01*
X482600Y114300D02*
X546100Y114300D01*
X393700Y381000D02*
X304800Y469900D01*
D19*
X393700Y381000D03*
X469900Y254000D03*
D20*
X495300Y254000D01*
X266700Y431800D02*
X241300Y457200D01*
D19*
X266700Y431800D03*
X393700Y431800D03*
D20*
X419100Y457200D01*
X431800Y457200D01*
X88900Y165100D02*
X63500Y139700D01*
X88900Y165100D02*
X152400Y165100D01*
X266700Y279400D01*
X266700Y304800D01*
X177800Y215900D02*
X152400Y190500D01*
X177800Y215900D02*
X177800Y241300D01*
X88900Y330200D01*
X63500Y330200D01*
X38100Y215900D02*
X63500Y190500D01*
X38100Y215900D02*
X38100Y330200D01*
X63500Y330200D01*
X152400Y215900D02*
X152400Y190500D01*
X63500Y190500D02*
X63500Y215900D01*
X63500Y304800D02*
X63500Y330200D01*
X127000Y546100D02*
X419100Y546100D01*
X127000Y546100D02*
X25400Y444500D01*
X25400Y368300D01*
X63500Y330200D01*
X63500Y190500D02*
X63500Y165100D01*
X101600Y342900D02*
X63500Y381000D01*
X101600Y342900D02*
X139700Y342900D01*
X63500Y355600D02*
X63500Y381000D01*
X431800Y381000D02*
X495300Y457200D01*
X317500Y304800D02*
X152400Y139700D01*
X431800Y381000D02*
X482600Y330200D01*
X495300Y330200D01*
X431800Y381000D02*
X355600Y304800D01*
X317500Y304800D01*
X342900Y127000D02*
X342900Y101600D01*
X342900Y127000D02*
X368300Y152400D01*
M02*
