G04 EAGLE Gerber RS-274X export*
G75*
%MOMM*%
%FSLAX34Y34*%
%LPD*%
%IN*%
%IPPOS*%
%AMOC8*
5,1,8,0,0,1.08239X$1,22.5*%
G01*
%ADD10C,0.254000*%


D10*
X0Y0D02*
X825300Y0D01*
X825300Y847600D01*
X0Y847600D01*
X0Y0D01*
X27150Y825328D02*
X27083Y824990D01*
X26951Y824671D01*
X26759Y824384D01*
X26516Y824141D01*
X26229Y823949D01*
X25910Y823817D01*
X25572Y823750D01*
X25228Y823750D01*
X24890Y823817D01*
X24571Y823949D01*
X24284Y824141D01*
X24041Y824384D01*
X23849Y824671D01*
X23717Y824990D01*
X23650Y825328D01*
X23650Y825672D01*
X23717Y826010D01*
X23849Y826329D01*
X24041Y826616D01*
X24284Y826859D01*
X24571Y827051D01*
X24890Y827183D01*
X25228Y827250D01*
X25572Y827250D01*
X25910Y827183D01*
X26229Y827051D01*
X26516Y826859D01*
X26759Y826616D01*
X26951Y826329D01*
X27083Y826010D01*
X27150Y825672D01*
X27150Y825328D01*
X801850Y825328D02*
X801783Y824990D01*
X801651Y824671D01*
X801459Y824384D01*
X801216Y824141D01*
X800929Y823949D01*
X800610Y823817D01*
X800272Y823750D01*
X799928Y823750D01*
X799590Y823817D01*
X799271Y823949D01*
X798984Y824141D01*
X798741Y824384D01*
X798549Y824671D01*
X798417Y824990D01*
X798350Y825328D01*
X798350Y825672D01*
X798417Y826010D01*
X798549Y826329D01*
X798741Y826616D01*
X798984Y826859D01*
X799271Y827051D01*
X799590Y827183D01*
X799928Y827250D01*
X800272Y827250D01*
X800610Y827183D01*
X800929Y827051D01*
X801216Y826859D01*
X801459Y826616D01*
X801651Y826329D01*
X801783Y826010D01*
X801850Y825672D01*
X801850Y825328D01*
X801850Y25228D02*
X801783Y24890D01*
X801651Y24571D01*
X801459Y24284D01*
X801216Y24041D01*
X800929Y23849D01*
X800610Y23717D01*
X800272Y23650D01*
X799928Y23650D01*
X799590Y23717D01*
X799271Y23849D01*
X798984Y24041D01*
X798741Y24284D01*
X798549Y24571D01*
X798417Y24890D01*
X798350Y25228D01*
X798350Y25572D01*
X798417Y25910D01*
X798549Y26229D01*
X798741Y26516D01*
X798984Y26759D01*
X799271Y26951D01*
X799590Y27083D01*
X799928Y27150D01*
X800272Y27150D01*
X800610Y27083D01*
X800929Y26951D01*
X801216Y26759D01*
X801459Y26516D01*
X801651Y26229D01*
X801783Y25910D01*
X801850Y25572D01*
X801850Y25228D01*
X27150Y25228D02*
X27083Y24890D01*
X26951Y24571D01*
X26759Y24284D01*
X26516Y24041D01*
X26229Y23849D01*
X25910Y23717D01*
X25572Y23650D01*
X25228Y23650D01*
X24890Y23717D01*
X24571Y23849D01*
X24284Y24041D01*
X24041Y24284D01*
X23849Y24571D01*
X23717Y24890D01*
X23650Y25228D01*
X23650Y25572D01*
X23717Y25910D01*
X23849Y26229D01*
X24041Y26516D01*
X24284Y26759D01*
X24571Y26951D01*
X24890Y27083D01*
X25228Y27150D01*
X25572Y27150D01*
X25910Y27083D01*
X26229Y26951D01*
X26516Y26759D01*
X26759Y26516D01*
X26951Y26229D01*
X27083Y25910D01*
X27150Y25572D01*
X27150Y25228D01*
M02*
