G04 EAGLE Gerber RS-274X export*
G75*
%MOMM*%
%FSLAX34Y34*%
%LPD*%
%IN*%
%IPPOS*%
%AMOC8*
5,1,8,0,0,1.08239X$1,22.5*%
G01*
%ADD10C,0.254000*%


D10*
X0Y0D02*
X609400Y0D01*
X609400Y593600D01*
X0Y593600D01*
X0Y0D01*
X39850Y558628D02*
X39783Y558290D01*
X39651Y557971D01*
X39459Y557684D01*
X39216Y557441D01*
X38929Y557249D01*
X38610Y557117D01*
X38272Y557050D01*
X37928Y557050D01*
X37590Y557117D01*
X37271Y557249D01*
X36984Y557441D01*
X36741Y557684D01*
X36549Y557971D01*
X36417Y558290D01*
X36350Y558628D01*
X36350Y558972D01*
X36417Y559310D01*
X36549Y559629D01*
X36741Y559916D01*
X36984Y560159D01*
X37271Y560351D01*
X37590Y560483D01*
X37928Y560550D01*
X38272Y560550D01*
X38610Y560483D01*
X38929Y560351D01*
X39216Y560159D01*
X39459Y559916D01*
X39651Y559629D01*
X39783Y559310D01*
X39850Y558972D01*
X39850Y558628D01*
X573250Y558628D02*
X573183Y558290D01*
X573051Y557971D01*
X572859Y557684D01*
X572616Y557441D01*
X572329Y557249D01*
X572010Y557117D01*
X571672Y557050D01*
X571328Y557050D01*
X570990Y557117D01*
X570671Y557249D01*
X570384Y557441D01*
X570141Y557684D01*
X569949Y557971D01*
X569817Y558290D01*
X569750Y558628D01*
X569750Y558972D01*
X569817Y559310D01*
X569949Y559629D01*
X570141Y559916D01*
X570384Y560159D01*
X570671Y560351D01*
X570990Y560483D01*
X571328Y560550D01*
X571672Y560550D01*
X572010Y560483D01*
X572329Y560351D01*
X572616Y560159D01*
X572859Y559916D01*
X573051Y559629D01*
X573183Y559310D01*
X573250Y558972D01*
X573250Y558628D01*
X573250Y37928D02*
X573183Y37590D01*
X573051Y37271D01*
X572859Y36984D01*
X572616Y36741D01*
X572329Y36549D01*
X572010Y36417D01*
X571672Y36350D01*
X571328Y36350D01*
X570990Y36417D01*
X570671Y36549D01*
X570384Y36741D01*
X570141Y36984D01*
X569949Y37271D01*
X569817Y37590D01*
X569750Y37928D01*
X569750Y38272D01*
X569817Y38610D01*
X569949Y38929D01*
X570141Y39216D01*
X570384Y39459D01*
X570671Y39651D01*
X570990Y39783D01*
X571328Y39850D01*
X571672Y39850D01*
X572010Y39783D01*
X572329Y39651D01*
X572616Y39459D01*
X572859Y39216D01*
X573051Y38929D01*
X573183Y38610D01*
X573250Y38272D01*
X573250Y37928D01*
X39850Y37928D02*
X39783Y37590D01*
X39651Y37271D01*
X39459Y36984D01*
X39216Y36741D01*
X38929Y36549D01*
X38610Y36417D01*
X38272Y36350D01*
X37928Y36350D01*
X37590Y36417D01*
X37271Y36549D01*
X36984Y36741D01*
X36741Y36984D01*
X36549Y37271D01*
X36417Y37590D01*
X36350Y37928D01*
X36350Y38272D01*
X36417Y38610D01*
X36549Y38929D01*
X36741Y39216D01*
X36984Y39459D01*
X37271Y39651D01*
X37590Y39783D01*
X37928Y39850D01*
X38272Y39850D01*
X38610Y39783D01*
X38929Y39651D01*
X39216Y39459D01*
X39459Y39216D01*
X39651Y38929D01*
X39783Y38610D01*
X39850Y38272D01*
X39850Y37928D01*
M02*
