G04 EAGLE Gerber RS-274X export*
G75*
%MOMM*%
%FSLAX34Y34*%
%LPD*%
%INSilkscreen Top*%
%IPPOS*%
%AMOC8*
5,1,8,0,0,1.08239X$1,22.5*%
G01*
%ADD10C,0.152400*%
%ADD11C,0.076200*%
%ADD12C,0.127000*%
%ADD13R,0.635000X2.286000*%
%ADD14R,2.540000X0.508000*%
%ADD15R,0.762000X1.905000*%
%ADD16R,0.508000X0.381000*%
%ADD17C,0.101600*%


D10*
X69681Y69088D02*
X69681Y56444D01*
X69680Y56444D02*
X69678Y56326D01*
X69672Y56208D01*
X69663Y56090D01*
X69649Y55973D01*
X69632Y55856D01*
X69611Y55739D01*
X69586Y55624D01*
X69557Y55509D01*
X69524Y55395D01*
X69488Y55283D01*
X69448Y55172D01*
X69405Y55062D01*
X69358Y54953D01*
X69308Y54846D01*
X69253Y54741D01*
X69196Y54638D01*
X69135Y54537D01*
X69071Y54437D01*
X69004Y54340D01*
X68934Y54245D01*
X68860Y54153D01*
X68784Y54062D01*
X68704Y53975D01*
X68622Y53890D01*
X68537Y53808D01*
X68450Y53728D01*
X68359Y53652D01*
X68267Y53578D01*
X68172Y53508D01*
X68075Y53441D01*
X67975Y53377D01*
X67874Y53316D01*
X67771Y53259D01*
X67666Y53204D01*
X67559Y53154D01*
X67450Y53107D01*
X67340Y53064D01*
X67229Y53024D01*
X67117Y52988D01*
X67003Y52955D01*
X66888Y52926D01*
X66773Y52901D01*
X66656Y52880D01*
X66539Y52863D01*
X66422Y52849D01*
X66304Y52840D01*
X66186Y52834D01*
X66068Y52832D01*
X64262Y52832D01*
X79696Y59154D02*
X83760Y59154D01*
X79696Y59154D02*
X79584Y59152D01*
X79473Y59146D01*
X79362Y59136D01*
X79251Y59123D01*
X79141Y59105D01*
X79032Y59083D01*
X78923Y59058D01*
X78815Y59029D01*
X78709Y58996D01*
X78603Y58959D01*
X78499Y58919D01*
X78397Y58875D01*
X78296Y58827D01*
X78197Y58776D01*
X78099Y58721D01*
X78004Y58663D01*
X77911Y58602D01*
X77820Y58537D01*
X77731Y58469D01*
X77645Y58398D01*
X77562Y58325D01*
X77481Y58248D01*
X77402Y58168D01*
X77327Y58086D01*
X77255Y58001D01*
X77185Y57914D01*
X77119Y57824D01*
X77056Y57732D01*
X76996Y57637D01*
X76940Y57541D01*
X76887Y57443D01*
X76838Y57343D01*
X76792Y57241D01*
X76750Y57138D01*
X76711Y57033D01*
X76676Y56927D01*
X76645Y56820D01*
X76618Y56712D01*
X76594Y56603D01*
X76575Y56493D01*
X76559Y56383D01*
X76547Y56272D01*
X76539Y56160D01*
X76535Y56049D01*
X76535Y55937D01*
X76539Y55826D01*
X76547Y55714D01*
X76559Y55603D01*
X76575Y55493D01*
X76594Y55383D01*
X76618Y55274D01*
X76645Y55166D01*
X76676Y55059D01*
X76711Y54953D01*
X76750Y54848D01*
X76792Y54745D01*
X76838Y54643D01*
X76887Y54543D01*
X76940Y54445D01*
X76996Y54349D01*
X77056Y54254D01*
X77119Y54162D01*
X77185Y54072D01*
X77255Y53985D01*
X77327Y53900D01*
X77402Y53818D01*
X77481Y53738D01*
X77562Y53661D01*
X77645Y53588D01*
X77731Y53517D01*
X77820Y53449D01*
X77911Y53384D01*
X78004Y53323D01*
X78099Y53265D01*
X78197Y53210D01*
X78296Y53159D01*
X78397Y53111D01*
X78499Y53067D01*
X78603Y53027D01*
X78709Y52990D01*
X78815Y52957D01*
X78923Y52928D01*
X79032Y52903D01*
X79141Y52881D01*
X79251Y52863D01*
X79362Y52850D01*
X79473Y52840D01*
X79584Y52834D01*
X79696Y52832D01*
X83760Y52832D01*
X83760Y60960D01*
X83758Y61061D01*
X83752Y61162D01*
X83743Y61263D01*
X83730Y61364D01*
X83713Y61464D01*
X83692Y61563D01*
X83668Y61661D01*
X83640Y61758D01*
X83608Y61855D01*
X83573Y61950D01*
X83534Y62043D01*
X83492Y62135D01*
X83446Y62226D01*
X83397Y62315D01*
X83345Y62401D01*
X83289Y62486D01*
X83231Y62569D01*
X83169Y62649D01*
X83104Y62727D01*
X83037Y62803D01*
X82967Y62876D01*
X82894Y62946D01*
X82818Y63013D01*
X82740Y63078D01*
X82660Y63140D01*
X82577Y63198D01*
X82492Y63254D01*
X82406Y63306D01*
X82317Y63355D01*
X82226Y63401D01*
X82134Y63443D01*
X82041Y63482D01*
X81946Y63517D01*
X81849Y63549D01*
X81752Y63577D01*
X81654Y63601D01*
X81555Y63622D01*
X81455Y63639D01*
X81354Y63652D01*
X81253Y63661D01*
X81152Y63667D01*
X81051Y63669D01*
X77439Y63669D01*
X91367Y69088D02*
X91367Y52832D01*
X91367Y58251D02*
X98592Y63669D01*
X94528Y60508D02*
X98592Y52832D01*
X106933Y52832D02*
X111449Y52832D01*
X106933Y52832D02*
X106832Y52834D01*
X106731Y52840D01*
X106630Y52849D01*
X106529Y52862D01*
X106429Y52879D01*
X106330Y52900D01*
X106232Y52924D01*
X106135Y52952D01*
X106038Y52984D01*
X105943Y53019D01*
X105850Y53058D01*
X105758Y53100D01*
X105667Y53146D01*
X105579Y53195D01*
X105492Y53247D01*
X105407Y53303D01*
X105324Y53361D01*
X105244Y53423D01*
X105166Y53488D01*
X105090Y53555D01*
X105017Y53625D01*
X104947Y53698D01*
X104880Y53774D01*
X104815Y53852D01*
X104753Y53932D01*
X104695Y54015D01*
X104639Y54100D01*
X104587Y54186D01*
X104538Y54275D01*
X104492Y54366D01*
X104450Y54458D01*
X104411Y54551D01*
X104376Y54646D01*
X104344Y54743D01*
X104316Y54840D01*
X104292Y54938D01*
X104271Y55037D01*
X104254Y55137D01*
X104241Y55238D01*
X104232Y55339D01*
X104226Y55440D01*
X104224Y55541D01*
X104224Y60057D01*
X104226Y60176D01*
X104232Y60296D01*
X104242Y60415D01*
X104256Y60533D01*
X104273Y60652D01*
X104295Y60769D01*
X104320Y60886D01*
X104350Y61001D01*
X104383Y61116D01*
X104420Y61230D01*
X104460Y61342D01*
X104505Y61453D01*
X104553Y61562D01*
X104604Y61670D01*
X104659Y61776D01*
X104718Y61880D01*
X104780Y61982D01*
X104845Y62082D01*
X104914Y62180D01*
X104986Y62276D01*
X105061Y62369D01*
X105138Y62459D01*
X105219Y62547D01*
X105303Y62632D01*
X105390Y62714D01*
X105479Y62794D01*
X105571Y62870D01*
X105665Y62944D01*
X105762Y63014D01*
X105860Y63081D01*
X105961Y63145D01*
X106065Y63205D01*
X106170Y63262D01*
X106277Y63315D01*
X106385Y63365D01*
X106495Y63411D01*
X106607Y63453D01*
X106720Y63492D01*
X106834Y63527D01*
X106949Y63558D01*
X107066Y63586D01*
X107183Y63609D01*
X107300Y63629D01*
X107419Y63645D01*
X107538Y63657D01*
X107657Y63665D01*
X107776Y63669D01*
X107896Y63669D01*
X108015Y63665D01*
X108134Y63657D01*
X108253Y63645D01*
X108372Y63629D01*
X108489Y63609D01*
X108606Y63586D01*
X108723Y63558D01*
X108838Y63527D01*
X108952Y63492D01*
X109065Y63453D01*
X109177Y63411D01*
X109287Y63365D01*
X109395Y63315D01*
X109502Y63262D01*
X109607Y63205D01*
X109711Y63145D01*
X109812Y63081D01*
X109910Y63014D01*
X110007Y62944D01*
X110101Y62870D01*
X110193Y62794D01*
X110282Y62714D01*
X110369Y62632D01*
X110453Y62547D01*
X110534Y62459D01*
X110611Y62369D01*
X110686Y62276D01*
X110758Y62180D01*
X110827Y62082D01*
X110892Y61982D01*
X110954Y61880D01*
X111013Y61776D01*
X111068Y61670D01*
X111119Y61562D01*
X111167Y61453D01*
X111212Y61342D01*
X111252Y61230D01*
X111289Y61116D01*
X111322Y61001D01*
X111352Y60886D01*
X111377Y60769D01*
X111399Y60652D01*
X111416Y60533D01*
X111430Y60415D01*
X111440Y60296D01*
X111446Y60176D01*
X111448Y60057D01*
X111449Y60057D02*
X111449Y58251D01*
X104224Y58251D01*
X131144Y52832D02*
X131262Y52834D01*
X131380Y52840D01*
X131498Y52849D01*
X131615Y52863D01*
X131732Y52880D01*
X131849Y52901D01*
X131964Y52926D01*
X132079Y52955D01*
X132193Y52988D01*
X132305Y53024D01*
X132416Y53064D01*
X132526Y53107D01*
X132635Y53154D01*
X132742Y53204D01*
X132847Y53259D01*
X132950Y53316D01*
X133051Y53377D01*
X133151Y53441D01*
X133248Y53508D01*
X133343Y53578D01*
X133435Y53652D01*
X133526Y53728D01*
X133613Y53808D01*
X133698Y53890D01*
X133780Y53975D01*
X133860Y54062D01*
X133936Y54153D01*
X134010Y54245D01*
X134080Y54340D01*
X134147Y54437D01*
X134211Y54537D01*
X134272Y54638D01*
X134329Y54741D01*
X134384Y54846D01*
X134434Y54953D01*
X134481Y55062D01*
X134524Y55172D01*
X134564Y55283D01*
X134600Y55395D01*
X134633Y55509D01*
X134662Y55624D01*
X134687Y55739D01*
X134708Y55856D01*
X134725Y55973D01*
X134739Y56090D01*
X134748Y56208D01*
X134754Y56326D01*
X134756Y56444D01*
X131144Y52832D02*
X130961Y52834D01*
X130779Y52841D01*
X130597Y52852D01*
X130415Y52867D01*
X130233Y52887D01*
X130052Y52910D01*
X129872Y52939D01*
X129692Y52971D01*
X129513Y53008D01*
X129336Y53049D01*
X129159Y53095D01*
X128983Y53144D01*
X128809Y53198D01*
X128635Y53256D01*
X128464Y53318D01*
X128294Y53384D01*
X128125Y53455D01*
X127958Y53529D01*
X127793Y53607D01*
X127630Y53689D01*
X127469Y53775D01*
X127310Y53865D01*
X127153Y53959D01*
X126999Y54056D01*
X126847Y54157D01*
X126697Y54262D01*
X126550Y54370D01*
X126406Y54481D01*
X126264Y54596D01*
X126125Y54715D01*
X125989Y54837D01*
X125856Y54962D01*
X125726Y55090D01*
X126178Y65476D02*
X126180Y65594D01*
X126186Y65712D01*
X126195Y65830D01*
X126209Y65947D01*
X126226Y66064D01*
X126247Y66181D01*
X126272Y66296D01*
X126301Y66411D01*
X126334Y66525D01*
X126370Y66637D01*
X126410Y66748D01*
X126453Y66858D01*
X126500Y66967D01*
X126550Y67074D01*
X126605Y67179D01*
X126662Y67282D01*
X126723Y67383D01*
X126787Y67483D01*
X126854Y67580D01*
X126924Y67675D01*
X126998Y67767D01*
X127074Y67858D01*
X127154Y67945D01*
X127236Y68030D01*
X127321Y68112D01*
X127408Y68192D01*
X127499Y68268D01*
X127591Y68342D01*
X127686Y68412D01*
X127783Y68479D01*
X127883Y68543D01*
X127984Y68604D01*
X128087Y68662D01*
X128192Y68716D01*
X128299Y68766D01*
X128408Y68813D01*
X128518Y68857D01*
X128629Y68896D01*
X128742Y68932D01*
X128855Y68965D01*
X128970Y68994D01*
X129085Y69019D01*
X129202Y69040D01*
X129319Y69057D01*
X129436Y69071D01*
X129554Y69080D01*
X129672Y69086D01*
X129790Y69088D01*
X129789Y69088D02*
X129950Y69086D01*
X130112Y69080D01*
X130273Y69071D01*
X130434Y69057D01*
X130594Y69040D01*
X130754Y69019D01*
X130914Y68994D01*
X131073Y68965D01*
X131231Y68933D01*
X131388Y68897D01*
X131544Y68857D01*
X131700Y68813D01*
X131854Y68765D01*
X132007Y68714D01*
X132159Y68660D01*
X132310Y68601D01*
X132459Y68540D01*
X132606Y68474D01*
X132752Y68405D01*
X132897Y68333D01*
X133039Y68257D01*
X133180Y68178D01*
X133319Y68096D01*
X133455Y68010D01*
X133590Y67921D01*
X133723Y67829D01*
X133853Y67733D01*
X127983Y62315D02*
X127882Y62377D01*
X127782Y62442D01*
X127685Y62511D01*
X127590Y62583D01*
X127497Y62657D01*
X127407Y62735D01*
X127319Y62816D01*
X127234Y62899D01*
X127152Y62985D01*
X127073Y63074D01*
X126996Y63165D01*
X126923Y63259D01*
X126852Y63355D01*
X126785Y63453D01*
X126721Y63553D01*
X126660Y63656D01*
X126603Y63760D01*
X126549Y63866D01*
X126499Y63974D01*
X126452Y64083D01*
X126408Y64194D01*
X126368Y64306D01*
X126332Y64420D01*
X126300Y64534D01*
X126271Y64650D01*
X126246Y64766D01*
X126225Y64883D01*
X126208Y65001D01*
X126194Y65119D01*
X126185Y65238D01*
X126179Y65357D01*
X126177Y65476D01*
X132951Y59605D02*
X133052Y59543D01*
X133152Y59478D01*
X133249Y59409D01*
X133344Y59337D01*
X133437Y59263D01*
X133527Y59185D01*
X133615Y59104D01*
X133700Y59021D01*
X133782Y58935D01*
X133861Y58846D01*
X133938Y58755D01*
X134011Y58661D01*
X134082Y58565D01*
X134149Y58467D01*
X134213Y58367D01*
X134274Y58264D01*
X134331Y58160D01*
X134385Y58054D01*
X134435Y57946D01*
X134482Y57837D01*
X134526Y57726D01*
X134566Y57614D01*
X134602Y57500D01*
X134634Y57386D01*
X134663Y57270D01*
X134688Y57154D01*
X134709Y57037D01*
X134726Y56919D01*
X134740Y56801D01*
X134749Y56682D01*
X134755Y56563D01*
X134757Y56444D01*
X132950Y59605D02*
X127983Y62315D01*
X141218Y63669D02*
X141218Y55541D01*
X141220Y55440D01*
X141226Y55339D01*
X141235Y55238D01*
X141248Y55137D01*
X141265Y55037D01*
X141286Y54938D01*
X141310Y54840D01*
X141338Y54743D01*
X141370Y54646D01*
X141405Y54551D01*
X141444Y54458D01*
X141486Y54366D01*
X141532Y54275D01*
X141581Y54186D01*
X141633Y54100D01*
X141689Y54015D01*
X141747Y53932D01*
X141809Y53852D01*
X141874Y53774D01*
X141941Y53698D01*
X142011Y53625D01*
X142084Y53555D01*
X142160Y53488D01*
X142238Y53423D01*
X142318Y53361D01*
X142401Y53303D01*
X142486Y53247D01*
X142573Y53195D01*
X142661Y53146D01*
X142752Y53100D01*
X142844Y53058D01*
X142937Y53019D01*
X143032Y52984D01*
X143129Y52952D01*
X143226Y52924D01*
X143324Y52900D01*
X143423Y52879D01*
X143523Y52862D01*
X143624Y52849D01*
X143725Y52840D01*
X143826Y52834D01*
X143927Y52832D01*
X148443Y52832D01*
X148443Y63669D01*
X156085Y63669D02*
X156085Y52832D01*
X156085Y63669D02*
X164213Y63669D01*
X164314Y63667D01*
X164415Y63661D01*
X164516Y63652D01*
X164617Y63639D01*
X164717Y63622D01*
X164816Y63601D01*
X164914Y63577D01*
X165011Y63549D01*
X165108Y63517D01*
X165203Y63482D01*
X165296Y63443D01*
X165388Y63401D01*
X165479Y63355D01*
X165568Y63306D01*
X165654Y63254D01*
X165739Y63198D01*
X165822Y63140D01*
X165902Y63078D01*
X165980Y63013D01*
X166056Y62946D01*
X166129Y62876D01*
X166199Y62803D01*
X166266Y62727D01*
X166331Y62649D01*
X166393Y62569D01*
X166451Y62486D01*
X166507Y62401D01*
X166559Y62315D01*
X166608Y62226D01*
X166654Y62135D01*
X166696Y62043D01*
X166735Y61950D01*
X166770Y61855D01*
X166802Y61758D01*
X166830Y61661D01*
X166854Y61563D01*
X166875Y61464D01*
X166892Y61364D01*
X166905Y61263D01*
X166914Y61162D01*
X166920Y61061D01*
X166922Y60960D01*
X166922Y52832D01*
X161504Y52832D02*
X161504Y63669D01*
X174842Y63669D02*
X174842Y52832D01*
X174842Y63669D02*
X182970Y63669D01*
X183071Y63667D01*
X183172Y63661D01*
X183273Y63652D01*
X183374Y63639D01*
X183474Y63622D01*
X183573Y63601D01*
X183671Y63577D01*
X183768Y63549D01*
X183865Y63517D01*
X183960Y63482D01*
X184053Y63443D01*
X184145Y63401D01*
X184236Y63355D01*
X184325Y63306D01*
X184411Y63254D01*
X184496Y63198D01*
X184579Y63140D01*
X184659Y63078D01*
X184737Y63013D01*
X184813Y62946D01*
X184886Y62876D01*
X184956Y62803D01*
X185023Y62727D01*
X185088Y62649D01*
X185150Y62569D01*
X185208Y62486D01*
X185264Y62401D01*
X185316Y62315D01*
X185365Y62226D01*
X185411Y62135D01*
X185453Y62043D01*
X185492Y61950D01*
X185527Y61855D01*
X185559Y61758D01*
X185587Y61661D01*
X185611Y61563D01*
X185632Y61464D01*
X185649Y61364D01*
X185662Y61263D01*
X185671Y61162D01*
X185677Y61061D01*
X185679Y60960D01*
X185680Y60960D02*
X185680Y52832D01*
X180261Y52832D02*
X180261Y63669D01*
X195510Y52832D02*
X200026Y52832D01*
X195510Y52832D02*
X195409Y52834D01*
X195308Y52840D01*
X195207Y52849D01*
X195106Y52862D01*
X195006Y52879D01*
X194907Y52900D01*
X194809Y52924D01*
X194712Y52952D01*
X194615Y52984D01*
X194520Y53019D01*
X194427Y53058D01*
X194335Y53100D01*
X194244Y53146D01*
X194156Y53195D01*
X194069Y53247D01*
X193984Y53303D01*
X193901Y53361D01*
X193821Y53423D01*
X193743Y53488D01*
X193667Y53555D01*
X193594Y53625D01*
X193524Y53698D01*
X193457Y53774D01*
X193392Y53852D01*
X193330Y53932D01*
X193272Y54015D01*
X193216Y54100D01*
X193164Y54186D01*
X193115Y54275D01*
X193069Y54366D01*
X193027Y54458D01*
X192988Y54551D01*
X192953Y54646D01*
X192921Y54743D01*
X192893Y54840D01*
X192869Y54938D01*
X192848Y55037D01*
X192831Y55137D01*
X192818Y55238D01*
X192809Y55339D01*
X192803Y55440D01*
X192801Y55541D01*
X192801Y60057D01*
X192803Y60176D01*
X192809Y60296D01*
X192819Y60415D01*
X192833Y60533D01*
X192850Y60652D01*
X192872Y60769D01*
X192897Y60886D01*
X192927Y61001D01*
X192960Y61116D01*
X192997Y61230D01*
X193037Y61342D01*
X193082Y61453D01*
X193130Y61562D01*
X193181Y61670D01*
X193236Y61776D01*
X193295Y61880D01*
X193357Y61982D01*
X193422Y62082D01*
X193491Y62180D01*
X193563Y62276D01*
X193638Y62369D01*
X193715Y62459D01*
X193796Y62547D01*
X193880Y62632D01*
X193967Y62714D01*
X194056Y62794D01*
X194148Y62870D01*
X194242Y62944D01*
X194339Y63014D01*
X194437Y63081D01*
X194538Y63145D01*
X194642Y63205D01*
X194747Y63262D01*
X194854Y63315D01*
X194962Y63365D01*
X195072Y63411D01*
X195184Y63453D01*
X195297Y63492D01*
X195411Y63527D01*
X195526Y63558D01*
X195643Y63586D01*
X195760Y63609D01*
X195877Y63629D01*
X195996Y63645D01*
X196115Y63657D01*
X196234Y63665D01*
X196353Y63669D01*
X196473Y63669D01*
X196592Y63665D01*
X196711Y63657D01*
X196830Y63645D01*
X196949Y63629D01*
X197066Y63609D01*
X197183Y63586D01*
X197300Y63558D01*
X197415Y63527D01*
X197529Y63492D01*
X197642Y63453D01*
X197754Y63411D01*
X197864Y63365D01*
X197972Y63315D01*
X198079Y63262D01*
X198184Y63205D01*
X198288Y63145D01*
X198389Y63081D01*
X198487Y63014D01*
X198584Y62944D01*
X198678Y62870D01*
X198770Y62794D01*
X198859Y62714D01*
X198946Y62632D01*
X199030Y62547D01*
X199111Y62459D01*
X199188Y62369D01*
X199263Y62276D01*
X199335Y62180D01*
X199404Y62082D01*
X199469Y61982D01*
X199531Y61880D01*
X199590Y61776D01*
X199645Y61670D01*
X199696Y61562D01*
X199744Y61453D01*
X199789Y61342D01*
X199829Y61230D01*
X199866Y61116D01*
X199899Y61001D01*
X199929Y60886D01*
X199954Y60769D01*
X199976Y60652D01*
X199993Y60533D01*
X200007Y60415D01*
X200017Y60296D01*
X200023Y60176D01*
X200025Y60057D01*
X200026Y60057D02*
X200026Y58251D01*
X192801Y58251D01*
X206954Y52832D02*
X206954Y63669D01*
X212373Y63669D01*
X212373Y61863D01*
X216769Y63669D02*
X220381Y52832D01*
X223994Y63669D01*
X229760Y63669D02*
X229760Y52832D01*
X229308Y68185D02*
X229308Y69088D01*
X230211Y69088D01*
X230211Y68185D01*
X229308Y68185D01*
X236284Y69088D02*
X236284Y55541D01*
X236286Y55440D01*
X236292Y55339D01*
X236301Y55238D01*
X236314Y55137D01*
X236331Y55037D01*
X236352Y54938D01*
X236376Y54840D01*
X236404Y54743D01*
X236436Y54646D01*
X236471Y54551D01*
X236510Y54458D01*
X236552Y54366D01*
X236598Y54275D01*
X236647Y54186D01*
X236699Y54100D01*
X236755Y54015D01*
X236813Y53932D01*
X236875Y53852D01*
X236940Y53774D01*
X237007Y53698D01*
X237077Y53625D01*
X237150Y53555D01*
X237226Y53488D01*
X237304Y53423D01*
X237384Y53361D01*
X237467Y53303D01*
X237552Y53247D01*
X237639Y53195D01*
X237727Y53146D01*
X237818Y53100D01*
X237910Y53058D01*
X238003Y53019D01*
X238098Y52984D01*
X238195Y52952D01*
X238292Y52924D01*
X238390Y52900D01*
X238489Y52879D01*
X238589Y52862D01*
X238690Y52849D01*
X238791Y52840D01*
X238892Y52834D01*
X238993Y52832D01*
X244621Y55541D02*
X244621Y69088D01*
X244621Y55541D02*
X244623Y55440D01*
X244629Y55339D01*
X244638Y55238D01*
X244651Y55137D01*
X244668Y55037D01*
X244689Y54938D01*
X244713Y54840D01*
X244741Y54743D01*
X244773Y54646D01*
X244808Y54551D01*
X244847Y54458D01*
X244889Y54366D01*
X244935Y54275D01*
X244984Y54186D01*
X245036Y54100D01*
X245092Y54015D01*
X245150Y53932D01*
X245212Y53852D01*
X245277Y53774D01*
X245344Y53698D01*
X245414Y53625D01*
X245487Y53555D01*
X245563Y53488D01*
X245641Y53423D01*
X245721Y53361D01*
X245804Y53303D01*
X245889Y53247D01*
X245976Y53195D01*
X246064Y53146D01*
X246155Y53100D01*
X246247Y53058D01*
X246340Y53019D01*
X246435Y52984D01*
X246532Y52952D01*
X246629Y52924D01*
X246727Y52900D01*
X246826Y52879D01*
X246926Y52862D01*
X247027Y52849D01*
X247128Y52840D01*
X247229Y52834D01*
X247330Y52832D01*
X255430Y52832D02*
X259945Y52832D01*
X255430Y52832D02*
X255329Y52834D01*
X255228Y52840D01*
X255127Y52849D01*
X255026Y52862D01*
X254926Y52879D01*
X254827Y52900D01*
X254729Y52924D01*
X254632Y52952D01*
X254535Y52984D01*
X254440Y53019D01*
X254347Y53058D01*
X254255Y53100D01*
X254164Y53146D01*
X254076Y53195D01*
X253989Y53247D01*
X253904Y53303D01*
X253821Y53361D01*
X253741Y53423D01*
X253663Y53488D01*
X253587Y53555D01*
X253514Y53625D01*
X253444Y53698D01*
X253377Y53774D01*
X253312Y53852D01*
X253250Y53932D01*
X253192Y54015D01*
X253136Y54100D01*
X253084Y54186D01*
X253035Y54275D01*
X252989Y54366D01*
X252947Y54458D01*
X252908Y54551D01*
X252873Y54646D01*
X252841Y54743D01*
X252813Y54840D01*
X252789Y54938D01*
X252768Y55037D01*
X252751Y55137D01*
X252738Y55238D01*
X252729Y55339D01*
X252723Y55440D01*
X252721Y55541D01*
X252721Y60057D01*
X252723Y60176D01*
X252729Y60296D01*
X252739Y60415D01*
X252753Y60533D01*
X252770Y60652D01*
X252792Y60769D01*
X252817Y60886D01*
X252847Y61001D01*
X252880Y61116D01*
X252917Y61230D01*
X252957Y61342D01*
X253002Y61453D01*
X253050Y61562D01*
X253101Y61670D01*
X253156Y61776D01*
X253215Y61880D01*
X253277Y61982D01*
X253342Y62082D01*
X253411Y62180D01*
X253483Y62276D01*
X253558Y62369D01*
X253635Y62459D01*
X253716Y62547D01*
X253800Y62632D01*
X253887Y62714D01*
X253976Y62794D01*
X254068Y62870D01*
X254162Y62944D01*
X254259Y63014D01*
X254357Y63081D01*
X254458Y63145D01*
X254562Y63205D01*
X254667Y63262D01*
X254774Y63315D01*
X254882Y63365D01*
X254992Y63411D01*
X255104Y63453D01*
X255217Y63492D01*
X255331Y63527D01*
X255446Y63558D01*
X255563Y63586D01*
X255680Y63609D01*
X255797Y63629D01*
X255916Y63645D01*
X256035Y63657D01*
X256154Y63665D01*
X256273Y63669D01*
X256393Y63669D01*
X256512Y63665D01*
X256631Y63657D01*
X256750Y63645D01*
X256869Y63629D01*
X256986Y63609D01*
X257103Y63586D01*
X257220Y63558D01*
X257335Y63527D01*
X257449Y63492D01*
X257562Y63453D01*
X257674Y63411D01*
X257784Y63365D01*
X257892Y63315D01*
X257999Y63262D01*
X258104Y63205D01*
X258208Y63145D01*
X258309Y63081D01*
X258407Y63014D01*
X258504Y62944D01*
X258598Y62870D01*
X258690Y62794D01*
X258779Y62714D01*
X258866Y62632D01*
X258950Y62547D01*
X259031Y62459D01*
X259108Y62369D01*
X259183Y62276D01*
X259255Y62180D01*
X259324Y62082D01*
X259389Y61982D01*
X259451Y61880D01*
X259510Y61776D01*
X259565Y61670D01*
X259616Y61562D01*
X259664Y61453D01*
X259709Y61342D01*
X259749Y61230D01*
X259786Y61116D01*
X259819Y61001D01*
X259849Y60886D01*
X259874Y60769D01*
X259896Y60652D01*
X259913Y60533D01*
X259927Y60415D01*
X259937Y60296D01*
X259943Y60176D01*
X259945Y60057D01*
X259945Y58251D01*
X252721Y58251D01*
X69681Y42418D02*
X64262Y26162D01*
X75099Y26162D02*
X69681Y42418D01*
X73745Y30226D02*
X65617Y30226D01*
X81178Y28871D02*
X81178Y36999D01*
X81179Y28871D02*
X81181Y28770D01*
X81187Y28669D01*
X81196Y28568D01*
X81209Y28467D01*
X81226Y28367D01*
X81247Y28268D01*
X81271Y28170D01*
X81299Y28073D01*
X81331Y27976D01*
X81366Y27881D01*
X81405Y27788D01*
X81447Y27696D01*
X81493Y27605D01*
X81542Y27516D01*
X81594Y27430D01*
X81650Y27345D01*
X81708Y27262D01*
X81770Y27182D01*
X81835Y27104D01*
X81902Y27028D01*
X81972Y26955D01*
X82045Y26885D01*
X82121Y26818D01*
X82199Y26753D01*
X82279Y26691D01*
X82362Y26633D01*
X82447Y26577D01*
X82534Y26525D01*
X82622Y26476D01*
X82713Y26430D01*
X82805Y26388D01*
X82898Y26349D01*
X82993Y26314D01*
X83090Y26282D01*
X83187Y26254D01*
X83285Y26230D01*
X83384Y26209D01*
X83484Y26192D01*
X83585Y26179D01*
X83686Y26170D01*
X83787Y26164D01*
X83888Y26162D01*
X88403Y26162D01*
X88403Y36999D01*
X102398Y42418D02*
X102398Y26162D01*
X97883Y26162D01*
X97782Y26164D01*
X97681Y26170D01*
X97580Y26179D01*
X97479Y26192D01*
X97379Y26209D01*
X97280Y26230D01*
X97182Y26254D01*
X97085Y26282D01*
X96988Y26314D01*
X96893Y26349D01*
X96800Y26388D01*
X96708Y26430D01*
X96617Y26476D01*
X96529Y26525D01*
X96442Y26577D01*
X96357Y26633D01*
X96274Y26691D01*
X96194Y26753D01*
X96116Y26818D01*
X96040Y26885D01*
X95967Y26955D01*
X95897Y27028D01*
X95830Y27104D01*
X95765Y27182D01*
X95703Y27262D01*
X95645Y27345D01*
X95589Y27430D01*
X95537Y27516D01*
X95488Y27605D01*
X95442Y27696D01*
X95400Y27788D01*
X95361Y27881D01*
X95326Y27976D01*
X95294Y28073D01*
X95266Y28170D01*
X95242Y28268D01*
X95221Y28367D01*
X95204Y28467D01*
X95191Y28568D01*
X95182Y28669D01*
X95176Y28770D01*
X95174Y28871D01*
X95173Y28871D02*
X95173Y34290D01*
X95174Y34290D02*
X95176Y34391D01*
X95182Y34492D01*
X95191Y34593D01*
X95204Y34694D01*
X95221Y34794D01*
X95242Y34893D01*
X95266Y34991D01*
X95294Y35088D01*
X95326Y35185D01*
X95361Y35280D01*
X95400Y35373D01*
X95442Y35465D01*
X95488Y35556D01*
X95537Y35645D01*
X95589Y35731D01*
X95645Y35816D01*
X95703Y35899D01*
X95765Y35979D01*
X95830Y36057D01*
X95897Y36133D01*
X95967Y36206D01*
X96040Y36276D01*
X96116Y36343D01*
X96194Y36408D01*
X96274Y36470D01*
X96357Y36528D01*
X96442Y36584D01*
X96529Y36636D01*
X96617Y36685D01*
X96708Y36731D01*
X96800Y36773D01*
X96893Y36812D01*
X96988Y36847D01*
X97085Y36879D01*
X97182Y36907D01*
X97280Y36931D01*
X97379Y36952D01*
X97479Y36969D01*
X97580Y36982D01*
X97681Y36991D01*
X97782Y36997D01*
X97883Y36999D01*
X102398Y36999D01*
X109280Y36999D02*
X109280Y26162D01*
X108828Y41515D02*
X108828Y42418D01*
X109731Y42418D01*
X109731Y41515D01*
X108828Y41515D01*
X115567Y33387D02*
X115567Y29774D01*
X115568Y33387D02*
X115570Y33506D01*
X115576Y33626D01*
X115586Y33745D01*
X115600Y33863D01*
X115617Y33982D01*
X115639Y34099D01*
X115664Y34216D01*
X115694Y34331D01*
X115727Y34446D01*
X115764Y34560D01*
X115804Y34672D01*
X115849Y34783D01*
X115897Y34892D01*
X115948Y35000D01*
X116003Y35106D01*
X116062Y35210D01*
X116124Y35312D01*
X116189Y35412D01*
X116258Y35510D01*
X116330Y35606D01*
X116405Y35699D01*
X116482Y35789D01*
X116563Y35877D01*
X116647Y35962D01*
X116734Y36044D01*
X116823Y36124D01*
X116915Y36200D01*
X117009Y36274D01*
X117106Y36344D01*
X117204Y36411D01*
X117305Y36475D01*
X117409Y36535D01*
X117514Y36592D01*
X117621Y36645D01*
X117729Y36695D01*
X117839Y36741D01*
X117951Y36783D01*
X118064Y36822D01*
X118178Y36857D01*
X118293Y36888D01*
X118410Y36916D01*
X118527Y36939D01*
X118644Y36959D01*
X118763Y36975D01*
X118882Y36987D01*
X119001Y36995D01*
X119120Y36999D01*
X119240Y36999D01*
X119359Y36995D01*
X119478Y36987D01*
X119597Y36975D01*
X119716Y36959D01*
X119833Y36939D01*
X119950Y36916D01*
X120067Y36888D01*
X120182Y36857D01*
X120296Y36822D01*
X120409Y36783D01*
X120521Y36741D01*
X120631Y36695D01*
X120739Y36645D01*
X120846Y36592D01*
X120951Y36535D01*
X121055Y36475D01*
X121156Y36411D01*
X121254Y36344D01*
X121351Y36274D01*
X121445Y36200D01*
X121537Y36124D01*
X121626Y36044D01*
X121713Y35962D01*
X121797Y35877D01*
X121878Y35789D01*
X121955Y35699D01*
X122030Y35606D01*
X122102Y35510D01*
X122171Y35412D01*
X122236Y35312D01*
X122298Y35210D01*
X122357Y35106D01*
X122412Y35000D01*
X122463Y34892D01*
X122511Y34783D01*
X122556Y34672D01*
X122596Y34560D01*
X122633Y34446D01*
X122666Y34331D01*
X122696Y34216D01*
X122721Y34099D01*
X122743Y33982D01*
X122760Y33863D01*
X122774Y33745D01*
X122784Y33626D01*
X122790Y33506D01*
X122792Y33387D01*
X122792Y29774D01*
X122790Y29655D01*
X122784Y29535D01*
X122774Y29416D01*
X122760Y29298D01*
X122743Y29179D01*
X122721Y29062D01*
X122696Y28945D01*
X122666Y28830D01*
X122633Y28715D01*
X122596Y28601D01*
X122556Y28489D01*
X122511Y28378D01*
X122463Y28269D01*
X122412Y28161D01*
X122357Y28055D01*
X122298Y27951D01*
X122236Y27849D01*
X122171Y27749D01*
X122102Y27651D01*
X122030Y27555D01*
X121955Y27462D01*
X121878Y27372D01*
X121797Y27284D01*
X121713Y27199D01*
X121626Y27117D01*
X121537Y27037D01*
X121445Y26961D01*
X121351Y26887D01*
X121254Y26817D01*
X121156Y26750D01*
X121055Y26686D01*
X120951Y26626D01*
X120846Y26569D01*
X120739Y26516D01*
X120631Y26466D01*
X120521Y26420D01*
X120409Y26378D01*
X120296Y26339D01*
X120182Y26304D01*
X120067Y26273D01*
X119950Y26245D01*
X119833Y26222D01*
X119716Y26202D01*
X119597Y26186D01*
X119478Y26174D01*
X119359Y26166D01*
X119240Y26162D01*
X119120Y26162D01*
X119001Y26166D01*
X118882Y26174D01*
X118763Y26186D01*
X118644Y26202D01*
X118527Y26222D01*
X118410Y26245D01*
X118293Y26273D01*
X118178Y26304D01*
X118064Y26339D01*
X117951Y26378D01*
X117839Y26420D01*
X117729Y26466D01*
X117621Y26516D01*
X117514Y26569D01*
X117409Y26626D01*
X117305Y26686D01*
X117204Y26750D01*
X117106Y26817D01*
X117009Y26887D01*
X116915Y26961D01*
X116823Y27037D01*
X116734Y27117D01*
X116647Y27199D01*
X116563Y27284D01*
X116482Y27372D01*
X116405Y27462D01*
X116330Y27555D01*
X116258Y27651D01*
X116189Y27749D01*
X116124Y27849D01*
X116062Y27951D01*
X116003Y28055D01*
X115948Y28161D01*
X115897Y28269D01*
X115849Y28378D01*
X115804Y28489D01*
X115764Y28601D01*
X115727Y28715D01*
X115694Y28830D01*
X115664Y28945D01*
X115639Y29062D01*
X115617Y29179D01*
X115600Y29298D01*
X115586Y29416D01*
X115576Y29535D01*
X115570Y29655D01*
X115568Y29774D01*
X138322Y26162D02*
X138322Y42418D01*
X142837Y42418D01*
X142970Y42416D01*
X143102Y42410D01*
X143234Y42400D01*
X143366Y42387D01*
X143498Y42369D01*
X143628Y42348D01*
X143759Y42323D01*
X143888Y42294D01*
X144016Y42261D01*
X144144Y42225D01*
X144270Y42185D01*
X144395Y42141D01*
X144519Y42093D01*
X144641Y42042D01*
X144762Y41987D01*
X144881Y41929D01*
X144999Y41867D01*
X145114Y41802D01*
X145228Y41733D01*
X145339Y41662D01*
X145448Y41586D01*
X145555Y41508D01*
X145660Y41427D01*
X145762Y41342D01*
X145862Y41255D01*
X145959Y41165D01*
X146054Y41072D01*
X146145Y40976D01*
X146234Y40878D01*
X146320Y40777D01*
X146403Y40673D01*
X146483Y40567D01*
X146559Y40459D01*
X146633Y40349D01*
X146703Y40236D01*
X146770Y40122D01*
X146833Y40005D01*
X146893Y39887D01*
X146950Y39767D01*
X147003Y39645D01*
X147052Y39522D01*
X147098Y39398D01*
X147140Y39272D01*
X147178Y39145D01*
X147213Y39017D01*
X147244Y38888D01*
X147271Y38759D01*
X147294Y38628D01*
X147314Y38497D01*
X147329Y38365D01*
X147341Y38233D01*
X147349Y38101D01*
X147353Y37968D01*
X147353Y37836D01*
X147349Y37703D01*
X147341Y37571D01*
X147329Y37439D01*
X147314Y37307D01*
X147294Y37176D01*
X147271Y37045D01*
X147244Y36916D01*
X147213Y36787D01*
X147178Y36659D01*
X147140Y36532D01*
X147098Y36406D01*
X147052Y36282D01*
X147003Y36159D01*
X146950Y36037D01*
X146893Y35917D01*
X146833Y35799D01*
X146770Y35682D01*
X146703Y35568D01*
X146633Y35455D01*
X146559Y35345D01*
X146483Y35237D01*
X146403Y35131D01*
X146320Y35027D01*
X146234Y34926D01*
X146145Y34828D01*
X146054Y34732D01*
X145959Y34639D01*
X145862Y34549D01*
X145762Y34462D01*
X145660Y34377D01*
X145555Y34296D01*
X145448Y34218D01*
X145339Y34142D01*
X145228Y34071D01*
X145114Y34002D01*
X144999Y33937D01*
X144881Y33875D01*
X144762Y33817D01*
X144641Y33762D01*
X144519Y33711D01*
X144395Y33663D01*
X144270Y33619D01*
X144144Y33579D01*
X144016Y33543D01*
X143888Y33510D01*
X143759Y33481D01*
X143628Y33456D01*
X143498Y33435D01*
X143366Y33417D01*
X143234Y33404D01*
X143102Y33394D01*
X142970Y33388D01*
X142837Y33386D01*
X142837Y33387D02*
X138322Y33387D01*
X153082Y33387D02*
X153082Y29774D01*
X153082Y33387D02*
X153084Y33506D01*
X153090Y33626D01*
X153100Y33745D01*
X153114Y33863D01*
X153131Y33982D01*
X153153Y34099D01*
X153178Y34216D01*
X153208Y34331D01*
X153241Y34446D01*
X153278Y34560D01*
X153318Y34672D01*
X153363Y34783D01*
X153411Y34892D01*
X153462Y35000D01*
X153517Y35106D01*
X153576Y35210D01*
X153638Y35312D01*
X153703Y35412D01*
X153772Y35510D01*
X153844Y35606D01*
X153919Y35699D01*
X153996Y35789D01*
X154077Y35877D01*
X154161Y35962D01*
X154248Y36044D01*
X154337Y36124D01*
X154429Y36200D01*
X154523Y36274D01*
X154620Y36344D01*
X154718Y36411D01*
X154819Y36475D01*
X154923Y36535D01*
X155028Y36592D01*
X155135Y36645D01*
X155243Y36695D01*
X155353Y36741D01*
X155465Y36783D01*
X155578Y36822D01*
X155692Y36857D01*
X155807Y36888D01*
X155924Y36916D01*
X156041Y36939D01*
X156158Y36959D01*
X156277Y36975D01*
X156396Y36987D01*
X156515Y36995D01*
X156634Y36999D01*
X156754Y36999D01*
X156873Y36995D01*
X156992Y36987D01*
X157111Y36975D01*
X157230Y36959D01*
X157347Y36939D01*
X157464Y36916D01*
X157581Y36888D01*
X157696Y36857D01*
X157810Y36822D01*
X157923Y36783D01*
X158035Y36741D01*
X158145Y36695D01*
X158253Y36645D01*
X158360Y36592D01*
X158465Y36535D01*
X158569Y36475D01*
X158670Y36411D01*
X158768Y36344D01*
X158865Y36274D01*
X158959Y36200D01*
X159051Y36124D01*
X159140Y36044D01*
X159227Y35962D01*
X159311Y35877D01*
X159392Y35789D01*
X159469Y35699D01*
X159544Y35606D01*
X159616Y35510D01*
X159685Y35412D01*
X159750Y35312D01*
X159812Y35210D01*
X159871Y35106D01*
X159926Y35000D01*
X159977Y34892D01*
X160025Y34783D01*
X160070Y34672D01*
X160110Y34560D01*
X160147Y34446D01*
X160180Y34331D01*
X160210Y34216D01*
X160235Y34099D01*
X160257Y33982D01*
X160274Y33863D01*
X160288Y33745D01*
X160298Y33626D01*
X160304Y33506D01*
X160306Y33387D01*
X160307Y33387D02*
X160307Y29774D01*
X160306Y29774D02*
X160304Y29655D01*
X160298Y29535D01*
X160288Y29416D01*
X160274Y29298D01*
X160257Y29179D01*
X160235Y29062D01*
X160210Y28945D01*
X160180Y28830D01*
X160147Y28715D01*
X160110Y28601D01*
X160070Y28489D01*
X160025Y28378D01*
X159977Y28269D01*
X159926Y28161D01*
X159871Y28055D01*
X159812Y27951D01*
X159750Y27849D01*
X159685Y27749D01*
X159616Y27651D01*
X159544Y27555D01*
X159469Y27462D01*
X159392Y27372D01*
X159311Y27284D01*
X159227Y27199D01*
X159140Y27117D01*
X159051Y27037D01*
X158959Y26961D01*
X158865Y26887D01*
X158768Y26817D01*
X158670Y26750D01*
X158569Y26686D01*
X158465Y26626D01*
X158360Y26569D01*
X158253Y26516D01*
X158145Y26466D01*
X158035Y26420D01*
X157923Y26378D01*
X157810Y26339D01*
X157696Y26304D01*
X157581Y26273D01*
X157464Y26245D01*
X157347Y26222D01*
X157230Y26202D01*
X157111Y26186D01*
X156992Y26174D01*
X156873Y26166D01*
X156754Y26162D01*
X156634Y26162D01*
X156515Y26166D01*
X156396Y26174D01*
X156277Y26186D01*
X156158Y26202D01*
X156041Y26222D01*
X155924Y26245D01*
X155807Y26273D01*
X155692Y26304D01*
X155578Y26339D01*
X155465Y26378D01*
X155353Y26420D01*
X155243Y26466D01*
X155135Y26516D01*
X155028Y26569D01*
X154923Y26626D01*
X154819Y26686D01*
X154718Y26750D01*
X154620Y26817D01*
X154523Y26887D01*
X154429Y26961D01*
X154337Y27037D01*
X154248Y27117D01*
X154161Y27199D01*
X154077Y27284D01*
X153996Y27372D01*
X153919Y27462D01*
X153844Y27555D01*
X153772Y27651D01*
X153703Y27749D01*
X153638Y27849D01*
X153576Y27951D01*
X153517Y28055D01*
X153462Y28161D01*
X153411Y28269D01*
X153363Y28378D01*
X153318Y28489D01*
X153278Y28601D01*
X153241Y28715D01*
X153208Y28830D01*
X153178Y28945D01*
X153153Y29062D01*
X153131Y29179D01*
X153114Y29298D01*
X153100Y29416D01*
X153090Y29535D01*
X153084Y29655D01*
X153082Y29774D01*
X166386Y36999D02*
X169095Y26162D01*
X171805Y33387D01*
X174514Y26162D01*
X177223Y36999D01*
X186012Y26162D02*
X190527Y26162D01*
X186012Y26162D02*
X185911Y26164D01*
X185810Y26170D01*
X185709Y26179D01*
X185608Y26192D01*
X185508Y26209D01*
X185409Y26230D01*
X185311Y26254D01*
X185214Y26282D01*
X185117Y26314D01*
X185022Y26349D01*
X184929Y26388D01*
X184837Y26430D01*
X184746Y26476D01*
X184658Y26525D01*
X184571Y26577D01*
X184486Y26633D01*
X184403Y26691D01*
X184323Y26753D01*
X184245Y26818D01*
X184169Y26885D01*
X184096Y26955D01*
X184026Y27028D01*
X183959Y27104D01*
X183894Y27182D01*
X183832Y27262D01*
X183774Y27345D01*
X183718Y27430D01*
X183666Y27516D01*
X183617Y27605D01*
X183571Y27696D01*
X183529Y27788D01*
X183490Y27881D01*
X183455Y27976D01*
X183423Y28073D01*
X183395Y28170D01*
X183371Y28268D01*
X183350Y28367D01*
X183333Y28467D01*
X183320Y28568D01*
X183311Y28669D01*
X183305Y28770D01*
X183303Y28871D01*
X183302Y28871D02*
X183302Y33387D01*
X183303Y33387D02*
X183305Y33506D01*
X183311Y33626D01*
X183321Y33745D01*
X183335Y33863D01*
X183352Y33982D01*
X183374Y34099D01*
X183399Y34216D01*
X183429Y34331D01*
X183462Y34446D01*
X183499Y34560D01*
X183539Y34672D01*
X183584Y34783D01*
X183632Y34892D01*
X183683Y35000D01*
X183738Y35106D01*
X183797Y35210D01*
X183859Y35312D01*
X183924Y35412D01*
X183993Y35510D01*
X184065Y35606D01*
X184140Y35699D01*
X184217Y35789D01*
X184298Y35877D01*
X184382Y35962D01*
X184469Y36044D01*
X184558Y36124D01*
X184650Y36200D01*
X184744Y36274D01*
X184841Y36344D01*
X184939Y36411D01*
X185040Y36475D01*
X185144Y36535D01*
X185249Y36592D01*
X185356Y36645D01*
X185464Y36695D01*
X185574Y36741D01*
X185686Y36783D01*
X185799Y36822D01*
X185913Y36857D01*
X186028Y36888D01*
X186145Y36916D01*
X186262Y36939D01*
X186379Y36959D01*
X186498Y36975D01*
X186617Y36987D01*
X186736Y36995D01*
X186855Y36999D01*
X186975Y36999D01*
X187094Y36995D01*
X187213Y36987D01*
X187332Y36975D01*
X187451Y36959D01*
X187568Y36939D01*
X187685Y36916D01*
X187802Y36888D01*
X187917Y36857D01*
X188031Y36822D01*
X188144Y36783D01*
X188256Y36741D01*
X188366Y36695D01*
X188474Y36645D01*
X188581Y36592D01*
X188686Y36535D01*
X188790Y36475D01*
X188891Y36411D01*
X188989Y36344D01*
X189086Y36274D01*
X189180Y36200D01*
X189272Y36124D01*
X189361Y36044D01*
X189448Y35962D01*
X189532Y35877D01*
X189613Y35789D01*
X189690Y35699D01*
X189765Y35606D01*
X189837Y35510D01*
X189906Y35412D01*
X189971Y35312D01*
X190033Y35210D01*
X190092Y35106D01*
X190147Y35000D01*
X190198Y34892D01*
X190246Y34783D01*
X190291Y34672D01*
X190331Y34560D01*
X190368Y34446D01*
X190401Y34331D01*
X190431Y34216D01*
X190456Y34099D01*
X190478Y33982D01*
X190495Y33863D01*
X190509Y33745D01*
X190519Y33626D01*
X190525Y33506D01*
X190527Y33387D01*
X190527Y31581D01*
X183302Y31581D01*
X197455Y26162D02*
X197455Y36999D01*
X202874Y36999D01*
X202874Y35193D01*
X215364Y26162D02*
X220782Y42418D01*
X226201Y26162D01*
X224846Y30226D02*
X216718Y30226D01*
X232558Y26162D02*
X232558Y36999D01*
X240686Y36999D01*
X240787Y36997D01*
X240888Y36991D01*
X240989Y36982D01*
X241090Y36969D01*
X241190Y36952D01*
X241289Y36931D01*
X241387Y36907D01*
X241484Y36879D01*
X241581Y36847D01*
X241676Y36812D01*
X241769Y36773D01*
X241861Y36731D01*
X241952Y36685D01*
X242041Y36636D01*
X242127Y36584D01*
X242212Y36528D01*
X242295Y36470D01*
X242375Y36408D01*
X242453Y36343D01*
X242529Y36276D01*
X242602Y36206D01*
X242672Y36133D01*
X242739Y36057D01*
X242804Y35979D01*
X242866Y35899D01*
X242924Y35816D01*
X242980Y35731D01*
X243032Y35645D01*
X243081Y35556D01*
X243127Y35465D01*
X243169Y35373D01*
X243208Y35280D01*
X243243Y35185D01*
X243275Y35088D01*
X243303Y34991D01*
X243327Y34893D01*
X243348Y34794D01*
X243365Y34694D01*
X243378Y34593D01*
X243387Y34492D01*
X243393Y34391D01*
X243395Y34290D01*
X243395Y26162D01*
X237977Y26162D02*
X237977Y36999D01*
X251111Y36999D02*
X251111Y20743D01*
X251111Y36999D02*
X255627Y36999D01*
X255731Y36997D01*
X255834Y36991D01*
X255938Y36981D01*
X256041Y36967D01*
X256143Y36949D01*
X256244Y36928D01*
X256345Y36902D01*
X256444Y36873D01*
X256543Y36840D01*
X256640Y36803D01*
X256735Y36762D01*
X256829Y36718D01*
X256921Y36670D01*
X257011Y36619D01*
X257100Y36564D01*
X257186Y36506D01*
X257269Y36444D01*
X257351Y36380D01*
X257429Y36312D01*
X257505Y36242D01*
X257579Y36169D01*
X257649Y36092D01*
X257717Y36014D01*
X257781Y35932D01*
X257843Y35849D01*
X257901Y35763D01*
X257956Y35674D01*
X258007Y35584D01*
X258055Y35492D01*
X258099Y35398D01*
X258140Y35303D01*
X258177Y35206D01*
X258210Y35107D01*
X258239Y35008D01*
X258265Y34907D01*
X258286Y34806D01*
X258304Y34704D01*
X258318Y34601D01*
X258328Y34497D01*
X258334Y34394D01*
X258336Y34290D01*
X258336Y28871D01*
X258334Y28770D01*
X258328Y28669D01*
X258319Y28568D01*
X258306Y28467D01*
X258289Y28367D01*
X258268Y28268D01*
X258244Y28170D01*
X258216Y28073D01*
X258184Y27976D01*
X258149Y27881D01*
X258110Y27788D01*
X258068Y27696D01*
X258022Y27605D01*
X257973Y27516D01*
X257921Y27430D01*
X257865Y27345D01*
X257807Y27262D01*
X257745Y27182D01*
X257680Y27104D01*
X257613Y27028D01*
X257543Y26955D01*
X257470Y26885D01*
X257394Y26818D01*
X257316Y26753D01*
X257236Y26691D01*
X257153Y26633D01*
X257068Y26577D01*
X256982Y26525D01*
X256893Y26476D01*
X256802Y26430D01*
X256710Y26388D01*
X256617Y26349D01*
X256522Y26314D01*
X256425Y26282D01*
X256328Y26254D01*
X256230Y26230D01*
X256131Y26209D01*
X256031Y26192D01*
X255930Y26179D01*
X255829Y26170D01*
X255728Y26164D01*
X255627Y26162D01*
X251111Y26162D01*
X264822Y28871D02*
X264822Y42418D01*
X264822Y28871D02*
X264824Y28770D01*
X264830Y28669D01*
X264839Y28568D01*
X264852Y28467D01*
X264869Y28367D01*
X264890Y28268D01*
X264914Y28170D01*
X264942Y28073D01*
X264974Y27976D01*
X265009Y27881D01*
X265048Y27788D01*
X265090Y27696D01*
X265136Y27605D01*
X265185Y27516D01*
X265237Y27430D01*
X265293Y27345D01*
X265351Y27262D01*
X265413Y27182D01*
X265478Y27104D01*
X265545Y27028D01*
X265615Y26955D01*
X265688Y26885D01*
X265764Y26818D01*
X265842Y26753D01*
X265922Y26691D01*
X266005Y26633D01*
X266090Y26577D01*
X266177Y26525D01*
X266265Y26476D01*
X266356Y26430D01*
X266448Y26388D01*
X266541Y26349D01*
X266636Y26314D01*
X266733Y26282D01*
X266830Y26254D01*
X266928Y26230D01*
X267027Y26209D01*
X267127Y26192D01*
X267228Y26179D01*
X267329Y26170D01*
X267430Y26164D01*
X267531Y26162D01*
X272887Y26162D02*
X272887Y36999D01*
X272435Y41515D02*
X272435Y42418D01*
X273338Y42418D01*
X273338Y41515D01*
X272435Y41515D01*
X280062Y39709D02*
X280062Y26162D01*
X280062Y39709D02*
X280064Y39813D01*
X280070Y39916D01*
X280080Y40020D01*
X280094Y40123D01*
X280112Y40225D01*
X280133Y40326D01*
X280159Y40427D01*
X280188Y40526D01*
X280221Y40625D01*
X280258Y40722D01*
X280299Y40817D01*
X280343Y40911D01*
X280391Y41003D01*
X280442Y41093D01*
X280497Y41182D01*
X280555Y41268D01*
X280617Y41351D01*
X280681Y41433D01*
X280749Y41511D01*
X280819Y41587D01*
X280892Y41661D01*
X280969Y41731D01*
X281047Y41799D01*
X281129Y41863D01*
X281212Y41925D01*
X281298Y41983D01*
X281387Y42038D01*
X281477Y42089D01*
X281569Y42137D01*
X281663Y42181D01*
X281758Y42222D01*
X281855Y42259D01*
X281954Y42292D01*
X282053Y42321D01*
X282154Y42347D01*
X282255Y42368D01*
X282357Y42386D01*
X282460Y42400D01*
X282564Y42410D01*
X282667Y42416D01*
X282771Y42418D01*
X283674Y42418D01*
X283674Y36999D02*
X278255Y36999D01*
X287997Y36999D02*
X287997Y26162D01*
X287545Y41515D02*
X287545Y42418D01*
X288448Y42418D01*
X288448Y41515D01*
X287545Y41515D01*
X296993Y26162D02*
X301509Y26162D01*
X296993Y26162D02*
X296892Y26164D01*
X296791Y26170D01*
X296690Y26179D01*
X296589Y26192D01*
X296489Y26209D01*
X296390Y26230D01*
X296292Y26254D01*
X296195Y26282D01*
X296098Y26314D01*
X296003Y26349D01*
X295910Y26388D01*
X295818Y26430D01*
X295727Y26476D01*
X295639Y26525D01*
X295552Y26577D01*
X295467Y26633D01*
X295384Y26691D01*
X295304Y26753D01*
X295226Y26818D01*
X295150Y26885D01*
X295077Y26955D01*
X295007Y27028D01*
X294940Y27104D01*
X294875Y27182D01*
X294813Y27262D01*
X294755Y27345D01*
X294699Y27430D01*
X294647Y27516D01*
X294598Y27605D01*
X294552Y27696D01*
X294510Y27788D01*
X294471Y27881D01*
X294436Y27976D01*
X294404Y28073D01*
X294376Y28170D01*
X294352Y28268D01*
X294331Y28367D01*
X294314Y28467D01*
X294301Y28568D01*
X294292Y28669D01*
X294286Y28770D01*
X294284Y28871D01*
X294284Y33387D01*
X294286Y33506D01*
X294292Y33626D01*
X294302Y33745D01*
X294316Y33863D01*
X294333Y33982D01*
X294355Y34099D01*
X294380Y34216D01*
X294410Y34331D01*
X294443Y34446D01*
X294480Y34560D01*
X294520Y34672D01*
X294565Y34783D01*
X294613Y34892D01*
X294664Y35000D01*
X294719Y35106D01*
X294778Y35210D01*
X294840Y35312D01*
X294905Y35412D01*
X294974Y35510D01*
X295046Y35606D01*
X295121Y35699D01*
X295198Y35789D01*
X295279Y35877D01*
X295363Y35962D01*
X295450Y36044D01*
X295539Y36124D01*
X295631Y36200D01*
X295725Y36274D01*
X295822Y36344D01*
X295920Y36411D01*
X296021Y36475D01*
X296125Y36535D01*
X296230Y36592D01*
X296337Y36645D01*
X296445Y36695D01*
X296555Y36741D01*
X296667Y36783D01*
X296780Y36822D01*
X296894Y36857D01*
X297009Y36888D01*
X297126Y36916D01*
X297243Y36939D01*
X297360Y36959D01*
X297479Y36975D01*
X297598Y36987D01*
X297717Y36995D01*
X297836Y36999D01*
X297956Y36999D01*
X298075Y36995D01*
X298194Y36987D01*
X298313Y36975D01*
X298432Y36959D01*
X298549Y36939D01*
X298666Y36916D01*
X298783Y36888D01*
X298898Y36857D01*
X299012Y36822D01*
X299125Y36783D01*
X299237Y36741D01*
X299347Y36695D01*
X299455Y36645D01*
X299562Y36592D01*
X299667Y36535D01*
X299771Y36475D01*
X299872Y36411D01*
X299970Y36344D01*
X300067Y36274D01*
X300161Y36200D01*
X300253Y36124D01*
X300342Y36044D01*
X300429Y35962D01*
X300513Y35877D01*
X300594Y35789D01*
X300671Y35699D01*
X300746Y35606D01*
X300818Y35510D01*
X300887Y35412D01*
X300952Y35312D01*
X301014Y35210D01*
X301073Y35106D01*
X301128Y35000D01*
X301179Y34892D01*
X301227Y34783D01*
X301272Y34672D01*
X301312Y34560D01*
X301349Y34446D01*
X301382Y34331D01*
X301412Y34216D01*
X301437Y34099D01*
X301459Y33982D01*
X301476Y33863D01*
X301490Y33745D01*
X301500Y33626D01*
X301506Y33506D01*
X301508Y33387D01*
X301509Y33387D02*
X301509Y31581D01*
X294284Y31581D01*
X308437Y26162D02*
X308437Y36999D01*
X313856Y36999D01*
X313856Y35193D01*
D11*
X410436Y526302D02*
X412002Y526302D01*
X412002Y521081D01*
X408869Y521081D01*
X408780Y521083D01*
X408692Y521089D01*
X408604Y521098D01*
X408516Y521111D01*
X408429Y521128D01*
X408343Y521148D01*
X408258Y521173D01*
X408173Y521200D01*
X408090Y521232D01*
X408009Y521266D01*
X407929Y521305D01*
X407851Y521346D01*
X407774Y521391D01*
X407700Y521439D01*
X407627Y521490D01*
X407557Y521544D01*
X407490Y521602D01*
X407424Y521662D01*
X407362Y521724D01*
X407302Y521790D01*
X407244Y521857D01*
X407190Y521927D01*
X407139Y522000D01*
X407091Y522074D01*
X407046Y522151D01*
X407005Y522229D01*
X406966Y522309D01*
X406932Y522390D01*
X406900Y522473D01*
X406873Y522558D01*
X406848Y522643D01*
X406828Y522729D01*
X406811Y522816D01*
X406798Y522904D01*
X406789Y522992D01*
X406783Y523080D01*
X406781Y523169D01*
X406781Y528391D01*
X406783Y528482D01*
X406789Y528573D01*
X406799Y528664D01*
X406813Y528754D01*
X406830Y528843D01*
X406852Y528931D01*
X406878Y529019D01*
X406907Y529105D01*
X406940Y529190D01*
X406977Y529273D01*
X407017Y529355D01*
X407061Y529435D01*
X407108Y529513D01*
X407159Y529589D01*
X407212Y529662D01*
X407269Y529733D01*
X407330Y529802D01*
X407393Y529867D01*
X407458Y529930D01*
X407527Y529990D01*
X407598Y530048D01*
X407671Y530101D01*
X407747Y530152D01*
X407825Y530199D01*
X407905Y530243D01*
X407987Y530283D01*
X408070Y530320D01*
X408155Y530353D01*
X408241Y530382D01*
X408329Y530408D01*
X408417Y530430D01*
X408506Y530447D01*
X408596Y530461D01*
X408687Y530471D01*
X408778Y530477D01*
X408869Y530479D01*
X412002Y530479D01*
X416535Y530479D02*
X416535Y521081D01*
X421756Y521081D02*
X416535Y530479D01*
X421756Y530479D02*
X421756Y521081D01*
X426288Y521081D02*
X426288Y530479D01*
X428899Y530479D01*
X428999Y530477D01*
X429099Y530471D01*
X429198Y530462D01*
X429298Y530448D01*
X429396Y530431D01*
X429494Y530410D01*
X429591Y530386D01*
X429687Y530357D01*
X429782Y530325D01*
X429875Y530290D01*
X429967Y530251D01*
X430058Y530208D01*
X430146Y530162D01*
X430233Y530112D01*
X430318Y530060D01*
X430401Y530004D01*
X430482Y529945D01*
X430560Y529882D01*
X430636Y529817D01*
X430710Y529749D01*
X430780Y529679D01*
X430848Y529605D01*
X430913Y529529D01*
X430976Y529451D01*
X431035Y529370D01*
X431091Y529287D01*
X431143Y529202D01*
X431193Y529115D01*
X431239Y529027D01*
X431282Y528936D01*
X431321Y528844D01*
X431356Y528751D01*
X431388Y528656D01*
X431417Y528560D01*
X431441Y528463D01*
X431462Y528365D01*
X431479Y528267D01*
X431493Y528167D01*
X431502Y528068D01*
X431508Y527968D01*
X431510Y527868D01*
X431509Y527868D02*
X431509Y523692D01*
X431510Y523692D02*
X431508Y523592D01*
X431502Y523492D01*
X431493Y523393D01*
X431479Y523293D01*
X431462Y523195D01*
X431441Y523097D01*
X431417Y523000D01*
X431388Y522904D01*
X431356Y522809D01*
X431321Y522716D01*
X431282Y522624D01*
X431239Y522533D01*
X431193Y522445D01*
X431143Y522358D01*
X431091Y522273D01*
X431035Y522190D01*
X430976Y522109D01*
X430913Y522031D01*
X430848Y521955D01*
X430780Y521881D01*
X430710Y521811D01*
X430636Y521743D01*
X430560Y521678D01*
X430482Y521615D01*
X430401Y521556D01*
X430318Y521500D01*
X430233Y521448D01*
X430146Y521398D01*
X430058Y521352D01*
X429967Y521309D01*
X429875Y521270D01*
X429782Y521235D01*
X429687Y521203D01*
X429591Y521174D01*
X429494Y521150D01*
X429396Y521129D01*
X429298Y521112D01*
X429198Y521098D01*
X429099Y521089D01*
X428999Y521083D01*
X428899Y521081D01*
X426288Y521081D01*
X457581Y530479D02*
X460714Y521081D01*
X463846Y530479D01*
X469310Y521081D02*
X471398Y521081D01*
X469310Y521081D02*
X469221Y521083D01*
X469133Y521089D01*
X469045Y521098D01*
X468957Y521111D01*
X468870Y521128D01*
X468784Y521148D01*
X468699Y521173D01*
X468614Y521200D01*
X468531Y521232D01*
X468450Y521266D01*
X468370Y521305D01*
X468292Y521346D01*
X468215Y521391D01*
X468141Y521439D01*
X468068Y521490D01*
X467998Y521544D01*
X467931Y521602D01*
X467865Y521662D01*
X467803Y521724D01*
X467743Y521790D01*
X467685Y521857D01*
X467631Y521927D01*
X467580Y522000D01*
X467532Y522074D01*
X467487Y522151D01*
X467446Y522229D01*
X467407Y522309D01*
X467373Y522390D01*
X467341Y522473D01*
X467314Y522558D01*
X467289Y522643D01*
X467269Y522729D01*
X467252Y522816D01*
X467239Y522904D01*
X467230Y522992D01*
X467224Y523080D01*
X467222Y523169D01*
X467221Y523169D02*
X467221Y528391D01*
X467222Y528391D02*
X467224Y528482D01*
X467230Y528573D01*
X467240Y528664D01*
X467254Y528754D01*
X467271Y528843D01*
X467293Y528931D01*
X467319Y529019D01*
X467348Y529105D01*
X467381Y529190D01*
X467418Y529273D01*
X467458Y529355D01*
X467502Y529435D01*
X467549Y529513D01*
X467600Y529589D01*
X467653Y529662D01*
X467710Y529733D01*
X467771Y529802D01*
X467834Y529867D01*
X467899Y529930D01*
X467968Y529990D01*
X468039Y530048D01*
X468112Y530101D01*
X468188Y530152D01*
X468266Y530199D01*
X468346Y530243D01*
X468428Y530283D01*
X468511Y530320D01*
X468596Y530353D01*
X468682Y530382D01*
X468770Y530408D01*
X468858Y530430D01*
X468947Y530447D01*
X469037Y530461D01*
X469128Y530471D01*
X469219Y530477D01*
X469310Y530479D01*
X471398Y530479D01*
X476930Y521081D02*
X479018Y521081D01*
X476930Y521081D02*
X476841Y521083D01*
X476753Y521089D01*
X476665Y521098D01*
X476577Y521111D01*
X476490Y521128D01*
X476404Y521148D01*
X476319Y521173D01*
X476234Y521200D01*
X476151Y521232D01*
X476070Y521266D01*
X475990Y521305D01*
X475912Y521346D01*
X475835Y521391D01*
X475761Y521439D01*
X475688Y521490D01*
X475618Y521544D01*
X475551Y521602D01*
X475485Y521662D01*
X475423Y521724D01*
X475363Y521790D01*
X475305Y521857D01*
X475251Y521927D01*
X475200Y522000D01*
X475152Y522074D01*
X475107Y522151D01*
X475066Y522229D01*
X475027Y522309D01*
X474993Y522390D01*
X474961Y522473D01*
X474934Y522558D01*
X474909Y522643D01*
X474889Y522729D01*
X474872Y522816D01*
X474859Y522904D01*
X474850Y522992D01*
X474844Y523080D01*
X474842Y523169D01*
X474841Y523169D02*
X474841Y528391D01*
X474842Y528391D02*
X474844Y528482D01*
X474850Y528573D01*
X474860Y528664D01*
X474874Y528754D01*
X474891Y528843D01*
X474913Y528931D01*
X474939Y529019D01*
X474968Y529105D01*
X475001Y529190D01*
X475038Y529273D01*
X475078Y529355D01*
X475122Y529435D01*
X475169Y529513D01*
X475220Y529589D01*
X475273Y529662D01*
X475330Y529733D01*
X475391Y529802D01*
X475454Y529867D01*
X475519Y529930D01*
X475588Y529990D01*
X475659Y530048D01*
X475732Y530101D01*
X475808Y530152D01*
X475886Y530199D01*
X475966Y530243D01*
X476048Y530283D01*
X476131Y530320D01*
X476216Y530353D01*
X476302Y530382D01*
X476390Y530408D01*
X476478Y530430D01*
X476567Y530447D01*
X476657Y530461D01*
X476748Y530471D01*
X476839Y530477D01*
X476930Y530479D01*
X479018Y530479D01*
D10*
X76200Y254000D02*
X50800Y254000D01*
X50800Y231140D01*
X53340Y228600D01*
X50800Y226060D01*
X50800Y205740D01*
X53340Y203200D01*
X50800Y200660D01*
X50800Y180340D01*
X53340Y177800D01*
X50800Y175260D01*
X50800Y154940D01*
X53340Y152400D01*
X50800Y149860D01*
X50800Y127000D01*
X76200Y127000D01*
X76200Y149860D01*
X73660Y152400D01*
X76200Y154940D01*
X76200Y175260D01*
X73660Y177800D01*
X76200Y180340D01*
X76200Y200660D01*
X73660Y203200D01*
X76200Y205740D01*
X76200Y226060D01*
X73660Y228600D01*
X76200Y231140D01*
X76200Y254000D01*
D12*
X60325Y258445D02*
X57785Y261620D01*
X69215Y261620D01*
X69215Y258445D02*
X69215Y264795D01*
X69215Y121285D02*
X69215Y117475D01*
X69215Y121285D02*
X69213Y121385D01*
X69207Y121484D01*
X69197Y121584D01*
X69184Y121682D01*
X69166Y121781D01*
X69145Y121878D01*
X69120Y121974D01*
X69091Y122070D01*
X69058Y122164D01*
X69022Y122257D01*
X68982Y122348D01*
X68938Y122438D01*
X68891Y122526D01*
X68841Y122612D01*
X68787Y122696D01*
X68730Y122778D01*
X68670Y122857D01*
X68606Y122935D01*
X68540Y123009D01*
X68471Y123081D01*
X68399Y123150D01*
X68325Y123216D01*
X68247Y123280D01*
X68168Y123340D01*
X68086Y123397D01*
X68002Y123451D01*
X67916Y123501D01*
X67828Y123548D01*
X67738Y123592D01*
X67647Y123632D01*
X67554Y123668D01*
X67460Y123701D01*
X67364Y123730D01*
X67268Y123755D01*
X67171Y123776D01*
X67072Y123794D01*
X66974Y123807D01*
X66874Y123817D01*
X66775Y123823D01*
X66675Y123825D01*
X65405Y123825D01*
X65305Y123823D01*
X65206Y123817D01*
X65106Y123807D01*
X65008Y123794D01*
X64909Y123776D01*
X64812Y123755D01*
X64716Y123730D01*
X64620Y123701D01*
X64526Y123668D01*
X64433Y123632D01*
X64342Y123592D01*
X64252Y123548D01*
X64164Y123501D01*
X64078Y123451D01*
X63994Y123397D01*
X63912Y123340D01*
X63833Y123280D01*
X63755Y123216D01*
X63681Y123150D01*
X63609Y123081D01*
X63540Y123009D01*
X63474Y122935D01*
X63410Y122857D01*
X63350Y122778D01*
X63293Y122696D01*
X63239Y122612D01*
X63189Y122526D01*
X63142Y122438D01*
X63098Y122348D01*
X63058Y122257D01*
X63022Y122164D01*
X62989Y122070D01*
X62960Y121974D01*
X62935Y121878D01*
X62914Y121781D01*
X62896Y121682D01*
X62883Y121584D01*
X62873Y121484D01*
X62867Y121385D01*
X62865Y121285D01*
X62865Y117475D01*
X57785Y117475D01*
X57785Y123825D01*
X86995Y183559D02*
X86995Y187369D01*
X86995Y183559D02*
X86993Y183459D01*
X86987Y183360D01*
X86977Y183260D01*
X86964Y183162D01*
X86946Y183063D01*
X86925Y182966D01*
X86900Y182870D01*
X86871Y182774D01*
X86838Y182680D01*
X86802Y182587D01*
X86762Y182496D01*
X86718Y182406D01*
X86671Y182318D01*
X86621Y182232D01*
X86567Y182148D01*
X86510Y182066D01*
X86450Y181987D01*
X86386Y181909D01*
X86320Y181835D01*
X86251Y181763D01*
X86179Y181694D01*
X86105Y181628D01*
X86027Y181564D01*
X85948Y181504D01*
X85866Y181447D01*
X85782Y181393D01*
X85696Y181343D01*
X85608Y181296D01*
X85518Y181252D01*
X85427Y181212D01*
X85334Y181176D01*
X85240Y181143D01*
X85144Y181114D01*
X85048Y181089D01*
X84951Y181068D01*
X84852Y181050D01*
X84754Y181037D01*
X84654Y181027D01*
X84555Y181021D01*
X84455Y181019D01*
X83820Y181019D01*
X83709Y181021D01*
X83599Y181027D01*
X83488Y181036D01*
X83378Y181050D01*
X83269Y181067D01*
X83160Y181088D01*
X83052Y181113D01*
X82945Y181142D01*
X82839Y181174D01*
X82734Y181210D01*
X82631Y181250D01*
X82529Y181293D01*
X82428Y181340D01*
X82329Y181391D01*
X82233Y181444D01*
X82138Y181501D01*
X82045Y181562D01*
X81954Y181625D01*
X81865Y181692D01*
X81779Y181762D01*
X81696Y181835D01*
X81614Y181910D01*
X81536Y181988D01*
X81461Y182070D01*
X81388Y182153D01*
X81318Y182239D01*
X81251Y182328D01*
X81188Y182419D01*
X81127Y182512D01*
X81070Y182607D01*
X81017Y182703D01*
X80966Y182802D01*
X80919Y182903D01*
X80876Y183005D01*
X80836Y183108D01*
X80800Y183213D01*
X80768Y183319D01*
X80739Y183426D01*
X80714Y183534D01*
X80693Y183643D01*
X80676Y183752D01*
X80662Y183862D01*
X80653Y183973D01*
X80647Y184083D01*
X80645Y184194D01*
X80647Y184305D01*
X80653Y184415D01*
X80662Y184526D01*
X80676Y184636D01*
X80693Y184745D01*
X80714Y184854D01*
X80739Y184962D01*
X80768Y185069D01*
X80800Y185175D01*
X80836Y185280D01*
X80876Y185383D01*
X80919Y185485D01*
X80966Y185586D01*
X81017Y185685D01*
X81070Y185782D01*
X81127Y185876D01*
X81188Y185969D01*
X81251Y186060D01*
X81318Y186149D01*
X81388Y186235D01*
X81461Y186318D01*
X81536Y186400D01*
X81614Y186478D01*
X81696Y186553D01*
X81779Y186626D01*
X81865Y186696D01*
X81954Y186763D01*
X82045Y186826D01*
X82138Y186887D01*
X82233Y186944D01*
X82329Y186997D01*
X82428Y187048D01*
X82529Y187095D01*
X82631Y187138D01*
X82734Y187178D01*
X82839Y187214D01*
X82945Y187246D01*
X83052Y187275D01*
X83160Y187300D01*
X83269Y187321D01*
X83378Y187338D01*
X83488Y187352D01*
X83599Y187361D01*
X83709Y187367D01*
X83820Y187369D01*
X86995Y187369D01*
X87135Y187367D01*
X87275Y187361D01*
X87415Y187352D01*
X87554Y187338D01*
X87693Y187321D01*
X87831Y187300D01*
X87969Y187275D01*
X88106Y187246D01*
X88242Y187214D01*
X88377Y187177D01*
X88511Y187137D01*
X88644Y187094D01*
X88776Y187046D01*
X88907Y186996D01*
X89036Y186941D01*
X89163Y186883D01*
X89289Y186822D01*
X89413Y186757D01*
X89535Y186688D01*
X89655Y186617D01*
X89773Y186542D01*
X89890Y186464D01*
X90004Y186382D01*
X90115Y186298D01*
X90224Y186210D01*
X90331Y186120D01*
X90436Y186026D01*
X90537Y185930D01*
X90636Y185831D01*
X90732Y185730D01*
X90826Y185625D01*
X90916Y185518D01*
X91004Y185409D01*
X91088Y185298D01*
X91170Y185184D01*
X91248Y185067D01*
X91323Y184949D01*
X91394Y184829D01*
X91463Y184707D01*
X91528Y184583D01*
X91589Y184457D01*
X91647Y184330D01*
X91702Y184201D01*
X91752Y184070D01*
X91800Y183938D01*
X91843Y183805D01*
X91883Y183671D01*
X91920Y183536D01*
X91952Y183400D01*
X91981Y183263D01*
X92006Y183125D01*
X92027Y182987D01*
X92044Y182848D01*
X92058Y182709D01*
X92067Y182569D01*
X92073Y182429D01*
X92075Y182289D01*
X92075Y195624D02*
X80645Y191814D01*
X80645Y199434D02*
X92075Y195624D01*
X93345Y203371D02*
X93345Y208451D01*
X92075Y216452D02*
X92073Y216552D01*
X92067Y216651D01*
X92057Y216751D01*
X92044Y216849D01*
X92026Y216948D01*
X92005Y217045D01*
X91980Y217141D01*
X91951Y217237D01*
X91918Y217331D01*
X91882Y217424D01*
X91842Y217515D01*
X91798Y217605D01*
X91751Y217693D01*
X91701Y217779D01*
X91647Y217863D01*
X91590Y217945D01*
X91530Y218024D01*
X91466Y218102D01*
X91400Y218176D01*
X91331Y218248D01*
X91259Y218317D01*
X91185Y218383D01*
X91107Y218447D01*
X91028Y218507D01*
X90946Y218564D01*
X90862Y218618D01*
X90776Y218668D01*
X90688Y218715D01*
X90598Y218759D01*
X90507Y218799D01*
X90414Y218835D01*
X90320Y218868D01*
X90224Y218897D01*
X90128Y218922D01*
X90031Y218943D01*
X89932Y218961D01*
X89834Y218974D01*
X89734Y218984D01*
X89635Y218990D01*
X89535Y218992D01*
X92075Y216452D02*
X92073Y216311D01*
X92068Y216170D01*
X92058Y216029D01*
X92045Y215888D01*
X92029Y215748D01*
X92008Y215608D01*
X91984Y215469D01*
X91956Y215330D01*
X91925Y215193D01*
X91890Y215056D01*
X91852Y214920D01*
X91810Y214785D01*
X91764Y214652D01*
X91715Y214519D01*
X91662Y214388D01*
X91606Y214259D01*
X91547Y214130D01*
X91484Y214004D01*
X91418Y213879D01*
X91349Y213756D01*
X91276Y213635D01*
X91200Y213516D01*
X91121Y213398D01*
X91040Y213283D01*
X90955Y213171D01*
X90867Y213060D01*
X90776Y212952D01*
X90683Y212846D01*
X90586Y212743D01*
X90487Y212642D01*
X83185Y212960D02*
X83085Y212962D01*
X82986Y212968D01*
X82886Y212978D01*
X82788Y212991D01*
X82689Y213009D01*
X82592Y213030D01*
X82496Y213055D01*
X82400Y213084D01*
X82306Y213117D01*
X82213Y213153D01*
X82122Y213193D01*
X82032Y213237D01*
X81944Y213284D01*
X81858Y213334D01*
X81774Y213388D01*
X81692Y213445D01*
X81613Y213505D01*
X81535Y213569D01*
X81461Y213635D01*
X81389Y213704D01*
X81320Y213776D01*
X81254Y213850D01*
X81190Y213928D01*
X81130Y214007D01*
X81073Y214089D01*
X81019Y214173D01*
X80969Y214259D01*
X80922Y214347D01*
X80878Y214437D01*
X80838Y214528D01*
X80802Y214621D01*
X80769Y214715D01*
X80740Y214811D01*
X80715Y214907D01*
X80694Y215004D01*
X80676Y215103D01*
X80663Y215201D01*
X80653Y215301D01*
X80647Y215400D01*
X80645Y215500D01*
X80647Y215633D01*
X80652Y215766D01*
X80662Y215899D01*
X80675Y216032D01*
X80692Y216164D01*
X80712Y216296D01*
X80736Y216427D01*
X80764Y216557D01*
X80795Y216687D01*
X80830Y216815D01*
X80869Y216943D01*
X80911Y217069D01*
X80957Y217194D01*
X81006Y217318D01*
X81058Y217441D01*
X81114Y217562D01*
X81174Y217681D01*
X81236Y217799D01*
X81302Y217914D01*
X81371Y218028D01*
X81444Y218140D01*
X81519Y218250D01*
X81598Y218358D01*
X85408Y214229D02*
X85356Y214145D01*
X85301Y214062D01*
X85242Y213982D01*
X85181Y213904D01*
X85117Y213829D01*
X85049Y213756D01*
X84979Y213685D01*
X84907Y213618D01*
X84832Y213553D01*
X84754Y213491D01*
X84674Y213432D01*
X84592Y213376D01*
X84508Y213324D01*
X84422Y213275D01*
X84334Y213229D01*
X84244Y213186D01*
X84153Y213147D01*
X84060Y213112D01*
X83966Y213080D01*
X83871Y213052D01*
X83775Y213027D01*
X83678Y213007D01*
X83580Y212989D01*
X83482Y212976D01*
X83383Y212967D01*
X83284Y212961D01*
X83185Y212959D01*
X87312Y217723D02*
X87364Y217807D01*
X87419Y217890D01*
X87478Y217970D01*
X87539Y218048D01*
X87603Y218123D01*
X87671Y218196D01*
X87741Y218267D01*
X87813Y218334D01*
X87888Y218399D01*
X87966Y218461D01*
X88046Y218520D01*
X88128Y218576D01*
X88212Y218628D01*
X88298Y218677D01*
X88386Y218723D01*
X88476Y218766D01*
X88567Y218805D01*
X88660Y218840D01*
X88754Y218872D01*
X88849Y218900D01*
X88945Y218925D01*
X89042Y218945D01*
X89140Y218963D01*
X89238Y218976D01*
X89337Y218985D01*
X89436Y218991D01*
X89535Y218993D01*
X87313Y217722D02*
X85408Y214230D01*
X80645Y224263D02*
X92075Y224263D01*
X80645Y224263D02*
X80645Y227438D01*
X80647Y227549D01*
X80653Y227659D01*
X80662Y227770D01*
X80676Y227880D01*
X80693Y227989D01*
X80714Y228098D01*
X80739Y228206D01*
X80768Y228313D01*
X80800Y228419D01*
X80836Y228524D01*
X80876Y228627D01*
X80919Y228729D01*
X80966Y228830D01*
X81017Y228929D01*
X81070Y229026D01*
X81127Y229120D01*
X81188Y229213D01*
X81251Y229304D01*
X81318Y229393D01*
X81388Y229479D01*
X81461Y229562D01*
X81536Y229644D01*
X81614Y229722D01*
X81696Y229797D01*
X81779Y229870D01*
X81865Y229940D01*
X81954Y230007D01*
X82045Y230070D01*
X82138Y230131D01*
X82233Y230188D01*
X82329Y230241D01*
X82428Y230292D01*
X82529Y230339D01*
X82631Y230382D01*
X82734Y230422D01*
X82839Y230458D01*
X82945Y230490D01*
X83052Y230519D01*
X83160Y230544D01*
X83269Y230565D01*
X83378Y230582D01*
X83488Y230596D01*
X83599Y230605D01*
X83709Y230611D01*
X83820Y230613D01*
X83931Y230611D01*
X84041Y230605D01*
X84152Y230596D01*
X84262Y230582D01*
X84371Y230565D01*
X84480Y230544D01*
X84588Y230519D01*
X84695Y230490D01*
X84801Y230458D01*
X84906Y230422D01*
X85009Y230382D01*
X85111Y230339D01*
X85212Y230292D01*
X85311Y230241D01*
X85408Y230188D01*
X85502Y230131D01*
X85595Y230070D01*
X85686Y230007D01*
X85775Y229940D01*
X85861Y229870D01*
X85944Y229797D01*
X86026Y229722D01*
X86104Y229644D01*
X86179Y229562D01*
X86252Y229479D01*
X86322Y229393D01*
X86389Y229304D01*
X86452Y229213D01*
X86513Y229120D01*
X86570Y229026D01*
X86623Y228929D01*
X86674Y228830D01*
X86721Y228729D01*
X86764Y228627D01*
X86804Y228524D01*
X86840Y228419D01*
X86872Y228313D01*
X86901Y228206D01*
X86926Y228098D01*
X86947Y227989D01*
X86964Y227880D01*
X86978Y227770D01*
X86987Y227659D01*
X86993Y227549D01*
X86995Y227438D01*
X86995Y224263D01*
X92075Y235693D02*
X80645Y235693D01*
X80645Y242043D02*
X87630Y235693D01*
X85090Y238233D02*
X92075Y242043D01*
X92075Y247015D02*
X80645Y247015D01*
X80645Y250190D01*
X80647Y250301D01*
X80653Y250411D01*
X80662Y250522D01*
X80676Y250632D01*
X80693Y250741D01*
X80714Y250850D01*
X80739Y250958D01*
X80768Y251065D01*
X80800Y251171D01*
X80836Y251276D01*
X80876Y251379D01*
X80919Y251481D01*
X80966Y251582D01*
X81017Y251681D01*
X81070Y251778D01*
X81127Y251872D01*
X81188Y251965D01*
X81251Y252056D01*
X81318Y252145D01*
X81388Y252231D01*
X81461Y252314D01*
X81536Y252396D01*
X81614Y252474D01*
X81696Y252549D01*
X81779Y252622D01*
X81865Y252692D01*
X81954Y252759D01*
X82045Y252822D01*
X82138Y252883D01*
X82233Y252940D01*
X82329Y252993D01*
X82428Y253044D01*
X82529Y253091D01*
X82631Y253134D01*
X82734Y253174D01*
X82839Y253210D01*
X82945Y253242D01*
X83052Y253271D01*
X83160Y253296D01*
X83269Y253317D01*
X83378Y253334D01*
X83488Y253348D01*
X83599Y253357D01*
X83709Y253363D01*
X83820Y253365D01*
X83931Y253363D01*
X84041Y253357D01*
X84152Y253348D01*
X84262Y253334D01*
X84371Y253317D01*
X84480Y253296D01*
X84588Y253271D01*
X84695Y253242D01*
X84801Y253210D01*
X84906Y253174D01*
X85009Y253134D01*
X85111Y253091D01*
X85212Y253044D01*
X85311Y252993D01*
X85408Y252940D01*
X85502Y252883D01*
X85595Y252822D01*
X85686Y252759D01*
X85775Y252692D01*
X85861Y252622D01*
X85944Y252549D01*
X86026Y252474D01*
X86104Y252396D01*
X86179Y252314D01*
X86252Y252231D01*
X86322Y252145D01*
X86389Y252056D01*
X86452Y251965D01*
X86513Y251872D01*
X86570Y251778D01*
X86623Y251681D01*
X86674Y251582D01*
X86721Y251481D01*
X86764Y251379D01*
X86804Y251276D01*
X86840Y251171D01*
X86872Y251065D01*
X86901Y250958D01*
X86926Y250850D01*
X86947Y250741D01*
X86964Y250632D01*
X86978Y250522D01*
X86987Y250411D01*
X86993Y250301D01*
X86995Y250190D01*
X86995Y247015D01*
X86995Y250825D02*
X92075Y253365D01*
D10*
X173990Y342900D02*
X176530Y342900D01*
X173990Y342900D02*
X173990Y354330D01*
X167640Y354330D01*
X167640Y331470D01*
X173990Y331470D01*
X173990Y342900D01*
X158750Y342900D02*
X153670Y342900D01*
X198120Y330200D02*
X198120Y322580D01*
X201930Y326390D02*
X194310Y326390D01*
X120650Y342900D02*
X120663Y343991D01*
X120704Y345081D01*
X120770Y346170D01*
X120864Y347257D01*
X120984Y348341D01*
X121131Y349422D01*
X121304Y350499D01*
X121504Y351572D01*
X121730Y352639D01*
X121982Y353700D01*
X122260Y354755D01*
X122564Y355803D01*
X122893Y356843D01*
X123248Y357875D01*
X123628Y358897D01*
X124034Y359910D01*
X124463Y360913D01*
X124918Y361905D01*
X125396Y362885D01*
X125899Y363854D01*
X126425Y364809D01*
X126974Y365752D01*
X127546Y366681D01*
X128141Y367595D01*
X128758Y368495D01*
X129397Y369379D01*
X130058Y370247D01*
X130740Y371099D01*
X131442Y371934D01*
X132165Y372751D01*
X132907Y373550D01*
X133669Y374331D01*
X134450Y375093D01*
X135249Y375835D01*
X136066Y376558D01*
X136901Y377260D01*
X137753Y377942D01*
X138621Y378603D01*
X139505Y379242D01*
X140405Y379859D01*
X141319Y380454D01*
X142248Y381026D01*
X143191Y381575D01*
X144146Y382101D01*
X145115Y382604D01*
X146095Y383082D01*
X147087Y383537D01*
X148090Y383966D01*
X149103Y384372D01*
X150125Y384752D01*
X151157Y385107D01*
X152197Y385436D01*
X153245Y385740D01*
X154300Y386018D01*
X155361Y386270D01*
X156428Y386496D01*
X157501Y386696D01*
X158578Y386869D01*
X159659Y387016D01*
X160743Y387136D01*
X161830Y387230D01*
X162919Y387296D01*
X164009Y387337D01*
X165100Y387350D01*
X166191Y387337D01*
X167281Y387296D01*
X168370Y387230D01*
X169457Y387136D01*
X170541Y387016D01*
X171622Y386869D01*
X172699Y386696D01*
X173772Y386496D01*
X174839Y386270D01*
X175900Y386018D01*
X176955Y385740D01*
X178003Y385436D01*
X179043Y385107D01*
X180075Y384752D01*
X181097Y384372D01*
X182110Y383966D01*
X183113Y383537D01*
X184105Y383082D01*
X185085Y382604D01*
X186054Y382101D01*
X187009Y381575D01*
X187952Y381026D01*
X188881Y380454D01*
X189795Y379859D01*
X190695Y379242D01*
X191579Y378603D01*
X192447Y377942D01*
X193299Y377260D01*
X194134Y376558D01*
X194951Y375835D01*
X195750Y375093D01*
X196531Y374331D01*
X197293Y373550D01*
X198035Y372751D01*
X198758Y371934D01*
X199460Y371099D01*
X200142Y370247D01*
X200803Y369379D01*
X201442Y368495D01*
X202059Y367595D01*
X202654Y366681D01*
X203226Y365752D01*
X203775Y364809D01*
X204301Y363854D01*
X204804Y362885D01*
X205282Y361905D01*
X205737Y360913D01*
X206166Y359910D01*
X206572Y358897D01*
X206952Y357875D01*
X207307Y356843D01*
X207636Y355803D01*
X207940Y354755D01*
X208218Y353700D01*
X208470Y352639D01*
X208696Y351572D01*
X208896Y350499D01*
X209069Y349422D01*
X209216Y348341D01*
X209336Y347257D01*
X209430Y346170D01*
X209496Y345081D01*
X209537Y343991D01*
X209550Y342900D01*
X209537Y341809D01*
X209496Y340719D01*
X209430Y339630D01*
X209336Y338543D01*
X209216Y337459D01*
X209069Y336378D01*
X208896Y335301D01*
X208696Y334228D01*
X208470Y333161D01*
X208218Y332100D01*
X207940Y331045D01*
X207636Y329997D01*
X207307Y328957D01*
X206952Y327925D01*
X206572Y326903D01*
X206166Y325890D01*
X205737Y324887D01*
X205282Y323895D01*
X204804Y322915D01*
X204301Y321946D01*
X203775Y320991D01*
X203226Y320048D01*
X202654Y319119D01*
X202059Y318205D01*
X201442Y317305D01*
X200803Y316421D01*
X200142Y315553D01*
X199460Y314701D01*
X198758Y313866D01*
X198035Y313049D01*
X197293Y312250D01*
X196531Y311469D01*
X195750Y310707D01*
X194951Y309965D01*
X194134Y309242D01*
X193299Y308540D01*
X192447Y307858D01*
X191579Y307197D01*
X190695Y306558D01*
X189795Y305941D01*
X188881Y305346D01*
X187952Y304774D01*
X187009Y304225D01*
X186054Y303699D01*
X185085Y303196D01*
X184105Y302718D01*
X183113Y302263D01*
X182110Y301834D01*
X181097Y301428D01*
X180075Y301048D01*
X179043Y300693D01*
X178003Y300364D01*
X176955Y300060D01*
X175900Y299782D01*
X174839Y299530D01*
X173772Y299304D01*
X172699Y299104D01*
X171622Y298931D01*
X170541Y298784D01*
X169457Y298664D01*
X168370Y298570D01*
X167281Y298504D01*
X166191Y298463D01*
X165100Y298450D01*
X164009Y298463D01*
X162919Y298504D01*
X161830Y298570D01*
X160743Y298664D01*
X159659Y298784D01*
X158578Y298931D01*
X157501Y299104D01*
X156428Y299304D01*
X155361Y299530D01*
X154300Y299782D01*
X153245Y300060D01*
X152197Y300364D01*
X151157Y300693D01*
X150125Y301048D01*
X149103Y301428D01*
X148090Y301834D01*
X147087Y302263D01*
X146095Y302718D01*
X145115Y303196D01*
X144146Y303699D01*
X143191Y304225D01*
X142248Y304774D01*
X141319Y305346D01*
X140405Y305941D01*
X139505Y306558D01*
X138621Y307197D01*
X137753Y307858D01*
X136901Y308540D01*
X136066Y309242D01*
X135249Y309965D01*
X134450Y310707D01*
X133669Y311469D01*
X132907Y312250D01*
X132165Y313049D01*
X131442Y313866D01*
X130740Y314701D01*
X130058Y315553D01*
X129397Y316421D01*
X128758Y317305D01*
X128141Y318205D01*
X127546Y319119D01*
X126974Y320048D01*
X126425Y320991D01*
X125899Y321946D01*
X125396Y322915D01*
X124918Y323895D01*
X124463Y324887D01*
X124034Y325890D01*
X123628Y326903D01*
X123248Y327925D01*
X122893Y328957D01*
X122564Y329997D01*
X122260Y331045D01*
X121982Y332100D01*
X121730Y333161D01*
X121504Y334228D01*
X121304Y335301D01*
X121131Y336378D01*
X120984Y337459D01*
X120864Y338543D01*
X120770Y339630D01*
X120704Y340719D01*
X120663Y341809D01*
X120650Y342900D01*
D13*
X159385Y342900D03*
D12*
X160491Y307975D02*
X163031Y307975D01*
X160491Y307975D02*
X160391Y307977D01*
X160292Y307983D01*
X160192Y307993D01*
X160094Y308006D01*
X159995Y308024D01*
X159898Y308045D01*
X159802Y308070D01*
X159706Y308099D01*
X159612Y308132D01*
X159519Y308168D01*
X159428Y308208D01*
X159338Y308252D01*
X159250Y308299D01*
X159164Y308349D01*
X159080Y308403D01*
X158998Y308460D01*
X158919Y308520D01*
X158841Y308584D01*
X158767Y308650D01*
X158695Y308719D01*
X158626Y308791D01*
X158560Y308865D01*
X158496Y308943D01*
X158436Y309022D01*
X158379Y309104D01*
X158325Y309188D01*
X158275Y309274D01*
X158228Y309362D01*
X158184Y309452D01*
X158144Y309543D01*
X158108Y309636D01*
X158075Y309730D01*
X158046Y309826D01*
X158021Y309922D01*
X158000Y310019D01*
X157982Y310118D01*
X157969Y310216D01*
X157959Y310316D01*
X157953Y310415D01*
X157951Y310515D01*
X157951Y316865D01*
X157953Y316965D01*
X157959Y317064D01*
X157969Y317164D01*
X157982Y317262D01*
X158000Y317361D01*
X158021Y317458D01*
X158046Y317554D01*
X158075Y317650D01*
X158108Y317744D01*
X158144Y317837D01*
X158184Y317928D01*
X158228Y318018D01*
X158275Y318106D01*
X158325Y318192D01*
X158379Y318276D01*
X158436Y318358D01*
X158496Y318437D01*
X158560Y318515D01*
X158626Y318589D01*
X158695Y318661D01*
X158767Y318730D01*
X158841Y318796D01*
X158919Y318860D01*
X158998Y318920D01*
X159080Y318977D01*
X159164Y319031D01*
X159250Y319081D01*
X159338Y319128D01*
X159428Y319172D01*
X159519Y319212D01*
X159612Y319248D01*
X159706Y319281D01*
X159802Y319310D01*
X159898Y319335D01*
X159995Y319356D01*
X160094Y319374D01*
X160192Y319387D01*
X160292Y319397D01*
X160391Y319403D01*
X160491Y319405D01*
X163031Y319405D01*
X167513Y316865D02*
X170688Y319405D01*
X170688Y307975D01*
X167513Y307975D02*
X173863Y307975D01*
D10*
X300990Y304800D02*
X303530Y304800D01*
X300990Y304800D02*
X300990Y316230D01*
X294640Y316230D01*
X294640Y293370D01*
X300990Y293370D01*
X300990Y304800D01*
X285750Y304800D02*
X280670Y304800D01*
X330200Y295910D02*
X330200Y288290D01*
X326390Y292100D02*
X334010Y292100D01*
X241300Y304800D02*
X241315Y306047D01*
X241361Y307293D01*
X241438Y308537D01*
X241545Y309779D01*
X241682Y311018D01*
X241850Y312254D01*
X242048Y313485D01*
X242276Y314711D01*
X242534Y315930D01*
X242822Y317143D01*
X243140Y318349D01*
X243487Y319546D01*
X243864Y320735D01*
X244270Y321914D01*
X244704Y323083D01*
X245167Y324240D01*
X245658Y325386D01*
X246177Y326520D01*
X246724Y327640D01*
X247298Y328747D01*
X247900Y329839D01*
X248527Y330916D01*
X249181Y331978D01*
X249861Y333023D01*
X250567Y334051D01*
X251297Y335062D01*
X252052Y336054D01*
X252831Y337027D01*
X253634Y337981D01*
X254460Y338915D01*
X255308Y339829D01*
X256179Y340721D01*
X257071Y341592D01*
X257985Y342440D01*
X258919Y343266D01*
X259873Y344069D01*
X260846Y344848D01*
X261838Y345603D01*
X262849Y346333D01*
X263877Y347039D01*
X264922Y347719D01*
X265984Y348373D01*
X267061Y349000D01*
X268153Y349602D01*
X269260Y350176D01*
X270380Y350723D01*
X271514Y351242D01*
X272660Y351733D01*
X273817Y352196D01*
X274986Y352630D01*
X276165Y353036D01*
X277354Y353413D01*
X278551Y353760D01*
X279757Y354078D01*
X280970Y354366D01*
X282189Y354624D01*
X283415Y354852D01*
X284646Y355050D01*
X285882Y355218D01*
X287121Y355355D01*
X288363Y355462D01*
X289607Y355539D01*
X290853Y355585D01*
X292100Y355600D01*
X293347Y355585D01*
X294593Y355539D01*
X295837Y355462D01*
X297079Y355355D01*
X298318Y355218D01*
X299554Y355050D01*
X300785Y354852D01*
X302011Y354624D01*
X303230Y354366D01*
X304443Y354078D01*
X305649Y353760D01*
X306846Y353413D01*
X308035Y353036D01*
X309214Y352630D01*
X310383Y352196D01*
X311540Y351733D01*
X312686Y351242D01*
X313820Y350723D01*
X314940Y350176D01*
X316047Y349602D01*
X317139Y349000D01*
X318216Y348373D01*
X319278Y347719D01*
X320323Y347039D01*
X321351Y346333D01*
X322362Y345603D01*
X323354Y344848D01*
X324327Y344069D01*
X325281Y343266D01*
X326215Y342440D01*
X327129Y341592D01*
X328021Y340721D01*
X328892Y339829D01*
X329740Y338915D01*
X330566Y337981D01*
X331369Y337027D01*
X332148Y336054D01*
X332903Y335062D01*
X333633Y334051D01*
X334339Y333023D01*
X335019Y331978D01*
X335673Y330916D01*
X336300Y329839D01*
X336902Y328747D01*
X337476Y327640D01*
X338023Y326520D01*
X338542Y325386D01*
X339033Y324240D01*
X339496Y323083D01*
X339930Y321914D01*
X340336Y320735D01*
X340713Y319546D01*
X341060Y318349D01*
X341378Y317143D01*
X341666Y315930D01*
X341924Y314711D01*
X342152Y313485D01*
X342350Y312254D01*
X342518Y311018D01*
X342655Y309779D01*
X342762Y308537D01*
X342839Y307293D01*
X342885Y306047D01*
X342900Y304800D01*
X342885Y303553D01*
X342839Y302307D01*
X342762Y301063D01*
X342655Y299821D01*
X342518Y298582D01*
X342350Y297346D01*
X342152Y296115D01*
X341924Y294889D01*
X341666Y293670D01*
X341378Y292457D01*
X341060Y291251D01*
X340713Y290054D01*
X340336Y288865D01*
X339930Y287686D01*
X339496Y286517D01*
X339033Y285360D01*
X338542Y284214D01*
X338023Y283080D01*
X337476Y281960D01*
X336902Y280853D01*
X336300Y279761D01*
X335673Y278684D01*
X335019Y277622D01*
X334339Y276577D01*
X333633Y275549D01*
X332903Y274538D01*
X332148Y273546D01*
X331369Y272573D01*
X330566Y271619D01*
X329740Y270685D01*
X328892Y269771D01*
X328021Y268879D01*
X327129Y268008D01*
X326215Y267160D01*
X325281Y266334D01*
X324327Y265531D01*
X323354Y264752D01*
X322362Y263997D01*
X321351Y263267D01*
X320323Y262561D01*
X319278Y261881D01*
X318216Y261227D01*
X317139Y260600D01*
X316047Y259998D01*
X314940Y259424D01*
X313820Y258877D01*
X312686Y258358D01*
X311540Y257867D01*
X310383Y257404D01*
X309214Y256970D01*
X308035Y256564D01*
X306846Y256187D01*
X305649Y255840D01*
X304443Y255522D01*
X303230Y255234D01*
X302011Y254976D01*
X300785Y254748D01*
X299554Y254550D01*
X298318Y254382D01*
X297079Y254245D01*
X295837Y254138D01*
X294593Y254061D01*
X293347Y254015D01*
X292100Y254000D01*
X290853Y254015D01*
X289607Y254061D01*
X288363Y254138D01*
X287121Y254245D01*
X285882Y254382D01*
X284646Y254550D01*
X283415Y254748D01*
X282189Y254976D01*
X280970Y255234D01*
X279757Y255522D01*
X278551Y255840D01*
X277354Y256187D01*
X276165Y256564D01*
X274986Y256970D01*
X273817Y257404D01*
X272660Y257867D01*
X271514Y258358D01*
X270380Y258877D01*
X269260Y259424D01*
X268153Y259998D01*
X267061Y260600D01*
X265984Y261227D01*
X264922Y261881D01*
X263877Y262561D01*
X262849Y263267D01*
X261838Y263997D01*
X260846Y264752D01*
X259873Y265531D01*
X258919Y266334D01*
X257985Y267160D01*
X257071Y268008D01*
X256179Y268879D01*
X255308Y269771D01*
X254460Y270685D01*
X253634Y271619D01*
X252831Y272573D01*
X252052Y273546D01*
X251297Y274538D01*
X250567Y275549D01*
X249861Y276577D01*
X249181Y277622D01*
X248527Y278684D01*
X247900Y279761D01*
X247298Y280853D01*
X246724Y281960D01*
X246177Y283080D01*
X245658Y284214D01*
X245167Y285360D01*
X244704Y286517D01*
X244270Y287686D01*
X243864Y288865D01*
X243487Y290054D01*
X243140Y291251D01*
X242822Y292457D01*
X242534Y293670D01*
X242276Y294889D01*
X242048Y296115D01*
X241850Y297346D01*
X241682Y298582D01*
X241545Y299821D01*
X241438Y301063D01*
X241361Y302307D01*
X241315Y303553D01*
X241300Y304800D01*
D13*
X286385Y304800D03*
D12*
X233643Y265303D02*
X231103Y265303D01*
X231003Y265305D01*
X230904Y265311D01*
X230804Y265321D01*
X230706Y265334D01*
X230607Y265352D01*
X230510Y265373D01*
X230414Y265398D01*
X230318Y265427D01*
X230224Y265460D01*
X230131Y265496D01*
X230040Y265536D01*
X229950Y265580D01*
X229862Y265627D01*
X229776Y265677D01*
X229692Y265731D01*
X229610Y265788D01*
X229531Y265848D01*
X229453Y265912D01*
X229379Y265978D01*
X229307Y266047D01*
X229238Y266119D01*
X229172Y266193D01*
X229108Y266271D01*
X229048Y266350D01*
X228991Y266432D01*
X228937Y266516D01*
X228887Y266602D01*
X228840Y266690D01*
X228796Y266780D01*
X228756Y266871D01*
X228720Y266964D01*
X228687Y267058D01*
X228658Y267154D01*
X228633Y267250D01*
X228612Y267347D01*
X228594Y267446D01*
X228581Y267544D01*
X228571Y267644D01*
X228565Y267743D01*
X228563Y267843D01*
X228563Y274193D01*
X228565Y274293D01*
X228571Y274392D01*
X228581Y274492D01*
X228594Y274590D01*
X228612Y274689D01*
X228633Y274786D01*
X228658Y274882D01*
X228687Y274978D01*
X228720Y275072D01*
X228756Y275165D01*
X228796Y275256D01*
X228840Y275346D01*
X228887Y275434D01*
X228937Y275520D01*
X228991Y275604D01*
X229048Y275686D01*
X229108Y275765D01*
X229172Y275843D01*
X229238Y275917D01*
X229307Y275989D01*
X229379Y276058D01*
X229453Y276124D01*
X229531Y276188D01*
X229610Y276248D01*
X229692Y276305D01*
X229776Y276359D01*
X229862Y276409D01*
X229950Y276456D01*
X230040Y276500D01*
X230131Y276540D01*
X230224Y276576D01*
X230318Y276609D01*
X230414Y276638D01*
X230510Y276663D01*
X230607Y276684D01*
X230706Y276702D01*
X230804Y276715D01*
X230904Y276725D01*
X231003Y276731D01*
X231103Y276733D01*
X233643Y276733D01*
X241618Y276734D02*
X241722Y276732D01*
X241827Y276726D01*
X241931Y276717D01*
X242034Y276704D01*
X242137Y276686D01*
X242239Y276666D01*
X242341Y276641D01*
X242441Y276613D01*
X242541Y276581D01*
X242639Y276545D01*
X242736Y276506D01*
X242831Y276464D01*
X242925Y276418D01*
X243017Y276368D01*
X243107Y276316D01*
X243195Y276260D01*
X243281Y276200D01*
X243365Y276138D01*
X243446Y276073D01*
X243525Y276005D01*
X243602Y275933D01*
X243675Y275860D01*
X243747Y275783D01*
X243815Y275704D01*
X243880Y275623D01*
X243942Y275539D01*
X244002Y275453D01*
X244058Y275365D01*
X244110Y275275D01*
X244160Y275183D01*
X244206Y275089D01*
X244248Y274994D01*
X244287Y274897D01*
X244323Y274799D01*
X244355Y274699D01*
X244383Y274599D01*
X244408Y274497D01*
X244428Y274395D01*
X244446Y274292D01*
X244459Y274189D01*
X244468Y274085D01*
X244474Y273980D01*
X244476Y273876D01*
X241618Y276733D02*
X241500Y276731D01*
X241381Y276725D01*
X241263Y276716D01*
X241146Y276703D01*
X241029Y276685D01*
X240912Y276665D01*
X240796Y276640D01*
X240681Y276612D01*
X240568Y276579D01*
X240455Y276544D01*
X240343Y276504D01*
X240233Y276462D01*
X240124Y276415D01*
X240016Y276365D01*
X239911Y276312D01*
X239807Y276255D01*
X239705Y276195D01*
X239605Y276132D01*
X239507Y276065D01*
X239411Y275996D01*
X239318Y275923D01*
X239227Y275847D01*
X239138Y275769D01*
X239052Y275687D01*
X238969Y275603D01*
X238888Y275517D01*
X238811Y275427D01*
X238736Y275336D01*
X238664Y275242D01*
X238595Y275145D01*
X238530Y275047D01*
X238467Y274946D01*
X238408Y274843D01*
X238352Y274739D01*
X238300Y274633D01*
X238251Y274525D01*
X238206Y274416D01*
X238164Y274305D01*
X238126Y274193D01*
X243523Y271654D02*
X243599Y271729D01*
X243674Y271808D01*
X243745Y271889D01*
X243814Y271973D01*
X243879Y272059D01*
X243941Y272147D01*
X244001Y272237D01*
X244057Y272329D01*
X244110Y272424D01*
X244159Y272520D01*
X244205Y272618D01*
X244248Y272717D01*
X244287Y272818D01*
X244322Y272920D01*
X244354Y273023D01*
X244382Y273127D01*
X244407Y273232D01*
X244428Y273339D01*
X244445Y273445D01*
X244458Y273552D01*
X244467Y273660D01*
X244473Y273768D01*
X244475Y273876D01*
X243523Y271653D02*
X238125Y265303D01*
X244475Y265303D01*
D10*
X558800Y185420D02*
X558800Y144780D01*
X558800Y185420D02*
X533400Y185420D01*
X533400Y144780D01*
X558800Y144780D01*
X546100Y158750D02*
X546100Y165100D01*
X539750Y175260D02*
X552450Y175260D01*
X546100Y165100D01*
X546100Y180340D01*
X539750Y175260D02*
X546100Y165100D01*
X539750Y165100D01*
X546100Y165100D02*
X552450Y165100D01*
D14*
X546100Y151130D03*
D15*
X546100Y194945D03*
X546100Y135255D03*
D12*
X568325Y151384D02*
X579755Y151384D01*
X568325Y151384D02*
X568325Y154559D01*
X568327Y154670D01*
X568333Y154780D01*
X568342Y154891D01*
X568356Y155001D01*
X568373Y155110D01*
X568394Y155219D01*
X568419Y155327D01*
X568448Y155434D01*
X568480Y155540D01*
X568516Y155645D01*
X568556Y155748D01*
X568599Y155850D01*
X568646Y155951D01*
X568697Y156050D01*
X568750Y156147D01*
X568807Y156241D01*
X568868Y156334D01*
X568931Y156425D01*
X568998Y156514D01*
X569068Y156600D01*
X569141Y156683D01*
X569216Y156765D01*
X569294Y156843D01*
X569376Y156918D01*
X569459Y156991D01*
X569545Y157061D01*
X569634Y157128D01*
X569725Y157191D01*
X569818Y157252D01*
X569913Y157309D01*
X570009Y157362D01*
X570108Y157413D01*
X570209Y157460D01*
X570311Y157503D01*
X570414Y157543D01*
X570519Y157579D01*
X570625Y157611D01*
X570732Y157640D01*
X570840Y157665D01*
X570949Y157686D01*
X571058Y157703D01*
X571168Y157717D01*
X571279Y157726D01*
X571389Y157732D01*
X571500Y157734D01*
X576580Y157734D01*
X576691Y157732D01*
X576801Y157726D01*
X576912Y157717D01*
X577022Y157703D01*
X577131Y157686D01*
X577240Y157665D01*
X577348Y157640D01*
X577455Y157611D01*
X577561Y157579D01*
X577666Y157543D01*
X577769Y157503D01*
X577871Y157460D01*
X577972Y157413D01*
X578071Y157362D01*
X578168Y157309D01*
X578262Y157252D01*
X578355Y157191D01*
X578446Y157128D01*
X578535Y157061D01*
X578621Y156991D01*
X578704Y156918D01*
X578786Y156843D01*
X578864Y156765D01*
X578939Y156683D01*
X579012Y156600D01*
X579082Y156514D01*
X579149Y156425D01*
X579212Y156334D01*
X579273Y156241D01*
X579330Y156147D01*
X579383Y156050D01*
X579434Y155951D01*
X579481Y155850D01*
X579524Y155748D01*
X579564Y155645D01*
X579600Y155540D01*
X579632Y155434D01*
X579661Y155327D01*
X579686Y155219D01*
X579707Y155110D01*
X579724Y155001D01*
X579738Y154891D01*
X579747Y154780D01*
X579753Y154670D01*
X579755Y154559D01*
X579755Y151384D01*
X570865Y163195D02*
X568325Y166370D01*
X579755Y166370D01*
X579755Y163195D02*
X579755Y169545D01*
D10*
X469900Y185420D02*
X469900Y144780D01*
X495300Y144780D01*
X495300Y185420D01*
X469900Y185420D01*
X482600Y171450D02*
X482600Y165100D01*
X488950Y154940D02*
X476250Y154940D01*
X482600Y165100D01*
X482600Y149860D01*
X488950Y154940D02*
X482600Y165100D01*
X488950Y165100D01*
X482600Y165100D02*
X476250Y165100D01*
D14*
X482600Y179070D03*
D15*
X482600Y135255D03*
X482600Y194945D03*
D12*
X499745Y153924D02*
X511175Y153924D01*
X499745Y153924D02*
X499745Y157099D01*
X499747Y157210D01*
X499753Y157320D01*
X499762Y157431D01*
X499776Y157541D01*
X499793Y157650D01*
X499814Y157759D01*
X499839Y157867D01*
X499868Y157974D01*
X499900Y158080D01*
X499936Y158185D01*
X499976Y158288D01*
X500019Y158390D01*
X500066Y158491D01*
X500117Y158590D01*
X500170Y158687D01*
X500227Y158781D01*
X500288Y158874D01*
X500351Y158965D01*
X500418Y159054D01*
X500488Y159140D01*
X500561Y159223D01*
X500636Y159305D01*
X500714Y159383D01*
X500796Y159458D01*
X500879Y159531D01*
X500965Y159601D01*
X501054Y159668D01*
X501145Y159731D01*
X501238Y159792D01*
X501333Y159849D01*
X501429Y159902D01*
X501528Y159953D01*
X501629Y160000D01*
X501731Y160043D01*
X501834Y160083D01*
X501939Y160119D01*
X502045Y160151D01*
X502152Y160180D01*
X502260Y160205D01*
X502369Y160226D01*
X502478Y160243D01*
X502588Y160257D01*
X502699Y160266D01*
X502809Y160272D01*
X502920Y160274D01*
X508000Y160274D01*
X508111Y160272D01*
X508221Y160266D01*
X508332Y160257D01*
X508442Y160243D01*
X508551Y160226D01*
X508660Y160205D01*
X508768Y160180D01*
X508875Y160151D01*
X508981Y160119D01*
X509086Y160083D01*
X509189Y160043D01*
X509291Y160000D01*
X509392Y159953D01*
X509491Y159902D01*
X509588Y159849D01*
X509682Y159792D01*
X509775Y159731D01*
X509866Y159668D01*
X509955Y159601D01*
X510041Y159531D01*
X510124Y159458D01*
X510206Y159383D01*
X510284Y159305D01*
X510359Y159223D01*
X510432Y159140D01*
X510502Y159054D01*
X510569Y158965D01*
X510632Y158874D01*
X510693Y158781D01*
X510750Y158687D01*
X510803Y158590D01*
X510854Y158491D01*
X510901Y158390D01*
X510944Y158288D01*
X510984Y158185D01*
X511020Y158080D01*
X511052Y157974D01*
X511081Y157867D01*
X511106Y157759D01*
X511127Y157650D01*
X511144Y157541D01*
X511158Y157431D01*
X511167Y157320D01*
X511173Y157210D01*
X511175Y157099D01*
X511175Y153924D01*
X499745Y169228D02*
X499747Y169332D01*
X499753Y169437D01*
X499762Y169541D01*
X499775Y169644D01*
X499793Y169747D01*
X499813Y169849D01*
X499838Y169951D01*
X499866Y170051D01*
X499898Y170151D01*
X499934Y170249D01*
X499973Y170346D01*
X500015Y170441D01*
X500061Y170535D01*
X500111Y170627D01*
X500163Y170717D01*
X500219Y170805D01*
X500279Y170891D01*
X500341Y170975D01*
X500406Y171056D01*
X500474Y171135D01*
X500546Y171212D01*
X500619Y171285D01*
X500696Y171357D01*
X500775Y171425D01*
X500856Y171490D01*
X500940Y171552D01*
X501026Y171612D01*
X501114Y171668D01*
X501204Y171720D01*
X501296Y171770D01*
X501390Y171816D01*
X501485Y171858D01*
X501582Y171897D01*
X501680Y171933D01*
X501780Y171965D01*
X501880Y171993D01*
X501982Y172018D01*
X502084Y172038D01*
X502187Y172056D01*
X502290Y172069D01*
X502394Y172078D01*
X502499Y172084D01*
X502603Y172086D01*
X499745Y169228D02*
X499747Y169110D01*
X499753Y168991D01*
X499762Y168873D01*
X499775Y168756D01*
X499793Y168639D01*
X499813Y168522D01*
X499838Y168406D01*
X499866Y168291D01*
X499899Y168178D01*
X499934Y168065D01*
X499974Y167953D01*
X500016Y167843D01*
X500063Y167734D01*
X500113Y167626D01*
X500166Y167521D01*
X500223Y167417D01*
X500283Y167315D01*
X500346Y167215D01*
X500413Y167117D01*
X500482Y167021D01*
X500555Y166928D01*
X500631Y166837D01*
X500709Y166748D01*
X500791Y166662D01*
X500875Y166579D01*
X500961Y166498D01*
X501051Y166421D01*
X501142Y166346D01*
X501236Y166274D01*
X501333Y166205D01*
X501431Y166140D01*
X501532Y166077D01*
X501635Y166018D01*
X501739Y165962D01*
X501845Y165910D01*
X501953Y165861D01*
X502062Y165816D01*
X502173Y165774D01*
X502285Y165736D01*
X504825Y171133D02*
X504750Y171209D01*
X504671Y171284D01*
X504590Y171355D01*
X504506Y171424D01*
X504420Y171489D01*
X504332Y171551D01*
X504242Y171611D01*
X504150Y171667D01*
X504055Y171720D01*
X503959Y171769D01*
X503861Y171815D01*
X503762Y171858D01*
X503661Y171897D01*
X503559Y171932D01*
X503456Y171964D01*
X503352Y171992D01*
X503247Y172017D01*
X503140Y172038D01*
X503034Y172055D01*
X502927Y172068D01*
X502819Y172077D01*
X502711Y172083D01*
X502603Y172085D01*
X504825Y171133D02*
X511175Y165735D01*
X511175Y172085D01*
D10*
X139700Y146050D02*
X139700Y133350D01*
X139700Y146050D02*
X146050Y152400D01*
X158750Y152400D02*
X165100Y146050D01*
X146050Y152400D02*
X139700Y158750D01*
X139700Y171450D01*
X146050Y177800D01*
X158750Y177800D02*
X165100Y171450D01*
X165100Y158750D01*
X158750Y152400D01*
X158750Y127000D02*
X146050Y127000D01*
X139700Y133350D01*
X158750Y127000D02*
X165100Y133350D01*
X165100Y146050D01*
X146050Y177800D02*
X139700Y184150D01*
X139700Y196850D01*
X146050Y203200D01*
X158750Y203200D02*
X165100Y196850D01*
X165100Y184150D01*
X158750Y177800D01*
X139700Y209550D02*
X139700Y222250D01*
X146050Y228600D01*
X158750Y228600D01*
X165100Y222250D01*
X146050Y203200D02*
X139700Y209550D01*
X158750Y203200D02*
X165100Y209550D01*
X165100Y222250D01*
D12*
X146685Y119380D02*
X149225Y116205D01*
X146685Y119380D02*
X158115Y119380D01*
X158115Y116205D02*
X158115Y122555D01*
X155575Y231775D02*
X146685Y234315D01*
X155575Y231775D02*
X155575Y238125D01*
X153035Y236220D02*
X158115Y236220D01*
X135255Y127635D02*
X123825Y127635D01*
X123825Y130810D01*
X123827Y130921D01*
X123833Y131031D01*
X123842Y131142D01*
X123856Y131252D01*
X123873Y131361D01*
X123894Y131470D01*
X123919Y131578D01*
X123948Y131685D01*
X123980Y131791D01*
X124016Y131896D01*
X124056Y131999D01*
X124099Y132101D01*
X124146Y132202D01*
X124197Y132301D01*
X124250Y132398D01*
X124307Y132492D01*
X124368Y132585D01*
X124431Y132676D01*
X124498Y132765D01*
X124568Y132851D01*
X124641Y132934D01*
X124716Y133016D01*
X124794Y133094D01*
X124876Y133169D01*
X124959Y133242D01*
X125045Y133312D01*
X125134Y133379D01*
X125225Y133442D01*
X125318Y133503D01*
X125413Y133560D01*
X125509Y133613D01*
X125608Y133664D01*
X125709Y133711D01*
X125811Y133754D01*
X125914Y133794D01*
X126019Y133830D01*
X126125Y133862D01*
X126232Y133891D01*
X126340Y133916D01*
X126449Y133937D01*
X126558Y133954D01*
X126668Y133968D01*
X126779Y133977D01*
X126889Y133983D01*
X127000Y133985D01*
X127111Y133983D01*
X127221Y133977D01*
X127332Y133968D01*
X127442Y133954D01*
X127551Y133937D01*
X127660Y133916D01*
X127768Y133891D01*
X127875Y133862D01*
X127981Y133830D01*
X128086Y133794D01*
X128189Y133754D01*
X128291Y133711D01*
X128392Y133664D01*
X128491Y133613D01*
X128588Y133560D01*
X128682Y133503D01*
X128775Y133442D01*
X128866Y133379D01*
X128955Y133312D01*
X129041Y133242D01*
X129124Y133169D01*
X129206Y133094D01*
X129284Y133016D01*
X129359Y132934D01*
X129432Y132851D01*
X129502Y132765D01*
X129569Y132676D01*
X129632Y132585D01*
X129693Y132492D01*
X129750Y132398D01*
X129803Y132301D01*
X129854Y132202D01*
X129901Y132101D01*
X129944Y131999D01*
X129984Y131896D01*
X130020Y131791D01*
X130052Y131685D01*
X130081Y131578D01*
X130106Y131470D01*
X130127Y131361D01*
X130144Y131252D01*
X130158Y131142D01*
X130167Y131031D01*
X130173Y130921D01*
X130175Y130810D01*
X130175Y127635D01*
X135255Y138957D02*
X123825Y138957D01*
X123825Y142132D01*
X123827Y142243D01*
X123833Y142353D01*
X123842Y142464D01*
X123856Y142574D01*
X123873Y142683D01*
X123894Y142792D01*
X123919Y142900D01*
X123948Y143007D01*
X123980Y143113D01*
X124016Y143218D01*
X124056Y143321D01*
X124099Y143423D01*
X124146Y143524D01*
X124197Y143623D01*
X124250Y143720D01*
X124307Y143814D01*
X124368Y143907D01*
X124431Y143998D01*
X124498Y144087D01*
X124568Y144173D01*
X124641Y144256D01*
X124716Y144338D01*
X124794Y144416D01*
X124876Y144491D01*
X124959Y144564D01*
X125045Y144634D01*
X125134Y144701D01*
X125225Y144764D01*
X125318Y144825D01*
X125413Y144882D01*
X125509Y144935D01*
X125608Y144986D01*
X125709Y145033D01*
X125811Y145076D01*
X125914Y145116D01*
X126019Y145152D01*
X126125Y145184D01*
X126232Y145213D01*
X126340Y145238D01*
X126449Y145259D01*
X126558Y145276D01*
X126668Y145290D01*
X126779Y145299D01*
X126889Y145305D01*
X127000Y145307D01*
X127111Y145305D01*
X127221Y145299D01*
X127332Y145290D01*
X127442Y145276D01*
X127551Y145259D01*
X127660Y145238D01*
X127768Y145213D01*
X127875Y145184D01*
X127981Y145152D01*
X128086Y145116D01*
X128189Y145076D01*
X128291Y145033D01*
X128392Y144986D01*
X128491Y144935D01*
X128588Y144882D01*
X128682Y144825D01*
X128775Y144764D01*
X128866Y144701D01*
X128955Y144634D01*
X129041Y144564D01*
X129124Y144491D01*
X129206Y144416D01*
X129284Y144338D01*
X129359Y144256D01*
X129432Y144173D01*
X129502Y144087D01*
X129569Y143998D01*
X129632Y143907D01*
X129693Y143814D01*
X129750Y143720D01*
X129803Y143623D01*
X129854Y143524D01*
X129901Y143423D01*
X129944Y143321D01*
X129984Y143218D01*
X130020Y143113D01*
X130052Y143007D01*
X130081Y142900D01*
X130106Y142792D01*
X130127Y142683D01*
X130144Y142574D01*
X130158Y142464D01*
X130167Y142353D01*
X130173Y142243D01*
X130175Y142132D01*
X130175Y138957D01*
X130175Y142767D02*
X135255Y145307D01*
X132080Y150304D02*
X127000Y150304D01*
X126889Y150306D01*
X126779Y150312D01*
X126668Y150321D01*
X126558Y150335D01*
X126449Y150352D01*
X126340Y150373D01*
X126232Y150398D01*
X126125Y150427D01*
X126019Y150459D01*
X125914Y150495D01*
X125811Y150535D01*
X125709Y150578D01*
X125608Y150625D01*
X125509Y150676D01*
X125413Y150729D01*
X125318Y150786D01*
X125225Y150847D01*
X125134Y150910D01*
X125045Y150977D01*
X124959Y151047D01*
X124876Y151120D01*
X124794Y151195D01*
X124716Y151273D01*
X124641Y151355D01*
X124568Y151438D01*
X124498Y151524D01*
X124431Y151613D01*
X124368Y151704D01*
X124307Y151797D01*
X124250Y151892D01*
X124197Y151988D01*
X124146Y152087D01*
X124099Y152188D01*
X124056Y152290D01*
X124016Y152393D01*
X123980Y152498D01*
X123948Y152604D01*
X123919Y152711D01*
X123894Y152819D01*
X123873Y152928D01*
X123856Y153037D01*
X123842Y153147D01*
X123833Y153258D01*
X123827Y153368D01*
X123825Y153479D01*
X123827Y153590D01*
X123833Y153700D01*
X123842Y153811D01*
X123856Y153921D01*
X123873Y154030D01*
X123894Y154139D01*
X123919Y154247D01*
X123948Y154354D01*
X123980Y154460D01*
X124016Y154565D01*
X124056Y154668D01*
X124099Y154770D01*
X124146Y154871D01*
X124197Y154970D01*
X124250Y155067D01*
X124307Y155161D01*
X124368Y155254D01*
X124431Y155345D01*
X124498Y155434D01*
X124568Y155520D01*
X124641Y155603D01*
X124716Y155685D01*
X124794Y155763D01*
X124876Y155838D01*
X124959Y155911D01*
X125045Y155981D01*
X125134Y156048D01*
X125225Y156111D01*
X125318Y156172D01*
X125413Y156229D01*
X125509Y156282D01*
X125608Y156333D01*
X125709Y156380D01*
X125811Y156423D01*
X125914Y156463D01*
X126019Y156499D01*
X126125Y156531D01*
X126232Y156560D01*
X126340Y156585D01*
X126449Y156606D01*
X126558Y156623D01*
X126668Y156637D01*
X126779Y156646D01*
X126889Y156652D01*
X127000Y156654D01*
X132080Y156654D01*
X132191Y156652D01*
X132301Y156646D01*
X132412Y156637D01*
X132522Y156623D01*
X132631Y156606D01*
X132740Y156585D01*
X132848Y156560D01*
X132955Y156531D01*
X133061Y156499D01*
X133166Y156463D01*
X133269Y156423D01*
X133371Y156380D01*
X133472Y156333D01*
X133571Y156282D01*
X133668Y156229D01*
X133762Y156172D01*
X133855Y156111D01*
X133946Y156048D01*
X134035Y155981D01*
X134121Y155911D01*
X134204Y155838D01*
X134286Y155763D01*
X134364Y155685D01*
X134439Y155603D01*
X134512Y155520D01*
X134582Y155434D01*
X134649Y155345D01*
X134712Y155254D01*
X134773Y155161D01*
X134830Y155066D01*
X134883Y154970D01*
X134934Y154871D01*
X134981Y154770D01*
X135024Y154668D01*
X135064Y154565D01*
X135100Y154460D01*
X135132Y154354D01*
X135161Y154247D01*
X135186Y154139D01*
X135207Y154030D01*
X135224Y153921D01*
X135238Y153811D01*
X135247Y153700D01*
X135253Y153590D01*
X135255Y153479D01*
X135253Y153368D01*
X135247Y153258D01*
X135238Y153147D01*
X135224Y153037D01*
X135207Y152928D01*
X135186Y152819D01*
X135161Y152711D01*
X135132Y152604D01*
X135100Y152498D01*
X135064Y152393D01*
X135024Y152290D01*
X134981Y152188D01*
X134934Y152087D01*
X134883Y151988D01*
X134830Y151891D01*
X134773Y151797D01*
X134712Y151704D01*
X134649Y151613D01*
X134582Y151524D01*
X134512Y151438D01*
X134439Y151355D01*
X134364Y151273D01*
X134286Y151195D01*
X134204Y151120D01*
X134121Y151047D01*
X134035Y150977D01*
X133946Y150910D01*
X133855Y150847D01*
X133762Y150786D01*
X133667Y150729D01*
X133571Y150676D01*
X133472Y150625D01*
X133371Y150578D01*
X133269Y150535D01*
X133166Y150495D01*
X133061Y150459D01*
X132955Y150427D01*
X132848Y150398D01*
X132740Y150373D01*
X132631Y150352D01*
X132522Y150335D01*
X132412Y150321D01*
X132301Y150312D01*
X132191Y150306D01*
X132080Y150304D01*
X128905Y162306D02*
X128905Y165481D01*
X128907Y165592D01*
X128913Y165702D01*
X128922Y165813D01*
X128936Y165923D01*
X128953Y166032D01*
X128974Y166141D01*
X128999Y166249D01*
X129028Y166356D01*
X129060Y166462D01*
X129096Y166567D01*
X129136Y166670D01*
X129179Y166772D01*
X129226Y166873D01*
X129277Y166972D01*
X129330Y167069D01*
X129387Y167163D01*
X129448Y167256D01*
X129511Y167347D01*
X129578Y167436D01*
X129648Y167522D01*
X129721Y167605D01*
X129796Y167687D01*
X129874Y167765D01*
X129956Y167840D01*
X130039Y167913D01*
X130125Y167983D01*
X130214Y168050D01*
X130305Y168113D01*
X130398Y168174D01*
X130493Y168231D01*
X130589Y168284D01*
X130688Y168335D01*
X130789Y168382D01*
X130891Y168425D01*
X130994Y168465D01*
X131099Y168501D01*
X131205Y168533D01*
X131312Y168562D01*
X131420Y168587D01*
X131529Y168608D01*
X131638Y168625D01*
X131748Y168639D01*
X131859Y168648D01*
X131969Y168654D01*
X132080Y168656D01*
X132191Y168654D01*
X132301Y168648D01*
X132412Y168639D01*
X132522Y168625D01*
X132631Y168608D01*
X132740Y168587D01*
X132848Y168562D01*
X132955Y168533D01*
X133061Y168501D01*
X133166Y168465D01*
X133269Y168425D01*
X133371Y168382D01*
X133472Y168335D01*
X133571Y168284D01*
X133668Y168231D01*
X133762Y168174D01*
X133855Y168113D01*
X133946Y168050D01*
X134035Y167983D01*
X134121Y167913D01*
X134204Y167840D01*
X134286Y167765D01*
X134364Y167687D01*
X134439Y167605D01*
X134512Y167522D01*
X134582Y167436D01*
X134649Y167347D01*
X134712Y167256D01*
X134773Y167163D01*
X134830Y167069D01*
X134883Y166972D01*
X134934Y166873D01*
X134981Y166772D01*
X135024Y166670D01*
X135064Y166567D01*
X135100Y166462D01*
X135132Y166356D01*
X135161Y166249D01*
X135186Y166141D01*
X135207Y166032D01*
X135224Y165923D01*
X135238Y165813D01*
X135247Y165702D01*
X135253Y165592D01*
X135255Y165481D01*
X135255Y162306D01*
X123825Y162306D01*
X123825Y165481D01*
X123827Y165581D01*
X123833Y165680D01*
X123843Y165780D01*
X123856Y165878D01*
X123874Y165977D01*
X123895Y166074D01*
X123920Y166170D01*
X123949Y166266D01*
X123982Y166360D01*
X124018Y166453D01*
X124058Y166544D01*
X124102Y166634D01*
X124149Y166722D01*
X124199Y166808D01*
X124253Y166892D01*
X124310Y166974D01*
X124370Y167053D01*
X124434Y167131D01*
X124500Y167205D01*
X124569Y167277D01*
X124641Y167346D01*
X124715Y167412D01*
X124793Y167476D01*
X124872Y167536D01*
X124954Y167593D01*
X125038Y167647D01*
X125124Y167697D01*
X125212Y167744D01*
X125302Y167788D01*
X125393Y167828D01*
X125486Y167864D01*
X125580Y167897D01*
X125676Y167926D01*
X125772Y167951D01*
X125869Y167972D01*
X125968Y167990D01*
X126066Y168003D01*
X126166Y168013D01*
X126265Y168019D01*
X126365Y168021D01*
X126465Y168019D01*
X126564Y168013D01*
X126664Y168003D01*
X126762Y167990D01*
X126861Y167972D01*
X126958Y167951D01*
X127054Y167926D01*
X127150Y167897D01*
X127244Y167864D01*
X127337Y167828D01*
X127428Y167788D01*
X127518Y167744D01*
X127606Y167697D01*
X127692Y167647D01*
X127776Y167593D01*
X127858Y167536D01*
X127937Y167476D01*
X128015Y167412D01*
X128089Y167346D01*
X128161Y167277D01*
X128230Y167205D01*
X128296Y167131D01*
X128360Y167053D01*
X128420Y166974D01*
X128477Y166892D01*
X128531Y166808D01*
X128581Y166722D01*
X128628Y166634D01*
X128672Y166544D01*
X128712Y166453D01*
X128748Y166360D01*
X128781Y166266D01*
X128810Y166170D01*
X128835Y166074D01*
X128856Y165977D01*
X128874Y165878D01*
X128887Y165780D01*
X128897Y165680D01*
X128903Y165581D01*
X128905Y165481D01*
X135255Y173571D02*
X135255Y178651D01*
X135255Y173571D02*
X123825Y173571D01*
X123825Y178651D01*
X128905Y177381D02*
X128905Y173571D01*
X127000Y183070D02*
X132080Y183070D01*
X127000Y183070D02*
X126889Y183072D01*
X126779Y183078D01*
X126668Y183087D01*
X126558Y183101D01*
X126449Y183118D01*
X126340Y183139D01*
X126232Y183164D01*
X126125Y183193D01*
X126019Y183225D01*
X125914Y183261D01*
X125811Y183301D01*
X125709Y183344D01*
X125608Y183391D01*
X125509Y183442D01*
X125413Y183495D01*
X125318Y183552D01*
X125225Y183613D01*
X125134Y183676D01*
X125045Y183743D01*
X124959Y183813D01*
X124876Y183886D01*
X124794Y183961D01*
X124716Y184039D01*
X124641Y184121D01*
X124568Y184204D01*
X124498Y184290D01*
X124431Y184379D01*
X124368Y184470D01*
X124307Y184563D01*
X124250Y184658D01*
X124197Y184754D01*
X124146Y184853D01*
X124099Y184954D01*
X124056Y185056D01*
X124016Y185159D01*
X123980Y185264D01*
X123948Y185370D01*
X123919Y185477D01*
X123894Y185585D01*
X123873Y185694D01*
X123856Y185803D01*
X123842Y185913D01*
X123833Y186024D01*
X123827Y186134D01*
X123825Y186245D01*
X123827Y186356D01*
X123833Y186466D01*
X123842Y186577D01*
X123856Y186687D01*
X123873Y186796D01*
X123894Y186905D01*
X123919Y187013D01*
X123948Y187120D01*
X123980Y187226D01*
X124016Y187331D01*
X124056Y187434D01*
X124099Y187536D01*
X124146Y187637D01*
X124197Y187736D01*
X124250Y187833D01*
X124307Y187927D01*
X124368Y188020D01*
X124431Y188111D01*
X124498Y188200D01*
X124568Y188286D01*
X124641Y188369D01*
X124716Y188451D01*
X124794Y188529D01*
X124876Y188604D01*
X124959Y188677D01*
X125045Y188747D01*
X125134Y188814D01*
X125225Y188877D01*
X125318Y188938D01*
X125413Y188995D01*
X125509Y189048D01*
X125608Y189099D01*
X125709Y189146D01*
X125811Y189189D01*
X125914Y189229D01*
X126019Y189265D01*
X126125Y189297D01*
X126232Y189326D01*
X126340Y189351D01*
X126449Y189372D01*
X126558Y189389D01*
X126668Y189403D01*
X126779Y189412D01*
X126889Y189418D01*
X127000Y189420D01*
X132080Y189420D01*
X132191Y189418D01*
X132301Y189412D01*
X132412Y189403D01*
X132522Y189389D01*
X132631Y189372D01*
X132740Y189351D01*
X132848Y189326D01*
X132955Y189297D01*
X133061Y189265D01*
X133166Y189229D01*
X133269Y189189D01*
X133371Y189146D01*
X133472Y189099D01*
X133571Y189048D01*
X133668Y188995D01*
X133762Y188938D01*
X133855Y188877D01*
X133946Y188814D01*
X134035Y188747D01*
X134121Y188677D01*
X134204Y188604D01*
X134286Y188529D01*
X134364Y188451D01*
X134439Y188369D01*
X134512Y188286D01*
X134582Y188200D01*
X134649Y188111D01*
X134712Y188020D01*
X134773Y187927D01*
X134830Y187832D01*
X134883Y187736D01*
X134934Y187637D01*
X134981Y187536D01*
X135024Y187434D01*
X135064Y187331D01*
X135100Y187226D01*
X135132Y187120D01*
X135161Y187013D01*
X135186Y186905D01*
X135207Y186796D01*
X135224Y186687D01*
X135238Y186577D01*
X135247Y186466D01*
X135253Y186356D01*
X135255Y186245D01*
X135253Y186134D01*
X135247Y186024D01*
X135238Y185913D01*
X135224Y185803D01*
X135207Y185694D01*
X135186Y185585D01*
X135161Y185477D01*
X135132Y185370D01*
X135100Y185264D01*
X135064Y185159D01*
X135024Y185056D01*
X134981Y184954D01*
X134934Y184853D01*
X134883Y184754D01*
X134830Y184657D01*
X134773Y184563D01*
X134712Y184470D01*
X134649Y184379D01*
X134582Y184290D01*
X134512Y184204D01*
X134439Y184121D01*
X134364Y184039D01*
X134286Y183961D01*
X134204Y183886D01*
X134121Y183813D01*
X134035Y183743D01*
X133946Y183676D01*
X133855Y183613D01*
X133762Y183552D01*
X133667Y183495D01*
X133571Y183442D01*
X133472Y183391D01*
X133371Y183344D01*
X133269Y183301D01*
X133166Y183261D01*
X133061Y183225D01*
X132955Y183193D01*
X132848Y183164D01*
X132740Y183139D01*
X132631Y183118D01*
X132522Y183101D01*
X132412Y183087D01*
X132301Y183078D01*
X132191Y183072D01*
X132080Y183070D01*
X132080Y194881D02*
X123825Y194881D01*
X132080Y194881D02*
X132191Y194883D01*
X132301Y194889D01*
X132412Y194898D01*
X132522Y194912D01*
X132631Y194929D01*
X132740Y194950D01*
X132848Y194975D01*
X132955Y195004D01*
X133061Y195036D01*
X133166Y195072D01*
X133269Y195112D01*
X133371Y195155D01*
X133472Y195202D01*
X133571Y195253D01*
X133667Y195306D01*
X133762Y195363D01*
X133855Y195424D01*
X133946Y195487D01*
X134035Y195554D01*
X134121Y195624D01*
X134204Y195697D01*
X134286Y195772D01*
X134364Y195850D01*
X134439Y195932D01*
X134512Y196015D01*
X134582Y196101D01*
X134649Y196190D01*
X134712Y196281D01*
X134773Y196374D01*
X134830Y196468D01*
X134883Y196565D01*
X134934Y196664D01*
X134981Y196765D01*
X135024Y196867D01*
X135064Y196970D01*
X135100Y197075D01*
X135132Y197181D01*
X135161Y197288D01*
X135186Y197396D01*
X135207Y197505D01*
X135224Y197614D01*
X135238Y197724D01*
X135247Y197835D01*
X135253Y197945D01*
X135255Y198056D01*
X135253Y198167D01*
X135247Y198277D01*
X135238Y198388D01*
X135224Y198498D01*
X135207Y198607D01*
X135186Y198716D01*
X135161Y198824D01*
X135132Y198931D01*
X135100Y199037D01*
X135064Y199142D01*
X135024Y199245D01*
X134981Y199347D01*
X134934Y199448D01*
X134883Y199547D01*
X134830Y199643D01*
X134773Y199738D01*
X134712Y199831D01*
X134649Y199922D01*
X134582Y200011D01*
X134512Y200097D01*
X134439Y200180D01*
X134364Y200262D01*
X134286Y200340D01*
X134204Y200415D01*
X134121Y200488D01*
X134035Y200558D01*
X133946Y200625D01*
X133855Y200688D01*
X133762Y200749D01*
X133668Y200806D01*
X133571Y200859D01*
X133472Y200910D01*
X133371Y200957D01*
X133269Y201000D01*
X133166Y201040D01*
X133061Y201076D01*
X132955Y201108D01*
X132848Y201137D01*
X132740Y201162D01*
X132631Y201183D01*
X132522Y201200D01*
X132412Y201214D01*
X132301Y201223D01*
X132191Y201229D01*
X132080Y201231D01*
X123825Y201231D01*
X123825Y209105D02*
X135255Y209105D01*
X123825Y205930D02*
X123825Y212280D01*
X154939Y443351D02*
X155572Y443419D01*
X156202Y443502D01*
X156830Y443601D01*
X157456Y443714D01*
X158078Y443842D01*
X158698Y443984D01*
X159314Y444142D01*
X159926Y444314D01*
X160534Y444501D01*
X161137Y444702D01*
X161735Y444917D01*
X162328Y445147D01*
X162915Y445390D01*
X163496Y445648D01*
X164071Y445919D01*
X164640Y446204D01*
X165201Y446503D01*
X165755Y446815D01*
X166302Y447140D01*
X166840Y447477D01*
X167370Y447828D01*
X167892Y448191D01*
X168405Y448567D01*
X168909Y448954D01*
X154940Y443351D02*
X154291Y443297D01*
X153642Y443259D01*
X152991Y443237D01*
X152340Y443230D01*
X151689Y443239D01*
X151039Y443265D01*
X150389Y443306D01*
X149741Y443363D01*
X149094Y443436D01*
X148449Y443524D01*
X147806Y443629D01*
X147166Y443749D01*
X146530Y443884D01*
X145896Y444035D01*
X145267Y444202D01*
X144642Y444383D01*
X144021Y444580D01*
X143406Y444792D01*
X142796Y445019D01*
X142191Y445261D01*
X141593Y445518D01*
X141001Y445789D01*
X140416Y446074D01*
X139838Y446374D01*
X139268Y446687D01*
X138705Y447015D01*
X138151Y447356D01*
X137605Y447710D01*
X137068Y448078D01*
X136539Y448459D01*
X136021Y448852D01*
X135512Y449258D01*
X135013Y449676D01*
X134525Y450107D01*
X134047Y450549D01*
X133580Y451003D01*
X133125Y451468D01*
X132681Y451944D01*
X132248Y452430D01*
X131828Y452927D01*
X131420Y453434D01*
X131024Y453951D01*
X130641Y454478D01*
X130271Y455014D01*
X129914Y455558D01*
X129571Y456111D01*
X129241Y456672D01*
X128925Y457242D01*
X128623Y457818D01*
X128336Y458402D01*
X128062Y458993D01*
X127803Y459590D01*
X127559Y460194D01*
X127329Y460803D01*
X127115Y461417D01*
X126915Y462037D01*
X126915Y477763D02*
X127114Y478378D01*
X127326Y478989D01*
X127554Y479594D01*
X127796Y480193D01*
X128053Y480786D01*
X128324Y481373D01*
X128609Y481953D01*
X128908Y482526D01*
X129221Y483092D01*
X129548Y483650D01*
X129888Y484200D01*
X130241Y484741D01*
X130607Y485274D01*
X130986Y485797D01*
X131378Y486312D01*
X131781Y486816D01*
X132198Y487311D01*
X132625Y487796D01*
X133065Y488270D01*
X133516Y488733D01*
X133978Y489185D01*
X134451Y489626D01*
X134934Y490055D01*
X135428Y490472D01*
X135931Y490878D01*
X136444Y491271D01*
X136967Y491651D01*
X137499Y492019D01*
X138039Y492373D01*
X138588Y492715D01*
X139145Y493043D01*
X139710Y493357D01*
X140282Y493658D01*
X140861Y493945D01*
X141448Y494217D01*
X142040Y494476D01*
X142639Y494719D01*
X143243Y494949D01*
X143853Y495163D01*
X144468Y495363D01*
X145087Y495548D01*
X145711Y495718D01*
X146339Y495872D01*
X146970Y496011D01*
X147604Y496135D01*
X148242Y496244D01*
X148881Y496337D01*
X149523Y496414D01*
X150166Y496476D01*
X150811Y496523D01*
X151457Y496553D01*
X152103Y496568D01*
X152749Y496568D01*
X153396Y496551D01*
X154041Y496519D01*
X154686Y496472D01*
X155329Y496409D01*
X155971Y496330D01*
X156610Y496236D01*
X157247Y496126D01*
X157882Y496001D01*
X158513Y495860D01*
X159140Y495704D01*
X159763Y495533D01*
X160382Y495347D01*
X160997Y495146D01*
X161606Y494931D01*
X162210Y494700D01*
X162808Y494455D01*
X163400Y494196D01*
X163986Y493922D01*
X164565Y493634D01*
X165136Y493332D01*
X165701Y493017D01*
X166257Y492688D01*
X166805Y492345D01*
X167345Y491989D01*
X167876Y491621D01*
X168398Y491239D01*
X168910Y490845D01*
X168910Y448955D01*
X154940Y447363D02*
X154940Y443351D01*
X154940Y467037D02*
X154940Y472763D01*
X154940Y492437D02*
X154940Y496449D01*
X128004Y505460D02*
X128004Y510540D01*
X128006Y510651D01*
X128012Y510761D01*
X128021Y510872D01*
X128035Y510982D01*
X128052Y511091D01*
X128073Y511200D01*
X128098Y511308D01*
X128127Y511415D01*
X128159Y511521D01*
X128195Y511626D01*
X128235Y511729D01*
X128278Y511831D01*
X128325Y511932D01*
X128376Y512031D01*
X128429Y512128D01*
X128486Y512222D01*
X128547Y512315D01*
X128610Y512406D01*
X128677Y512495D01*
X128747Y512581D01*
X128820Y512664D01*
X128895Y512746D01*
X128973Y512824D01*
X129055Y512899D01*
X129138Y512972D01*
X129224Y513042D01*
X129313Y513109D01*
X129404Y513172D01*
X129497Y513233D01*
X129592Y513290D01*
X129688Y513343D01*
X129787Y513394D01*
X129888Y513441D01*
X129990Y513484D01*
X130093Y513524D01*
X130198Y513560D01*
X130304Y513592D01*
X130411Y513621D01*
X130519Y513646D01*
X130628Y513667D01*
X130737Y513684D01*
X130847Y513698D01*
X130958Y513707D01*
X131068Y513713D01*
X131179Y513715D01*
X131290Y513713D01*
X131400Y513707D01*
X131511Y513698D01*
X131621Y513684D01*
X131730Y513667D01*
X131839Y513646D01*
X131947Y513621D01*
X132054Y513592D01*
X132160Y513560D01*
X132265Y513524D01*
X132368Y513484D01*
X132470Y513441D01*
X132571Y513394D01*
X132670Y513343D01*
X132767Y513290D01*
X132861Y513233D01*
X132954Y513172D01*
X133045Y513109D01*
X133134Y513042D01*
X133220Y512972D01*
X133303Y512899D01*
X133385Y512824D01*
X133463Y512746D01*
X133538Y512664D01*
X133611Y512581D01*
X133681Y512495D01*
X133748Y512406D01*
X133811Y512315D01*
X133872Y512222D01*
X133929Y512128D01*
X133982Y512031D01*
X134033Y511932D01*
X134080Y511831D01*
X134123Y511729D01*
X134163Y511626D01*
X134199Y511521D01*
X134231Y511415D01*
X134260Y511308D01*
X134285Y511200D01*
X134306Y511091D01*
X134323Y510982D01*
X134337Y510872D01*
X134346Y510761D01*
X134352Y510651D01*
X134354Y510540D01*
X134354Y505460D01*
X134352Y505349D01*
X134346Y505239D01*
X134337Y505128D01*
X134323Y505018D01*
X134306Y504909D01*
X134285Y504800D01*
X134260Y504692D01*
X134231Y504585D01*
X134199Y504479D01*
X134163Y504374D01*
X134123Y504271D01*
X134080Y504169D01*
X134033Y504068D01*
X133982Y503969D01*
X133929Y503872D01*
X133872Y503778D01*
X133811Y503685D01*
X133748Y503594D01*
X133681Y503505D01*
X133611Y503419D01*
X133538Y503336D01*
X133463Y503254D01*
X133385Y503176D01*
X133303Y503101D01*
X133220Y503028D01*
X133134Y502958D01*
X133045Y502891D01*
X132954Y502828D01*
X132861Y502767D01*
X132766Y502710D01*
X132670Y502657D01*
X132571Y502606D01*
X132470Y502559D01*
X132368Y502516D01*
X132265Y502476D01*
X132160Y502440D01*
X132054Y502408D01*
X131947Y502379D01*
X131839Y502354D01*
X131730Y502333D01*
X131621Y502316D01*
X131511Y502302D01*
X131400Y502293D01*
X131290Y502287D01*
X131179Y502285D01*
X131068Y502287D01*
X130958Y502293D01*
X130847Y502302D01*
X130737Y502316D01*
X130628Y502333D01*
X130519Y502354D01*
X130411Y502379D01*
X130304Y502408D01*
X130198Y502440D01*
X130093Y502476D01*
X129990Y502516D01*
X129888Y502559D01*
X129787Y502606D01*
X129688Y502657D01*
X129592Y502710D01*
X129497Y502767D01*
X129404Y502828D01*
X129313Y502891D01*
X129224Y502958D01*
X129138Y503028D01*
X129055Y503101D01*
X128973Y503176D01*
X128895Y503254D01*
X128820Y503336D01*
X128747Y503419D01*
X128677Y503505D01*
X128610Y503594D01*
X128547Y503685D01*
X128486Y503778D01*
X128429Y503873D01*
X128376Y503969D01*
X128325Y504068D01*
X128278Y504169D01*
X128235Y504271D01*
X128195Y504374D01*
X128159Y504479D01*
X128127Y504585D01*
X128098Y504692D01*
X128073Y504800D01*
X128052Y504909D01*
X128035Y505018D01*
X128021Y505128D01*
X128012Y505239D01*
X128006Y505349D01*
X128004Y505460D01*
X133084Y504825D02*
X135624Y502285D01*
X139065Y511175D02*
X142240Y513715D01*
X142240Y502285D01*
X139065Y502285D02*
X145415Y502285D01*
X290951Y467361D02*
X291019Y466728D01*
X291102Y466098D01*
X291201Y465470D01*
X291314Y464844D01*
X291442Y464222D01*
X291584Y463602D01*
X291742Y462986D01*
X291914Y462374D01*
X292101Y461766D01*
X292302Y461163D01*
X292517Y460565D01*
X292747Y459972D01*
X292990Y459385D01*
X293248Y458804D01*
X293519Y458229D01*
X293804Y457660D01*
X294103Y457099D01*
X294415Y456545D01*
X294740Y455998D01*
X295077Y455460D01*
X295428Y454930D01*
X295791Y454408D01*
X296167Y453895D01*
X296554Y453391D01*
X290951Y467360D02*
X290897Y468009D01*
X290859Y468658D01*
X290837Y469309D01*
X290830Y469960D01*
X290839Y470611D01*
X290865Y471261D01*
X290906Y471911D01*
X290963Y472559D01*
X291036Y473206D01*
X291124Y473851D01*
X291229Y474494D01*
X291349Y475134D01*
X291484Y475770D01*
X291635Y476404D01*
X291802Y477033D01*
X291983Y477658D01*
X292180Y478279D01*
X292392Y478894D01*
X292619Y479504D01*
X292861Y480109D01*
X293118Y480707D01*
X293389Y481299D01*
X293674Y481884D01*
X293974Y482462D01*
X294287Y483032D01*
X294615Y483595D01*
X294956Y484149D01*
X295310Y484695D01*
X295678Y485232D01*
X296059Y485761D01*
X296452Y486279D01*
X296858Y486788D01*
X297276Y487287D01*
X297707Y487775D01*
X298149Y488253D01*
X298603Y488720D01*
X299068Y489175D01*
X299544Y489619D01*
X300030Y490052D01*
X300527Y490472D01*
X301034Y490880D01*
X301551Y491276D01*
X302078Y491659D01*
X302614Y492029D01*
X303158Y492386D01*
X303711Y492729D01*
X304272Y493059D01*
X304842Y493375D01*
X305418Y493677D01*
X306002Y493964D01*
X306593Y494238D01*
X307190Y494497D01*
X307794Y494741D01*
X308403Y494971D01*
X309017Y495185D01*
X309637Y495385D01*
X325363Y495385D02*
X325978Y495186D01*
X326589Y494974D01*
X327194Y494746D01*
X327793Y494504D01*
X328386Y494247D01*
X328973Y493976D01*
X329553Y493691D01*
X330126Y493392D01*
X330692Y493079D01*
X331250Y492752D01*
X331800Y492412D01*
X332341Y492059D01*
X332874Y491693D01*
X333397Y491314D01*
X333912Y490922D01*
X334416Y490519D01*
X334911Y490102D01*
X335396Y489675D01*
X335870Y489235D01*
X336333Y488784D01*
X336785Y488322D01*
X337226Y487849D01*
X337655Y487366D01*
X338072Y486872D01*
X338478Y486369D01*
X338871Y485856D01*
X339251Y485333D01*
X339619Y484801D01*
X339973Y484261D01*
X340315Y483712D01*
X340643Y483155D01*
X340957Y482590D01*
X341258Y482018D01*
X341545Y481439D01*
X341817Y480852D01*
X342076Y480260D01*
X342319Y479661D01*
X342549Y479057D01*
X342763Y478447D01*
X342963Y477832D01*
X343148Y477213D01*
X343318Y476589D01*
X343472Y475961D01*
X343611Y475330D01*
X343735Y474696D01*
X343844Y474058D01*
X343937Y473419D01*
X344014Y472777D01*
X344076Y472134D01*
X344123Y471489D01*
X344153Y470843D01*
X344168Y470197D01*
X344168Y469551D01*
X344151Y468904D01*
X344119Y468259D01*
X344072Y467614D01*
X344009Y466971D01*
X343930Y466329D01*
X343836Y465690D01*
X343726Y465053D01*
X343601Y464418D01*
X343460Y463787D01*
X343304Y463160D01*
X343133Y462537D01*
X342947Y461918D01*
X342746Y461303D01*
X342531Y460694D01*
X342300Y460090D01*
X342055Y459492D01*
X341796Y458900D01*
X341522Y458314D01*
X341234Y457735D01*
X340932Y457164D01*
X340617Y456599D01*
X340288Y456043D01*
X339945Y455495D01*
X339589Y454955D01*
X339221Y454424D01*
X338839Y453902D01*
X338445Y453390D01*
X296555Y453390D01*
X294963Y467360D02*
X290951Y467360D01*
X314637Y467360D02*
X320363Y467360D01*
X340037Y467360D02*
X344049Y467360D01*
X299085Y505460D02*
X299085Y510540D01*
X299087Y510651D01*
X299093Y510761D01*
X299102Y510872D01*
X299116Y510982D01*
X299133Y511091D01*
X299154Y511200D01*
X299179Y511308D01*
X299208Y511415D01*
X299240Y511521D01*
X299276Y511626D01*
X299316Y511729D01*
X299359Y511831D01*
X299406Y511932D01*
X299457Y512031D01*
X299510Y512128D01*
X299567Y512222D01*
X299628Y512315D01*
X299691Y512406D01*
X299758Y512495D01*
X299828Y512581D01*
X299901Y512664D01*
X299976Y512746D01*
X300054Y512824D01*
X300136Y512899D01*
X300219Y512972D01*
X300305Y513042D01*
X300394Y513109D01*
X300485Y513172D01*
X300578Y513233D01*
X300673Y513290D01*
X300769Y513343D01*
X300868Y513394D01*
X300969Y513441D01*
X301071Y513484D01*
X301174Y513524D01*
X301279Y513560D01*
X301385Y513592D01*
X301492Y513621D01*
X301600Y513646D01*
X301709Y513667D01*
X301818Y513684D01*
X301928Y513698D01*
X302039Y513707D01*
X302149Y513713D01*
X302260Y513715D01*
X302371Y513713D01*
X302481Y513707D01*
X302592Y513698D01*
X302702Y513684D01*
X302811Y513667D01*
X302920Y513646D01*
X303028Y513621D01*
X303135Y513592D01*
X303241Y513560D01*
X303346Y513524D01*
X303449Y513484D01*
X303551Y513441D01*
X303652Y513394D01*
X303751Y513343D01*
X303848Y513290D01*
X303942Y513233D01*
X304035Y513172D01*
X304126Y513109D01*
X304215Y513042D01*
X304301Y512972D01*
X304384Y512899D01*
X304466Y512824D01*
X304544Y512746D01*
X304619Y512664D01*
X304692Y512581D01*
X304762Y512495D01*
X304829Y512406D01*
X304892Y512315D01*
X304953Y512222D01*
X305010Y512128D01*
X305063Y512031D01*
X305114Y511932D01*
X305161Y511831D01*
X305204Y511729D01*
X305244Y511626D01*
X305280Y511521D01*
X305312Y511415D01*
X305341Y511308D01*
X305366Y511200D01*
X305387Y511091D01*
X305404Y510982D01*
X305418Y510872D01*
X305427Y510761D01*
X305433Y510651D01*
X305435Y510540D01*
X305435Y505460D01*
X305433Y505349D01*
X305427Y505239D01*
X305418Y505128D01*
X305404Y505018D01*
X305387Y504909D01*
X305366Y504800D01*
X305341Y504692D01*
X305312Y504585D01*
X305280Y504479D01*
X305244Y504374D01*
X305204Y504271D01*
X305161Y504169D01*
X305114Y504068D01*
X305063Y503969D01*
X305010Y503872D01*
X304953Y503778D01*
X304892Y503685D01*
X304829Y503594D01*
X304762Y503505D01*
X304692Y503419D01*
X304619Y503336D01*
X304544Y503254D01*
X304466Y503176D01*
X304384Y503101D01*
X304301Y503028D01*
X304215Y502958D01*
X304126Y502891D01*
X304035Y502828D01*
X303942Y502767D01*
X303847Y502710D01*
X303751Y502657D01*
X303652Y502606D01*
X303551Y502559D01*
X303449Y502516D01*
X303346Y502476D01*
X303241Y502440D01*
X303135Y502408D01*
X303028Y502379D01*
X302920Y502354D01*
X302811Y502333D01*
X302702Y502316D01*
X302592Y502302D01*
X302481Y502293D01*
X302371Y502287D01*
X302260Y502285D01*
X302149Y502287D01*
X302039Y502293D01*
X301928Y502302D01*
X301818Y502316D01*
X301709Y502333D01*
X301600Y502354D01*
X301492Y502379D01*
X301385Y502408D01*
X301279Y502440D01*
X301174Y502476D01*
X301071Y502516D01*
X300969Y502559D01*
X300868Y502606D01*
X300769Y502657D01*
X300673Y502710D01*
X300578Y502767D01*
X300485Y502828D01*
X300394Y502891D01*
X300305Y502958D01*
X300219Y503028D01*
X300136Y503101D01*
X300054Y503176D01*
X299976Y503254D01*
X299901Y503336D01*
X299828Y503419D01*
X299758Y503505D01*
X299691Y503594D01*
X299628Y503685D01*
X299567Y503778D01*
X299510Y503873D01*
X299457Y503969D01*
X299406Y504068D01*
X299359Y504169D01*
X299316Y504271D01*
X299276Y504374D01*
X299240Y504479D01*
X299208Y504585D01*
X299179Y504692D01*
X299154Y504800D01*
X299133Y504909D01*
X299116Y505018D01*
X299102Y505128D01*
X299093Y505239D01*
X299087Y505349D01*
X299085Y505460D01*
X304165Y504825D02*
X306705Y502285D01*
X316496Y510858D02*
X316494Y510962D01*
X316488Y511067D01*
X316479Y511171D01*
X316466Y511274D01*
X316448Y511377D01*
X316428Y511479D01*
X316403Y511581D01*
X316375Y511681D01*
X316343Y511781D01*
X316307Y511879D01*
X316268Y511976D01*
X316226Y512071D01*
X316180Y512165D01*
X316130Y512257D01*
X316078Y512347D01*
X316022Y512435D01*
X315962Y512521D01*
X315900Y512605D01*
X315835Y512686D01*
X315767Y512765D01*
X315695Y512842D01*
X315622Y512915D01*
X315545Y512987D01*
X315466Y513055D01*
X315385Y513120D01*
X315301Y513182D01*
X315215Y513242D01*
X315127Y513298D01*
X315037Y513350D01*
X314945Y513400D01*
X314851Y513446D01*
X314756Y513488D01*
X314659Y513527D01*
X314561Y513563D01*
X314461Y513595D01*
X314361Y513623D01*
X314259Y513648D01*
X314157Y513668D01*
X314054Y513686D01*
X313951Y513699D01*
X313847Y513708D01*
X313742Y513714D01*
X313638Y513716D01*
X313638Y513715D02*
X313520Y513713D01*
X313401Y513707D01*
X313283Y513698D01*
X313166Y513685D01*
X313049Y513667D01*
X312932Y513647D01*
X312816Y513622D01*
X312701Y513594D01*
X312588Y513561D01*
X312475Y513526D01*
X312363Y513486D01*
X312253Y513444D01*
X312144Y513397D01*
X312036Y513347D01*
X311931Y513294D01*
X311827Y513237D01*
X311725Y513177D01*
X311625Y513114D01*
X311527Y513047D01*
X311431Y512978D01*
X311338Y512905D01*
X311247Y512829D01*
X311158Y512751D01*
X311072Y512669D01*
X310989Y512585D01*
X310908Y512499D01*
X310831Y512409D01*
X310756Y512318D01*
X310684Y512224D01*
X310615Y512127D01*
X310550Y512029D01*
X310487Y511928D01*
X310428Y511825D01*
X310372Y511721D01*
X310320Y511615D01*
X310271Y511507D01*
X310226Y511398D01*
X310184Y511287D01*
X310146Y511175D01*
X315543Y508636D02*
X315619Y508711D01*
X315694Y508790D01*
X315765Y508871D01*
X315834Y508955D01*
X315899Y509041D01*
X315961Y509129D01*
X316021Y509219D01*
X316077Y509311D01*
X316130Y509406D01*
X316179Y509502D01*
X316225Y509600D01*
X316268Y509699D01*
X316307Y509800D01*
X316342Y509902D01*
X316374Y510005D01*
X316402Y510109D01*
X316427Y510214D01*
X316448Y510321D01*
X316465Y510427D01*
X316478Y510534D01*
X316487Y510642D01*
X316493Y510750D01*
X316495Y510858D01*
X315543Y508635D02*
X310146Y502285D01*
X316496Y502285D01*
D10*
X257810Y448954D02*
X257297Y448560D01*
X256775Y448179D01*
X256244Y447810D01*
X255705Y447455D01*
X255156Y447112D01*
X254600Y446783D01*
X254036Y446467D01*
X253464Y446166D01*
X252885Y445878D01*
X252300Y445604D01*
X251708Y445345D01*
X251110Y445100D01*
X250506Y444869D01*
X249896Y444653D01*
X249282Y444452D01*
X248663Y444266D01*
X248039Y444096D01*
X247412Y443940D01*
X246781Y443799D01*
X246147Y443674D01*
X245510Y443564D01*
X244870Y443470D01*
X244229Y443391D01*
X243586Y443328D01*
X242941Y443281D01*
X242295Y443249D01*
X241649Y443232D01*
X241003Y443232D01*
X240356Y443247D01*
X239711Y443277D01*
X239066Y443324D01*
X238423Y443386D01*
X237781Y443463D01*
X237141Y443556D01*
X236504Y443665D01*
X235869Y443789D01*
X235238Y443928D01*
X234611Y444083D01*
X233987Y444252D01*
X233367Y444437D01*
X232753Y444637D01*
X232143Y444851D01*
X231538Y445081D01*
X230940Y445325D01*
X230347Y445583D01*
X229761Y445855D01*
X229182Y446142D01*
X228610Y446443D01*
X228045Y446757D01*
X227488Y447085D01*
X226939Y447427D01*
X226398Y447781D01*
X225867Y448149D01*
X225344Y448529D01*
X224831Y448922D01*
X224327Y449328D01*
X223834Y449745D01*
X223350Y450174D01*
X222878Y450615D01*
X222416Y451067D01*
X221965Y451531D01*
X221525Y452005D01*
X221097Y452489D01*
X220681Y452984D01*
X220277Y453488D01*
X219886Y454003D01*
X219507Y454526D01*
X219141Y455059D01*
X218787Y455601D01*
X218448Y456150D01*
X218121Y456708D01*
X217808Y457274D01*
X217509Y457847D01*
X217224Y458427D01*
X216953Y459014D01*
X216696Y459607D01*
X216454Y460206D01*
X216226Y460811D01*
X216013Y461422D01*
X215815Y462037D01*
X215815Y477768D02*
X216014Y478383D01*
X216226Y478994D01*
X216454Y479599D01*
X216696Y480198D01*
X216953Y480791D01*
X217224Y481378D01*
X217509Y481958D01*
X217808Y482531D01*
X218121Y483097D01*
X218448Y483655D01*
X218788Y484205D01*
X219141Y484746D01*
X219507Y485279D01*
X219886Y485802D01*
X220278Y486317D01*
X220681Y486821D01*
X221098Y487316D01*
X221525Y487801D01*
X221965Y488275D01*
X222416Y488738D01*
X222878Y489190D01*
X223351Y489631D01*
X223834Y490060D01*
X224328Y490477D01*
X224831Y490883D01*
X225344Y491276D01*
X225867Y491656D01*
X226399Y492024D01*
X226939Y492378D01*
X227488Y492720D01*
X228045Y493048D01*
X228610Y493362D01*
X229182Y493663D01*
X229761Y493950D01*
X230348Y494222D01*
X230940Y494481D01*
X231539Y494724D01*
X232143Y494954D01*
X232753Y495168D01*
X233368Y495368D01*
X233987Y495553D01*
X234611Y495723D01*
X235239Y495877D01*
X235870Y496016D01*
X236504Y496140D01*
X237142Y496249D01*
X237781Y496342D01*
X238423Y496419D01*
X239066Y496481D01*
X239711Y496528D01*
X240357Y496558D01*
X241003Y496573D01*
X241649Y496573D01*
X242296Y496556D01*
X242941Y496524D01*
X243586Y496477D01*
X244229Y496414D01*
X244871Y496335D01*
X245510Y496241D01*
X246147Y496131D01*
X246782Y496006D01*
X247413Y495865D01*
X248040Y495709D01*
X248663Y495538D01*
X249282Y495352D01*
X249897Y495151D01*
X250506Y494936D01*
X251110Y494705D01*
X251708Y494460D01*
X252300Y494201D01*
X252886Y493927D01*
X253465Y493639D01*
X254036Y493337D01*
X254601Y493022D01*
X255157Y492693D01*
X255705Y492350D01*
X256245Y491994D01*
X256776Y491626D01*
X257298Y491244D01*
X257810Y490850D01*
X257810Y448950D01*
X243840Y447360D02*
X243840Y443350D01*
X243840Y467040D02*
X243840Y472760D01*
X243840Y492440D02*
X243840Y496450D01*
D12*
X216904Y505460D02*
X216904Y510540D01*
X216906Y510651D01*
X216912Y510761D01*
X216921Y510872D01*
X216935Y510982D01*
X216952Y511091D01*
X216973Y511200D01*
X216998Y511308D01*
X217027Y511415D01*
X217059Y511521D01*
X217095Y511626D01*
X217135Y511729D01*
X217178Y511831D01*
X217225Y511932D01*
X217276Y512031D01*
X217329Y512128D01*
X217386Y512222D01*
X217447Y512315D01*
X217510Y512406D01*
X217577Y512495D01*
X217647Y512581D01*
X217720Y512664D01*
X217795Y512746D01*
X217873Y512824D01*
X217955Y512899D01*
X218038Y512972D01*
X218124Y513042D01*
X218213Y513109D01*
X218304Y513172D01*
X218397Y513233D01*
X218492Y513290D01*
X218588Y513343D01*
X218687Y513394D01*
X218788Y513441D01*
X218890Y513484D01*
X218993Y513524D01*
X219098Y513560D01*
X219204Y513592D01*
X219311Y513621D01*
X219419Y513646D01*
X219528Y513667D01*
X219637Y513684D01*
X219747Y513698D01*
X219858Y513707D01*
X219968Y513713D01*
X220079Y513715D01*
X220190Y513713D01*
X220300Y513707D01*
X220411Y513698D01*
X220521Y513684D01*
X220630Y513667D01*
X220739Y513646D01*
X220847Y513621D01*
X220954Y513592D01*
X221060Y513560D01*
X221165Y513524D01*
X221268Y513484D01*
X221370Y513441D01*
X221471Y513394D01*
X221570Y513343D01*
X221667Y513290D01*
X221761Y513233D01*
X221854Y513172D01*
X221945Y513109D01*
X222034Y513042D01*
X222120Y512972D01*
X222203Y512899D01*
X222285Y512824D01*
X222363Y512746D01*
X222438Y512664D01*
X222511Y512581D01*
X222581Y512495D01*
X222648Y512406D01*
X222711Y512315D01*
X222772Y512222D01*
X222829Y512128D01*
X222882Y512031D01*
X222933Y511932D01*
X222980Y511831D01*
X223023Y511729D01*
X223063Y511626D01*
X223099Y511521D01*
X223131Y511415D01*
X223160Y511308D01*
X223185Y511200D01*
X223206Y511091D01*
X223223Y510982D01*
X223237Y510872D01*
X223246Y510761D01*
X223252Y510651D01*
X223254Y510540D01*
X223254Y505460D01*
X223252Y505349D01*
X223246Y505239D01*
X223237Y505128D01*
X223223Y505018D01*
X223206Y504909D01*
X223185Y504800D01*
X223160Y504692D01*
X223131Y504585D01*
X223099Y504479D01*
X223063Y504374D01*
X223023Y504271D01*
X222980Y504169D01*
X222933Y504068D01*
X222882Y503969D01*
X222829Y503872D01*
X222772Y503778D01*
X222711Y503685D01*
X222648Y503594D01*
X222581Y503505D01*
X222511Y503419D01*
X222438Y503336D01*
X222363Y503254D01*
X222285Y503176D01*
X222203Y503101D01*
X222120Y503028D01*
X222034Y502958D01*
X221945Y502891D01*
X221854Y502828D01*
X221761Y502767D01*
X221666Y502710D01*
X221570Y502657D01*
X221471Y502606D01*
X221370Y502559D01*
X221268Y502516D01*
X221165Y502476D01*
X221060Y502440D01*
X220954Y502408D01*
X220847Y502379D01*
X220739Y502354D01*
X220630Y502333D01*
X220521Y502316D01*
X220411Y502302D01*
X220300Y502293D01*
X220190Y502287D01*
X220079Y502285D01*
X219968Y502287D01*
X219858Y502293D01*
X219747Y502302D01*
X219637Y502316D01*
X219528Y502333D01*
X219419Y502354D01*
X219311Y502379D01*
X219204Y502408D01*
X219098Y502440D01*
X218993Y502476D01*
X218890Y502516D01*
X218788Y502559D01*
X218687Y502606D01*
X218588Y502657D01*
X218492Y502710D01*
X218397Y502767D01*
X218304Y502828D01*
X218213Y502891D01*
X218124Y502958D01*
X218038Y503028D01*
X217955Y503101D01*
X217873Y503176D01*
X217795Y503254D01*
X217720Y503336D01*
X217647Y503419D01*
X217577Y503505D01*
X217510Y503594D01*
X217447Y503685D01*
X217386Y503778D01*
X217329Y503873D01*
X217276Y503969D01*
X217225Y504068D01*
X217178Y504169D01*
X217135Y504271D01*
X217095Y504374D01*
X217059Y504479D01*
X217027Y504585D01*
X216998Y504692D01*
X216973Y504800D01*
X216952Y504909D01*
X216935Y505018D01*
X216921Y505128D01*
X216912Y505239D01*
X216906Y505349D01*
X216904Y505460D01*
X221984Y504825D02*
X224524Y502285D01*
X227965Y502285D02*
X231140Y502285D01*
X231251Y502287D01*
X231361Y502293D01*
X231472Y502302D01*
X231582Y502316D01*
X231691Y502333D01*
X231800Y502354D01*
X231908Y502379D01*
X232015Y502408D01*
X232121Y502440D01*
X232226Y502476D01*
X232329Y502516D01*
X232431Y502559D01*
X232532Y502606D01*
X232631Y502657D01*
X232727Y502710D01*
X232822Y502767D01*
X232915Y502828D01*
X233006Y502891D01*
X233095Y502958D01*
X233181Y503028D01*
X233264Y503101D01*
X233346Y503176D01*
X233424Y503254D01*
X233499Y503336D01*
X233572Y503419D01*
X233642Y503505D01*
X233709Y503594D01*
X233772Y503685D01*
X233833Y503778D01*
X233890Y503872D01*
X233943Y503969D01*
X233994Y504068D01*
X234041Y504169D01*
X234084Y504271D01*
X234124Y504374D01*
X234160Y504479D01*
X234192Y504585D01*
X234221Y504692D01*
X234246Y504800D01*
X234267Y504909D01*
X234284Y505018D01*
X234298Y505128D01*
X234307Y505239D01*
X234313Y505349D01*
X234315Y505460D01*
X234313Y505571D01*
X234307Y505681D01*
X234298Y505792D01*
X234284Y505902D01*
X234267Y506011D01*
X234246Y506120D01*
X234221Y506228D01*
X234192Y506335D01*
X234160Y506441D01*
X234124Y506546D01*
X234084Y506649D01*
X234041Y506751D01*
X233994Y506852D01*
X233943Y506951D01*
X233890Y507047D01*
X233833Y507142D01*
X233772Y507235D01*
X233709Y507326D01*
X233642Y507415D01*
X233572Y507501D01*
X233499Y507584D01*
X233424Y507666D01*
X233346Y507744D01*
X233264Y507819D01*
X233181Y507892D01*
X233095Y507962D01*
X233006Y508029D01*
X232915Y508092D01*
X232822Y508153D01*
X232728Y508210D01*
X232631Y508263D01*
X232532Y508314D01*
X232431Y508361D01*
X232329Y508404D01*
X232226Y508444D01*
X232121Y508480D01*
X232015Y508512D01*
X231908Y508541D01*
X231800Y508566D01*
X231691Y508587D01*
X231582Y508604D01*
X231472Y508618D01*
X231361Y508627D01*
X231251Y508633D01*
X231140Y508635D01*
X231775Y513715D02*
X227965Y513715D01*
X231775Y513715D02*
X231875Y513713D01*
X231974Y513707D01*
X232074Y513697D01*
X232172Y513684D01*
X232271Y513666D01*
X232368Y513645D01*
X232464Y513620D01*
X232560Y513591D01*
X232654Y513558D01*
X232747Y513522D01*
X232838Y513482D01*
X232928Y513438D01*
X233016Y513391D01*
X233102Y513341D01*
X233186Y513287D01*
X233268Y513230D01*
X233347Y513170D01*
X233425Y513106D01*
X233499Y513040D01*
X233571Y512971D01*
X233640Y512899D01*
X233706Y512825D01*
X233770Y512747D01*
X233830Y512668D01*
X233887Y512586D01*
X233941Y512502D01*
X233991Y512416D01*
X234038Y512328D01*
X234082Y512238D01*
X234122Y512147D01*
X234158Y512054D01*
X234191Y511960D01*
X234220Y511864D01*
X234245Y511768D01*
X234266Y511671D01*
X234284Y511572D01*
X234297Y511474D01*
X234307Y511374D01*
X234313Y511275D01*
X234315Y511175D01*
X234313Y511075D01*
X234307Y510976D01*
X234297Y510876D01*
X234284Y510778D01*
X234266Y510679D01*
X234245Y510582D01*
X234220Y510486D01*
X234191Y510390D01*
X234158Y510296D01*
X234122Y510203D01*
X234082Y510112D01*
X234038Y510022D01*
X233991Y509934D01*
X233941Y509848D01*
X233887Y509764D01*
X233830Y509682D01*
X233770Y509603D01*
X233706Y509525D01*
X233640Y509451D01*
X233571Y509379D01*
X233499Y509310D01*
X233425Y509244D01*
X233347Y509180D01*
X233268Y509120D01*
X233186Y509063D01*
X233102Y509009D01*
X233016Y508959D01*
X232928Y508912D01*
X232838Y508868D01*
X232747Y508828D01*
X232654Y508792D01*
X232560Y508759D01*
X232464Y508730D01*
X232368Y508705D01*
X232271Y508684D01*
X232172Y508666D01*
X232074Y508653D01*
X231974Y508643D01*
X231875Y508637D01*
X231775Y508635D01*
X229235Y508635D01*
D10*
X502920Y444500D02*
X503020Y444498D01*
X503119Y444492D01*
X503219Y444482D01*
X503317Y444469D01*
X503416Y444451D01*
X503513Y444430D01*
X503609Y444405D01*
X503705Y444376D01*
X503799Y444343D01*
X503892Y444307D01*
X503983Y444267D01*
X504073Y444223D01*
X504161Y444176D01*
X504247Y444126D01*
X504331Y444072D01*
X504413Y444015D01*
X504492Y443955D01*
X504570Y443891D01*
X504644Y443825D01*
X504716Y443756D01*
X504785Y443684D01*
X504851Y443610D01*
X504915Y443532D01*
X504975Y443453D01*
X505032Y443371D01*
X505086Y443287D01*
X505136Y443201D01*
X505183Y443113D01*
X505227Y443023D01*
X505267Y442932D01*
X505303Y442839D01*
X505336Y442745D01*
X505365Y442649D01*
X505390Y442553D01*
X505411Y442456D01*
X505429Y442357D01*
X505442Y442259D01*
X505452Y442159D01*
X505458Y442060D01*
X505460Y441960D01*
X487680Y444500D02*
X487580Y444498D01*
X487481Y444492D01*
X487381Y444482D01*
X487283Y444469D01*
X487184Y444451D01*
X487087Y444430D01*
X486991Y444405D01*
X486895Y444376D01*
X486801Y444343D01*
X486708Y444307D01*
X486617Y444267D01*
X486527Y444223D01*
X486439Y444176D01*
X486353Y444126D01*
X486269Y444072D01*
X486187Y444015D01*
X486108Y443955D01*
X486030Y443891D01*
X485956Y443825D01*
X485884Y443756D01*
X485815Y443684D01*
X485749Y443610D01*
X485685Y443532D01*
X485625Y443453D01*
X485568Y443371D01*
X485514Y443287D01*
X485464Y443201D01*
X485417Y443113D01*
X485373Y443023D01*
X485333Y442932D01*
X485297Y442839D01*
X485264Y442745D01*
X485235Y442649D01*
X485210Y442553D01*
X485189Y442456D01*
X485171Y442357D01*
X485158Y442259D01*
X485148Y442159D01*
X485142Y442060D01*
X485140Y441960D01*
X485140Y396240D02*
X485142Y396140D01*
X485148Y396041D01*
X485158Y395941D01*
X485171Y395843D01*
X485189Y395744D01*
X485210Y395647D01*
X485235Y395551D01*
X485264Y395455D01*
X485297Y395361D01*
X485333Y395268D01*
X485373Y395177D01*
X485417Y395087D01*
X485464Y394999D01*
X485514Y394913D01*
X485568Y394829D01*
X485625Y394747D01*
X485685Y394668D01*
X485749Y394590D01*
X485815Y394516D01*
X485884Y394444D01*
X485956Y394375D01*
X486030Y394309D01*
X486108Y394245D01*
X486187Y394185D01*
X486269Y394128D01*
X486353Y394074D01*
X486439Y394024D01*
X486527Y393977D01*
X486617Y393933D01*
X486708Y393893D01*
X486801Y393857D01*
X486895Y393824D01*
X486991Y393795D01*
X487087Y393770D01*
X487184Y393749D01*
X487283Y393731D01*
X487381Y393718D01*
X487481Y393708D01*
X487580Y393702D01*
X487680Y393700D01*
X502920Y393700D02*
X503020Y393702D01*
X503119Y393708D01*
X503219Y393718D01*
X503317Y393731D01*
X503416Y393749D01*
X503513Y393770D01*
X503609Y393795D01*
X503705Y393824D01*
X503799Y393857D01*
X503892Y393893D01*
X503983Y393933D01*
X504073Y393977D01*
X504161Y394024D01*
X504247Y394074D01*
X504331Y394128D01*
X504413Y394185D01*
X504492Y394245D01*
X504570Y394309D01*
X504644Y394375D01*
X504716Y394444D01*
X504785Y394516D01*
X504851Y394590D01*
X504915Y394668D01*
X504975Y394747D01*
X505032Y394829D01*
X505086Y394913D01*
X505136Y394999D01*
X505183Y395087D01*
X505227Y395177D01*
X505267Y395268D01*
X505303Y395361D01*
X505336Y395455D01*
X505365Y395551D01*
X505390Y395647D01*
X505411Y395744D01*
X505429Y395843D01*
X505442Y395941D01*
X505452Y396041D01*
X505458Y396140D01*
X505460Y396240D01*
X502920Y444500D02*
X487680Y444500D01*
X505460Y441960D02*
X505460Y438150D01*
X504190Y436880D01*
X485140Y438150D02*
X485140Y441960D01*
X485140Y438150D02*
X486410Y436880D01*
X504190Y401320D02*
X505460Y400050D01*
X504190Y401320D02*
X504190Y436880D01*
X486410Y401320D02*
X485140Y400050D01*
X486410Y401320D02*
X486410Y436880D01*
X505460Y400050D02*
X505460Y396240D01*
X485140Y396240D02*
X485140Y400050D01*
X487680Y393700D02*
X502920Y393700D01*
D16*
X495300Y391795D03*
X495300Y446405D03*
D17*
X508762Y404803D02*
X517652Y404803D01*
X508762Y404803D02*
X508762Y407273D01*
X508764Y407371D01*
X508770Y407469D01*
X508780Y407567D01*
X508793Y407664D01*
X508811Y407761D01*
X508832Y407857D01*
X508857Y407951D01*
X508886Y408045D01*
X508918Y408138D01*
X508955Y408229D01*
X508994Y408319D01*
X509038Y408407D01*
X509085Y408493D01*
X509135Y408578D01*
X509188Y408660D01*
X509245Y408740D01*
X509305Y408818D01*
X509368Y408893D01*
X509434Y408966D01*
X509503Y409036D01*
X509574Y409103D01*
X509648Y409168D01*
X509725Y409229D01*
X509804Y409288D01*
X509885Y409343D01*
X509968Y409395D01*
X510054Y409443D01*
X510141Y409488D01*
X510230Y409530D01*
X510320Y409568D01*
X510412Y409602D01*
X510505Y409633D01*
X510600Y409660D01*
X510695Y409683D01*
X510792Y409703D01*
X510888Y409718D01*
X510986Y409730D01*
X511084Y409738D01*
X511182Y409742D01*
X511280Y409742D01*
X511378Y409738D01*
X511476Y409730D01*
X511574Y409718D01*
X511670Y409703D01*
X511767Y409683D01*
X511862Y409660D01*
X511957Y409633D01*
X512050Y409602D01*
X512142Y409568D01*
X512232Y409530D01*
X512321Y409488D01*
X512408Y409443D01*
X512494Y409395D01*
X512577Y409343D01*
X512658Y409288D01*
X512737Y409229D01*
X512814Y409168D01*
X512888Y409103D01*
X512959Y409036D01*
X513028Y408966D01*
X513094Y408893D01*
X513157Y408818D01*
X513217Y408740D01*
X513274Y408660D01*
X513327Y408578D01*
X513377Y408493D01*
X513424Y408407D01*
X513468Y408319D01*
X513507Y408229D01*
X513544Y408138D01*
X513576Y408045D01*
X513605Y407951D01*
X513630Y407857D01*
X513651Y407761D01*
X513669Y407664D01*
X513682Y407567D01*
X513692Y407469D01*
X513698Y407371D01*
X513700Y407273D01*
X513701Y407273D02*
X513701Y404803D01*
X513701Y407767D02*
X517652Y409742D01*
X510738Y413653D02*
X508762Y416123D01*
X517652Y416123D01*
X517652Y418592D02*
X517652Y413653D01*
D10*
X566420Y444500D02*
X566520Y444498D01*
X566619Y444492D01*
X566719Y444482D01*
X566817Y444469D01*
X566916Y444451D01*
X567013Y444430D01*
X567109Y444405D01*
X567205Y444376D01*
X567299Y444343D01*
X567392Y444307D01*
X567483Y444267D01*
X567573Y444223D01*
X567661Y444176D01*
X567747Y444126D01*
X567831Y444072D01*
X567913Y444015D01*
X567992Y443955D01*
X568070Y443891D01*
X568144Y443825D01*
X568216Y443756D01*
X568285Y443684D01*
X568351Y443610D01*
X568415Y443532D01*
X568475Y443453D01*
X568532Y443371D01*
X568586Y443287D01*
X568636Y443201D01*
X568683Y443113D01*
X568727Y443023D01*
X568767Y442932D01*
X568803Y442839D01*
X568836Y442745D01*
X568865Y442649D01*
X568890Y442553D01*
X568911Y442456D01*
X568929Y442357D01*
X568942Y442259D01*
X568952Y442159D01*
X568958Y442060D01*
X568960Y441960D01*
X551180Y444500D02*
X551080Y444498D01*
X550981Y444492D01*
X550881Y444482D01*
X550783Y444469D01*
X550684Y444451D01*
X550587Y444430D01*
X550491Y444405D01*
X550395Y444376D01*
X550301Y444343D01*
X550208Y444307D01*
X550117Y444267D01*
X550027Y444223D01*
X549939Y444176D01*
X549853Y444126D01*
X549769Y444072D01*
X549687Y444015D01*
X549608Y443955D01*
X549530Y443891D01*
X549456Y443825D01*
X549384Y443756D01*
X549315Y443684D01*
X549249Y443610D01*
X549185Y443532D01*
X549125Y443453D01*
X549068Y443371D01*
X549014Y443287D01*
X548964Y443201D01*
X548917Y443113D01*
X548873Y443023D01*
X548833Y442932D01*
X548797Y442839D01*
X548764Y442745D01*
X548735Y442649D01*
X548710Y442553D01*
X548689Y442456D01*
X548671Y442357D01*
X548658Y442259D01*
X548648Y442159D01*
X548642Y442060D01*
X548640Y441960D01*
X548640Y396240D02*
X548642Y396140D01*
X548648Y396041D01*
X548658Y395941D01*
X548671Y395843D01*
X548689Y395744D01*
X548710Y395647D01*
X548735Y395551D01*
X548764Y395455D01*
X548797Y395361D01*
X548833Y395268D01*
X548873Y395177D01*
X548917Y395087D01*
X548964Y394999D01*
X549014Y394913D01*
X549068Y394829D01*
X549125Y394747D01*
X549185Y394668D01*
X549249Y394590D01*
X549315Y394516D01*
X549384Y394444D01*
X549456Y394375D01*
X549530Y394309D01*
X549608Y394245D01*
X549687Y394185D01*
X549769Y394128D01*
X549853Y394074D01*
X549939Y394024D01*
X550027Y393977D01*
X550117Y393933D01*
X550208Y393893D01*
X550301Y393857D01*
X550395Y393824D01*
X550491Y393795D01*
X550587Y393770D01*
X550684Y393749D01*
X550783Y393731D01*
X550881Y393718D01*
X550981Y393708D01*
X551080Y393702D01*
X551180Y393700D01*
X566420Y393700D02*
X566520Y393702D01*
X566619Y393708D01*
X566719Y393718D01*
X566817Y393731D01*
X566916Y393749D01*
X567013Y393770D01*
X567109Y393795D01*
X567205Y393824D01*
X567299Y393857D01*
X567392Y393893D01*
X567483Y393933D01*
X567573Y393977D01*
X567661Y394024D01*
X567747Y394074D01*
X567831Y394128D01*
X567913Y394185D01*
X567992Y394245D01*
X568070Y394309D01*
X568144Y394375D01*
X568216Y394444D01*
X568285Y394516D01*
X568351Y394590D01*
X568415Y394668D01*
X568475Y394747D01*
X568532Y394829D01*
X568586Y394913D01*
X568636Y394999D01*
X568683Y395087D01*
X568727Y395177D01*
X568767Y395268D01*
X568803Y395361D01*
X568836Y395455D01*
X568865Y395551D01*
X568890Y395647D01*
X568911Y395744D01*
X568929Y395843D01*
X568942Y395941D01*
X568952Y396041D01*
X568958Y396140D01*
X568960Y396240D01*
X566420Y444500D02*
X551180Y444500D01*
X568960Y441960D02*
X568960Y438150D01*
X567690Y436880D01*
X548640Y438150D02*
X548640Y441960D01*
X548640Y438150D02*
X549910Y436880D01*
X567690Y401320D02*
X568960Y400050D01*
X567690Y401320D02*
X567690Y436880D01*
X549910Y401320D02*
X548640Y400050D01*
X549910Y401320D02*
X549910Y436880D01*
X568960Y400050D02*
X568960Y396240D01*
X548640Y396240D02*
X548640Y400050D01*
X551180Y393700D02*
X566420Y393700D01*
D16*
X558800Y391795D03*
X558800Y446405D03*
D17*
X572262Y404803D02*
X581152Y404803D01*
X572262Y404803D02*
X572262Y407273D01*
X572264Y407371D01*
X572270Y407469D01*
X572280Y407567D01*
X572293Y407664D01*
X572311Y407761D01*
X572332Y407857D01*
X572357Y407951D01*
X572386Y408045D01*
X572418Y408138D01*
X572455Y408229D01*
X572494Y408319D01*
X572538Y408407D01*
X572585Y408493D01*
X572635Y408578D01*
X572688Y408660D01*
X572745Y408740D01*
X572805Y408818D01*
X572868Y408893D01*
X572934Y408966D01*
X573003Y409036D01*
X573074Y409103D01*
X573148Y409168D01*
X573225Y409229D01*
X573304Y409288D01*
X573385Y409343D01*
X573468Y409395D01*
X573554Y409443D01*
X573641Y409488D01*
X573730Y409530D01*
X573820Y409568D01*
X573912Y409602D01*
X574005Y409633D01*
X574100Y409660D01*
X574195Y409683D01*
X574292Y409703D01*
X574388Y409718D01*
X574486Y409730D01*
X574584Y409738D01*
X574682Y409742D01*
X574780Y409742D01*
X574878Y409738D01*
X574976Y409730D01*
X575074Y409718D01*
X575170Y409703D01*
X575267Y409683D01*
X575362Y409660D01*
X575457Y409633D01*
X575550Y409602D01*
X575642Y409568D01*
X575732Y409530D01*
X575821Y409488D01*
X575908Y409443D01*
X575994Y409395D01*
X576077Y409343D01*
X576158Y409288D01*
X576237Y409229D01*
X576314Y409168D01*
X576388Y409103D01*
X576459Y409036D01*
X576528Y408966D01*
X576594Y408893D01*
X576657Y408818D01*
X576717Y408740D01*
X576774Y408660D01*
X576827Y408578D01*
X576877Y408493D01*
X576924Y408407D01*
X576968Y408319D01*
X577007Y408229D01*
X577044Y408138D01*
X577076Y408045D01*
X577105Y407951D01*
X577130Y407857D01*
X577151Y407761D01*
X577169Y407664D01*
X577182Y407567D01*
X577192Y407469D01*
X577198Y407371D01*
X577200Y407273D01*
X577201Y407273D02*
X577201Y404803D01*
X577201Y407767D02*
X581152Y409742D01*
X581152Y413653D02*
X581152Y416123D01*
X581150Y416221D01*
X581144Y416319D01*
X581134Y416417D01*
X581121Y416514D01*
X581103Y416611D01*
X581082Y416707D01*
X581057Y416801D01*
X581028Y416895D01*
X580996Y416988D01*
X580959Y417079D01*
X580920Y417169D01*
X580876Y417257D01*
X580829Y417343D01*
X580779Y417428D01*
X580726Y417510D01*
X580669Y417590D01*
X580609Y417668D01*
X580546Y417743D01*
X580480Y417816D01*
X580411Y417886D01*
X580340Y417953D01*
X580266Y418018D01*
X580189Y418079D01*
X580110Y418138D01*
X580029Y418193D01*
X579946Y418245D01*
X579860Y418293D01*
X579773Y418338D01*
X579684Y418380D01*
X579594Y418418D01*
X579502Y418452D01*
X579409Y418483D01*
X579314Y418510D01*
X579219Y418533D01*
X579122Y418553D01*
X579026Y418568D01*
X578928Y418580D01*
X578830Y418588D01*
X578732Y418592D01*
X578634Y418592D01*
X578536Y418588D01*
X578438Y418580D01*
X578340Y418568D01*
X578244Y418553D01*
X578147Y418533D01*
X578052Y418510D01*
X577957Y418483D01*
X577864Y418452D01*
X577772Y418418D01*
X577682Y418380D01*
X577593Y418338D01*
X577506Y418293D01*
X577420Y418245D01*
X577337Y418193D01*
X577256Y418138D01*
X577177Y418079D01*
X577100Y418018D01*
X577026Y417953D01*
X576955Y417886D01*
X576886Y417816D01*
X576820Y417743D01*
X576757Y417668D01*
X576697Y417590D01*
X576640Y417510D01*
X576587Y417428D01*
X576537Y417343D01*
X576490Y417257D01*
X576446Y417169D01*
X576407Y417079D01*
X576370Y416988D01*
X576338Y416895D01*
X576309Y416801D01*
X576284Y416707D01*
X576263Y416611D01*
X576245Y416514D01*
X576232Y416417D01*
X576222Y416319D01*
X576216Y416221D01*
X576214Y416123D01*
X572262Y416616D02*
X572262Y413653D01*
X572262Y416616D02*
X572264Y416703D01*
X572270Y416791D01*
X572279Y416878D01*
X572293Y416964D01*
X572310Y417050D01*
X572331Y417134D01*
X572356Y417218D01*
X572385Y417301D01*
X572417Y417382D01*
X572452Y417462D01*
X572491Y417540D01*
X572534Y417617D01*
X572580Y417691D01*
X572629Y417763D01*
X572681Y417833D01*
X572737Y417901D01*
X572795Y417966D01*
X572856Y418029D01*
X572920Y418088D01*
X572987Y418145D01*
X573055Y418199D01*
X573127Y418250D01*
X573200Y418297D01*
X573275Y418342D01*
X573353Y418383D01*
X573432Y418420D01*
X573512Y418454D01*
X573594Y418484D01*
X573677Y418511D01*
X573762Y418534D01*
X573847Y418553D01*
X573933Y418568D01*
X574020Y418580D01*
X574107Y418588D01*
X574194Y418592D01*
X574282Y418592D01*
X574369Y418588D01*
X574456Y418580D01*
X574543Y418568D01*
X574629Y418553D01*
X574714Y418534D01*
X574799Y418511D01*
X574882Y418484D01*
X574964Y418454D01*
X575044Y418420D01*
X575123Y418383D01*
X575201Y418342D01*
X575276Y418297D01*
X575349Y418250D01*
X575421Y418199D01*
X575489Y418145D01*
X575556Y418088D01*
X575620Y418029D01*
X575681Y417966D01*
X575739Y417901D01*
X575795Y417833D01*
X575847Y417763D01*
X575896Y417691D01*
X575942Y417617D01*
X575985Y417540D01*
X576024Y417462D01*
X576059Y417382D01*
X576091Y417301D01*
X576120Y417218D01*
X576145Y417134D01*
X576166Y417050D01*
X576183Y416964D01*
X576197Y416878D01*
X576206Y416791D01*
X576212Y416703D01*
X576214Y416616D01*
X576213Y416616D02*
X576213Y414641D01*
D10*
X441960Y314960D02*
X441958Y315060D01*
X441952Y315159D01*
X441942Y315259D01*
X441929Y315357D01*
X441911Y315456D01*
X441890Y315553D01*
X441865Y315649D01*
X441836Y315745D01*
X441803Y315839D01*
X441767Y315932D01*
X441727Y316023D01*
X441683Y316113D01*
X441636Y316201D01*
X441586Y316287D01*
X441532Y316371D01*
X441475Y316453D01*
X441415Y316532D01*
X441351Y316610D01*
X441285Y316684D01*
X441216Y316756D01*
X441144Y316825D01*
X441070Y316891D01*
X440992Y316955D01*
X440913Y317015D01*
X440831Y317072D01*
X440747Y317126D01*
X440661Y317176D01*
X440573Y317223D01*
X440483Y317267D01*
X440392Y317307D01*
X440299Y317343D01*
X440205Y317376D01*
X440109Y317405D01*
X440013Y317430D01*
X439916Y317451D01*
X439817Y317469D01*
X439719Y317482D01*
X439619Y317492D01*
X439520Y317498D01*
X439420Y317500D01*
X424180Y317500D02*
X424080Y317498D01*
X423981Y317492D01*
X423881Y317482D01*
X423783Y317469D01*
X423684Y317451D01*
X423587Y317430D01*
X423491Y317405D01*
X423395Y317376D01*
X423301Y317343D01*
X423208Y317307D01*
X423117Y317267D01*
X423027Y317223D01*
X422939Y317176D01*
X422853Y317126D01*
X422769Y317072D01*
X422687Y317015D01*
X422608Y316955D01*
X422530Y316891D01*
X422456Y316825D01*
X422384Y316756D01*
X422315Y316684D01*
X422249Y316610D01*
X422185Y316532D01*
X422125Y316453D01*
X422068Y316371D01*
X422014Y316287D01*
X421964Y316201D01*
X421917Y316113D01*
X421873Y316023D01*
X421833Y315932D01*
X421797Y315839D01*
X421764Y315745D01*
X421735Y315649D01*
X421710Y315553D01*
X421689Y315456D01*
X421671Y315357D01*
X421658Y315259D01*
X421648Y315159D01*
X421642Y315060D01*
X421640Y314960D01*
X421640Y269240D02*
X421642Y269140D01*
X421648Y269041D01*
X421658Y268941D01*
X421671Y268843D01*
X421689Y268744D01*
X421710Y268647D01*
X421735Y268551D01*
X421764Y268455D01*
X421797Y268361D01*
X421833Y268268D01*
X421873Y268177D01*
X421917Y268087D01*
X421964Y267999D01*
X422014Y267913D01*
X422068Y267829D01*
X422125Y267747D01*
X422185Y267668D01*
X422249Y267590D01*
X422315Y267516D01*
X422384Y267444D01*
X422456Y267375D01*
X422530Y267309D01*
X422608Y267245D01*
X422687Y267185D01*
X422769Y267128D01*
X422853Y267074D01*
X422939Y267024D01*
X423027Y266977D01*
X423117Y266933D01*
X423208Y266893D01*
X423301Y266857D01*
X423395Y266824D01*
X423491Y266795D01*
X423587Y266770D01*
X423684Y266749D01*
X423783Y266731D01*
X423881Y266718D01*
X423981Y266708D01*
X424080Y266702D01*
X424180Y266700D01*
X439420Y266700D02*
X439520Y266702D01*
X439619Y266708D01*
X439719Y266718D01*
X439817Y266731D01*
X439916Y266749D01*
X440013Y266770D01*
X440109Y266795D01*
X440205Y266824D01*
X440299Y266857D01*
X440392Y266893D01*
X440483Y266933D01*
X440573Y266977D01*
X440661Y267024D01*
X440747Y267074D01*
X440831Y267128D01*
X440913Y267185D01*
X440992Y267245D01*
X441070Y267309D01*
X441144Y267375D01*
X441216Y267444D01*
X441285Y267516D01*
X441351Y267590D01*
X441415Y267668D01*
X441475Y267747D01*
X441532Y267829D01*
X441586Y267913D01*
X441636Y267999D01*
X441683Y268087D01*
X441727Y268177D01*
X441767Y268268D01*
X441803Y268361D01*
X441836Y268455D01*
X441865Y268551D01*
X441890Y268647D01*
X441911Y268744D01*
X441929Y268843D01*
X441942Y268941D01*
X441952Y269041D01*
X441958Y269140D01*
X441960Y269240D01*
X439420Y317500D02*
X424180Y317500D01*
X441960Y314960D02*
X441960Y311150D01*
X440690Y309880D01*
X421640Y311150D02*
X421640Y314960D01*
X421640Y311150D02*
X422910Y309880D01*
X440690Y274320D02*
X441960Y273050D01*
X440690Y274320D02*
X440690Y309880D01*
X422910Y274320D02*
X421640Y273050D01*
X422910Y274320D02*
X422910Y309880D01*
X441960Y273050D02*
X441960Y269240D01*
X421640Y269240D02*
X421640Y273050D01*
X424180Y266700D02*
X439420Y266700D01*
D16*
X431800Y264795D03*
X431800Y319405D03*
D17*
X445262Y277803D02*
X454152Y277803D01*
X445262Y277803D02*
X445262Y280273D01*
X445264Y280371D01*
X445270Y280469D01*
X445280Y280567D01*
X445293Y280664D01*
X445311Y280761D01*
X445332Y280857D01*
X445357Y280951D01*
X445386Y281045D01*
X445418Y281138D01*
X445455Y281229D01*
X445494Y281319D01*
X445538Y281407D01*
X445585Y281493D01*
X445635Y281578D01*
X445688Y281660D01*
X445745Y281740D01*
X445805Y281818D01*
X445868Y281893D01*
X445934Y281966D01*
X446003Y282036D01*
X446074Y282103D01*
X446148Y282168D01*
X446225Y282229D01*
X446304Y282288D01*
X446385Y282343D01*
X446468Y282395D01*
X446554Y282443D01*
X446641Y282488D01*
X446730Y282530D01*
X446820Y282568D01*
X446912Y282602D01*
X447005Y282633D01*
X447100Y282660D01*
X447195Y282683D01*
X447292Y282703D01*
X447388Y282718D01*
X447486Y282730D01*
X447584Y282738D01*
X447682Y282742D01*
X447780Y282742D01*
X447878Y282738D01*
X447976Y282730D01*
X448074Y282718D01*
X448170Y282703D01*
X448267Y282683D01*
X448362Y282660D01*
X448457Y282633D01*
X448550Y282602D01*
X448642Y282568D01*
X448732Y282530D01*
X448821Y282488D01*
X448908Y282443D01*
X448994Y282395D01*
X449077Y282343D01*
X449158Y282288D01*
X449237Y282229D01*
X449314Y282168D01*
X449388Y282103D01*
X449459Y282036D01*
X449528Y281966D01*
X449594Y281893D01*
X449657Y281818D01*
X449717Y281740D01*
X449774Y281660D01*
X449827Y281578D01*
X449877Y281493D01*
X449924Y281407D01*
X449968Y281319D01*
X450007Y281229D01*
X450044Y281138D01*
X450076Y281045D01*
X450105Y280951D01*
X450130Y280857D01*
X450151Y280761D01*
X450169Y280664D01*
X450182Y280567D01*
X450192Y280469D01*
X450198Y280371D01*
X450200Y280273D01*
X450201Y280273D02*
X450201Y277803D01*
X450201Y280767D02*
X454152Y282742D01*
X452176Y286653D02*
X445262Y288629D01*
X452176Y286653D02*
X452176Y291592D01*
X450201Y290110D02*
X454152Y290110D01*
D10*
X485140Y269240D02*
X485142Y269140D01*
X485148Y269041D01*
X485158Y268941D01*
X485171Y268843D01*
X485189Y268744D01*
X485210Y268647D01*
X485235Y268551D01*
X485264Y268455D01*
X485297Y268361D01*
X485333Y268268D01*
X485373Y268177D01*
X485417Y268087D01*
X485464Y267999D01*
X485514Y267913D01*
X485568Y267829D01*
X485625Y267747D01*
X485685Y267668D01*
X485749Y267590D01*
X485815Y267516D01*
X485884Y267444D01*
X485956Y267375D01*
X486030Y267309D01*
X486108Y267245D01*
X486187Y267185D01*
X486269Y267128D01*
X486353Y267074D01*
X486439Y267024D01*
X486527Y266977D01*
X486617Y266933D01*
X486708Y266893D01*
X486801Y266857D01*
X486895Y266824D01*
X486991Y266795D01*
X487087Y266770D01*
X487184Y266749D01*
X487283Y266731D01*
X487381Y266718D01*
X487481Y266708D01*
X487580Y266702D01*
X487680Y266700D01*
X502920Y266700D02*
X503020Y266702D01*
X503119Y266708D01*
X503219Y266718D01*
X503317Y266731D01*
X503416Y266749D01*
X503513Y266770D01*
X503609Y266795D01*
X503705Y266824D01*
X503799Y266857D01*
X503892Y266893D01*
X503983Y266933D01*
X504073Y266977D01*
X504161Y267024D01*
X504247Y267074D01*
X504331Y267128D01*
X504413Y267185D01*
X504492Y267245D01*
X504570Y267309D01*
X504644Y267375D01*
X504716Y267444D01*
X504785Y267516D01*
X504851Y267590D01*
X504915Y267668D01*
X504975Y267747D01*
X505032Y267829D01*
X505086Y267913D01*
X505136Y267999D01*
X505183Y268087D01*
X505227Y268177D01*
X505267Y268268D01*
X505303Y268361D01*
X505336Y268455D01*
X505365Y268551D01*
X505390Y268647D01*
X505411Y268744D01*
X505429Y268843D01*
X505442Y268941D01*
X505452Y269041D01*
X505458Y269140D01*
X505460Y269240D01*
X505460Y314960D02*
X505458Y315060D01*
X505452Y315159D01*
X505442Y315259D01*
X505429Y315357D01*
X505411Y315456D01*
X505390Y315553D01*
X505365Y315649D01*
X505336Y315745D01*
X505303Y315839D01*
X505267Y315932D01*
X505227Y316023D01*
X505183Y316113D01*
X505136Y316201D01*
X505086Y316287D01*
X505032Y316371D01*
X504975Y316453D01*
X504915Y316532D01*
X504851Y316610D01*
X504785Y316684D01*
X504716Y316756D01*
X504644Y316825D01*
X504570Y316891D01*
X504492Y316955D01*
X504413Y317015D01*
X504331Y317072D01*
X504247Y317126D01*
X504161Y317176D01*
X504073Y317223D01*
X503983Y317267D01*
X503892Y317307D01*
X503799Y317343D01*
X503705Y317376D01*
X503609Y317405D01*
X503513Y317430D01*
X503416Y317451D01*
X503317Y317469D01*
X503219Y317482D01*
X503119Y317492D01*
X503020Y317498D01*
X502920Y317500D01*
X487680Y317500D02*
X487580Y317498D01*
X487481Y317492D01*
X487381Y317482D01*
X487283Y317469D01*
X487184Y317451D01*
X487087Y317430D01*
X486991Y317405D01*
X486895Y317376D01*
X486801Y317343D01*
X486708Y317307D01*
X486617Y317267D01*
X486527Y317223D01*
X486439Y317176D01*
X486353Y317126D01*
X486269Y317072D01*
X486187Y317015D01*
X486108Y316955D01*
X486030Y316891D01*
X485956Y316825D01*
X485884Y316756D01*
X485815Y316684D01*
X485749Y316610D01*
X485685Y316532D01*
X485625Y316453D01*
X485568Y316371D01*
X485514Y316287D01*
X485464Y316201D01*
X485417Y316113D01*
X485373Y316023D01*
X485333Y315932D01*
X485297Y315839D01*
X485264Y315745D01*
X485235Y315649D01*
X485210Y315553D01*
X485189Y315456D01*
X485171Y315357D01*
X485158Y315259D01*
X485148Y315159D01*
X485142Y315060D01*
X485140Y314960D01*
X487680Y266700D02*
X502920Y266700D01*
X485140Y269240D02*
X485140Y273050D01*
X486410Y274320D01*
X505460Y273050D02*
X505460Y269240D01*
X505460Y273050D02*
X504190Y274320D01*
X486410Y309880D02*
X485140Y311150D01*
X486410Y309880D02*
X486410Y274320D01*
X504190Y309880D02*
X505460Y311150D01*
X504190Y309880D02*
X504190Y274320D01*
X485140Y311150D02*
X485140Y314960D01*
X505460Y314960D02*
X505460Y311150D01*
X502920Y317500D02*
X487680Y317500D01*
D16*
X495300Y319405D03*
X495300Y264795D03*
D17*
X481838Y279908D02*
X472948Y279908D01*
X472948Y282377D01*
X472950Y282475D01*
X472956Y282573D01*
X472966Y282671D01*
X472979Y282768D01*
X472997Y282865D01*
X473018Y282961D01*
X473043Y283055D01*
X473072Y283149D01*
X473104Y283242D01*
X473141Y283333D01*
X473180Y283423D01*
X473224Y283511D01*
X473271Y283597D01*
X473321Y283682D01*
X473374Y283764D01*
X473431Y283844D01*
X473491Y283922D01*
X473554Y283997D01*
X473620Y284070D01*
X473689Y284140D01*
X473760Y284207D01*
X473834Y284272D01*
X473911Y284333D01*
X473990Y284392D01*
X474071Y284447D01*
X474154Y284499D01*
X474240Y284547D01*
X474327Y284592D01*
X474416Y284634D01*
X474506Y284672D01*
X474598Y284706D01*
X474691Y284737D01*
X474786Y284764D01*
X474881Y284787D01*
X474978Y284807D01*
X475074Y284822D01*
X475172Y284834D01*
X475270Y284842D01*
X475368Y284846D01*
X475466Y284846D01*
X475564Y284842D01*
X475662Y284834D01*
X475760Y284822D01*
X475856Y284807D01*
X475953Y284787D01*
X476048Y284764D01*
X476143Y284737D01*
X476236Y284706D01*
X476328Y284672D01*
X476418Y284634D01*
X476507Y284592D01*
X476594Y284547D01*
X476680Y284499D01*
X476763Y284447D01*
X476844Y284392D01*
X476923Y284333D01*
X477000Y284272D01*
X477074Y284207D01*
X477145Y284140D01*
X477214Y284070D01*
X477280Y283997D01*
X477343Y283922D01*
X477403Y283844D01*
X477460Y283764D01*
X477513Y283682D01*
X477563Y283597D01*
X477610Y283511D01*
X477654Y283423D01*
X477693Y283333D01*
X477730Y283242D01*
X477762Y283149D01*
X477791Y283055D01*
X477816Y282961D01*
X477837Y282865D01*
X477855Y282768D01*
X477868Y282671D01*
X477878Y282573D01*
X477884Y282475D01*
X477886Y282377D01*
X477887Y282377D02*
X477887Y279908D01*
X477887Y282871D02*
X481838Y284847D01*
X481838Y288758D02*
X481838Y291721D01*
X481836Y291810D01*
X481830Y291898D01*
X481820Y291986D01*
X481806Y292074D01*
X481788Y292161D01*
X481767Y292247D01*
X481741Y292332D01*
X481712Y292415D01*
X481679Y292498D01*
X481642Y292578D01*
X481602Y292657D01*
X481558Y292734D01*
X481511Y292810D01*
X481461Y292882D01*
X481407Y292953D01*
X481350Y293021D01*
X481290Y293087D01*
X481228Y293149D01*
X481162Y293209D01*
X481094Y293266D01*
X481023Y293320D01*
X480951Y293370D01*
X480876Y293417D01*
X480798Y293461D01*
X480719Y293501D01*
X480639Y293538D01*
X480556Y293571D01*
X480473Y293600D01*
X480388Y293626D01*
X480302Y293647D01*
X480215Y293665D01*
X480127Y293679D01*
X480039Y293689D01*
X479951Y293695D01*
X479862Y293697D01*
X478875Y293697D01*
X478789Y293695D01*
X478703Y293689D01*
X478617Y293680D01*
X478532Y293667D01*
X478447Y293650D01*
X478364Y293630D01*
X478281Y293606D01*
X478199Y293578D01*
X478119Y293547D01*
X478040Y293512D01*
X477963Y293474D01*
X477887Y293432D01*
X477813Y293388D01*
X477742Y293340D01*
X477672Y293289D01*
X477605Y293235D01*
X477540Y293178D01*
X477478Y293118D01*
X477418Y293056D01*
X477361Y292991D01*
X477307Y292924D01*
X477256Y292854D01*
X477208Y292783D01*
X477164Y292709D01*
X477122Y292633D01*
X477084Y292556D01*
X477049Y292477D01*
X477018Y292397D01*
X476990Y292315D01*
X476966Y292232D01*
X476946Y292149D01*
X476929Y292064D01*
X476916Y291979D01*
X476907Y291893D01*
X476901Y291807D01*
X476899Y291721D01*
X476899Y288758D01*
X472948Y288758D01*
X472948Y293697D01*
D10*
X424180Y393700D02*
X424080Y393702D01*
X423981Y393708D01*
X423881Y393718D01*
X423783Y393731D01*
X423684Y393749D01*
X423587Y393770D01*
X423491Y393795D01*
X423395Y393824D01*
X423301Y393857D01*
X423208Y393893D01*
X423117Y393933D01*
X423027Y393977D01*
X422939Y394024D01*
X422853Y394074D01*
X422769Y394128D01*
X422687Y394185D01*
X422608Y394245D01*
X422530Y394309D01*
X422456Y394375D01*
X422384Y394444D01*
X422315Y394516D01*
X422249Y394590D01*
X422185Y394668D01*
X422125Y394747D01*
X422068Y394829D01*
X422014Y394913D01*
X421964Y394999D01*
X421917Y395087D01*
X421873Y395177D01*
X421833Y395268D01*
X421797Y395361D01*
X421764Y395455D01*
X421735Y395551D01*
X421710Y395647D01*
X421689Y395744D01*
X421671Y395843D01*
X421658Y395941D01*
X421648Y396041D01*
X421642Y396140D01*
X421640Y396240D01*
X439420Y393700D02*
X439520Y393702D01*
X439619Y393708D01*
X439719Y393718D01*
X439817Y393731D01*
X439916Y393749D01*
X440013Y393770D01*
X440109Y393795D01*
X440205Y393824D01*
X440299Y393857D01*
X440392Y393893D01*
X440483Y393933D01*
X440573Y393977D01*
X440661Y394024D01*
X440747Y394074D01*
X440831Y394128D01*
X440913Y394185D01*
X440992Y394245D01*
X441070Y394309D01*
X441144Y394375D01*
X441216Y394444D01*
X441285Y394516D01*
X441351Y394590D01*
X441415Y394668D01*
X441475Y394747D01*
X441532Y394829D01*
X441586Y394913D01*
X441636Y394999D01*
X441683Y395087D01*
X441727Y395177D01*
X441767Y395268D01*
X441803Y395361D01*
X441836Y395455D01*
X441865Y395551D01*
X441890Y395647D01*
X441911Y395744D01*
X441929Y395843D01*
X441942Y395941D01*
X441952Y396041D01*
X441958Y396140D01*
X441960Y396240D01*
X441960Y441960D02*
X441958Y442060D01*
X441952Y442159D01*
X441942Y442259D01*
X441929Y442357D01*
X441911Y442456D01*
X441890Y442553D01*
X441865Y442649D01*
X441836Y442745D01*
X441803Y442839D01*
X441767Y442932D01*
X441727Y443023D01*
X441683Y443113D01*
X441636Y443201D01*
X441586Y443287D01*
X441532Y443371D01*
X441475Y443453D01*
X441415Y443532D01*
X441351Y443610D01*
X441285Y443684D01*
X441216Y443756D01*
X441144Y443825D01*
X441070Y443891D01*
X440992Y443955D01*
X440913Y444015D01*
X440831Y444072D01*
X440747Y444126D01*
X440661Y444176D01*
X440573Y444223D01*
X440483Y444267D01*
X440392Y444307D01*
X440299Y444343D01*
X440205Y444376D01*
X440109Y444405D01*
X440013Y444430D01*
X439916Y444451D01*
X439817Y444469D01*
X439719Y444482D01*
X439619Y444492D01*
X439520Y444498D01*
X439420Y444500D01*
X424180Y444500D02*
X424080Y444498D01*
X423981Y444492D01*
X423881Y444482D01*
X423783Y444469D01*
X423684Y444451D01*
X423587Y444430D01*
X423491Y444405D01*
X423395Y444376D01*
X423301Y444343D01*
X423208Y444307D01*
X423117Y444267D01*
X423027Y444223D01*
X422939Y444176D01*
X422853Y444126D01*
X422769Y444072D01*
X422687Y444015D01*
X422608Y443955D01*
X422530Y443891D01*
X422456Y443825D01*
X422384Y443756D01*
X422315Y443684D01*
X422249Y443610D01*
X422185Y443532D01*
X422125Y443453D01*
X422068Y443371D01*
X422014Y443287D01*
X421964Y443201D01*
X421917Y443113D01*
X421873Y443023D01*
X421833Y442932D01*
X421797Y442839D01*
X421764Y442745D01*
X421735Y442649D01*
X421710Y442553D01*
X421689Y442456D01*
X421671Y442357D01*
X421658Y442259D01*
X421648Y442159D01*
X421642Y442060D01*
X421640Y441960D01*
X424180Y393700D02*
X439420Y393700D01*
X421640Y396240D02*
X421640Y400050D01*
X422910Y401320D01*
X441960Y400050D02*
X441960Y396240D01*
X441960Y400050D02*
X440690Y401320D01*
X422910Y436880D02*
X421640Y438150D01*
X422910Y436880D02*
X422910Y401320D01*
X440690Y436880D02*
X441960Y438150D01*
X440690Y436880D02*
X440690Y401320D01*
X421640Y438150D02*
X421640Y441960D01*
X441960Y441960D02*
X441960Y438150D01*
X439420Y444500D02*
X424180Y444500D01*
D16*
X431800Y446405D03*
X431800Y391795D03*
D17*
X444754Y404803D02*
X453644Y404803D01*
X444754Y404803D02*
X444754Y407273D01*
X444756Y407371D01*
X444762Y407469D01*
X444772Y407567D01*
X444785Y407664D01*
X444803Y407761D01*
X444824Y407857D01*
X444849Y407951D01*
X444878Y408045D01*
X444910Y408138D01*
X444947Y408229D01*
X444986Y408319D01*
X445030Y408407D01*
X445077Y408493D01*
X445127Y408578D01*
X445180Y408660D01*
X445237Y408740D01*
X445297Y408818D01*
X445360Y408893D01*
X445426Y408966D01*
X445495Y409036D01*
X445566Y409103D01*
X445640Y409168D01*
X445717Y409229D01*
X445796Y409288D01*
X445877Y409343D01*
X445960Y409395D01*
X446046Y409443D01*
X446133Y409488D01*
X446222Y409530D01*
X446312Y409568D01*
X446404Y409602D01*
X446497Y409633D01*
X446592Y409660D01*
X446687Y409683D01*
X446784Y409703D01*
X446880Y409718D01*
X446978Y409730D01*
X447076Y409738D01*
X447174Y409742D01*
X447272Y409742D01*
X447370Y409738D01*
X447468Y409730D01*
X447566Y409718D01*
X447662Y409703D01*
X447759Y409683D01*
X447854Y409660D01*
X447949Y409633D01*
X448042Y409602D01*
X448134Y409568D01*
X448224Y409530D01*
X448313Y409488D01*
X448400Y409443D01*
X448486Y409395D01*
X448569Y409343D01*
X448650Y409288D01*
X448729Y409229D01*
X448806Y409168D01*
X448880Y409103D01*
X448951Y409036D01*
X449020Y408966D01*
X449086Y408893D01*
X449149Y408818D01*
X449209Y408740D01*
X449266Y408660D01*
X449319Y408578D01*
X449369Y408493D01*
X449416Y408407D01*
X449460Y408319D01*
X449499Y408229D01*
X449536Y408138D01*
X449568Y408045D01*
X449597Y407951D01*
X449622Y407857D01*
X449643Y407761D01*
X449661Y407664D01*
X449674Y407567D01*
X449684Y407469D01*
X449690Y407371D01*
X449692Y407273D01*
X449693Y407273D02*
X449693Y404803D01*
X449693Y407767D02*
X453644Y409742D01*
X448705Y413653D02*
X448705Y416616D01*
X448707Y416702D01*
X448713Y416788D01*
X448722Y416874D01*
X448735Y416959D01*
X448752Y417044D01*
X448772Y417127D01*
X448796Y417210D01*
X448824Y417292D01*
X448855Y417372D01*
X448890Y417451D01*
X448928Y417528D01*
X448970Y417604D01*
X449014Y417678D01*
X449062Y417749D01*
X449113Y417819D01*
X449167Y417886D01*
X449224Y417951D01*
X449284Y418013D01*
X449346Y418073D01*
X449411Y418130D01*
X449478Y418184D01*
X449548Y418235D01*
X449619Y418283D01*
X449693Y418327D01*
X449769Y418369D01*
X449846Y418407D01*
X449925Y418442D01*
X450005Y418473D01*
X450087Y418501D01*
X450170Y418525D01*
X450253Y418545D01*
X450338Y418562D01*
X450423Y418575D01*
X450509Y418584D01*
X450595Y418590D01*
X450681Y418592D01*
X451175Y418592D01*
X451273Y418590D01*
X451371Y418584D01*
X451469Y418574D01*
X451566Y418561D01*
X451663Y418543D01*
X451759Y418522D01*
X451853Y418497D01*
X451947Y418468D01*
X452040Y418436D01*
X452131Y418399D01*
X452221Y418360D01*
X452309Y418316D01*
X452395Y418269D01*
X452480Y418219D01*
X452562Y418166D01*
X452642Y418109D01*
X452720Y418049D01*
X452795Y417986D01*
X452868Y417920D01*
X452938Y417851D01*
X453005Y417780D01*
X453070Y417706D01*
X453131Y417629D01*
X453190Y417550D01*
X453245Y417469D01*
X453297Y417386D01*
X453345Y417300D01*
X453390Y417213D01*
X453432Y417124D01*
X453470Y417034D01*
X453504Y416942D01*
X453535Y416849D01*
X453562Y416754D01*
X453585Y416659D01*
X453605Y416562D01*
X453620Y416466D01*
X453632Y416368D01*
X453640Y416270D01*
X453644Y416172D01*
X453644Y416074D01*
X453640Y415976D01*
X453632Y415878D01*
X453620Y415780D01*
X453605Y415684D01*
X453585Y415587D01*
X453562Y415492D01*
X453535Y415397D01*
X453504Y415304D01*
X453470Y415212D01*
X453432Y415122D01*
X453390Y415033D01*
X453345Y414946D01*
X453297Y414860D01*
X453245Y414777D01*
X453190Y414696D01*
X453131Y414617D01*
X453070Y414540D01*
X453005Y414466D01*
X452938Y414395D01*
X452868Y414326D01*
X452795Y414260D01*
X452720Y414197D01*
X452642Y414137D01*
X452562Y414080D01*
X452480Y414027D01*
X452395Y413977D01*
X452309Y413930D01*
X452221Y413886D01*
X452131Y413847D01*
X452040Y413810D01*
X451947Y413778D01*
X451853Y413749D01*
X451759Y413724D01*
X451663Y413703D01*
X451566Y413685D01*
X451469Y413672D01*
X451371Y413662D01*
X451273Y413656D01*
X451175Y413654D01*
X451175Y413653D02*
X448705Y413653D01*
X448581Y413655D01*
X448457Y413661D01*
X448333Y413671D01*
X448210Y413684D01*
X448087Y413702D01*
X447965Y413723D01*
X447843Y413748D01*
X447722Y413777D01*
X447603Y413810D01*
X447484Y413846D01*
X447367Y413887D01*
X447251Y413930D01*
X447136Y413978D01*
X447023Y414029D01*
X446911Y414084D01*
X446802Y414142D01*
X446694Y414203D01*
X446588Y414268D01*
X446484Y414336D01*
X446383Y414408D01*
X446283Y414482D01*
X446187Y414560D01*
X446092Y414640D01*
X446000Y414724D01*
X445911Y414810D01*
X445825Y414899D01*
X445741Y414991D01*
X445661Y415086D01*
X445583Y415182D01*
X445509Y415282D01*
X445437Y415383D01*
X445369Y415487D01*
X445304Y415593D01*
X445243Y415701D01*
X445185Y415810D01*
X445130Y415922D01*
X445079Y416035D01*
X445031Y416150D01*
X444988Y416266D01*
X444947Y416383D01*
X444911Y416502D01*
X444878Y416621D01*
X444849Y416742D01*
X444824Y416864D01*
X444803Y416986D01*
X444785Y417109D01*
X444772Y417232D01*
X444762Y417356D01*
X444756Y417480D01*
X444754Y417604D01*
D10*
X50800Y311150D02*
X50800Y298450D01*
X50800Y311150D02*
X57150Y317500D01*
X69850Y317500D02*
X76200Y311150D01*
X57150Y317500D02*
X50800Y323850D01*
X50800Y336550D01*
X57150Y342900D01*
X69850Y342900D02*
X76200Y336550D01*
X76200Y323850D01*
X69850Y317500D01*
X69850Y292100D02*
X57150Y292100D01*
X50800Y298450D01*
X69850Y292100D02*
X76200Y298450D01*
X76200Y311150D01*
X57150Y342900D02*
X50800Y349250D01*
X50800Y361950D01*
X57150Y368300D01*
X69850Y368300D02*
X76200Y361950D01*
X76200Y349250D01*
X69850Y342900D01*
X50800Y374650D02*
X50800Y387350D01*
X57150Y393700D01*
X69850Y393700D01*
X76200Y387350D01*
X57150Y368300D02*
X50800Y374650D01*
X69850Y368300D02*
X76200Y374650D01*
X76200Y387350D01*
D12*
X57785Y284480D02*
X60325Y281305D01*
X57785Y284480D02*
X69215Y284480D01*
X69215Y281305D02*
X69215Y287655D01*
X66675Y396875D02*
X57785Y399415D01*
X66675Y396875D02*
X66675Y403225D01*
X64135Y401320D02*
X69215Y401320D01*
X43815Y299085D02*
X43915Y299083D01*
X44014Y299077D01*
X44114Y299067D01*
X44212Y299054D01*
X44311Y299036D01*
X44408Y299015D01*
X44504Y298990D01*
X44600Y298961D01*
X44694Y298928D01*
X44787Y298892D01*
X44878Y298852D01*
X44968Y298808D01*
X45056Y298761D01*
X45142Y298711D01*
X45226Y298657D01*
X45308Y298600D01*
X45387Y298540D01*
X45465Y298476D01*
X45539Y298410D01*
X45611Y298341D01*
X45680Y298269D01*
X45746Y298195D01*
X45810Y298117D01*
X45870Y298038D01*
X45927Y297956D01*
X45981Y297872D01*
X46031Y297786D01*
X46078Y297698D01*
X46122Y297608D01*
X46162Y297517D01*
X46198Y297424D01*
X46231Y297330D01*
X46260Y297234D01*
X46285Y297138D01*
X46306Y297041D01*
X46324Y296942D01*
X46337Y296844D01*
X46347Y296744D01*
X46353Y296645D01*
X46355Y296545D01*
X46353Y296404D01*
X46348Y296263D01*
X46338Y296122D01*
X46325Y295981D01*
X46309Y295841D01*
X46288Y295701D01*
X46264Y295562D01*
X46236Y295423D01*
X46205Y295286D01*
X46170Y295149D01*
X46132Y295013D01*
X46090Y294878D01*
X46044Y294745D01*
X45995Y294612D01*
X45942Y294481D01*
X45886Y294352D01*
X45827Y294223D01*
X45764Y294097D01*
X45698Y293972D01*
X45629Y293849D01*
X45556Y293728D01*
X45480Y293609D01*
X45401Y293491D01*
X45320Y293376D01*
X45235Y293264D01*
X45147Y293153D01*
X45056Y293045D01*
X44963Y292939D01*
X44866Y292836D01*
X44767Y292735D01*
X37465Y293053D02*
X37365Y293055D01*
X37266Y293061D01*
X37166Y293071D01*
X37068Y293084D01*
X36969Y293102D01*
X36872Y293123D01*
X36776Y293148D01*
X36680Y293177D01*
X36586Y293210D01*
X36493Y293246D01*
X36402Y293286D01*
X36312Y293330D01*
X36224Y293377D01*
X36138Y293427D01*
X36054Y293481D01*
X35972Y293538D01*
X35893Y293598D01*
X35815Y293662D01*
X35741Y293728D01*
X35669Y293797D01*
X35600Y293869D01*
X35534Y293943D01*
X35470Y294021D01*
X35410Y294100D01*
X35353Y294182D01*
X35299Y294266D01*
X35249Y294352D01*
X35202Y294440D01*
X35158Y294530D01*
X35118Y294621D01*
X35082Y294714D01*
X35049Y294808D01*
X35020Y294904D01*
X34995Y295000D01*
X34974Y295097D01*
X34956Y295196D01*
X34943Y295294D01*
X34933Y295394D01*
X34927Y295493D01*
X34925Y295593D01*
X34927Y295726D01*
X34932Y295859D01*
X34942Y295992D01*
X34955Y296125D01*
X34972Y296257D01*
X34992Y296389D01*
X35016Y296520D01*
X35044Y296650D01*
X35075Y296780D01*
X35110Y296908D01*
X35149Y297036D01*
X35191Y297162D01*
X35237Y297287D01*
X35286Y297411D01*
X35338Y297534D01*
X35394Y297655D01*
X35454Y297774D01*
X35516Y297892D01*
X35582Y298007D01*
X35651Y298121D01*
X35724Y298233D01*
X35799Y298343D01*
X35878Y298451D01*
X39688Y294322D02*
X39636Y294238D01*
X39581Y294155D01*
X39522Y294075D01*
X39461Y293997D01*
X39397Y293922D01*
X39329Y293849D01*
X39259Y293778D01*
X39187Y293711D01*
X39112Y293646D01*
X39034Y293584D01*
X38954Y293525D01*
X38872Y293469D01*
X38788Y293417D01*
X38702Y293368D01*
X38614Y293322D01*
X38524Y293279D01*
X38433Y293240D01*
X38340Y293205D01*
X38246Y293173D01*
X38151Y293145D01*
X38055Y293120D01*
X37958Y293100D01*
X37860Y293082D01*
X37762Y293069D01*
X37663Y293060D01*
X37564Y293054D01*
X37465Y293052D01*
X41592Y297815D02*
X41644Y297899D01*
X41699Y297982D01*
X41758Y298062D01*
X41819Y298140D01*
X41883Y298215D01*
X41951Y298288D01*
X42021Y298359D01*
X42093Y298426D01*
X42168Y298491D01*
X42246Y298553D01*
X42326Y298612D01*
X42408Y298668D01*
X42492Y298720D01*
X42578Y298769D01*
X42666Y298815D01*
X42756Y298858D01*
X42847Y298897D01*
X42940Y298932D01*
X43034Y298964D01*
X43129Y298992D01*
X43225Y299017D01*
X43322Y299037D01*
X43420Y299055D01*
X43518Y299068D01*
X43617Y299077D01*
X43716Y299083D01*
X43815Y299085D01*
X41593Y297815D02*
X39688Y294323D01*
X46355Y306287D02*
X46355Y308827D01*
X46355Y306287D02*
X46353Y306187D01*
X46347Y306088D01*
X46337Y305988D01*
X46324Y305890D01*
X46306Y305791D01*
X46285Y305694D01*
X46260Y305598D01*
X46231Y305502D01*
X46198Y305408D01*
X46162Y305315D01*
X46122Y305224D01*
X46078Y305134D01*
X46031Y305046D01*
X45981Y304960D01*
X45927Y304876D01*
X45870Y304794D01*
X45810Y304715D01*
X45746Y304637D01*
X45680Y304563D01*
X45611Y304491D01*
X45539Y304422D01*
X45465Y304356D01*
X45387Y304292D01*
X45308Y304232D01*
X45226Y304175D01*
X45142Y304121D01*
X45056Y304071D01*
X44968Y304024D01*
X44878Y303980D01*
X44787Y303940D01*
X44694Y303904D01*
X44600Y303871D01*
X44504Y303842D01*
X44408Y303817D01*
X44311Y303796D01*
X44212Y303778D01*
X44114Y303765D01*
X44014Y303755D01*
X43915Y303749D01*
X43815Y303747D01*
X37465Y303747D01*
X37365Y303749D01*
X37266Y303755D01*
X37166Y303765D01*
X37068Y303778D01*
X36969Y303796D01*
X36872Y303817D01*
X36776Y303842D01*
X36680Y303871D01*
X36586Y303904D01*
X36493Y303940D01*
X36402Y303980D01*
X36312Y304024D01*
X36224Y304071D01*
X36138Y304121D01*
X36054Y304175D01*
X35972Y304232D01*
X35893Y304292D01*
X35815Y304356D01*
X35741Y304422D01*
X35669Y304491D01*
X35600Y304563D01*
X35534Y304637D01*
X35470Y304715D01*
X35410Y304794D01*
X35353Y304876D01*
X35299Y304960D01*
X35249Y305046D01*
X35202Y305134D01*
X35158Y305224D01*
X35118Y305315D01*
X35082Y305408D01*
X35049Y305502D01*
X35020Y305598D01*
X34995Y305694D01*
X34974Y305791D01*
X34956Y305890D01*
X34943Y305988D01*
X34933Y306088D01*
X34927Y306187D01*
X34925Y306287D01*
X34925Y308827D01*
X38100Y313309D02*
X43180Y313309D01*
X38100Y313309D02*
X37989Y313311D01*
X37879Y313317D01*
X37768Y313326D01*
X37658Y313340D01*
X37549Y313357D01*
X37440Y313378D01*
X37332Y313403D01*
X37225Y313432D01*
X37119Y313464D01*
X37014Y313500D01*
X36911Y313540D01*
X36809Y313583D01*
X36708Y313630D01*
X36609Y313681D01*
X36513Y313734D01*
X36418Y313791D01*
X36325Y313852D01*
X36234Y313915D01*
X36145Y313982D01*
X36059Y314052D01*
X35976Y314125D01*
X35894Y314200D01*
X35816Y314278D01*
X35741Y314360D01*
X35668Y314443D01*
X35598Y314529D01*
X35531Y314618D01*
X35468Y314709D01*
X35407Y314802D01*
X35350Y314897D01*
X35297Y314993D01*
X35246Y315092D01*
X35199Y315193D01*
X35156Y315295D01*
X35116Y315398D01*
X35080Y315503D01*
X35048Y315609D01*
X35019Y315716D01*
X34994Y315824D01*
X34973Y315933D01*
X34956Y316042D01*
X34942Y316152D01*
X34933Y316263D01*
X34927Y316373D01*
X34925Y316484D01*
X34927Y316595D01*
X34933Y316705D01*
X34942Y316816D01*
X34956Y316926D01*
X34973Y317035D01*
X34994Y317144D01*
X35019Y317252D01*
X35048Y317359D01*
X35080Y317465D01*
X35116Y317570D01*
X35156Y317673D01*
X35199Y317775D01*
X35246Y317876D01*
X35297Y317975D01*
X35350Y318072D01*
X35407Y318166D01*
X35468Y318259D01*
X35531Y318350D01*
X35598Y318439D01*
X35668Y318525D01*
X35741Y318608D01*
X35816Y318690D01*
X35894Y318768D01*
X35976Y318843D01*
X36059Y318916D01*
X36145Y318986D01*
X36234Y319053D01*
X36325Y319116D01*
X36418Y319177D01*
X36513Y319234D01*
X36609Y319287D01*
X36708Y319338D01*
X36809Y319385D01*
X36911Y319428D01*
X37014Y319468D01*
X37119Y319504D01*
X37225Y319536D01*
X37332Y319565D01*
X37440Y319590D01*
X37549Y319611D01*
X37658Y319628D01*
X37768Y319642D01*
X37879Y319651D01*
X37989Y319657D01*
X38100Y319659D01*
X43180Y319659D01*
X43291Y319657D01*
X43401Y319651D01*
X43512Y319642D01*
X43622Y319628D01*
X43731Y319611D01*
X43840Y319590D01*
X43948Y319565D01*
X44055Y319536D01*
X44161Y319504D01*
X44266Y319468D01*
X44369Y319428D01*
X44471Y319385D01*
X44572Y319338D01*
X44671Y319287D01*
X44768Y319234D01*
X44862Y319177D01*
X44955Y319116D01*
X45046Y319053D01*
X45135Y318986D01*
X45221Y318916D01*
X45304Y318843D01*
X45386Y318768D01*
X45464Y318690D01*
X45539Y318608D01*
X45612Y318525D01*
X45682Y318439D01*
X45749Y318350D01*
X45812Y318259D01*
X45873Y318166D01*
X45930Y318071D01*
X45983Y317975D01*
X46034Y317876D01*
X46081Y317775D01*
X46124Y317673D01*
X46164Y317570D01*
X46200Y317465D01*
X46232Y317359D01*
X46261Y317252D01*
X46286Y317144D01*
X46307Y317035D01*
X46324Y316926D01*
X46338Y316816D01*
X46347Y316705D01*
X46353Y316595D01*
X46355Y316484D01*
X46353Y316373D01*
X46347Y316263D01*
X46338Y316152D01*
X46324Y316042D01*
X46307Y315933D01*
X46286Y315824D01*
X46261Y315716D01*
X46232Y315609D01*
X46200Y315503D01*
X46164Y315398D01*
X46124Y315295D01*
X46081Y315193D01*
X46034Y315092D01*
X45983Y314993D01*
X45930Y314896D01*
X45873Y314802D01*
X45812Y314709D01*
X45749Y314618D01*
X45682Y314529D01*
X45612Y314443D01*
X45539Y314360D01*
X45464Y314278D01*
X45386Y314200D01*
X45304Y314125D01*
X45221Y314052D01*
X45135Y313982D01*
X45046Y313915D01*
X44955Y313852D01*
X44862Y313791D01*
X44767Y313734D01*
X44671Y313681D01*
X44572Y313630D01*
X44471Y313583D01*
X44369Y313540D01*
X44266Y313500D01*
X44161Y313464D01*
X44055Y313432D01*
X43948Y313403D01*
X43840Y313378D01*
X43731Y313357D01*
X43622Y313340D01*
X43512Y313326D01*
X43401Y313317D01*
X43291Y313311D01*
X43180Y313309D01*
X46355Y325310D02*
X34925Y325310D01*
X34925Y328485D01*
X34927Y328596D01*
X34933Y328706D01*
X34942Y328817D01*
X34956Y328927D01*
X34973Y329036D01*
X34994Y329145D01*
X35019Y329253D01*
X35048Y329360D01*
X35080Y329466D01*
X35116Y329571D01*
X35156Y329674D01*
X35199Y329776D01*
X35246Y329877D01*
X35297Y329976D01*
X35350Y330073D01*
X35407Y330167D01*
X35468Y330260D01*
X35531Y330351D01*
X35598Y330440D01*
X35668Y330526D01*
X35741Y330609D01*
X35816Y330691D01*
X35894Y330769D01*
X35976Y330844D01*
X36059Y330917D01*
X36145Y330987D01*
X36234Y331054D01*
X36325Y331117D01*
X36418Y331178D01*
X36512Y331235D01*
X36609Y331288D01*
X36708Y331339D01*
X36809Y331386D01*
X36911Y331429D01*
X37014Y331469D01*
X37119Y331505D01*
X37225Y331537D01*
X37332Y331566D01*
X37440Y331591D01*
X37549Y331612D01*
X37658Y331629D01*
X37768Y331643D01*
X37879Y331652D01*
X37989Y331658D01*
X38100Y331660D01*
X38211Y331658D01*
X38321Y331652D01*
X38432Y331643D01*
X38542Y331629D01*
X38651Y331612D01*
X38760Y331591D01*
X38868Y331566D01*
X38975Y331537D01*
X39081Y331505D01*
X39186Y331469D01*
X39289Y331429D01*
X39391Y331386D01*
X39492Y331339D01*
X39591Y331288D01*
X39688Y331235D01*
X39782Y331178D01*
X39875Y331117D01*
X39966Y331054D01*
X40055Y330987D01*
X40141Y330917D01*
X40224Y330844D01*
X40306Y330769D01*
X40384Y330691D01*
X40459Y330609D01*
X40532Y330526D01*
X40602Y330440D01*
X40669Y330351D01*
X40732Y330260D01*
X40793Y330167D01*
X40850Y330073D01*
X40903Y329976D01*
X40954Y329877D01*
X41001Y329776D01*
X41044Y329674D01*
X41084Y329571D01*
X41120Y329466D01*
X41152Y329360D01*
X41181Y329253D01*
X41206Y329145D01*
X41227Y329036D01*
X41244Y328927D01*
X41258Y328817D01*
X41267Y328706D01*
X41273Y328596D01*
X41275Y328485D01*
X41275Y325310D01*
X34925Y335534D02*
X40323Y339344D01*
X34925Y343154D01*
X40323Y339344D02*
X46355Y339344D01*
D10*
X463550Y533400D02*
X476250Y533400D01*
X463550Y533400D02*
X457200Y539750D01*
X457200Y552450D01*
X463550Y558800D01*
X457200Y539750D02*
X450850Y533400D01*
X438150Y533400D01*
X431800Y539750D01*
X431800Y552450D01*
X438150Y558800D01*
X450850Y558800D01*
X457200Y552450D01*
X482600Y552450D02*
X482600Y539750D01*
X476250Y533400D01*
X482600Y552450D02*
X476250Y558800D01*
X463550Y558800D01*
X431800Y539750D02*
X425450Y533400D01*
X412750Y533400D01*
X406400Y539750D01*
X406400Y552450D01*
X412750Y558800D01*
X425450Y558800D01*
X431800Y552450D01*
X345440Y124460D02*
X345440Y118110D01*
X340360Y118110D01*
X340360Y124460D01*
X334010Y124460D01*
X334010Y129540D01*
X340360Y129540D01*
X340360Y135890D01*
X345440Y135890D01*
X345440Y129540D01*
X351790Y129540D01*
X351790Y124460D01*
X345440Y124460D01*
X334010Y88900D02*
X308610Y88900D01*
X351790Y135890D02*
X356870Y140970D01*
X334010Y135890D02*
X328930Y140970D01*
X356870Y127000D02*
X361950Y127000D01*
X328930Y127000D02*
X323850Y127000D01*
X353060Y116840D02*
X355600Y114300D01*
X332740Y116840D02*
X330200Y114300D01*
X326390Y165100D02*
X359410Y165100D01*
X308610Y165100D02*
X308488Y165098D01*
X308366Y165092D01*
X308244Y165082D01*
X308123Y165069D01*
X308002Y165051D01*
X307882Y165030D01*
X307762Y165004D01*
X307644Y164975D01*
X307526Y164943D01*
X307409Y164906D01*
X307294Y164866D01*
X307180Y164822D01*
X307068Y164774D01*
X306957Y164723D01*
X306848Y164668D01*
X306740Y164610D01*
X306635Y164548D01*
X306532Y164483D01*
X306430Y164415D01*
X306331Y164343D01*
X306235Y164269D01*
X306140Y164191D01*
X306049Y164110D01*
X305959Y164027D01*
X305873Y163941D01*
X305790Y163851D01*
X305709Y163760D01*
X305631Y163665D01*
X305557Y163569D01*
X305485Y163470D01*
X305417Y163368D01*
X305352Y163265D01*
X305290Y163160D01*
X305232Y163052D01*
X305177Y162943D01*
X305126Y162832D01*
X305078Y162720D01*
X305034Y162606D01*
X304994Y162491D01*
X304957Y162374D01*
X304925Y162256D01*
X304896Y162138D01*
X304870Y162018D01*
X304849Y161898D01*
X304831Y161777D01*
X304818Y161656D01*
X304808Y161534D01*
X304802Y161412D01*
X304800Y161290D01*
X304800Y92710D02*
X304802Y92588D01*
X304808Y92466D01*
X304818Y92344D01*
X304831Y92223D01*
X304849Y92102D01*
X304870Y91982D01*
X304896Y91862D01*
X304925Y91744D01*
X304957Y91626D01*
X304994Y91509D01*
X305034Y91394D01*
X305078Y91280D01*
X305126Y91168D01*
X305177Y91057D01*
X305232Y90948D01*
X305290Y90840D01*
X305352Y90735D01*
X305417Y90632D01*
X305485Y90530D01*
X305557Y90431D01*
X305631Y90335D01*
X305709Y90240D01*
X305790Y90149D01*
X305873Y90059D01*
X305959Y89973D01*
X306049Y89890D01*
X306140Y89809D01*
X306235Y89731D01*
X306331Y89657D01*
X306430Y89585D01*
X306532Y89517D01*
X306635Y89452D01*
X306740Y89390D01*
X306848Y89332D01*
X306957Y89277D01*
X307068Y89226D01*
X307180Y89178D01*
X307294Y89134D01*
X307409Y89094D01*
X307526Y89057D01*
X307644Y89025D01*
X307762Y88996D01*
X307882Y88970D01*
X308002Y88949D01*
X308123Y88931D01*
X308244Y88918D01*
X308366Y88908D01*
X308488Y88902D01*
X308610Y88900D01*
X377190Y88900D02*
X377312Y88902D01*
X377434Y88908D01*
X377556Y88918D01*
X377677Y88931D01*
X377798Y88949D01*
X377918Y88970D01*
X378038Y88996D01*
X378156Y89025D01*
X378274Y89057D01*
X378391Y89094D01*
X378506Y89134D01*
X378620Y89178D01*
X378732Y89226D01*
X378843Y89277D01*
X378952Y89332D01*
X379060Y89390D01*
X379165Y89452D01*
X379268Y89517D01*
X379370Y89585D01*
X379469Y89657D01*
X379565Y89731D01*
X379660Y89809D01*
X379751Y89890D01*
X379841Y89973D01*
X379927Y90059D01*
X380010Y90149D01*
X380091Y90240D01*
X380169Y90335D01*
X380243Y90431D01*
X380315Y90530D01*
X380383Y90632D01*
X380448Y90735D01*
X380510Y90840D01*
X380568Y90948D01*
X380623Y91057D01*
X380674Y91168D01*
X380722Y91280D01*
X380766Y91394D01*
X380806Y91509D01*
X380843Y91626D01*
X380875Y91744D01*
X380904Y91862D01*
X380930Y91982D01*
X380951Y92102D01*
X380969Y92223D01*
X380982Y92344D01*
X380992Y92466D01*
X380998Y92588D01*
X381000Y92710D01*
X381000Y161290D02*
X380998Y161412D01*
X380992Y161534D01*
X380982Y161656D01*
X380969Y161777D01*
X380951Y161898D01*
X380930Y162018D01*
X380904Y162138D01*
X380875Y162256D01*
X380843Y162374D01*
X380806Y162491D01*
X380766Y162606D01*
X380722Y162720D01*
X380674Y162832D01*
X380623Y162943D01*
X380568Y163052D01*
X380510Y163160D01*
X380448Y163265D01*
X380383Y163368D01*
X380315Y163470D01*
X380243Y163569D01*
X380169Y163665D01*
X380091Y163760D01*
X380010Y163851D01*
X379927Y163941D01*
X379841Y164027D01*
X379751Y164110D01*
X379660Y164191D01*
X379565Y164269D01*
X379469Y164343D01*
X379370Y164415D01*
X379268Y164483D01*
X379165Y164548D01*
X379060Y164610D01*
X378952Y164668D01*
X378843Y164723D01*
X378732Y164774D01*
X378620Y164822D01*
X378506Y164866D01*
X378391Y164906D01*
X378274Y164943D01*
X378156Y164975D01*
X378038Y165004D01*
X377918Y165030D01*
X377798Y165051D01*
X377677Y165069D01*
X377556Y165082D01*
X377434Y165092D01*
X377312Y165098D01*
X377190Y165100D01*
X377190Y88900D02*
X351790Y88900D01*
X304800Y92710D02*
X304800Y142240D01*
X381000Y142240D02*
X381000Y92710D01*
D12*
X349968Y84455D02*
X349968Y73025D01*
X349968Y84455D02*
X353143Y84455D01*
X353254Y84453D01*
X353364Y84447D01*
X353475Y84438D01*
X353585Y84424D01*
X353694Y84407D01*
X353803Y84386D01*
X353911Y84361D01*
X354018Y84332D01*
X354124Y84300D01*
X354229Y84264D01*
X354332Y84224D01*
X354434Y84181D01*
X354535Y84134D01*
X354634Y84083D01*
X354731Y84030D01*
X354825Y83973D01*
X354918Y83912D01*
X355009Y83849D01*
X355098Y83782D01*
X355184Y83712D01*
X355267Y83639D01*
X355349Y83564D01*
X355427Y83486D01*
X355502Y83404D01*
X355575Y83321D01*
X355645Y83235D01*
X355712Y83146D01*
X355775Y83055D01*
X355836Y82962D01*
X355893Y82867D01*
X355946Y82771D01*
X355997Y82672D01*
X356044Y82571D01*
X356087Y82469D01*
X356127Y82366D01*
X356163Y82261D01*
X356195Y82155D01*
X356224Y82048D01*
X356249Y81940D01*
X356270Y81831D01*
X356287Y81722D01*
X356301Y81612D01*
X356310Y81501D01*
X356316Y81391D01*
X356318Y81280D01*
X356316Y81169D01*
X356310Y81059D01*
X356301Y80948D01*
X356287Y80838D01*
X356270Y80729D01*
X356249Y80620D01*
X356224Y80512D01*
X356195Y80405D01*
X356163Y80299D01*
X356127Y80194D01*
X356087Y80091D01*
X356044Y79989D01*
X355997Y79888D01*
X355946Y79789D01*
X355893Y79692D01*
X355836Y79598D01*
X355775Y79505D01*
X355712Y79414D01*
X355645Y79325D01*
X355575Y79239D01*
X355502Y79156D01*
X355427Y79074D01*
X355349Y78996D01*
X355267Y78921D01*
X355184Y78848D01*
X355098Y78778D01*
X355009Y78711D01*
X354918Y78648D01*
X354825Y78587D01*
X354731Y78530D01*
X354634Y78477D01*
X354535Y78426D01*
X354434Y78379D01*
X354332Y78336D01*
X354229Y78296D01*
X354124Y78260D01*
X354018Y78228D01*
X353911Y78199D01*
X353803Y78174D01*
X353694Y78153D01*
X353585Y78136D01*
X353475Y78122D01*
X353364Y78113D01*
X353254Y78107D01*
X353143Y78105D01*
X349968Y78105D01*
X353778Y78105D02*
X356318Y73025D01*
X367666Y81598D02*
X367664Y81702D01*
X367658Y81807D01*
X367649Y81911D01*
X367636Y82014D01*
X367618Y82117D01*
X367598Y82219D01*
X367573Y82321D01*
X367545Y82421D01*
X367513Y82521D01*
X367477Y82619D01*
X367438Y82716D01*
X367396Y82811D01*
X367350Y82905D01*
X367300Y82997D01*
X367248Y83087D01*
X367192Y83175D01*
X367132Y83261D01*
X367070Y83345D01*
X367005Y83426D01*
X366937Y83505D01*
X366865Y83582D01*
X366792Y83655D01*
X366715Y83727D01*
X366636Y83795D01*
X366555Y83860D01*
X366471Y83922D01*
X366385Y83982D01*
X366297Y84038D01*
X366207Y84090D01*
X366115Y84140D01*
X366021Y84186D01*
X365926Y84228D01*
X365829Y84267D01*
X365731Y84303D01*
X365631Y84335D01*
X365531Y84363D01*
X365429Y84388D01*
X365327Y84408D01*
X365224Y84426D01*
X365121Y84439D01*
X365017Y84448D01*
X364912Y84454D01*
X364808Y84456D01*
X364808Y84455D02*
X364690Y84453D01*
X364571Y84447D01*
X364453Y84438D01*
X364336Y84425D01*
X364219Y84407D01*
X364102Y84387D01*
X363986Y84362D01*
X363871Y84334D01*
X363758Y84301D01*
X363645Y84266D01*
X363533Y84226D01*
X363423Y84184D01*
X363314Y84137D01*
X363206Y84087D01*
X363101Y84034D01*
X362997Y83977D01*
X362895Y83917D01*
X362795Y83854D01*
X362697Y83787D01*
X362601Y83718D01*
X362508Y83645D01*
X362417Y83569D01*
X362328Y83491D01*
X362242Y83409D01*
X362159Y83325D01*
X362078Y83239D01*
X362001Y83149D01*
X361926Y83058D01*
X361854Y82964D01*
X361785Y82867D01*
X361720Y82769D01*
X361657Y82668D01*
X361598Y82565D01*
X361542Y82461D01*
X361490Y82355D01*
X361441Y82247D01*
X361396Y82138D01*
X361354Y82027D01*
X361316Y81915D01*
X366713Y79376D02*
X366789Y79451D01*
X366864Y79530D01*
X366935Y79611D01*
X367004Y79695D01*
X367069Y79781D01*
X367131Y79869D01*
X367191Y79959D01*
X367247Y80051D01*
X367300Y80146D01*
X367349Y80242D01*
X367395Y80340D01*
X367438Y80439D01*
X367477Y80540D01*
X367512Y80642D01*
X367544Y80745D01*
X367572Y80849D01*
X367597Y80954D01*
X367618Y81061D01*
X367635Y81167D01*
X367648Y81274D01*
X367657Y81382D01*
X367663Y81490D01*
X367665Y81598D01*
X366713Y79375D02*
X361315Y73025D01*
X367665Y73025D01*
M02*
