G04 EAGLE Gerber RS-274X export*
G75*
%MOMM*%
%FSLAX34Y34*%
%LPD*%
%INSilkscreen Top*%
%IPPOS*%
%AMOC8*
5,1,8,0,0,1.08239X$1,22.5*%
G01*
%ADD10C,0.152400*%
%ADD11C,0.076200*%
%ADD12C,0.127000*%
%ADD13R,0.635000X2.286000*%
%ADD14R,2.540000X0.508000*%
%ADD15R,0.762000X1.905000*%
%ADD16R,0.508000X0.381000*%
%ADD17C,0.101600*%


D10*
X69681Y69088D02*
X69681Y56444D01*
X69680Y56444D02*
X69678Y56326D01*
X69672Y56208D01*
X69663Y56090D01*
X69649Y55973D01*
X69632Y55856D01*
X69611Y55739D01*
X69586Y55624D01*
X69557Y55509D01*
X69524Y55395D01*
X69488Y55283D01*
X69448Y55172D01*
X69405Y55062D01*
X69358Y54953D01*
X69308Y54846D01*
X69253Y54741D01*
X69196Y54638D01*
X69135Y54537D01*
X69071Y54437D01*
X69004Y54340D01*
X68934Y54245D01*
X68860Y54153D01*
X68784Y54062D01*
X68704Y53975D01*
X68622Y53890D01*
X68537Y53808D01*
X68450Y53728D01*
X68359Y53652D01*
X68267Y53578D01*
X68172Y53508D01*
X68075Y53441D01*
X67975Y53377D01*
X67874Y53316D01*
X67771Y53259D01*
X67666Y53204D01*
X67559Y53154D01*
X67450Y53107D01*
X67340Y53064D01*
X67229Y53024D01*
X67117Y52988D01*
X67003Y52955D01*
X66888Y52926D01*
X66773Y52901D01*
X66656Y52880D01*
X66539Y52863D01*
X66422Y52849D01*
X66304Y52840D01*
X66186Y52834D01*
X66068Y52832D01*
X64262Y52832D01*
X79696Y59154D02*
X83760Y59154D01*
X79696Y59154D02*
X79584Y59152D01*
X79473Y59146D01*
X79362Y59136D01*
X79251Y59123D01*
X79141Y59105D01*
X79032Y59083D01*
X78923Y59058D01*
X78815Y59029D01*
X78709Y58996D01*
X78603Y58959D01*
X78499Y58919D01*
X78397Y58875D01*
X78296Y58827D01*
X78197Y58776D01*
X78099Y58721D01*
X78004Y58663D01*
X77911Y58602D01*
X77820Y58537D01*
X77731Y58469D01*
X77645Y58398D01*
X77562Y58325D01*
X77481Y58248D01*
X77402Y58168D01*
X77327Y58086D01*
X77255Y58001D01*
X77185Y57914D01*
X77119Y57824D01*
X77056Y57732D01*
X76996Y57637D01*
X76940Y57541D01*
X76887Y57443D01*
X76838Y57343D01*
X76792Y57241D01*
X76750Y57138D01*
X76711Y57033D01*
X76676Y56927D01*
X76645Y56820D01*
X76618Y56712D01*
X76594Y56603D01*
X76575Y56493D01*
X76559Y56383D01*
X76547Y56272D01*
X76539Y56160D01*
X76535Y56049D01*
X76535Y55937D01*
X76539Y55826D01*
X76547Y55714D01*
X76559Y55603D01*
X76575Y55493D01*
X76594Y55383D01*
X76618Y55274D01*
X76645Y55166D01*
X76676Y55059D01*
X76711Y54953D01*
X76750Y54848D01*
X76792Y54745D01*
X76838Y54643D01*
X76887Y54543D01*
X76940Y54445D01*
X76996Y54349D01*
X77056Y54254D01*
X77119Y54162D01*
X77185Y54072D01*
X77255Y53985D01*
X77327Y53900D01*
X77402Y53818D01*
X77481Y53738D01*
X77562Y53661D01*
X77645Y53588D01*
X77731Y53517D01*
X77820Y53449D01*
X77911Y53384D01*
X78004Y53323D01*
X78099Y53265D01*
X78197Y53210D01*
X78296Y53159D01*
X78397Y53111D01*
X78499Y53067D01*
X78603Y53027D01*
X78709Y52990D01*
X78815Y52957D01*
X78923Y52928D01*
X79032Y52903D01*
X79141Y52881D01*
X79251Y52863D01*
X79362Y52850D01*
X79473Y52840D01*
X79584Y52834D01*
X79696Y52832D01*
X83760Y52832D01*
X83760Y60960D01*
X83758Y61061D01*
X83752Y61162D01*
X83743Y61263D01*
X83730Y61364D01*
X83713Y61464D01*
X83692Y61563D01*
X83668Y61661D01*
X83640Y61758D01*
X83608Y61855D01*
X83573Y61950D01*
X83534Y62043D01*
X83492Y62135D01*
X83446Y62226D01*
X83397Y62315D01*
X83345Y62401D01*
X83289Y62486D01*
X83231Y62569D01*
X83169Y62649D01*
X83104Y62727D01*
X83037Y62803D01*
X82967Y62876D01*
X82894Y62946D01*
X82818Y63013D01*
X82740Y63078D01*
X82660Y63140D01*
X82577Y63198D01*
X82492Y63254D01*
X82406Y63306D01*
X82317Y63355D01*
X82226Y63401D01*
X82134Y63443D01*
X82041Y63482D01*
X81946Y63517D01*
X81849Y63549D01*
X81752Y63577D01*
X81654Y63601D01*
X81555Y63622D01*
X81455Y63639D01*
X81354Y63652D01*
X81253Y63661D01*
X81152Y63667D01*
X81051Y63669D01*
X77439Y63669D01*
X91367Y69088D02*
X91367Y52832D01*
X91367Y58251D02*
X98592Y63669D01*
X94528Y60508D02*
X98592Y52832D01*
X106933Y52832D02*
X111449Y52832D01*
X106933Y52832D02*
X106832Y52834D01*
X106731Y52840D01*
X106630Y52849D01*
X106529Y52862D01*
X106429Y52879D01*
X106330Y52900D01*
X106232Y52924D01*
X106135Y52952D01*
X106038Y52984D01*
X105943Y53019D01*
X105850Y53058D01*
X105758Y53100D01*
X105667Y53146D01*
X105579Y53195D01*
X105492Y53247D01*
X105407Y53303D01*
X105324Y53361D01*
X105244Y53423D01*
X105166Y53488D01*
X105090Y53555D01*
X105017Y53625D01*
X104947Y53698D01*
X104880Y53774D01*
X104815Y53852D01*
X104753Y53932D01*
X104695Y54015D01*
X104639Y54100D01*
X104587Y54186D01*
X104538Y54275D01*
X104492Y54366D01*
X104450Y54458D01*
X104411Y54551D01*
X104376Y54646D01*
X104344Y54743D01*
X104316Y54840D01*
X104292Y54938D01*
X104271Y55037D01*
X104254Y55137D01*
X104241Y55238D01*
X104232Y55339D01*
X104226Y55440D01*
X104224Y55541D01*
X104224Y60057D01*
X104226Y60176D01*
X104232Y60296D01*
X104242Y60415D01*
X104256Y60533D01*
X104273Y60652D01*
X104295Y60769D01*
X104320Y60886D01*
X104350Y61001D01*
X104383Y61116D01*
X104420Y61230D01*
X104460Y61342D01*
X104505Y61453D01*
X104553Y61562D01*
X104604Y61670D01*
X104659Y61776D01*
X104718Y61880D01*
X104780Y61982D01*
X104845Y62082D01*
X104914Y62180D01*
X104986Y62276D01*
X105061Y62369D01*
X105138Y62459D01*
X105219Y62547D01*
X105303Y62632D01*
X105390Y62714D01*
X105479Y62794D01*
X105571Y62870D01*
X105665Y62944D01*
X105762Y63014D01*
X105860Y63081D01*
X105961Y63145D01*
X106065Y63205D01*
X106170Y63262D01*
X106277Y63315D01*
X106385Y63365D01*
X106495Y63411D01*
X106607Y63453D01*
X106720Y63492D01*
X106834Y63527D01*
X106949Y63558D01*
X107066Y63586D01*
X107183Y63609D01*
X107300Y63629D01*
X107419Y63645D01*
X107538Y63657D01*
X107657Y63665D01*
X107776Y63669D01*
X107896Y63669D01*
X108015Y63665D01*
X108134Y63657D01*
X108253Y63645D01*
X108372Y63629D01*
X108489Y63609D01*
X108606Y63586D01*
X108723Y63558D01*
X108838Y63527D01*
X108952Y63492D01*
X109065Y63453D01*
X109177Y63411D01*
X109287Y63365D01*
X109395Y63315D01*
X109502Y63262D01*
X109607Y63205D01*
X109711Y63145D01*
X109812Y63081D01*
X109910Y63014D01*
X110007Y62944D01*
X110101Y62870D01*
X110193Y62794D01*
X110282Y62714D01*
X110369Y62632D01*
X110453Y62547D01*
X110534Y62459D01*
X110611Y62369D01*
X110686Y62276D01*
X110758Y62180D01*
X110827Y62082D01*
X110892Y61982D01*
X110954Y61880D01*
X111013Y61776D01*
X111068Y61670D01*
X111119Y61562D01*
X111167Y61453D01*
X111212Y61342D01*
X111252Y61230D01*
X111289Y61116D01*
X111322Y61001D01*
X111352Y60886D01*
X111377Y60769D01*
X111399Y60652D01*
X111416Y60533D01*
X111430Y60415D01*
X111440Y60296D01*
X111446Y60176D01*
X111448Y60057D01*
X111449Y60057D02*
X111449Y58251D01*
X104224Y58251D01*
X131144Y52832D02*
X131262Y52834D01*
X131380Y52840D01*
X131498Y52849D01*
X131615Y52863D01*
X131732Y52880D01*
X131849Y52901D01*
X131964Y52926D01*
X132079Y52955D01*
X132193Y52988D01*
X132305Y53024D01*
X132416Y53064D01*
X132526Y53107D01*
X132635Y53154D01*
X132742Y53204D01*
X132847Y53259D01*
X132950Y53316D01*
X133051Y53377D01*
X133151Y53441D01*
X133248Y53508D01*
X133343Y53578D01*
X133435Y53652D01*
X133526Y53728D01*
X133613Y53808D01*
X133698Y53890D01*
X133780Y53975D01*
X133860Y54062D01*
X133936Y54153D01*
X134010Y54245D01*
X134080Y54340D01*
X134147Y54437D01*
X134211Y54537D01*
X134272Y54638D01*
X134329Y54741D01*
X134384Y54846D01*
X134434Y54953D01*
X134481Y55062D01*
X134524Y55172D01*
X134564Y55283D01*
X134600Y55395D01*
X134633Y55509D01*
X134662Y55624D01*
X134687Y55739D01*
X134708Y55856D01*
X134725Y55973D01*
X134739Y56090D01*
X134748Y56208D01*
X134754Y56326D01*
X134756Y56444D01*
X131144Y52832D02*
X130961Y52834D01*
X130779Y52841D01*
X130597Y52852D01*
X130415Y52867D01*
X130233Y52887D01*
X130052Y52910D01*
X129872Y52939D01*
X129692Y52971D01*
X129513Y53008D01*
X129336Y53049D01*
X129159Y53095D01*
X128983Y53144D01*
X128809Y53198D01*
X128635Y53256D01*
X128464Y53318D01*
X128294Y53384D01*
X128125Y53455D01*
X127958Y53529D01*
X127793Y53607D01*
X127630Y53689D01*
X127469Y53775D01*
X127310Y53865D01*
X127153Y53959D01*
X126999Y54056D01*
X126847Y54157D01*
X126697Y54262D01*
X126550Y54370D01*
X126406Y54481D01*
X126264Y54596D01*
X126125Y54715D01*
X125989Y54837D01*
X125856Y54962D01*
X125726Y55090D01*
X126178Y65476D02*
X126180Y65594D01*
X126186Y65712D01*
X126195Y65830D01*
X126209Y65947D01*
X126226Y66064D01*
X126247Y66181D01*
X126272Y66296D01*
X126301Y66411D01*
X126334Y66525D01*
X126370Y66637D01*
X126410Y66748D01*
X126453Y66858D01*
X126500Y66967D01*
X126550Y67074D01*
X126605Y67179D01*
X126662Y67282D01*
X126723Y67383D01*
X126787Y67483D01*
X126854Y67580D01*
X126924Y67675D01*
X126998Y67767D01*
X127074Y67858D01*
X127154Y67945D01*
X127236Y68030D01*
X127321Y68112D01*
X127408Y68192D01*
X127499Y68268D01*
X127591Y68342D01*
X127686Y68412D01*
X127783Y68479D01*
X127883Y68543D01*
X127984Y68604D01*
X128087Y68662D01*
X128192Y68716D01*
X128299Y68766D01*
X128408Y68813D01*
X128518Y68857D01*
X128629Y68896D01*
X128742Y68932D01*
X128855Y68965D01*
X128970Y68994D01*
X129085Y69019D01*
X129202Y69040D01*
X129319Y69057D01*
X129436Y69071D01*
X129554Y69080D01*
X129672Y69086D01*
X129790Y69088D01*
X129789Y69088D02*
X129950Y69086D01*
X130112Y69080D01*
X130273Y69071D01*
X130434Y69057D01*
X130594Y69040D01*
X130754Y69019D01*
X130914Y68994D01*
X131073Y68965D01*
X131231Y68933D01*
X131388Y68897D01*
X131544Y68857D01*
X131700Y68813D01*
X131854Y68765D01*
X132007Y68714D01*
X132159Y68660D01*
X132310Y68601D01*
X132459Y68540D01*
X132606Y68474D01*
X132752Y68405D01*
X132897Y68333D01*
X133039Y68257D01*
X133180Y68178D01*
X133319Y68096D01*
X133455Y68010D01*
X133590Y67921D01*
X133723Y67829D01*
X133853Y67733D01*
X127983Y62315D02*
X127882Y62377D01*
X127782Y62442D01*
X127685Y62511D01*
X127590Y62583D01*
X127497Y62657D01*
X127407Y62735D01*
X127319Y62816D01*
X127234Y62899D01*
X127152Y62985D01*
X127073Y63074D01*
X126996Y63165D01*
X126923Y63259D01*
X126852Y63355D01*
X126785Y63453D01*
X126721Y63553D01*
X126660Y63656D01*
X126603Y63760D01*
X126549Y63866D01*
X126499Y63974D01*
X126452Y64083D01*
X126408Y64194D01*
X126368Y64306D01*
X126332Y64420D01*
X126300Y64534D01*
X126271Y64650D01*
X126246Y64766D01*
X126225Y64883D01*
X126208Y65001D01*
X126194Y65119D01*
X126185Y65238D01*
X126179Y65357D01*
X126177Y65476D01*
X132951Y59605D02*
X133052Y59543D01*
X133152Y59478D01*
X133249Y59409D01*
X133344Y59337D01*
X133437Y59263D01*
X133527Y59185D01*
X133615Y59104D01*
X133700Y59021D01*
X133782Y58935D01*
X133861Y58846D01*
X133938Y58755D01*
X134011Y58661D01*
X134082Y58565D01*
X134149Y58467D01*
X134213Y58367D01*
X134274Y58264D01*
X134331Y58160D01*
X134385Y58054D01*
X134435Y57946D01*
X134482Y57837D01*
X134526Y57726D01*
X134566Y57614D01*
X134602Y57500D01*
X134634Y57386D01*
X134663Y57270D01*
X134688Y57154D01*
X134709Y57037D01*
X134726Y56919D01*
X134740Y56801D01*
X134749Y56682D01*
X134755Y56563D01*
X134757Y56444D01*
X132950Y59605D02*
X127983Y62315D01*
X141218Y63669D02*
X141218Y55541D01*
X141220Y55440D01*
X141226Y55339D01*
X141235Y55238D01*
X141248Y55137D01*
X141265Y55037D01*
X141286Y54938D01*
X141310Y54840D01*
X141338Y54743D01*
X141370Y54646D01*
X141405Y54551D01*
X141444Y54458D01*
X141486Y54366D01*
X141532Y54275D01*
X141581Y54186D01*
X141633Y54100D01*
X141689Y54015D01*
X141747Y53932D01*
X141809Y53852D01*
X141874Y53774D01*
X141941Y53698D01*
X142011Y53625D01*
X142084Y53555D01*
X142160Y53488D01*
X142238Y53423D01*
X142318Y53361D01*
X142401Y53303D01*
X142486Y53247D01*
X142573Y53195D01*
X142661Y53146D01*
X142752Y53100D01*
X142844Y53058D01*
X142937Y53019D01*
X143032Y52984D01*
X143129Y52952D01*
X143226Y52924D01*
X143324Y52900D01*
X143423Y52879D01*
X143523Y52862D01*
X143624Y52849D01*
X143725Y52840D01*
X143826Y52834D01*
X143927Y52832D01*
X148443Y52832D01*
X148443Y63669D01*
X156085Y63669D02*
X156085Y52832D01*
X156085Y63669D02*
X164213Y63669D01*
X164314Y63667D01*
X164415Y63661D01*
X164516Y63652D01*
X164617Y63639D01*
X164717Y63622D01*
X164816Y63601D01*
X164914Y63577D01*
X165011Y63549D01*
X165108Y63517D01*
X165203Y63482D01*
X165296Y63443D01*
X165388Y63401D01*
X165479Y63355D01*
X165568Y63306D01*
X165654Y63254D01*
X165739Y63198D01*
X165822Y63140D01*
X165902Y63078D01*
X165980Y63013D01*
X166056Y62946D01*
X166129Y62876D01*
X166199Y62803D01*
X166266Y62727D01*
X166331Y62649D01*
X166393Y62569D01*
X166451Y62486D01*
X166507Y62401D01*
X166559Y62315D01*
X166608Y62226D01*
X166654Y62135D01*
X166696Y62043D01*
X166735Y61950D01*
X166770Y61855D01*
X166802Y61758D01*
X166830Y61661D01*
X166854Y61563D01*
X166875Y61464D01*
X166892Y61364D01*
X166905Y61263D01*
X166914Y61162D01*
X166920Y61061D01*
X166922Y60960D01*
X166922Y52832D01*
X161504Y52832D02*
X161504Y63669D01*
X174842Y63669D02*
X174842Y52832D01*
X174842Y63669D02*
X182970Y63669D01*
X183071Y63667D01*
X183172Y63661D01*
X183273Y63652D01*
X183374Y63639D01*
X183474Y63622D01*
X183573Y63601D01*
X183671Y63577D01*
X183768Y63549D01*
X183865Y63517D01*
X183960Y63482D01*
X184053Y63443D01*
X184145Y63401D01*
X184236Y63355D01*
X184325Y63306D01*
X184411Y63254D01*
X184496Y63198D01*
X184579Y63140D01*
X184659Y63078D01*
X184737Y63013D01*
X184813Y62946D01*
X184886Y62876D01*
X184956Y62803D01*
X185023Y62727D01*
X185088Y62649D01*
X185150Y62569D01*
X185208Y62486D01*
X185264Y62401D01*
X185316Y62315D01*
X185365Y62226D01*
X185411Y62135D01*
X185453Y62043D01*
X185492Y61950D01*
X185527Y61855D01*
X185559Y61758D01*
X185587Y61661D01*
X185611Y61563D01*
X185632Y61464D01*
X185649Y61364D01*
X185662Y61263D01*
X185671Y61162D01*
X185677Y61061D01*
X185679Y60960D01*
X185680Y60960D02*
X185680Y52832D01*
X180261Y52832D02*
X180261Y63669D01*
X195510Y52832D02*
X200026Y52832D01*
X195510Y52832D02*
X195409Y52834D01*
X195308Y52840D01*
X195207Y52849D01*
X195106Y52862D01*
X195006Y52879D01*
X194907Y52900D01*
X194809Y52924D01*
X194712Y52952D01*
X194615Y52984D01*
X194520Y53019D01*
X194427Y53058D01*
X194335Y53100D01*
X194244Y53146D01*
X194156Y53195D01*
X194069Y53247D01*
X193984Y53303D01*
X193901Y53361D01*
X193821Y53423D01*
X193743Y53488D01*
X193667Y53555D01*
X193594Y53625D01*
X193524Y53698D01*
X193457Y53774D01*
X193392Y53852D01*
X193330Y53932D01*
X193272Y54015D01*
X193216Y54100D01*
X193164Y54186D01*
X193115Y54275D01*
X193069Y54366D01*
X193027Y54458D01*
X192988Y54551D01*
X192953Y54646D01*
X192921Y54743D01*
X192893Y54840D01*
X192869Y54938D01*
X192848Y55037D01*
X192831Y55137D01*
X192818Y55238D01*
X192809Y55339D01*
X192803Y55440D01*
X192801Y55541D01*
X192801Y60057D01*
X192803Y60176D01*
X192809Y60296D01*
X192819Y60415D01*
X192833Y60533D01*
X192850Y60652D01*
X192872Y60769D01*
X192897Y60886D01*
X192927Y61001D01*
X192960Y61116D01*
X192997Y61230D01*
X193037Y61342D01*
X193082Y61453D01*
X193130Y61562D01*
X193181Y61670D01*
X193236Y61776D01*
X193295Y61880D01*
X193357Y61982D01*
X193422Y62082D01*
X193491Y62180D01*
X193563Y62276D01*
X193638Y62369D01*
X193715Y62459D01*
X193796Y62547D01*
X193880Y62632D01*
X193967Y62714D01*
X194056Y62794D01*
X194148Y62870D01*
X194242Y62944D01*
X194339Y63014D01*
X194437Y63081D01*
X194538Y63145D01*
X194642Y63205D01*
X194747Y63262D01*
X194854Y63315D01*
X194962Y63365D01*
X195072Y63411D01*
X195184Y63453D01*
X195297Y63492D01*
X195411Y63527D01*
X195526Y63558D01*
X195643Y63586D01*
X195760Y63609D01*
X195877Y63629D01*
X195996Y63645D01*
X196115Y63657D01*
X196234Y63665D01*
X196353Y63669D01*
X196473Y63669D01*
X196592Y63665D01*
X196711Y63657D01*
X196830Y63645D01*
X196949Y63629D01*
X197066Y63609D01*
X197183Y63586D01*
X197300Y63558D01*
X197415Y63527D01*
X197529Y63492D01*
X197642Y63453D01*
X197754Y63411D01*
X197864Y63365D01*
X197972Y63315D01*
X198079Y63262D01*
X198184Y63205D01*
X198288Y63145D01*
X198389Y63081D01*
X198487Y63014D01*
X198584Y62944D01*
X198678Y62870D01*
X198770Y62794D01*
X198859Y62714D01*
X198946Y62632D01*
X199030Y62547D01*
X199111Y62459D01*
X199188Y62369D01*
X199263Y62276D01*
X199335Y62180D01*
X199404Y62082D01*
X199469Y61982D01*
X199531Y61880D01*
X199590Y61776D01*
X199645Y61670D01*
X199696Y61562D01*
X199744Y61453D01*
X199789Y61342D01*
X199829Y61230D01*
X199866Y61116D01*
X199899Y61001D01*
X199929Y60886D01*
X199954Y60769D01*
X199976Y60652D01*
X199993Y60533D01*
X200007Y60415D01*
X200017Y60296D01*
X200023Y60176D01*
X200025Y60057D01*
X200026Y60057D02*
X200026Y58251D01*
X192801Y58251D01*
X206954Y52832D02*
X206954Y63669D01*
X212373Y63669D01*
X212373Y61863D01*
X216769Y63669D02*
X220381Y52832D01*
X223994Y63669D01*
X229760Y63669D02*
X229760Y52832D01*
X229308Y68185D02*
X229308Y69088D01*
X230211Y69088D01*
X230211Y68185D01*
X229308Y68185D01*
X236284Y69088D02*
X236284Y55541D01*
X236286Y55440D01*
X236292Y55339D01*
X236301Y55238D01*
X236314Y55137D01*
X236331Y55037D01*
X236352Y54938D01*
X236376Y54840D01*
X236404Y54743D01*
X236436Y54646D01*
X236471Y54551D01*
X236510Y54458D01*
X236552Y54366D01*
X236598Y54275D01*
X236647Y54186D01*
X236699Y54100D01*
X236755Y54015D01*
X236813Y53932D01*
X236875Y53852D01*
X236940Y53774D01*
X237007Y53698D01*
X237077Y53625D01*
X237150Y53555D01*
X237226Y53488D01*
X237304Y53423D01*
X237384Y53361D01*
X237467Y53303D01*
X237552Y53247D01*
X237639Y53195D01*
X237727Y53146D01*
X237818Y53100D01*
X237910Y53058D01*
X238003Y53019D01*
X238098Y52984D01*
X238195Y52952D01*
X238292Y52924D01*
X238390Y52900D01*
X238489Y52879D01*
X238589Y52862D01*
X238690Y52849D01*
X238791Y52840D01*
X238892Y52834D01*
X238993Y52832D01*
X244621Y55541D02*
X244621Y69088D01*
X244621Y55541D02*
X244623Y55440D01*
X244629Y55339D01*
X244638Y55238D01*
X244651Y55137D01*
X244668Y55037D01*
X244689Y54938D01*
X244713Y54840D01*
X244741Y54743D01*
X244773Y54646D01*
X244808Y54551D01*
X244847Y54458D01*
X244889Y54366D01*
X244935Y54275D01*
X244984Y54186D01*
X245036Y54100D01*
X245092Y54015D01*
X245150Y53932D01*
X245212Y53852D01*
X245277Y53774D01*
X245344Y53698D01*
X245414Y53625D01*
X245487Y53555D01*
X245563Y53488D01*
X245641Y53423D01*
X245721Y53361D01*
X245804Y53303D01*
X245889Y53247D01*
X245976Y53195D01*
X246064Y53146D01*
X246155Y53100D01*
X246247Y53058D01*
X246340Y53019D01*
X246435Y52984D01*
X246532Y52952D01*
X246629Y52924D01*
X246727Y52900D01*
X246826Y52879D01*
X246926Y52862D01*
X247027Y52849D01*
X247128Y52840D01*
X247229Y52834D01*
X247330Y52832D01*
X255430Y52832D02*
X259945Y52832D01*
X255430Y52832D02*
X255329Y52834D01*
X255228Y52840D01*
X255127Y52849D01*
X255026Y52862D01*
X254926Y52879D01*
X254827Y52900D01*
X254729Y52924D01*
X254632Y52952D01*
X254535Y52984D01*
X254440Y53019D01*
X254347Y53058D01*
X254255Y53100D01*
X254164Y53146D01*
X254076Y53195D01*
X253989Y53247D01*
X253904Y53303D01*
X253821Y53361D01*
X253741Y53423D01*
X253663Y53488D01*
X253587Y53555D01*
X253514Y53625D01*
X253444Y53698D01*
X253377Y53774D01*
X253312Y53852D01*
X253250Y53932D01*
X253192Y54015D01*
X253136Y54100D01*
X253084Y54186D01*
X253035Y54275D01*
X252989Y54366D01*
X252947Y54458D01*
X252908Y54551D01*
X252873Y54646D01*
X252841Y54743D01*
X252813Y54840D01*
X252789Y54938D01*
X252768Y55037D01*
X252751Y55137D01*
X252738Y55238D01*
X252729Y55339D01*
X252723Y55440D01*
X252721Y55541D01*
X252721Y60057D01*
X252723Y60176D01*
X252729Y60296D01*
X252739Y60415D01*
X252753Y60533D01*
X252770Y60652D01*
X252792Y60769D01*
X252817Y60886D01*
X252847Y61001D01*
X252880Y61116D01*
X252917Y61230D01*
X252957Y61342D01*
X253002Y61453D01*
X253050Y61562D01*
X253101Y61670D01*
X253156Y61776D01*
X253215Y61880D01*
X253277Y61982D01*
X253342Y62082D01*
X253411Y62180D01*
X253483Y62276D01*
X253558Y62369D01*
X253635Y62459D01*
X253716Y62547D01*
X253800Y62632D01*
X253887Y62714D01*
X253976Y62794D01*
X254068Y62870D01*
X254162Y62944D01*
X254259Y63014D01*
X254357Y63081D01*
X254458Y63145D01*
X254562Y63205D01*
X254667Y63262D01*
X254774Y63315D01*
X254882Y63365D01*
X254992Y63411D01*
X255104Y63453D01*
X255217Y63492D01*
X255331Y63527D01*
X255446Y63558D01*
X255563Y63586D01*
X255680Y63609D01*
X255797Y63629D01*
X255916Y63645D01*
X256035Y63657D01*
X256154Y63665D01*
X256273Y63669D01*
X256393Y63669D01*
X256512Y63665D01*
X256631Y63657D01*
X256750Y63645D01*
X256869Y63629D01*
X256986Y63609D01*
X257103Y63586D01*
X257220Y63558D01*
X257335Y63527D01*
X257449Y63492D01*
X257562Y63453D01*
X257674Y63411D01*
X257784Y63365D01*
X257892Y63315D01*
X257999Y63262D01*
X258104Y63205D01*
X258208Y63145D01*
X258309Y63081D01*
X258407Y63014D01*
X258504Y62944D01*
X258598Y62870D01*
X258690Y62794D01*
X258779Y62714D01*
X258866Y62632D01*
X258950Y62547D01*
X259031Y62459D01*
X259108Y62369D01*
X259183Y62276D01*
X259255Y62180D01*
X259324Y62082D01*
X259389Y61982D01*
X259451Y61880D01*
X259510Y61776D01*
X259565Y61670D01*
X259616Y61562D01*
X259664Y61453D01*
X259709Y61342D01*
X259749Y61230D01*
X259786Y61116D01*
X259819Y61001D01*
X259849Y60886D01*
X259874Y60769D01*
X259896Y60652D01*
X259913Y60533D01*
X259927Y60415D01*
X259937Y60296D01*
X259943Y60176D01*
X259945Y60057D01*
X259945Y58251D01*
X252721Y58251D01*
X69681Y42418D02*
X64262Y26162D01*
X75099Y26162D02*
X69681Y42418D01*
X73745Y30226D02*
X65617Y30226D01*
X81178Y28871D02*
X81178Y36999D01*
X81179Y28871D02*
X81181Y28770D01*
X81187Y28669D01*
X81196Y28568D01*
X81209Y28467D01*
X81226Y28367D01*
X81247Y28268D01*
X81271Y28170D01*
X81299Y28073D01*
X81331Y27976D01*
X81366Y27881D01*
X81405Y27788D01*
X81447Y27696D01*
X81493Y27605D01*
X81542Y27516D01*
X81594Y27430D01*
X81650Y27345D01*
X81708Y27262D01*
X81770Y27182D01*
X81835Y27104D01*
X81902Y27028D01*
X81972Y26955D01*
X82045Y26885D01*
X82121Y26818D01*
X82199Y26753D01*
X82279Y26691D01*
X82362Y26633D01*
X82447Y26577D01*
X82534Y26525D01*
X82622Y26476D01*
X82713Y26430D01*
X82805Y26388D01*
X82898Y26349D01*
X82993Y26314D01*
X83090Y26282D01*
X83187Y26254D01*
X83285Y26230D01*
X83384Y26209D01*
X83484Y26192D01*
X83585Y26179D01*
X83686Y26170D01*
X83787Y26164D01*
X83888Y26162D01*
X88403Y26162D01*
X88403Y36999D01*
X102398Y42418D02*
X102398Y26162D01*
X97883Y26162D01*
X97782Y26164D01*
X97681Y26170D01*
X97580Y26179D01*
X97479Y26192D01*
X97379Y26209D01*
X97280Y26230D01*
X97182Y26254D01*
X97085Y26282D01*
X96988Y26314D01*
X96893Y26349D01*
X96800Y26388D01*
X96708Y26430D01*
X96617Y26476D01*
X96529Y26525D01*
X96442Y26577D01*
X96357Y26633D01*
X96274Y26691D01*
X96194Y26753D01*
X96116Y26818D01*
X96040Y26885D01*
X95967Y26955D01*
X95897Y27028D01*
X95830Y27104D01*
X95765Y27182D01*
X95703Y27262D01*
X95645Y27345D01*
X95589Y27430D01*
X95537Y27516D01*
X95488Y27605D01*
X95442Y27696D01*
X95400Y27788D01*
X95361Y27881D01*
X95326Y27976D01*
X95294Y28073D01*
X95266Y28170D01*
X95242Y28268D01*
X95221Y28367D01*
X95204Y28467D01*
X95191Y28568D01*
X95182Y28669D01*
X95176Y28770D01*
X95174Y28871D01*
X95173Y28871D02*
X95173Y34290D01*
X95174Y34290D02*
X95176Y34391D01*
X95182Y34492D01*
X95191Y34593D01*
X95204Y34694D01*
X95221Y34794D01*
X95242Y34893D01*
X95266Y34991D01*
X95294Y35088D01*
X95326Y35185D01*
X95361Y35280D01*
X95400Y35373D01*
X95442Y35465D01*
X95488Y35556D01*
X95537Y35645D01*
X95589Y35731D01*
X95645Y35816D01*
X95703Y35899D01*
X95765Y35979D01*
X95830Y36057D01*
X95897Y36133D01*
X95967Y36206D01*
X96040Y36276D01*
X96116Y36343D01*
X96194Y36408D01*
X96274Y36470D01*
X96357Y36528D01*
X96442Y36584D01*
X96529Y36636D01*
X96617Y36685D01*
X96708Y36731D01*
X96800Y36773D01*
X96893Y36812D01*
X96988Y36847D01*
X97085Y36879D01*
X97182Y36907D01*
X97280Y36931D01*
X97379Y36952D01*
X97479Y36969D01*
X97580Y36982D01*
X97681Y36991D01*
X97782Y36997D01*
X97883Y36999D01*
X102398Y36999D01*
X109280Y36999D02*
X109280Y26162D01*
X108828Y41515D02*
X108828Y42418D01*
X109731Y42418D01*
X109731Y41515D01*
X108828Y41515D01*
X115567Y33387D02*
X115567Y29774D01*
X115568Y33387D02*
X115570Y33506D01*
X115576Y33626D01*
X115586Y33745D01*
X115600Y33863D01*
X115617Y33982D01*
X115639Y34099D01*
X115664Y34216D01*
X115694Y34331D01*
X115727Y34446D01*
X115764Y34560D01*
X115804Y34672D01*
X115849Y34783D01*
X115897Y34892D01*
X115948Y35000D01*
X116003Y35106D01*
X116062Y35210D01*
X116124Y35312D01*
X116189Y35412D01*
X116258Y35510D01*
X116330Y35606D01*
X116405Y35699D01*
X116482Y35789D01*
X116563Y35877D01*
X116647Y35962D01*
X116734Y36044D01*
X116823Y36124D01*
X116915Y36200D01*
X117009Y36274D01*
X117106Y36344D01*
X117204Y36411D01*
X117305Y36475D01*
X117409Y36535D01*
X117514Y36592D01*
X117621Y36645D01*
X117729Y36695D01*
X117839Y36741D01*
X117951Y36783D01*
X118064Y36822D01*
X118178Y36857D01*
X118293Y36888D01*
X118410Y36916D01*
X118527Y36939D01*
X118644Y36959D01*
X118763Y36975D01*
X118882Y36987D01*
X119001Y36995D01*
X119120Y36999D01*
X119240Y36999D01*
X119359Y36995D01*
X119478Y36987D01*
X119597Y36975D01*
X119716Y36959D01*
X119833Y36939D01*
X119950Y36916D01*
X120067Y36888D01*
X120182Y36857D01*
X120296Y36822D01*
X120409Y36783D01*
X120521Y36741D01*
X120631Y36695D01*
X120739Y36645D01*
X120846Y36592D01*
X120951Y36535D01*
X121055Y36475D01*
X121156Y36411D01*
X121254Y36344D01*
X121351Y36274D01*
X121445Y36200D01*
X121537Y36124D01*
X121626Y36044D01*
X121713Y35962D01*
X121797Y35877D01*
X121878Y35789D01*
X121955Y35699D01*
X122030Y35606D01*
X122102Y35510D01*
X122171Y35412D01*
X122236Y35312D01*
X122298Y35210D01*
X122357Y35106D01*
X122412Y35000D01*
X122463Y34892D01*
X122511Y34783D01*
X122556Y34672D01*
X122596Y34560D01*
X122633Y34446D01*
X122666Y34331D01*
X122696Y34216D01*
X122721Y34099D01*
X122743Y33982D01*
X122760Y33863D01*
X122774Y33745D01*
X122784Y33626D01*
X122790Y33506D01*
X122792Y33387D01*
X122792Y29774D01*
X122790Y29655D01*
X122784Y29535D01*
X122774Y29416D01*
X122760Y29298D01*
X122743Y29179D01*
X122721Y29062D01*
X122696Y28945D01*
X122666Y28830D01*
X122633Y28715D01*
X122596Y28601D01*
X122556Y28489D01*
X122511Y28378D01*
X122463Y28269D01*
X122412Y28161D01*
X122357Y28055D01*
X122298Y27951D01*
X122236Y27849D01*
X122171Y27749D01*
X122102Y27651D01*
X122030Y27555D01*
X121955Y27462D01*
X121878Y27372D01*
X121797Y27284D01*
X121713Y27199D01*
X121626Y27117D01*
X121537Y27037D01*
X121445Y26961D01*
X121351Y26887D01*
X121254Y26817D01*
X121156Y26750D01*
X121055Y26686D01*
X120951Y26626D01*
X120846Y26569D01*
X120739Y26516D01*
X120631Y26466D01*
X120521Y26420D01*
X120409Y26378D01*
X120296Y26339D01*
X120182Y26304D01*
X120067Y26273D01*
X119950Y26245D01*
X119833Y26222D01*
X119716Y26202D01*
X119597Y26186D01*
X119478Y26174D01*
X119359Y26166D01*
X119240Y26162D01*
X119120Y26162D01*
X119001Y26166D01*
X118882Y26174D01*
X118763Y26186D01*
X118644Y26202D01*
X118527Y26222D01*
X118410Y26245D01*
X118293Y26273D01*
X118178Y26304D01*
X118064Y26339D01*
X117951Y26378D01*
X117839Y26420D01*
X117729Y26466D01*
X117621Y26516D01*
X117514Y26569D01*
X117409Y26626D01*
X117305Y26686D01*
X117204Y26750D01*
X117106Y26817D01*
X117009Y26887D01*
X116915Y26961D01*
X116823Y27037D01*
X116734Y27117D01*
X116647Y27199D01*
X116563Y27284D01*
X116482Y27372D01*
X116405Y27462D01*
X116330Y27555D01*
X116258Y27651D01*
X116189Y27749D01*
X116124Y27849D01*
X116062Y27951D01*
X116003Y28055D01*
X115948Y28161D01*
X115897Y28269D01*
X115849Y28378D01*
X115804Y28489D01*
X115764Y28601D01*
X115727Y28715D01*
X115694Y28830D01*
X115664Y28945D01*
X115639Y29062D01*
X115617Y29179D01*
X115600Y29298D01*
X115586Y29416D01*
X115576Y29535D01*
X115570Y29655D01*
X115568Y29774D01*
X138322Y26162D02*
X138322Y42418D01*
X142837Y42418D01*
X142970Y42416D01*
X143102Y42410D01*
X143234Y42400D01*
X143366Y42387D01*
X143498Y42369D01*
X143628Y42348D01*
X143759Y42323D01*
X143888Y42294D01*
X144016Y42261D01*
X144144Y42225D01*
X144270Y42185D01*
X144395Y42141D01*
X144519Y42093D01*
X144641Y42042D01*
X144762Y41987D01*
X144881Y41929D01*
X144999Y41867D01*
X145114Y41802D01*
X145228Y41733D01*
X145339Y41662D01*
X145448Y41586D01*
X145555Y41508D01*
X145660Y41427D01*
X145762Y41342D01*
X145862Y41255D01*
X145959Y41165D01*
X146054Y41072D01*
X146145Y40976D01*
X146234Y40878D01*
X146320Y40777D01*
X146403Y40673D01*
X146483Y40567D01*
X146559Y40459D01*
X146633Y40349D01*
X146703Y40236D01*
X146770Y40122D01*
X146833Y40005D01*
X146893Y39887D01*
X146950Y39767D01*
X147003Y39645D01*
X147052Y39522D01*
X147098Y39398D01*
X147140Y39272D01*
X147178Y39145D01*
X147213Y39017D01*
X147244Y38888D01*
X147271Y38759D01*
X147294Y38628D01*
X147314Y38497D01*
X147329Y38365D01*
X147341Y38233D01*
X147349Y38101D01*
X147353Y37968D01*
X147353Y37836D01*
X147349Y37703D01*
X147341Y37571D01*
X147329Y37439D01*
X147314Y37307D01*
X147294Y37176D01*
X147271Y37045D01*
X147244Y36916D01*
X147213Y36787D01*
X147178Y36659D01*
X147140Y36532D01*
X147098Y36406D01*
X147052Y36282D01*
X147003Y36159D01*
X146950Y36037D01*
X146893Y35917D01*
X146833Y35799D01*
X146770Y35682D01*
X146703Y35568D01*
X146633Y35455D01*
X146559Y35345D01*
X146483Y35237D01*
X146403Y35131D01*
X146320Y35027D01*
X146234Y34926D01*
X146145Y34828D01*
X146054Y34732D01*
X145959Y34639D01*
X145862Y34549D01*
X145762Y34462D01*
X145660Y34377D01*
X145555Y34296D01*
X145448Y34218D01*
X145339Y34142D01*
X145228Y34071D01*
X145114Y34002D01*
X144999Y33937D01*
X144881Y33875D01*
X144762Y33817D01*
X144641Y33762D01*
X144519Y33711D01*
X144395Y33663D01*
X144270Y33619D01*
X144144Y33579D01*
X144016Y33543D01*
X143888Y33510D01*
X143759Y33481D01*
X143628Y33456D01*
X143498Y33435D01*
X143366Y33417D01*
X143234Y33404D01*
X143102Y33394D01*
X142970Y33388D01*
X142837Y33386D01*
X142837Y33387D02*
X138322Y33387D01*
X153082Y33387D02*
X153082Y29774D01*
X153082Y33387D02*
X153084Y33506D01*
X153090Y33626D01*
X153100Y33745D01*
X153114Y33863D01*
X153131Y33982D01*
X153153Y34099D01*
X153178Y34216D01*
X153208Y34331D01*
X153241Y34446D01*
X153278Y34560D01*
X153318Y34672D01*
X153363Y34783D01*
X153411Y34892D01*
X153462Y35000D01*
X153517Y35106D01*
X153576Y35210D01*
X153638Y35312D01*
X153703Y35412D01*
X153772Y35510D01*
X153844Y35606D01*
X153919Y35699D01*
X153996Y35789D01*
X154077Y35877D01*
X154161Y35962D01*
X154248Y36044D01*
X154337Y36124D01*
X154429Y36200D01*
X154523Y36274D01*
X154620Y36344D01*
X154718Y36411D01*
X154819Y36475D01*
X154923Y36535D01*
X155028Y36592D01*
X155135Y36645D01*
X155243Y36695D01*
X155353Y36741D01*
X155465Y36783D01*
X155578Y36822D01*
X155692Y36857D01*
X155807Y36888D01*
X155924Y36916D01*
X156041Y36939D01*
X156158Y36959D01*
X156277Y36975D01*
X156396Y36987D01*
X156515Y36995D01*
X156634Y36999D01*
X156754Y36999D01*
X156873Y36995D01*
X156992Y36987D01*
X157111Y36975D01*
X157230Y36959D01*
X157347Y36939D01*
X157464Y36916D01*
X157581Y36888D01*
X157696Y36857D01*
X157810Y36822D01*
X157923Y36783D01*
X158035Y36741D01*
X158145Y36695D01*
X158253Y36645D01*
X158360Y36592D01*
X158465Y36535D01*
X158569Y36475D01*
X158670Y36411D01*
X158768Y36344D01*
X158865Y36274D01*
X158959Y36200D01*
X159051Y36124D01*
X159140Y36044D01*
X159227Y35962D01*
X159311Y35877D01*
X159392Y35789D01*
X159469Y35699D01*
X159544Y35606D01*
X159616Y35510D01*
X159685Y35412D01*
X159750Y35312D01*
X159812Y35210D01*
X159871Y35106D01*
X159926Y35000D01*
X159977Y34892D01*
X160025Y34783D01*
X160070Y34672D01*
X160110Y34560D01*
X160147Y34446D01*
X160180Y34331D01*
X160210Y34216D01*
X160235Y34099D01*
X160257Y33982D01*
X160274Y33863D01*
X160288Y33745D01*
X160298Y33626D01*
X160304Y33506D01*
X160306Y33387D01*
X160307Y33387D02*
X160307Y29774D01*
X160306Y29774D02*
X160304Y29655D01*
X160298Y29535D01*
X160288Y29416D01*
X160274Y29298D01*
X160257Y29179D01*
X160235Y29062D01*
X160210Y28945D01*
X160180Y28830D01*
X160147Y28715D01*
X160110Y28601D01*
X160070Y28489D01*
X160025Y28378D01*
X159977Y28269D01*
X159926Y28161D01*
X159871Y28055D01*
X159812Y27951D01*
X159750Y27849D01*
X159685Y27749D01*
X159616Y27651D01*
X159544Y27555D01*
X159469Y27462D01*
X159392Y27372D01*
X159311Y27284D01*
X159227Y27199D01*
X159140Y27117D01*
X159051Y27037D01*
X158959Y26961D01*
X158865Y26887D01*
X158768Y26817D01*
X158670Y26750D01*
X158569Y26686D01*
X158465Y26626D01*
X158360Y26569D01*
X158253Y26516D01*
X158145Y26466D01*
X158035Y26420D01*
X157923Y26378D01*
X157810Y26339D01*
X157696Y26304D01*
X157581Y26273D01*
X157464Y26245D01*
X157347Y26222D01*
X157230Y26202D01*
X157111Y26186D01*
X156992Y26174D01*
X156873Y26166D01*
X156754Y26162D01*
X156634Y26162D01*
X156515Y26166D01*
X156396Y26174D01*
X156277Y26186D01*
X156158Y26202D01*
X156041Y26222D01*
X155924Y26245D01*
X155807Y26273D01*
X155692Y26304D01*
X155578Y26339D01*
X155465Y26378D01*
X155353Y26420D01*
X155243Y26466D01*
X155135Y26516D01*
X155028Y26569D01*
X154923Y26626D01*
X154819Y26686D01*
X154718Y26750D01*
X154620Y26817D01*
X154523Y26887D01*
X154429Y26961D01*
X154337Y27037D01*
X154248Y27117D01*
X154161Y27199D01*
X154077Y27284D01*
X153996Y27372D01*
X153919Y27462D01*
X153844Y27555D01*
X153772Y27651D01*
X153703Y27749D01*
X153638Y27849D01*
X153576Y27951D01*
X153517Y28055D01*
X153462Y28161D01*
X153411Y28269D01*
X153363Y28378D01*
X153318Y28489D01*
X153278Y28601D01*
X153241Y28715D01*
X153208Y28830D01*
X153178Y28945D01*
X153153Y29062D01*
X153131Y29179D01*
X153114Y29298D01*
X153100Y29416D01*
X153090Y29535D01*
X153084Y29655D01*
X153082Y29774D01*
X166386Y36999D02*
X169095Y26162D01*
X171805Y33387D01*
X174514Y26162D01*
X177223Y36999D01*
X186012Y26162D02*
X190527Y26162D01*
X186012Y26162D02*
X185911Y26164D01*
X185810Y26170D01*
X185709Y26179D01*
X185608Y26192D01*
X185508Y26209D01*
X185409Y26230D01*
X185311Y26254D01*
X185214Y26282D01*
X185117Y26314D01*
X185022Y26349D01*
X184929Y26388D01*
X184837Y26430D01*
X184746Y26476D01*
X184658Y26525D01*
X184571Y26577D01*
X184486Y26633D01*
X184403Y26691D01*
X184323Y26753D01*
X184245Y26818D01*
X184169Y26885D01*
X184096Y26955D01*
X184026Y27028D01*
X183959Y27104D01*
X183894Y27182D01*
X183832Y27262D01*
X183774Y27345D01*
X183718Y27430D01*
X183666Y27516D01*
X183617Y27605D01*
X183571Y27696D01*
X183529Y27788D01*
X183490Y27881D01*
X183455Y27976D01*
X183423Y28073D01*
X183395Y28170D01*
X183371Y28268D01*
X183350Y28367D01*
X183333Y28467D01*
X183320Y28568D01*
X183311Y28669D01*
X183305Y28770D01*
X183303Y28871D01*
X183302Y28871D02*
X183302Y33387D01*
X183303Y33387D02*
X183305Y33506D01*
X183311Y33626D01*
X183321Y33745D01*
X183335Y33863D01*
X183352Y33982D01*
X183374Y34099D01*
X183399Y34216D01*
X183429Y34331D01*
X183462Y34446D01*
X183499Y34560D01*
X183539Y34672D01*
X183584Y34783D01*
X183632Y34892D01*
X183683Y35000D01*
X183738Y35106D01*
X183797Y35210D01*
X183859Y35312D01*
X183924Y35412D01*
X183993Y35510D01*
X184065Y35606D01*
X184140Y35699D01*
X184217Y35789D01*
X184298Y35877D01*
X184382Y35962D01*
X184469Y36044D01*
X184558Y36124D01*
X184650Y36200D01*
X184744Y36274D01*
X184841Y36344D01*
X184939Y36411D01*
X185040Y36475D01*
X185144Y36535D01*
X185249Y36592D01*
X185356Y36645D01*
X185464Y36695D01*
X185574Y36741D01*
X185686Y36783D01*
X185799Y36822D01*
X185913Y36857D01*
X186028Y36888D01*
X186145Y36916D01*
X186262Y36939D01*
X186379Y36959D01*
X186498Y36975D01*
X186617Y36987D01*
X186736Y36995D01*
X186855Y36999D01*
X186975Y36999D01*
X187094Y36995D01*
X187213Y36987D01*
X187332Y36975D01*
X187451Y36959D01*
X187568Y36939D01*
X187685Y36916D01*
X187802Y36888D01*
X187917Y36857D01*
X188031Y36822D01*
X188144Y36783D01*
X188256Y36741D01*
X188366Y36695D01*
X188474Y36645D01*
X188581Y36592D01*
X188686Y36535D01*
X188790Y36475D01*
X188891Y36411D01*
X188989Y36344D01*
X189086Y36274D01*
X189180Y36200D01*
X189272Y36124D01*
X189361Y36044D01*
X189448Y35962D01*
X189532Y35877D01*
X189613Y35789D01*
X189690Y35699D01*
X189765Y35606D01*
X189837Y35510D01*
X189906Y35412D01*
X189971Y35312D01*
X190033Y35210D01*
X190092Y35106D01*
X190147Y35000D01*
X190198Y34892D01*
X190246Y34783D01*
X190291Y34672D01*
X190331Y34560D01*
X190368Y34446D01*
X190401Y34331D01*
X190431Y34216D01*
X190456Y34099D01*
X190478Y33982D01*
X190495Y33863D01*
X190509Y33745D01*
X190519Y33626D01*
X190525Y33506D01*
X190527Y33387D01*
X190527Y31581D01*
X183302Y31581D01*
X197455Y26162D02*
X197455Y36999D01*
X202874Y36999D01*
X202874Y35193D01*
X215364Y26162D02*
X220782Y42418D01*
X226201Y26162D01*
X224846Y30226D02*
X216718Y30226D01*
X232558Y26162D02*
X232558Y36999D01*
X240686Y36999D01*
X240787Y36997D01*
X240888Y36991D01*
X240989Y36982D01*
X241090Y36969D01*
X241190Y36952D01*
X241289Y36931D01*
X241387Y36907D01*
X241484Y36879D01*
X241581Y36847D01*
X241676Y36812D01*
X241769Y36773D01*
X241861Y36731D01*
X241952Y36685D01*
X242041Y36636D01*
X242127Y36584D01*
X242212Y36528D01*
X242295Y36470D01*
X242375Y36408D01*
X242453Y36343D01*
X242529Y36276D01*
X242602Y36206D01*
X242672Y36133D01*
X242739Y36057D01*
X242804Y35979D01*
X242866Y35899D01*
X242924Y35816D01*
X242980Y35731D01*
X243032Y35645D01*
X243081Y35556D01*
X243127Y35465D01*
X243169Y35373D01*
X243208Y35280D01*
X243243Y35185D01*
X243275Y35088D01*
X243303Y34991D01*
X243327Y34893D01*
X243348Y34794D01*
X243365Y34694D01*
X243378Y34593D01*
X243387Y34492D01*
X243393Y34391D01*
X243395Y34290D01*
X243395Y26162D01*
X237977Y26162D02*
X237977Y36999D01*
X251111Y36999D02*
X251111Y20743D01*
X251111Y36999D02*
X255627Y36999D01*
X255731Y36997D01*
X255834Y36991D01*
X255938Y36981D01*
X256041Y36967D01*
X256143Y36949D01*
X256244Y36928D01*
X256345Y36902D01*
X256444Y36873D01*
X256543Y36840D01*
X256640Y36803D01*
X256735Y36762D01*
X256829Y36718D01*
X256921Y36670D01*
X257011Y36619D01*
X257100Y36564D01*
X257186Y36506D01*
X257269Y36444D01*
X257351Y36380D01*
X257429Y36312D01*
X257505Y36242D01*
X257579Y36169D01*
X257649Y36092D01*
X257717Y36014D01*
X257781Y35932D01*
X257843Y35849D01*
X257901Y35763D01*
X257956Y35674D01*
X258007Y35584D01*
X258055Y35492D01*
X258099Y35398D01*
X258140Y35303D01*
X258177Y35206D01*
X258210Y35107D01*
X258239Y35008D01*
X258265Y34907D01*
X258286Y34806D01*
X258304Y34704D01*
X258318Y34601D01*
X258328Y34497D01*
X258334Y34394D01*
X258336Y34290D01*
X258336Y28871D01*
X258334Y28770D01*
X258328Y28669D01*
X258319Y28568D01*
X258306Y28467D01*
X258289Y28367D01*
X258268Y28268D01*
X258244Y28170D01*
X258216Y28073D01*
X258184Y27976D01*
X258149Y27881D01*
X258110Y27788D01*
X258068Y27696D01*
X258022Y27605D01*
X257973Y27516D01*
X257921Y27430D01*
X257865Y27345D01*
X257807Y27262D01*
X257745Y27182D01*
X257680Y27104D01*
X257613Y27028D01*
X257543Y26955D01*
X257470Y26885D01*
X257394Y26818D01*
X257316Y26753D01*
X257236Y26691D01*
X257153Y26633D01*
X257068Y26577D01*
X256982Y26525D01*
X256893Y26476D01*
X256802Y26430D01*
X256710Y26388D01*
X256617Y26349D01*
X256522Y26314D01*
X256425Y26282D01*
X256328Y26254D01*
X256230Y26230D01*
X256131Y26209D01*
X256031Y26192D01*
X255930Y26179D01*
X255829Y26170D01*
X255728Y26164D01*
X255627Y26162D01*
X251111Y26162D01*
X264822Y28871D02*
X264822Y42418D01*
X264822Y28871D02*
X264824Y28770D01*
X264830Y28669D01*
X264839Y28568D01*
X264852Y28467D01*
X264869Y28367D01*
X264890Y28268D01*
X264914Y28170D01*
X264942Y28073D01*
X264974Y27976D01*
X265009Y27881D01*
X265048Y27788D01*
X265090Y27696D01*
X265136Y27605D01*
X265185Y27516D01*
X265237Y27430D01*
X265293Y27345D01*
X265351Y27262D01*
X265413Y27182D01*
X265478Y27104D01*
X265545Y27028D01*
X265615Y26955D01*
X265688Y26885D01*
X265764Y26818D01*
X265842Y26753D01*
X265922Y26691D01*
X266005Y26633D01*
X266090Y26577D01*
X266177Y26525D01*
X266265Y26476D01*
X266356Y26430D01*
X266448Y26388D01*
X266541Y26349D01*
X266636Y26314D01*
X266733Y26282D01*
X266830Y26254D01*
X266928Y26230D01*
X267027Y26209D01*
X267127Y26192D01*
X267228Y26179D01*
X267329Y26170D01*
X267430Y26164D01*
X267531Y26162D01*
X272887Y26162D02*
X272887Y36999D01*
X272435Y41515D02*
X272435Y42418D01*
X273338Y42418D01*
X273338Y41515D01*
X272435Y41515D01*
X280062Y39709D02*
X280062Y26162D01*
X280062Y39709D02*
X280064Y39813D01*
X280070Y39916D01*
X280080Y40020D01*
X280094Y40123D01*
X280112Y40225D01*
X280133Y40326D01*
X280159Y40427D01*
X280188Y40526D01*
X280221Y40625D01*
X280258Y40722D01*
X280299Y40817D01*
X280343Y40911D01*
X280391Y41003D01*
X280442Y41093D01*
X280497Y41182D01*
X280555Y41268D01*
X280617Y41351D01*
X280681Y41433D01*
X280749Y41511D01*
X280819Y41587D01*
X280892Y41661D01*
X280969Y41731D01*
X281047Y41799D01*
X281129Y41863D01*
X281212Y41925D01*
X281298Y41983D01*
X281387Y42038D01*
X281477Y42089D01*
X281569Y42137D01*
X281663Y42181D01*
X281758Y42222D01*
X281855Y42259D01*
X281954Y42292D01*
X282053Y42321D01*
X282154Y42347D01*
X282255Y42368D01*
X282357Y42386D01*
X282460Y42400D01*
X282564Y42410D01*
X282667Y42416D01*
X282771Y42418D01*
X283674Y42418D01*
X283674Y36999D02*
X278255Y36999D01*
X287997Y36999D02*
X287997Y26162D01*
X287545Y41515D02*
X287545Y42418D01*
X288448Y42418D01*
X288448Y41515D01*
X287545Y41515D01*
X296993Y26162D02*
X301509Y26162D01*
X296993Y26162D02*
X296892Y26164D01*
X296791Y26170D01*
X296690Y26179D01*
X296589Y26192D01*
X296489Y26209D01*
X296390Y26230D01*
X296292Y26254D01*
X296195Y26282D01*
X296098Y26314D01*
X296003Y26349D01*
X295910Y26388D01*
X295818Y26430D01*
X295727Y26476D01*
X295639Y26525D01*
X295552Y26577D01*
X295467Y26633D01*
X295384Y26691D01*
X295304Y26753D01*
X295226Y26818D01*
X295150Y26885D01*
X295077Y26955D01*
X295007Y27028D01*
X294940Y27104D01*
X294875Y27182D01*
X294813Y27262D01*
X294755Y27345D01*
X294699Y27430D01*
X294647Y27516D01*
X294598Y27605D01*
X294552Y27696D01*
X294510Y27788D01*
X294471Y27881D01*
X294436Y27976D01*
X294404Y28073D01*
X294376Y28170D01*
X294352Y28268D01*
X294331Y28367D01*
X294314Y28467D01*
X294301Y28568D01*
X294292Y28669D01*
X294286Y28770D01*
X294284Y28871D01*
X294284Y33387D01*
X294286Y33506D01*
X294292Y33626D01*
X294302Y33745D01*
X294316Y33863D01*
X294333Y33982D01*
X294355Y34099D01*
X294380Y34216D01*
X294410Y34331D01*
X294443Y34446D01*
X294480Y34560D01*
X294520Y34672D01*
X294565Y34783D01*
X294613Y34892D01*
X294664Y35000D01*
X294719Y35106D01*
X294778Y35210D01*
X294840Y35312D01*
X294905Y35412D01*
X294974Y35510D01*
X295046Y35606D01*
X295121Y35699D01*
X295198Y35789D01*
X295279Y35877D01*
X295363Y35962D01*
X295450Y36044D01*
X295539Y36124D01*
X295631Y36200D01*
X295725Y36274D01*
X295822Y36344D01*
X295920Y36411D01*
X296021Y36475D01*
X296125Y36535D01*
X296230Y36592D01*
X296337Y36645D01*
X296445Y36695D01*
X296555Y36741D01*
X296667Y36783D01*
X296780Y36822D01*
X296894Y36857D01*
X297009Y36888D01*
X297126Y36916D01*
X297243Y36939D01*
X297360Y36959D01*
X297479Y36975D01*
X297598Y36987D01*
X297717Y36995D01*
X297836Y36999D01*
X297956Y36999D01*
X298075Y36995D01*
X298194Y36987D01*
X298313Y36975D01*
X298432Y36959D01*
X298549Y36939D01*
X298666Y36916D01*
X298783Y36888D01*
X298898Y36857D01*
X299012Y36822D01*
X299125Y36783D01*
X299237Y36741D01*
X299347Y36695D01*
X299455Y36645D01*
X299562Y36592D01*
X299667Y36535D01*
X299771Y36475D01*
X299872Y36411D01*
X299970Y36344D01*
X300067Y36274D01*
X300161Y36200D01*
X300253Y36124D01*
X300342Y36044D01*
X300429Y35962D01*
X300513Y35877D01*
X300594Y35789D01*
X300671Y35699D01*
X300746Y35606D01*
X300818Y35510D01*
X300887Y35412D01*
X300952Y35312D01*
X301014Y35210D01*
X301073Y35106D01*
X301128Y35000D01*
X301179Y34892D01*
X301227Y34783D01*
X301272Y34672D01*
X301312Y34560D01*
X301349Y34446D01*
X301382Y34331D01*
X301412Y34216D01*
X301437Y34099D01*
X301459Y33982D01*
X301476Y33863D01*
X301490Y33745D01*
X301500Y33626D01*
X301506Y33506D01*
X301508Y33387D01*
X301509Y33387D02*
X301509Y31581D01*
X294284Y31581D01*
X308437Y26162D02*
X308437Y36999D01*
X313856Y36999D01*
X313856Y35193D01*
D11*
X664436Y767602D02*
X666002Y767602D01*
X666002Y762381D01*
X662869Y762381D01*
X662780Y762383D01*
X662692Y762389D01*
X662604Y762398D01*
X662516Y762411D01*
X662429Y762428D01*
X662343Y762448D01*
X662258Y762473D01*
X662173Y762500D01*
X662090Y762532D01*
X662009Y762566D01*
X661929Y762605D01*
X661851Y762646D01*
X661774Y762691D01*
X661700Y762739D01*
X661627Y762790D01*
X661557Y762844D01*
X661490Y762902D01*
X661424Y762962D01*
X661362Y763024D01*
X661302Y763090D01*
X661244Y763157D01*
X661190Y763227D01*
X661139Y763300D01*
X661091Y763374D01*
X661046Y763451D01*
X661005Y763529D01*
X660966Y763609D01*
X660932Y763690D01*
X660900Y763773D01*
X660873Y763858D01*
X660848Y763943D01*
X660828Y764029D01*
X660811Y764116D01*
X660798Y764204D01*
X660789Y764292D01*
X660783Y764380D01*
X660781Y764469D01*
X660781Y769691D01*
X660783Y769782D01*
X660789Y769873D01*
X660799Y769964D01*
X660813Y770054D01*
X660830Y770143D01*
X660852Y770231D01*
X660878Y770319D01*
X660907Y770405D01*
X660940Y770490D01*
X660977Y770573D01*
X661017Y770655D01*
X661061Y770735D01*
X661108Y770813D01*
X661159Y770889D01*
X661212Y770962D01*
X661269Y771033D01*
X661330Y771102D01*
X661393Y771167D01*
X661458Y771230D01*
X661527Y771290D01*
X661598Y771348D01*
X661671Y771401D01*
X661747Y771452D01*
X661825Y771499D01*
X661905Y771543D01*
X661987Y771583D01*
X662070Y771620D01*
X662155Y771653D01*
X662241Y771682D01*
X662329Y771708D01*
X662417Y771730D01*
X662506Y771747D01*
X662596Y771761D01*
X662687Y771771D01*
X662778Y771777D01*
X662869Y771779D01*
X666002Y771779D01*
X670535Y771779D02*
X670535Y762381D01*
X675756Y762381D02*
X670535Y771779D01*
X675756Y771779D02*
X675756Y762381D01*
X680288Y762381D02*
X680288Y771779D01*
X682899Y771779D01*
X682999Y771777D01*
X683099Y771771D01*
X683198Y771762D01*
X683298Y771748D01*
X683396Y771731D01*
X683494Y771710D01*
X683591Y771686D01*
X683687Y771657D01*
X683782Y771625D01*
X683875Y771590D01*
X683967Y771551D01*
X684058Y771508D01*
X684146Y771462D01*
X684233Y771412D01*
X684318Y771360D01*
X684401Y771304D01*
X684482Y771245D01*
X684560Y771182D01*
X684636Y771117D01*
X684710Y771049D01*
X684780Y770979D01*
X684848Y770905D01*
X684913Y770829D01*
X684976Y770751D01*
X685035Y770670D01*
X685091Y770587D01*
X685143Y770502D01*
X685193Y770415D01*
X685239Y770327D01*
X685282Y770236D01*
X685321Y770144D01*
X685356Y770051D01*
X685388Y769956D01*
X685417Y769860D01*
X685441Y769763D01*
X685462Y769665D01*
X685479Y769567D01*
X685493Y769467D01*
X685502Y769368D01*
X685508Y769268D01*
X685510Y769168D01*
X685509Y769168D02*
X685509Y764992D01*
X685510Y764992D02*
X685508Y764892D01*
X685502Y764792D01*
X685493Y764693D01*
X685479Y764593D01*
X685462Y764495D01*
X685441Y764397D01*
X685417Y764300D01*
X685388Y764204D01*
X685356Y764109D01*
X685321Y764016D01*
X685282Y763924D01*
X685239Y763833D01*
X685193Y763745D01*
X685143Y763658D01*
X685091Y763573D01*
X685035Y763490D01*
X684976Y763409D01*
X684913Y763331D01*
X684848Y763255D01*
X684780Y763181D01*
X684710Y763111D01*
X684636Y763043D01*
X684560Y762978D01*
X684482Y762915D01*
X684401Y762856D01*
X684318Y762800D01*
X684233Y762748D01*
X684146Y762698D01*
X684058Y762652D01*
X683967Y762609D01*
X683875Y762570D01*
X683782Y762535D01*
X683687Y762503D01*
X683591Y762474D01*
X683494Y762450D01*
X683396Y762429D01*
X683298Y762412D01*
X683198Y762398D01*
X683099Y762389D01*
X682999Y762383D01*
X682899Y762381D01*
X680288Y762381D01*
X711581Y771779D02*
X714714Y762381D01*
X717846Y771779D01*
X723310Y762381D02*
X725398Y762381D01*
X723310Y762381D02*
X723221Y762383D01*
X723133Y762389D01*
X723045Y762398D01*
X722957Y762411D01*
X722870Y762428D01*
X722784Y762448D01*
X722699Y762473D01*
X722614Y762500D01*
X722531Y762532D01*
X722450Y762566D01*
X722370Y762605D01*
X722292Y762646D01*
X722215Y762691D01*
X722141Y762739D01*
X722068Y762790D01*
X721998Y762844D01*
X721931Y762902D01*
X721865Y762962D01*
X721803Y763024D01*
X721743Y763090D01*
X721685Y763157D01*
X721631Y763227D01*
X721580Y763300D01*
X721532Y763374D01*
X721487Y763451D01*
X721446Y763529D01*
X721407Y763609D01*
X721373Y763690D01*
X721341Y763773D01*
X721314Y763858D01*
X721289Y763943D01*
X721269Y764029D01*
X721252Y764116D01*
X721239Y764204D01*
X721230Y764292D01*
X721224Y764380D01*
X721222Y764469D01*
X721221Y764469D02*
X721221Y769691D01*
X721222Y769691D02*
X721224Y769782D01*
X721230Y769873D01*
X721240Y769964D01*
X721254Y770054D01*
X721271Y770143D01*
X721293Y770231D01*
X721319Y770319D01*
X721348Y770405D01*
X721381Y770490D01*
X721418Y770573D01*
X721458Y770655D01*
X721502Y770735D01*
X721549Y770813D01*
X721600Y770889D01*
X721653Y770962D01*
X721710Y771033D01*
X721771Y771102D01*
X721834Y771167D01*
X721899Y771230D01*
X721968Y771290D01*
X722039Y771348D01*
X722112Y771401D01*
X722188Y771452D01*
X722266Y771499D01*
X722346Y771543D01*
X722428Y771583D01*
X722511Y771620D01*
X722596Y771653D01*
X722682Y771682D01*
X722770Y771708D01*
X722858Y771730D01*
X722947Y771747D01*
X723037Y771761D01*
X723128Y771771D01*
X723219Y771777D01*
X723310Y771779D01*
X725398Y771779D01*
X730930Y762381D02*
X733018Y762381D01*
X730930Y762381D02*
X730841Y762383D01*
X730753Y762389D01*
X730665Y762398D01*
X730577Y762411D01*
X730490Y762428D01*
X730404Y762448D01*
X730319Y762473D01*
X730234Y762500D01*
X730151Y762532D01*
X730070Y762566D01*
X729990Y762605D01*
X729912Y762646D01*
X729835Y762691D01*
X729761Y762739D01*
X729688Y762790D01*
X729618Y762844D01*
X729551Y762902D01*
X729485Y762962D01*
X729423Y763024D01*
X729363Y763090D01*
X729305Y763157D01*
X729251Y763227D01*
X729200Y763300D01*
X729152Y763374D01*
X729107Y763451D01*
X729066Y763529D01*
X729027Y763609D01*
X728993Y763690D01*
X728961Y763773D01*
X728934Y763858D01*
X728909Y763943D01*
X728889Y764029D01*
X728872Y764116D01*
X728859Y764204D01*
X728850Y764292D01*
X728844Y764380D01*
X728842Y764469D01*
X728841Y764469D02*
X728841Y769691D01*
X728842Y769691D02*
X728844Y769782D01*
X728850Y769873D01*
X728860Y769964D01*
X728874Y770054D01*
X728891Y770143D01*
X728913Y770231D01*
X728939Y770319D01*
X728968Y770405D01*
X729001Y770490D01*
X729038Y770573D01*
X729078Y770655D01*
X729122Y770735D01*
X729169Y770813D01*
X729220Y770889D01*
X729273Y770962D01*
X729330Y771033D01*
X729391Y771102D01*
X729454Y771167D01*
X729519Y771230D01*
X729588Y771290D01*
X729659Y771348D01*
X729732Y771401D01*
X729808Y771452D01*
X729886Y771499D01*
X729966Y771543D01*
X730048Y771583D01*
X730131Y771620D01*
X730216Y771653D01*
X730302Y771682D01*
X730390Y771708D01*
X730478Y771730D01*
X730567Y771747D01*
X730657Y771761D01*
X730748Y771771D01*
X730839Y771777D01*
X730930Y771779D01*
X733018Y771779D01*
D10*
X101600Y254000D02*
X76200Y254000D01*
X76200Y231140D01*
X78740Y228600D01*
X76200Y226060D01*
X76200Y205740D01*
X78740Y203200D01*
X76200Y200660D01*
X76200Y180340D01*
X78740Y177800D01*
X76200Y175260D01*
X76200Y154940D01*
X78740Y152400D01*
X76200Y149860D01*
X76200Y127000D01*
X101600Y127000D01*
X101600Y149860D01*
X99060Y152400D01*
X101600Y154940D01*
X101600Y175260D01*
X99060Y177800D01*
X101600Y180340D01*
X101600Y200660D01*
X99060Y203200D01*
X101600Y205740D01*
X101600Y226060D01*
X99060Y228600D01*
X101600Y231140D01*
X101600Y254000D01*
D12*
X85725Y258445D02*
X83185Y261620D01*
X94615Y261620D01*
X94615Y258445D02*
X94615Y264795D01*
X94615Y121285D02*
X94615Y117475D01*
X94615Y121285D02*
X94613Y121385D01*
X94607Y121484D01*
X94597Y121584D01*
X94584Y121682D01*
X94566Y121781D01*
X94545Y121878D01*
X94520Y121974D01*
X94491Y122070D01*
X94458Y122164D01*
X94422Y122257D01*
X94382Y122348D01*
X94338Y122438D01*
X94291Y122526D01*
X94241Y122612D01*
X94187Y122696D01*
X94130Y122778D01*
X94070Y122857D01*
X94006Y122935D01*
X93940Y123009D01*
X93871Y123081D01*
X93799Y123150D01*
X93725Y123216D01*
X93647Y123280D01*
X93568Y123340D01*
X93486Y123397D01*
X93402Y123451D01*
X93316Y123501D01*
X93228Y123548D01*
X93138Y123592D01*
X93047Y123632D01*
X92954Y123668D01*
X92860Y123701D01*
X92764Y123730D01*
X92668Y123755D01*
X92571Y123776D01*
X92472Y123794D01*
X92374Y123807D01*
X92274Y123817D01*
X92175Y123823D01*
X92075Y123825D01*
X90805Y123825D01*
X90705Y123823D01*
X90606Y123817D01*
X90506Y123807D01*
X90408Y123794D01*
X90309Y123776D01*
X90212Y123755D01*
X90116Y123730D01*
X90020Y123701D01*
X89926Y123668D01*
X89833Y123632D01*
X89742Y123592D01*
X89652Y123548D01*
X89564Y123501D01*
X89478Y123451D01*
X89394Y123397D01*
X89312Y123340D01*
X89233Y123280D01*
X89155Y123216D01*
X89081Y123150D01*
X89009Y123081D01*
X88940Y123009D01*
X88874Y122935D01*
X88810Y122857D01*
X88750Y122778D01*
X88693Y122696D01*
X88639Y122612D01*
X88589Y122526D01*
X88542Y122438D01*
X88498Y122348D01*
X88458Y122257D01*
X88422Y122164D01*
X88389Y122070D01*
X88360Y121974D01*
X88335Y121878D01*
X88314Y121781D01*
X88296Y121682D01*
X88283Y121584D01*
X88273Y121484D01*
X88267Y121385D01*
X88265Y121285D01*
X88265Y117475D01*
X83185Y117475D01*
X83185Y123825D01*
X112395Y183559D02*
X112395Y187369D01*
X112395Y183559D02*
X112393Y183459D01*
X112387Y183360D01*
X112377Y183260D01*
X112364Y183162D01*
X112346Y183063D01*
X112325Y182966D01*
X112300Y182870D01*
X112271Y182774D01*
X112238Y182680D01*
X112202Y182587D01*
X112162Y182496D01*
X112118Y182406D01*
X112071Y182318D01*
X112021Y182232D01*
X111967Y182148D01*
X111910Y182066D01*
X111850Y181987D01*
X111786Y181909D01*
X111720Y181835D01*
X111651Y181763D01*
X111579Y181694D01*
X111505Y181628D01*
X111427Y181564D01*
X111348Y181504D01*
X111266Y181447D01*
X111182Y181393D01*
X111096Y181343D01*
X111008Y181296D01*
X110918Y181252D01*
X110827Y181212D01*
X110734Y181176D01*
X110640Y181143D01*
X110544Y181114D01*
X110448Y181089D01*
X110351Y181068D01*
X110252Y181050D01*
X110154Y181037D01*
X110054Y181027D01*
X109955Y181021D01*
X109855Y181019D01*
X109220Y181019D01*
X109109Y181021D01*
X108999Y181027D01*
X108888Y181036D01*
X108778Y181050D01*
X108669Y181067D01*
X108560Y181088D01*
X108452Y181113D01*
X108345Y181142D01*
X108239Y181174D01*
X108134Y181210D01*
X108031Y181250D01*
X107929Y181293D01*
X107828Y181340D01*
X107729Y181391D01*
X107633Y181444D01*
X107538Y181501D01*
X107445Y181562D01*
X107354Y181625D01*
X107265Y181692D01*
X107179Y181762D01*
X107096Y181835D01*
X107014Y181910D01*
X106936Y181988D01*
X106861Y182070D01*
X106788Y182153D01*
X106718Y182239D01*
X106651Y182328D01*
X106588Y182419D01*
X106527Y182512D01*
X106470Y182607D01*
X106417Y182703D01*
X106366Y182802D01*
X106319Y182903D01*
X106276Y183005D01*
X106236Y183108D01*
X106200Y183213D01*
X106168Y183319D01*
X106139Y183426D01*
X106114Y183534D01*
X106093Y183643D01*
X106076Y183752D01*
X106062Y183862D01*
X106053Y183973D01*
X106047Y184083D01*
X106045Y184194D01*
X106047Y184305D01*
X106053Y184415D01*
X106062Y184526D01*
X106076Y184636D01*
X106093Y184745D01*
X106114Y184854D01*
X106139Y184962D01*
X106168Y185069D01*
X106200Y185175D01*
X106236Y185280D01*
X106276Y185383D01*
X106319Y185485D01*
X106366Y185586D01*
X106417Y185685D01*
X106470Y185782D01*
X106527Y185876D01*
X106588Y185969D01*
X106651Y186060D01*
X106718Y186149D01*
X106788Y186235D01*
X106861Y186318D01*
X106936Y186400D01*
X107014Y186478D01*
X107096Y186553D01*
X107179Y186626D01*
X107265Y186696D01*
X107354Y186763D01*
X107445Y186826D01*
X107538Y186887D01*
X107633Y186944D01*
X107729Y186997D01*
X107828Y187048D01*
X107929Y187095D01*
X108031Y187138D01*
X108134Y187178D01*
X108239Y187214D01*
X108345Y187246D01*
X108452Y187275D01*
X108560Y187300D01*
X108669Y187321D01*
X108778Y187338D01*
X108888Y187352D01*
X108999Y187361D01*
X109109Y187367D01*
X109220Y187369D01*
X112395Y187369D01*
X112535Y187367D01*
X112675Y187361D01*
X112815Y187352D01*
X112954Y187338D01*
X113093Y187321D01*
X113231Y187300D01*
X113369Y187275D01*
X113506Y187246D01*
X113642Y187214D01*
X113777Y187177D01*
X113911Y187137D01*
X114044Y187094D01*
X114176Y187046D01*
X114307Y186996D01*
X114436Y186941D01*
X114563Y186883D01*
X114689Y186822D01*
X114813Y186757D01*
X114935Y186688D01*
X115055Y186617D01*
X115173Y186542D01*
X115290Y186464D01*
X115404Y186382D01*
X115515Y186298D01*
X115624Y186210D01*
X115731Y186120D01*
X115836Y186026D01*
X115937Y185930D01*
X116036Y185831D01*
X116132Y185730D01*
X116226Y185625D01*
X116316Y185518D01*
X116404Y185409D01*
X116488Y185298D01*
X116570Y185184D01*
X116648Y185067D01*
X116723Y184949D01*
X116794Y184829D01*
X116863Y184707D01*
X116928Y184583D01*
X116989Y184457D01*
X117047Y184330D01*
X117102Y184201D01*
X117152Y184070D01*
X117200Y183938D01*
X117243Y183805D01*
X117283Y183671D01*
X117320Y183536D01*
X117352Y183400D01*
X117381Y183263D01*
X117406Y183125D01*
X117427Y182987D01*
X117444Y182848D01*
X117458Y182709D01*
X117467Y182569D01*
X117473Y182429D01*
X117475Y182289D01*
X117475Y195624D02*
X106045Y191814D01*
X106045Y199434D02*
X117475Y195624D01*
X118745Y203371D02*
X118745Y208451D01*
X117475Y216452D02*
X117473Y216552D01*
X117467Y216651D01*
X117457Y216751D01*
X117444Y216849D01*
X117426Y216948D01*
X117405Y217045D01*
X117380Y217141D01*
X117351Y217237D01*
X117318Y217331D01*
X117282Y217424D01*
X117242Y217515D01*
X117198Y217605D01*
X117151Y217693D01*
X117101Y217779D01*
X117047Y217863D01*
X116990Y217945D01*
X116930Y218024D01*
X116866Y218102D01*
X116800Y218176D01*
X116731Y218248D01*
X116659Y218317D01*
X116585Y218383D01*
X116507Y218447D01*
X116428Y218507D01*
X116346Y218564D01*
X116262Y218618D01*
X116176Y218668D01*
X116088Y218715D01*
X115998Y218759D01*
X115907Y218799D01*
X115814Y218835D01*
X115720Y218868D01*
X115624Y218897D01*
X115528Y218922D01*
X115431Y218943D01*
X115332Y218961D01*
X115234Y218974D01*
X115134Y218984D01*
X115035Y218990D01*
X114935Y218992D01*
X117475Y216452D02*
X117473Y216311D01*
X117468Y216170D01*
X117458Y216029D01*
X117445Y215888D01*
X117429Y215748D01*
X117408Y215608D01*
X117384Y215469D01*
X117356Y215330D01*
X117325Y215193D01*
X117290Y215056D01*
X117252Y214920D01*
X117210Y214785D01*
X117164Y214652D01*
X117115Y214519D01*
X117062Y214388D01*
X117006Y214259D01*
X116947Y214130D01*
X116884Y214004D01*
X116818Y213879D01*
X116749Y213756D01*
X116676Y213635D01*
X116600Y213516D01*
X116521Y213398D01*
X116440Y213283D01*
X116355Y213171D01*
X116267Y213060D01*
X116176Y212952D01*
X116083Y212846D01*
X115986Y212743D01*
X115887Y212642D01*
X108585Y212960D02*
X108485Y212962D01*
X108386Y212968D01*
X108286Y212978D01*
X108188Y212991D01*
X108089Y213009D01*
X107992Y213030D01*
X107896Y213055D01*
X107800Y213084D01*
X107706Y213117D01*
X107613Y213153D01*
X107522Y213193D01*
X107432Y213237D01*
X107344Y213284D01*
X107258Y213334D01*
X107174Y213388D01*
X107092Y213445D01*
X107013Y213505D01*
X106935Y213569D01*
X106861Y213635D01*
X106789Y213704D01*
X106720Y213776D01*
X106654Y213850D01*
X106590Y213928D01*
X106530Y214007D01*
X106473Y214089D01*
X106419Y214173D01*
X106369Y214259D01*
X106322Y214347D01*
X106278Y214437D01*
X106238Y214528D01*
X106202Y214621D01*
X106169Y214715D01*
X106140Y214811D01*
X106115Y214907D01*
X106094Y215004D01*
X106076Y215103D01*
X106063Y215201D01*
X106053Y215301D01*
X106047Y215400D01*
X106045Y215500D01*
X106047Y215633D01*
X106052Y215766D01*
X106062Y215899D01*
X106075Y216032D01*
X106092Y216164D01*
X106112Y216296D01*
X106136Y216427D01*
X106164Y216557D01*
X106195Y216687D01*
X106230Y216815D01*
X106269Y216943D01*
X106311Y217069D01*
X106357Y217194D01*
X106406Y217318D01*
X106458Y217441D01*
X106514Y217562D01*
X106574Y217681D01*
X106636Y217799D01*
X106702Y217914D01*
X106771Y218028D01*
X106844Y218140D01*
X106919Y218250D01*
X106998Y218358D01*
X110808Y214229D02*
X110756Y214145D01*
X110701Y214062D01*
X110642Y213982D01*
X110581Y213904D01*
X110517Y213829D01*
X110449Y213756D01*
X110379Y213685D01*
X110307Y213618D01*
X110232Y213553D01*
X110154Y213491D01*
X110074Y213432D01*
X109992Y213376D01*
X109908Y213324D01*
X109822Y213275D01*
X109734Y213229D01*
X109644Y213186D01*
X109553Y213147D01*
X109460Y213112D01*
X109366Y213080D01*
X109271Y213052D01*
X109175Y213027D01*
X109078Y213007D01*
X108980Y212989D01*
X108882Y212976D01*
X108783Y212967D01*
X108684Y212961D01*
X108585Y212959D01*
X112712Y217723D02*
X112764Y217807D01*
X112819Y217890D01*
X112878Y217970D01*
X112939Y218048D01*
X113003Y218123D01*
X113071Y218196D01*
X113141Y218267D01*
X113213Y218334D01*
X113288Y218399D01*
X113366Y218461D01*
X113446Y218520D01*
X113528Y218576D01*
X113612Y218628D01*
X113698Y218677D01*
X113786Y218723D01*
X113876Y218766D01*
X113967Y218805D01*
X114060Y218840D01*
X114154Y218872D01*
X114249Y218900D01*
X114345Y218925D01*
X114442Y218945D01*
X114540Y218963D01*
X114638Y218976D01*
X114737Y218985D01*
X114836Y218991D01*
X114935Y218993D01*
X112713Y217722D02*
X110808Y214230D01*
X106045Y224263D02*
X117475Y224263D01*
X106045Y224263D02*
X106045Y227438D01*
X106047Y227549D01*
X106053Y227659D01*
X106062Y227770D01*
X106076Y227880D01*
X106093Y227989D01*
X106114Y228098D01*
X106139Y228206D01*
X106168Y228313D01*
X106200Y228419D01*
X106236Y228524D01*
X106276Y228627D01*
X106319Y228729D01*
X106366Y228830D01*
X106417Y228929D01*
X106470Y229026D01*
X106527Y229120D01*
X106588Y229213D01*
X106651Y229304D01*
X106718Y229393D01*
X106788Y229479D01*
X106861Y229562D01*
X106936Y229644D01*
X107014Y229722D01*
X107096Y229797D01*
X107179Y229870D01*
X107265Y229940D01*
X107354Y230007D01*
X107445Y230070D01*
X107538Y230131D01*
X107633Y230188D01*
X107729Y230241D01*
X107828Y230292D01*
X107929Y230339D01*
X108031Y230382D01*
X108134Y230422D01*
X108239Y230458D01*
X108345Y230490D01*
X108452Y230519D01*
X108560Y230544D01*
X108669Y230565D01*
X108778Y230582D01*
X108888Y230596D01*
X108999Y230605D01*
X109109Y230611D01*
X109220Y230613D01*
X109331Y230611D01*
X109441Y230605D01*
X109552Y230596D01*
X109662Y230582D01*
X109771Y230565D01*
X109880Y230544D01*
X109988Y230519D01*
X110095Y230490D01*
X110201Y230458D01*
X110306Y230422D01*
X110409Y230382D01*
X110511Y230339D01*
X110612Y230292D01*
X110711Y230241D01*
X110808Y230188D01*
X110902Y230131D01*
X110995Y230070D01*
X111086Y230007D01*
X111175Y229940D01*
X111261Y229870D01*
X111344Y229797D01*
X111426Y229722D01*
X111504Y229644D01*
X111579Y229562D01*
X111652Y229479D01*
X111722Y229393D01*
X111789Y229304D01*
X111852Y229213D01*
X111913Y229120D01*
X111970Y229026D01*
X112023Y228929D01*
X112074Y228830D01*
X112121Y228729D01*
X112164Y228627D01*
X112204Y228524D01*
X112240Y228419D01*
X112272Y228313D01*
X112301Y228206D01*
X112326Y228098D01*
X112347Y227989D01*
X112364Y227880D01*
X112378Y227770D01*
X112387Y227659D01*
X112393Y227549D01*
X112395Y227438D01*
X112395Y224263D01*
X117475Y235693D02*
X106045Y235693D01*
X106045Y242043D02*
X113030Y235693D01*
X110490Y238233D02*
X117475Y242043D01*
X117475Y247015D02*
X106045Y247015D01*
X106045Y250190D01*
X106047Y250301D01*
X106053Y250411D01*
X106062Y250522D01*
X106076Y250632D01*
X106093Y250741D01*
X106114Y250850D01*
X106139Y250958D01*
X106168Y251065D01*
X106200Y251171D01*
X106236Y251276D01*
X106276Y251379D01*
X106319Y251481D01*
X106366Y251582D01*
X106417Y251681D01*
X106470Y251778D01*
X106527Y251872D01*
X106588Y251965D01*
X106651Y252056D01*
X106718Y252145D01*
X106788Y252231D01*
X106861Y252314D01*
X106936Y252396D01*
X107014Y252474D01*
X107096Y252549D01*
X107179Y252622D01*
X107265Y252692D01*
X107354Y252759D01*
X107445Y252822D01*
X107538Y252883D01*
X107633Y252940D01*
X107729Y252993D01*
X107828Y253044D01*
X107929Y253091D01*
X108031Y253134D01*
X108134Y253174D01*
X108239Y253210D01*
X108345Y253242D01*
X108452Y253271D01*
X108560Y253296D01*
X108669Y253317D01*
X108778Y253334D01*
X108888Y253348D01*
X108999Y253357D01*
X109109Y253363D01*
X109220Y253365D01*
X109331Y253363D01*
X109441Y253357D01*
X109552Y253348D01*
X109662Y253334D01*
X109771Y253317D01*
X109880Y253296D01*
X109988Y253271D01*
X110095Y253242D01*
X110201Y253210D01*
X110306Y253174D01*
X110409Y253134D01*
X110511Y253091D01*
X110612Y253044D01*
X110711Y252993D01*
X110808Y252940D01*
X110902Y252883D01*
X110995Y252822D01*
X111086Y252759D01*
X111175Y252692D01*
X111261Y252622D01*
X111344Y252549D01*
X111426Y252474D01*
X111504Y252396D01*
X111579Y252314D01*
X111652Y252231D01*
X111722Y252145D01*
X111789Y252056D01*
X111852Y251965D01*
X111913Y251872D01*
X111970Y251778D01*
X112023Y251681D01*
X112074Y251582D01*
X112121Y251481D01*
X112164Y251379D01*
X112204Y251276D01*
X112240Y251171D01*
X112272Y251065D01*
X112301Y250958D01*
X112326Y250850D01*
X112347Y250741D01*
X112364Y250632D01*
X112378Y250522D01*
X112387Y250411D01*
X112393Y250301D01*
X112395Y250190D01*
X112395Y247015D01*
X112395Y250825D02*
X117475Y253365D01*
D10*
X440690Y711200D02*
X443230Y711200D01*
X440690Y711200D02*
X440690Y722630D01*
X434340Y722630D01*
X434340Y699770D01*
X440690Y699770D01*
X440690Y711200D01*
X425450Y711200D02*
X420370Y711200D01*
X464820Y698500D02*
X464820Y690880D01*
X468630Y694690D02*
X461010Y694690D01*
X387350Y711200D02*
X387363Y712291D01*
X387404Y713381D01*
X387470Y714470D01*
X387564Y715557D01*
X387684Y716641D01*
X387831Y717722D01*
X388004Y718799D01*
X388204Y719872D01*
X388430Y720939D01*
X388682Y722000D01*
X388960Y723055D01*
X389264Y724103D01*
X389593Y725143D01*
X389948Y726175D01*
X390328Y727197D01*
X390734Y728210D01*
X391163Y729213D01*
X391618Y730205D01*
X392096Y731185D01*
X392599Y732154D01*
X393125Y733109D01*
X393674Y734052D01*
X394246Y734981D01*
X394841Y735895D01*
X395458Y736795D01*
X396097Y737679D01*
X396758Y738547D01*
X397440Y739399D01*
X398142Y740234D01*
X398865Y741051D01*
X399607Y741850D01*
X400369Y742631D01*
X401150Y743393D01*
X401949Y744135D01*
X402766Y744858D01*
X403601Y745560D01*
X404453Y746242D01*
X405321Y746903D01*
X406205Y747542D01*
X407105Y748159D01*
X408019Y748754D01*
X408948Y749326D01*
X409891Y749875D01*
X410846Y750401D01*
X411815Y750904D01*
X412795Y751382D01*
X413787Y751837D01*
X414790Y752266D01*
X415803Y752672D01*
X416825Y753052D01*
X417857Y753407D01*
X418897Y753736D01*
X419945Y754040D01*
X421000Y754318D01*
X422061Y754570D01*
X423128Y754796D01*
X424201Y754996D01*
X425278Y755169D01*
X426359Y755316D01*
X427443Y755436D01*
X428530Y755530D01*
X429619Y755596D01*
X430709Y755637D01*
X431800Y755650D01*
X432891Y755637D01*
X433981Y755596D01*
X435070Y755530D01*
X436157Y755436D01*
X437241Y755316D01*
X438322Y755169D01*
X439399Y754996D01*
X440472Y754796D01*
X441539Y754570D01*
X442600Y754318D01*
X443655Y754040D01*
X444703Y753736D01*
X445743Y753407D01*
X446775Y753052D01*
X447797Y752672D01*
X448810Y752266D01*
X449813Y751837D01*
X450805Y751382D01*
X451785Y750904D01*
X452754Y750401D01*
X453709Y749875D01*
X454652Y749326D01*
X455581Y748754D01*
X456495Y748159D01*
X457395Y747542D01*
X458279Y746903D01*
X459147Y746242D01*
X459999Y745560D01*
X460834Y744858D01*
X461651Y744135D01*
X462450Y743393D01*
X463231Y742631D01*
X463993Y741850D01*
X464735Y741051D01*
X465458Y740234D01*
X466160Y739399D01*
X466842Y738547D01*
X467503Y737679D01*
X468142Y736795D01*
X468759Y735895D01*
X469354Y734981D01*
X469926Y734052D01*
X470475Y733109D01*
X471001Y732154D01*
X471504Y731185D01*
X471982Y730205D01*
X472437Y729213D01*
X472866Y728210D01*
X473272Y727197D01*
X473652Y726175D01*
X474007Y725143D01*
X474336Y724103D01*
X474640Y723055D01*
X474918Y722000D01*
X475170Y720939D01*
X475396Y719872D01*
X475596Y718799D01*
X475769Y717722D01*
X475916Y716641D01*
X476036Y715557D01*
X476130Y714470D01*
X476196Y713381D01*
X476237Y712291D01*
X476250Y711200D01*
X476237Y710109D01*
X476196Y709019D01*
X476130Y707930D01*
X476036Y706843D01*
X475916Y705759D01*
X475769Y704678D01*
X475596Y703601D01*
X475396Y702528D01*
X475170Y701461D01*
X474918Y700400D01*
X474640Y699345D01*
X474336Y698297D01*
X474007Y697257D01*
X473652Y696225D01*
X473272Y695203D01*
X472866Y694190D01*
X472437Y693187D01*
X471982Y692195D01*
X471504Y691215D01*
X471001Y690246D01*
X470475Y689291D01*
X469926Y688348D01*
X469354Y687419D01*
X468759Y686505D01*
X468142Y685605D01*
X467503Y684721D01*
X466842Y683853D01*
X466160Y683001D01*
X465458Y682166D01*
X464735Y681349D01*
X463993Y680550D01*
X463231Y679769D01*
X462450Y679007D01*
X461651Y678265D01*
X460834Y677542D01*
X459999Y676840D01*
X459147Y676158D01*
X458279Y675497D01*
X457395Y674858D01*
X456495Y674241D01*
X455581Y673646D01*
X454652Y673074D01*
X453709Y672525D01*
X452754Y671999D01*
X451785Y671496D01*
X450805Y671018D01*
X449813Y670563D01*
X448810Y670134D01*
X447797Y669728D01*
X446775Y669348D01*
X445743Y668993D01*
X444703Y668664D01*
X443655Y668360D01*
X442600Y668082D01*
X441539Y667830D01*
X440472Y667604D01*
X439399Y667404D01*
X438322Y667231D01*
X437241Y667084D01*
X436157Y666964D01*
X435070Y666870D01*
X433981Y666804D01*
X432891Y666763D01*
X431800Y666750D01*
X430709Y666763D01*
X429619Y666804D01*
X428530Y666870D01*
X427443Y666964D01*
X426359Y667084D01*
X425278Y667231D01*
X424201Y667404D01*
X423128Y667604D01*
X422061Y667830D01*
X421000Y668082D01*
X419945Y668360D01*
X418897Y668664D01*
X417857Y668993D01*
X416825Y669348D01*
X415803Y669728D01*
X414790Y670134D01*
X413787Y670563D01*
X412795Y671018D01*
X411815Y671496D01*
X410846Y671999D01*
X409891Y672525D01*
X408948Y673074D01*
X408019Y673646D01*
X407105Y674241D01*
X406205Y674858D01*
X405321Y675497D01*
X404453Y676158D01*
X403601Y676840D01*
X402766Y677542D01*
X401949Y678265D01*
X401150Y679007D01*
X400369Y679769D01*
X399607Y680550D01*
X398865Y681349D01*
X398142Y682166D01*
X397440Y683001D01*
X396758Y683853D01*
X396097Y684721D01*
X395458Y685605D01*
X394841Y686505D01*
X394246Y687419D01*
X393674Y688348D01*
X393125Y689291D01*
X392599Y690246D01*
X392096Y691215D01*
X391618Y692195D01*
X391163Y693187D01*
X390734Y694190D01*
X390328Y695203D01*
X389948Y696225D01*
X389593Y697257D01*
X389264Y698297D01*
X388960Y699345D01*
X388682Y700400D01*
X388430Y701461D01*
X388204Y702528D01*
X388004Y703601D01*
X387831Y704678D01*
X387684Y705759D01*
X387564Y706843D01*
X387470Y707930D01*
X387404Y709019D01*
X387363Y710109D01*
X387350Y711200D01*
D13*
X426085Y711200D03*
D12*
X427191Y676275D02*
X429731Y676275D01*
X427191Y676275D02*
X427091Y676277D01*
X426992Y676283D01*
X426892Y676293D01*
X426794Y676306D01*
X426695Y676324D01*
X426598Y676345D01*
X426502Y676370D01*
X426406Y676399D01*
X426312Y676432D01*
X426219Y676468D01*
X426128Y676508D01*
X426038Y676552D01*
X425950Y676599D01*
X425864Y676649D01*
X425780Y676703D01*
X425698Y676760D01*
X425619Y676820D01*
X425541Y676884D01*
X425467Y676950D01*
X425395Y677019D01*
X425326Y677091D01*
X425260Y677165D01*
X425196Y677243D01*
X425136Y677322D01*
X425079Y677404D01*
X425025Y677488D01*
X424975Y677574D01*
X424928Y677662D01*
X424884Y677752D01*
X424844Y677843D01*
X424808Y677936D01*
X424775Y678030D01*
X424746Y678126D01*
X424721Y678222D01*
X424700Y678319D01*
X424682Y678418D01*
X424669Y678516D01*
X424659Y678616D01*
X424653Y678715D01*
X424651Y678815D01*
X424651Y685165D01*
X424653Y685265D01*
X424659Y685364D01*
X424669Y685464D01*
X424682Y685562D01*
X424700Y685661D01*
X424721Y685758D01*
X424746Y685854D01*
X424775Y685950D01*
X424808Y686044D01*
X424844Y686137D01*
X424884Y686228D01*
X424928Y686318D01*
X424975Y686406D01*
X425025Y686492D01*
X425079Y686576D01*
X425136Y686658D01*
X425196Y686737D01*
X425260Y686815D01*
X425326Y686889D01*
X425395Y686961D01*
X425467Y687030D01*
X425541Y687096D01*
X425619Y687160D01*
X425698Y687220D01*
X425780Y687277D01*
X425864Y687331D01*
X425950Y687381D01*
X426038Y687428D01*
X426128Y687472D01*
X426219Y687512D01*
X426312Y687548D01*
X426406Y687581D01*
X426502Y687610D01*
X426598Y687635D01*
X426695Y687656D01*
X426794Y687674D01*
X426892Y687687D01*
X426992Y687697D01*
X427091Y687703D01*
X427191Y687705D01*
X429731Y687705D01*
X434213Y685165D02*
X437388Y687705D01*
X437388Y676275D01*
X434213Y676275D02*
X440563Y676275D01*
D10*
X758190Y114300D02*
X760730Y114300D01*
X758190Y114300D02*
X758190Y125730D01*
X751840Y125730D01*
X751840Y102870D01*
X758190Y102870D01*
X758190Y114300D01*
X742950Y114300D02*
X737870Y114300D01*
X787400Y105410D02*
X787400Y97790D01*
X783590Y101600D02*
X791210Y101600D01*
X698500Y114300D02*
X698515Y115547D01*
X698561Y116793D01*
X698638Y118037D01*
X698745Y119279D01*
X698882Y120518D01*
X699050Y121754D01*
X699248Y122985D01*
X699476Y124211D01*
X699734Y125430D01*
X700022Y126643D01*
X700340Y127849D01*
X700687Y129046D01*
X701064Y130235D01*
X701470Y131414D01*
X701904Y132583D01*
X702367Y133740D01*
X702858Y134886D01*
X703377Y136020D01*
X703924Y137140D01*
X704498Y138247D01*
X705100Y139339D01*
X705727Y140416D01*
X706381Y141478D01*
X707061Y142523D01*
X707767Y143551D01*
X708497Y144562D01*
X709252Y145554D01*
X710031Y146527D01*
X710834Y147481D01*
X711660Y148415D01*
X712508Y149329D01*
X713379Y150221D01*
X714271Y151092D01*
X715185Y151940D01*
X716119Y152766D01*
X717073Y153569D01*
X718046Y154348D01*
X719038Y155103D01*
X720049Y155833D01*
X721077Y156539D01*
X722122Y157219D01*
X723184Y157873D01*
X724261Y158500D01*
X725353Y159102D01*
X726460Y159676D01*
X727580Y160223D01*
X728714Y160742D01*
X729860Y161233D01*
X731017Y161696D01*
X732186Y162130D01*
X733365Y162536D01*
X734554Y162913D01*
X735751Y163260D01*
X736957Y163578D01*
X738170Y163866D01*
X739389Y164124D01*
X740615Y164352D01*
X741846Y164550D01*
X743082Y164718D01*
X744321Y164855D01*
X745563Y164962D01*
X746807Y165039D01*
X748053Y165085D01*
X749300Y165100D01*
X750547Y165085D01*
X751793Y165039D01*
X753037Y164962D01*
X754279Y164855D01*
X755518Y164718D01*
X756754Y164550D01*
X757985Y164352D01*
X759211Y164124D01*
X760430Y163866D01*
X761643Y163578D01*
X762849Y163260D01*
X764046Y162913D01*
X765235Y162536D01*
X766414Y162130D01*
X767583Y161696D01*
X768740Y161233D01*
X769886Y160742D01*
X771020Y160223D01*
X772140Y159676D01*
X773247Y159102D01*
X774339Y158500D01*
X775416Y157873D01*
X776478Y157219D01*
X777523Y156539D01*
X778551Y155833D01*
X779562Y155103D01*
X780554Y154348D01*
X781527Y153569D01*
X782481Y152766D01*
X783415Y151940D01*
X784329Y151092D01*
X785221Y150221D01*
X786092Y149329D01*
X786940Y148415D01*
X787766Y147481D01*
X788569Y146527D01*
X789348Y145554D01*
X790103Y144562D01*
X790833Y143551D01*
X791539Y142523D01*
X792219Y141478D01*
X792873Y140416D01*
X793500Y139339D01*
X794102Y138247D01*
X794676Y137140D01*
X795223Y136020D01*
X795742Y134886D01*
X796233Y133740D01*
X796696Y132583D01*
X797130Y131414D01*
X797536Y130235D01*
X797913Y129046D01*
X798260Y127849D01*
X798578Y126643D01*
X798866Y125430D01*
X799124Y124211D01*
X799352Y122985D01*
X799550Y121754D01*
X799718Y120518D01*
X799855Y119279D01*
X799962Y118037D01*
X800039Y116793D01*
X800085Y115547D01*
X800100Y114300D01*
X800085Y113053D01*
X800039Y111807D01*
X799962Y110563D01*
X799855Y109321D01*
X799718Y108082D01*
X799550Y106846D01*
X799352Y105615D01*
X799124Y104389D01*
X798866Y103170D01*
X798578Y101957D01*
X798260Y100751D01*
X797913Y99554D01*
X797536Y98365D01*
X797130Y97186D01*
X796696Y96017D01*
X796233Y94860D01*
X795742Y93714D01*
X795223Y92580D01*
X794676Y91460D01*
X794102Y90353D01*
X793500Y89261D01*
X792873Y88184D01*
X792219Y87122D01*
X791539Y86077D01*
X790833Y85049D01*
X790103Y84038D01*
X789348Y83046D01*
X788569Y82073D01*
X787766Y81119D01*
X786940Y80185D01*
X786092Y79271D01*
X785221Y78379D01*
X784329Y77508D01*
X783415Y76660D01*
X782481Y75834D01*
X781527Y75031D01*
X780554Y74252D01*
X779562Y73497D01*
X778551Y72767D01*
X777523Y72061D01*
X776478Y71381D01*
X775416Y70727D01*
X774339Y70100D01*
X773247Y69498D01*
X772140Y68924D01*
X771020Y68377D01*
X769886Y67858D01*
X768740Y67367D01*
X767583Y66904D01*
X766414Y66470D01*
X765235Y66064D01*
X764046Y65687D01*
X762849Y65340D01*
X761643Y65022D01*
X760430Y64734D01*
X759211Y64476D01*
X757985Y64248D01*
X756754Y64050D01*
X755518Y63882D01*
X754279Y63745D01*
X753037Y63638D01*
X751793Y63561D01*
X750547Y63515D01*
X749300Y63500D01*
X748053Y63515D01*
X746807Y63561D01*
X745563Y63638D01*
X744321Y63745D01*
X743082Y63882D01*
X741846Y64050D01*
X740615Y64248D01*
X739389Y64476D01*
X738170Y64734D01*
X736957Y65022D01*
X735751Y65340D01*
X734554Y65687D01*
X733365Y66064D01*
X732186Y66470D01*
X731017Y66904D01*
X729860Y67367D01*
X728714Y67858D01*
X727580Y68377D01*
X726460Y68924D01*
X725353Y69498D01*
X724261Y70100D01*
X723184Y70727D01*
X722122Y71381D01*
X721077Y72061D01*
X720049Y72767D01*
X719038Y73497D01*
X718046Y74252D01*
X717073Y75031D01*
X716119Y75834D01*
X715185Y76660D01*
X714271Y77508D01*
X713379Y78379D01*
X712508Y79271D01*
X711660Y80185D01*
X710834Y81119D01*
X710031Y82073D01*
X709252Y83046D01*
X708497Y84038D01*
X707767Y85049D01*
X707061Y86077D01*
X706381Y87122D01*
X705727Y88184D01*
X705100Y89261D01*
X704498Y90353D01*
X703924Y91460D01*
X703377Y92580D01*
X702858Y93714D01*
X702367Y94860D01*
X701904Y96017D01*
X701470Y97186D01*
X701064Y98365D01*
X700687Y99554D01*
X700340Y100751D01*
X700022Y101957D01*
X699734Y103170D01*
X699476Y104389D01*
X699248Y105615D01*
X699050Y106846D01*
X698882Y108082D01*
X698745Y109321D01*
X698638Y110563D01*
X698561Y111807D01*
X698515Y113053D01*
X698500Y114300D01*
D13*
X743585Y114300D03*
D12*
X690843Y74803D02*
X688303Y74803D01*
X688203Y74805D01*
X688104Y74811D01*
X688004Y74821D01*
X687906Y74834D01*
X687807Y74852D01*
X687710Y74873D01*
X687614Y74898D01*
X687518Y74927D01*
X687424Y74960D01*
X687331Y74996D01*
X687240Y75036D01*
X687150Y75080D01*
X687062Y75127D01*
X686976Y75177D01*
X686892Y75231D01*
X686810Y75288D01*
X686731Y75348D01*
X686653Y75412D01*
X686579Y75478D01*
X686507Y75547D01*
X686438Y75619D01*
X686372Y75693D01*
X686308Y75771D01*
X686248Y75850D01*
X686191Y75932D01*
X686137Y76016D01*
X686087Y76102D01*
X686040Y76190D01*
X685996Y76280D01*
X685956Y76371D01*
X685920Y76464D01*
X685887Y76558D01*
X685858Y76654D01*
X685833Y76750D01*
X685812Y76847D01*
X685794Y76946D01*
X685781Y77044D01*
X685771Y77144D01*
X685765Y77243D01*
X685763Y77343D01*
X685763Y83693D01*
X685765Y83793D01*
X685771Y83892D01*
X685781Y83992D01*
X685794Y84090D01*
X685812Y84189D01*
X685833Y84286D01*
X685858Y84382D01*
X685887Y84478D01*
X685920Y84572D01*
X685956Y84665D01*
X685996Y84756D01*
X686040Y84846D01*
X686087Y84934D01*
X686137Y85020D01*
X686191Y85104D01*
X686248Y85186D01*
X686308Y85265D01*
X686372Y85343D01*
X686438Y85417D01*
X686507Y85489D01*
X686579Y85558D01*
X686653Y85624D01*
X686731Y85688D01*
X686810Y85748D01*
X686892Y85805D01*
X686976Y85859D01*
X687062Y85909D01*
X687150Y85956D01*
X687240Y86000D01*
X687331Y86040D01*
X687424Y86076D01*
X687518Y86109D01*
X687614Y86138D01*
X687710Y86163D01*
X687807Y86184D01*
X687906Y86202D01*
X688004Y86215D01*
X688104Y86225D01*
X688203Y86231D01*
X688303Y86233D01*
X690843Y86233D01*
X698818Y86234D02*
X698922Y86232D01*
X699027Y86226D01*
X699131Y86217D01*
X699234Y86204D01*
X699337Y86186D01*
X699439Y86166D01*
X699541Y86141D01*
X699641Y86113D01*
X699741Y86081D01*
X699839Y86045D01*
X699936Y86006D01*
X700031Y85964D01*
X700125Y85918D01*
X700217Y85868D01*
X700307Y85816D01*
X700395Y85760D01*
X700481Y85700D01*
X700565Y85638D01*
X700646Y85573D01*
X700725Y85505D01*
X700802Y85433D01*
X700875Y85360D01*
X700947Y85283D01*
X701015Y85204D01*
X701080Y85123D01*
X701142Y85039D01*
X701202Y84953D01*
X701258Y84865D01*
X701310Y84775D01*
X701360Y84683D01*
X701406Y84589D01*
X701448Y84494D01*
X701487Y84397D01*
X701523Y84299D01*
X701555Y84199D01*
X701583Y84099D01*
X701608Y83997D01*
X701628Y83895D01*
X701646Y83792D01*
X701659Y83689D01*
X701668Y83585D01*
X701674Y83480D01*
X701676Y83376D01*
X698818Y86233D02*
X698700Y86231D01*
X698581Y86225D01*
X698463Y86216D01*
X698346Y86203D01*
X698229Y86185D01*
X698112Y86165D01*
X697996Y86140D01*
X697881Y86112D01*
X697768Y86079D01*
X697655Y86044D01*
X697543Y86004D01*
X697433Y85962D01*
X697324Y85915D01*
X697216Y85865D01*
X697111Y85812D01*
X697007Y85755D01*
X696905Y85695D01*
X696805Y85632D01*
X696707Y85565D01*
X696611Y85496D01*
X696518Y85423D01*
X696427Y85347D01*
X696338Y85269D01*
X696252Y85187D01*
X696169Y85103D01*
X696088Y85017D01*
X696011Y84927D01*
X695936Y84836D01*
X695864Y84742D01*
X695795Y84645D01*
X695730Y84547D01*
X695667Y84446D01*
X695608Y84343D01*
X695552Y84239D01*
X695500Y84133D01*
X695451Y84025D01*
X695406Y83916D01*
X695364Y83805D01*
X695326Y83693D01*
X700723Y81154D02*
X700799Y81229D01*
X700874Y81308D01*
X700945Y81389D01*
X701014Y81473D01*
X701079Y81559D01*
X701141Y81647D01*
X701201Y81737D01*
X701257Y81829D01*
X701310Y81924D01*
X701359Y82020D01*
X701405Y82118D01*
X701448Y82217D01*
X701487Y82318D01*
X701522Y82420D01*
X701554Y82523D01*
X701582Y82627D01*
X701607Y82732D01*
X701628Y82839D01*
X701645Y82945D01*
X701658Y83052D01*
X701667Y83160D01*
X701673Y83268D01*
X701675Y83376D01*
X700723Y81153D02*
X695325Y74803D01*
X701675Y74803D01*
D10*
X241300Y690880D02*
X241300Y731520D01*
X241300Y690880D02*
X266700Y690880D01*
X266700Y731520D01*
X241300Y731520D01*
X254000Y717550D02*
X254000Y711200D01*
X260350Y701040D02*
X247650Y701040D01*
X254000Y711200D01*
X254000Y695960D01*
X260350Y701040D02*
X254000Y711200D01*
X260350Y711200D01*
X254000Y711200D02*
X247650Y711200D01*
D14*
X254000Y725170D03*
D15*
X254000Y681355D03*
X254000Y741045D03*
D12*
X231775Y706755D02*
X220345Y706755D01*
X220345Y709930D01*
X220347Y710041D01*
X220353Y710151D01*
X220362Y710262D01*
X220376Y710372D01*
X220393Y710481D01*
X220414Y710590D01*
X220439Y710698D01*
X220468Y710805D01*
X220500Y710911D01*
X220536Y711016D01*
X220576Y711119D01*
X220619Y711221D01*
X220666Y711322D01*
X220717Y711421D01*
X220770Y711518D01*
X220827Y711612D01*
X220888Y711705D01*
X220951Y711796D01*
X221018Y711885D01*
X221088Y711971D01*
X221161Y712054D01*
X221236Y712136D01*
X221314Y712214D01*
X221396Y712289D01*
X221479Y712362D01*
X221565Y712432D01*
X221654Y712499D01*
X221745Y712562D01*
X221838Y712623D01*
X221933Y712680D01*
X222029Y712733D01*
X222128Y712784D01*
X222229Y712831D01*
X222331Y712874D01*
X222434Y712914D01*
X222539Y712950D01*
X222645Y712982D01*
X222752Y713011D01*
X222860Y713036D01*
X222969Y713057D01*
X223078Y713074D01*
X223188Y713088D01*
X223299Y713097D01*
X223409Y713103D01*
X223520Y713105D01*
X228600Y713105D01*
X228711Y713103D01*
X228821Y713097D01*
X228932Y713088D01*
X229042Y713074D01*
X229151Y713057D01*
X229260Y713036D01*
X229368Y713011D01*
X229475Y712982D01*
X229581Y712950D01*
X229686Y712914D01*
X229789Y712874D01*
X229891Y712831D01*
X229992Y712784D01*
X230091Y712733D01*
X230188Y712680D01*
X230282Y712623D01*
X230375Y712562D01*
X230466Y712499D01*
X230555Y712432D01*
X230641Y712362D01*
X230724Y712289D01*
X230806Y712214D01*
X230884Y712136D01*
X230959Y712054D01*
X231032Y711971D01*
X231102Y711885D01*
X231169Y711796D01*
X231232Y711705D01*
X231293Y711612D01*
X231350Y711518D01*
X231403Y711421D01*
X231454Y711322D01*
X231501Y711221D01*
X231544Y711119D01*
X231584Y711016D01*
X231620Y710911D01*
X231652Y710805D01*
X231681Y710698D01*
X231706Y710590D01*
X231727Y710481D01*
X231744Y710372D01*
X231758Y710262D01*
X231767Y710151D01*
X231773Y710041D01*
X231775Y709930D01*
X231775Y706755D01*
X222885Y718566D02*
X220345Y721741D01*
X231775Y721741D01*
X231775Y718566D02*
X231775Y724916D01*
D10*
X152400Y731520D02*
X152400Y690880D01*
X152400Y731520D02*
X127000Y731520D01*
X127000Y690880D01*
X152400Y690880D01*
X139700Y704850D02*
X139700Y711200D01*
X133350Y721360D02*
X146050Y721360D01*
X139700Y711200D01*
X139700Y726440D01*
X133350Y721360D02*
X139700Y711200D01*
X133350Y711200D01*
X139700Y711200D02*
X146050Y711200D01*
D14*
X139700Y697230D03*
D15*
X139700Y741045D03*
X139700Y681355D03*
D12*
X122555Y704215D02*
X111125Y704215D01*
X111125Y707390D01*
X111127Y707501D01*
X111133Y707611D01*
X111142Y707722D01*
X111156Y707832D01*
X111173Y707941D01*
X111194Y708050D01*
X111219Y708158D01*
X111248Y708265D01*
X111280Y708371D01*
X111316Y708476D01*
X111356Y708579D01*
X111399Y708681D01*
X111446Y708782D01*
X111497Y708881D01*
X111550Y708978D01*
X111607Y709072D01*
X111668Y709165D01*
X111731Y709256D01*
X111798Y709345D01*
X111868Y709431D01*
X111941Y709514D01*
X112016Y709596D01*
X112094Y709674D01*
X112176Y709749D01*
X112259Y709822D01*
X112345Y709892D01*
X112434Y709959D01*
X112525Y710022D01*
X112618Y710083D01*
X112713Y710140D01*
X112809Y710193D01*
X112908Y710244D01*
X113009Y710291D01*
X113111Y710334D01*
X113214Y710374D01*
X113319Y710410D01*
X113425Y710442D01*
X113532Y710471D01*
X113640Y710496D01*
X113749Y710517D01*
X113858Y710534D01*
X113968Y710548D01*
X114079Y710557D01*
X114189Y710563D01*
X114300Y710565D01*
X119380Y710565D01*
X119491Y710563D01*
X119601Y710557D01*
X119712Y710548D01*
X119822Y710534D01*
X119931Y710517D01*
X120040Y710496D01*
X120148Y710471D01*
X120255Y710442D01*
X120361Y710410D01*
X120466Y710374D01*
X120569Y710334D01*
X120671Y710291D01*
X120772Y710244D01*
X120871Y710193D01*
X120968Y710140D01*
X121062Y710083D01*
X121155Y710022D01*
X121246Y709959D01*
X121335Y709892D01*
X121421Y709822D01*
X121504Y709749D01*
X121586Y709674D01*
X121664Y709596D01*
X121739Y709514D01*
X121812Y709431D01*
X121882Y709345D01*
X121949Y709256D01*
X122012Y709165D01*
X122073Y709072D01*
X122130Y708978D01*
X122183Y708881D01*
X122234Y708782D01*
X122281Y708681D01*
X122324Y708579D01*
X122364Y708476D01*
X122400Y708371D01*
X122432Y708265D01*
X122461Y708158D01*
X122486Y708050D01*
X122507Y707941D01*
X122524Y707832D01*
X122538Y707722D01*
X122547Y707611D01*
X122553Y707501D01*
X122555Y707390D01*
X122555Y704215D01*
X111125Y719519D02*
X111127Y719623D01*
X111133Y719728D01*
X111142Y719832D01*
X111155Y719935D01*
X111173Y720038D01*
X111193Y720140D01*
X111218Y720242D01*
X111246Y720342D01*
X111278Y720442D01*
X111314Y720540D01*
X111353Y720637D01*
X111395Y720732D01*
X111441Y720826D01*
X111491Y720918D01*
X111543Y721008D01*
X111599Y721096D01*
X111659Y721182D01*
X111721Y721266D01*
X111786Y721347D01*
X111854Y721426D01*
X111926Y721503D01*
X111999Y721576D01*
X112076Y721648D01*
X112155Y721716D01*
X112236Y721781D01*
X112320Y721843D01*
X112406Y721903D01*
X112494Y721959D01*
X112584Y722011D01*
X112676Y722061D01*
X112770Y722107D01*
X112865Y722149D01*
X112962Y722188D01*
X113060Y722224D01*
X113160Y722256D01*
X113260Y722284D01*
X113362Y722309D01*
X113464Y722329D01*
X113567Y722347D01*
X113670Y722360D01*
X113774Y722369D01*
X113879Y722375D01*
X113983Y722377D01*
X111125Y719519D02*
X111127Y719401D01*
X111133Y719282D01*
X111142Y719164D01*
X111155Y719047D01*
X111173Y718930D01*
X111193Y718813D01*
X111218Y718697D01*
X111246Y718582D01*
X111279Y718469D01*
X111314Y718356D01*
X111354Y718244D01*
X111396Y718134D01*
X111443Y718025D01*
X111493Y717917D01*
X111546Y717812D01*
X111603Y717708D01*
X111663Y717606D01*
X111726Y717506D01*
X111793Y717408D01*
X111862Y717312D01*
X111935Y717219D01*
X112011Y717128D01*
X112089Y717039D01*
X112171Y716953D01*
X112255Y716870D01*
X112341Y716789D01*
X112431Y716712D01*
X112522Y716637D01*
X112616Y716565D01*
X112713Y716496D01*
X112811Y716431D01*
X112912Y716368D01*
X113015Y716309D01*
X113119Y716253D01*
X113225Y716201D01*
X113333Y716152D01*
X113442Y716107D01*
X113553Y716065D01*
X113665Y716027D01*
X116205Y721424D02*
X116130Y721500D01*
X116051Y721575D01*
X115970Y721646D01*
X115886Y721715D01*
X115800Y721780D01*
X115712Y721842D01*
X115622Y721902D01*
X115530Y721958D01*
X115435Y722011D01*
X115339Y722060D01*
X115241Y722106D01*
X115142Y722149D01*
X115041Y722188D01*
X114939Y722223D01*
X114836Y722255D01*
X114732Y722283D01*
X114627Y722308D01*
X114520Y722329D01*
X114414Y722346D01*
X114307Y722359D01*
X114199Y722368D01*
X114091Y722374D01*
X113983Y722376D01*
X116205Y721424D02*
X122555Y716026D01*
X122555Y722376D01*
D10*
X165100Y311150D02*
X165100Y298450D01*
X165100Y311150D02*
X171450Y317500D01*
X184150Y317500D02*
X190500Y311150D01*
X171450Y317500D02*
X165100Y323850D01*
X165100Y336550D01*
X171450Y342900D01*
X184150Y342900D02*
X190500Y336550D01*
X190500Y323850D01*
X184150Y317500D01*
X184150Y292100D02*
X171450Y292100D01*
X165100Y298450D01*
X184150Y292100D02*
X190500Y298450D01*
X190500Y311150D01*
X171450Y342900D02*
X165100Y349250D01*
X165100Y361950D01*
X171450Y368300D01*
X184150Y368300D02*
X190500Y361950D01*
X190500Y349250D01*
X184150Y342900D01*
X165100Y374650D02*
X165100Y387350D01*
X171450Y393700D01*
X184150Y393700D01*
X190500Y387350D01*
X171450Y368300D02*
X165100Y374650D01*
X184150Y368300D02*
X190500Y374650D01*
X190500Y387350D01*
D12*
X172085Y284480D02*
X174625Y281305D01*
X172085Y284480D02*
X183515Y284480D01*
X183515Y281305D02*
X183515Y287655D01*
X180975Y396875D02*
X172085Y399415D01*
X180975Y396875D02*
X180975Y403225D01*
X178435Y401320D02*
X183515Y401320D01*
X160655Y292735D02*
X149225Y292735D01*
X149225Y295910D01*
X149227Y296021D01*
X149233Y296131D01*
X149242Y296242D01*
X149256Y296352D01*
X149273Y296461D01*
X149294Y296570D01*
X149319Y296678D01*
X149348Y296785D01*
X149380Y296891D01*
X149416Y296996D01*
X149456Y297099D01*
X149499Y297201D01*
X149546Y297302D01*
X149597Y297401D01*
X149650Y297498D01*
X149707Y297592D01*
X149768Y297685D01*
X149831Y297776D01*
X149898Y297865D01*
X149968Y297951D01*
X150041Y298034D01*
X150116Y298116D01*
X150194Y298194D01*
X150276Y298269D01*
X150359Y298342D01*
X150445Y298412D01*
X150534Y298479D01*
X150625Y298542D01*
X150718Y298603D01*
X150813Y298660D01*
X150909Y298713D01*
X151008Y298764D01*
X151109Y298811D01*
X151211Y298854D01*
X151314Y298894D01*
X151419Y298930D01*
X151525Y298962D01*
X151632Y298991D01*
X151740Y299016D01*
X151849Y299037D01*
X151958Y299054D01*
X152068Y299068D01*
X152179Y299077D01*
X152289Y299083D01*
X152400Y299085D01*
X152511Y299083D01*
X152621Y299077D01*
X152732Y299068D01*
X152842Y299054D01*
X152951Y299037D01*
X153060Y299016D01*
X153168Y298991D01*
X153275Y298962D01*
X153381Y298930D01*
X153486Y298894D01*
X153589Y298854D01*
X153691Y298811D01*
X153792Y298764D01*
X153891Y298713D01*
X153988Y298660D01*
X154082Y298603D01*
X154175Y298542D01*
X154266Y298479D01*
X154355Y298412D01*
X154441Y298342D01*
X154524Y298269D01*
X154606Y298194D01*
X154684Y298116D01*
X154759Y298034D01*
X154832Y297951D01*
X154902Y297865D01*
X154969Y297776D01*
X155032Y297685D01*
X155093Y297592D01*
X155150Y297498D01*
X155203Y297401D01*
X155254Y297302D01*
X155301Y297201D01*
X155344Y297099D01*
X155384Y296996D01*
X155420Y296891D01*
X155452Y296785D01*
X155481Y296678D01*
X155506Y296570D01*
X155527Y296461D01*
X155544Y296352D01*
X155558Y296242D01*
X155567Y296131D01*
X155573Y296021D01*
X155575Y295910D01*
X155575Y292735D01*
X160655Y304057D02*
X149225Y304057D01*
X149225Y307232D01*
X149227Y307343D01*
X149233Y307453D01*
X149242Y307564D01*
X149256Y307674D01*
X149273Y307783D01*
X149294Y307892D01*
X149319Y308000D01*
X149348Y308107D01*
X149380Y308213D01*
X149416Y308318D01*
X149456Y308421D01*
X149499Y308523D01*
X149546Y308624D01*
X149597Y308723D01*
X149650Y308820D01*
X149707Y308914D01*
X149768Y309007D01*
X149831Y309098D01*
X149898Y309187D01*
X149968Y309273D01*
X150041Y309356D01*
X150116Y309438D01*
X150194Y309516D01*
X150276Y309591D01*
X150359Y309664D01*
X150445Y309734D01*
X150534Y309801D01*
X150625Y309864D01*
X150718Y309925D01*
X150813Y309982D01*
X150909Y310035D01*
X151008Y310086D01*
X151109Y310133D01*
X151211Y310176D01*
X151314Y310216D01*
X151419Y310252D01*
X151525Y310284D01*
X151632Y310313D01*
X151740Y310338D01*
X151849Y310359D01*
X151958Y310376D01*
X152068Y310390D01*
X152179Y310399D01*
X152289Y310405D01*
X152400Y310407D01*
X152511Y310405D01*
X152621Y310399D01*
X152732Y310390D01*
X152842Y310376D01*
X152951Y310359D01*
X153060Y310338D01*
X153168Y310313D01*
X153275Y310284D01*
X153381Y310252D01*
X153486Y310216D01*
X153589Y310176D01*
X153691Y310133D01*
X153792Y310086D01*
X153891Y310035D01*
X153988Y309982D01*
X154082Y309925D01*
X154175Y309864D01*
X154266Y309801D01*
X154355Y309734D01*
X154441Y309664D01*
X154524Y309591D01*
X154606Y309516D01*
X154684Y309438D01*
X154759Y309356D01*
X154832Y309273D01*
X154902Y309187D01*
X154969Y309098D01*
X155032Y309007D01*
X155093Y308914D01*
X155150Y308820D01*
X155203Y308723D01*
X155254Y308624D01*
X155301Y308523D01*
X155344Y308421D01*
X155384Y308318D01*
X155420Y308213D01*
X155452Y308107D01*
X155481Y308000D01*
X155506Y307892D01*
X155527Y307783D01*
X155544Y307674D01*
X155558Y307564D01*
X155567Y307453D01*
X155573Y307343D01*
X155575Y307232D01*
X155575Y304057D01*
X155575Y307867D02*
X160655Y310407D01*
X157480Y315404D02*
X152400Y315404D01*
X152289Y315406D01*
X152179Y315412D01*
X152068Y315421D01*
X151958Y315435D01*
X151849Y315452D01*
X151740Y315473D01*
X151632Y315498D01*
X151525Y315527D01*
X151419Y315559D01*
X151314Y315595D01*
X151211Y315635D01*
X151109Y315678D01*
X151008Y315725D01*
X150909Y315776D01*
X150813Y315829D01*
X150718Y315886D01*
X150625Y315947D01*
X150534Y316010D01*
X150445Y316077D01*
X150359Y316147D01*
X150276Y316220D01*
X150194Y316295D01*
X150116Y316373D01*
X150041Y316455D01*
X149968Y316538D01*
X149898Y316624D01*
X149831Y316713D01*
X149768Y316804D01*
X149707Y316897D01*
X149650Y316992D01*
X149597Y317088D01*
X149546Y317187D01*
X149499Y317288D01*
X149456Y317390D01*
X149416Y317493D01*
X149380Y317598D01*
X149348Y317704D01*
X149319Y317811D01*
X149294Y317919D01*
X149273Y318028D01*
X149256Y318137D01*
X149242Y318247D01*
X149233Y318358D01*
X149227Y318468D01*
X149225Y318579D01*
X149227Y318690D01*
X149233Y318800D01*
X149242Y318911D01*
X149256Y319021D01*
X149273Y319130D01*
X149294Y319239D01*
X149319Y319347D01*
X149348Y319454D01*
X149380Y319560D01*
X149416Y319665D01*
X149456Y319768D01*
X149499Y319870D01*
X149546Y319971D01*
X149597Y320070D01*
X149650Y320167D01*
X149707Y320261D01*
X149768Y320354D01*
X149831Y320445D01*
X149898Y320534D01*
X149968Y320620D01*
X150041Y320703D01*
X150116Y320785D01*
X150194Y320863D01*
X150276Y320938D01*
X150359Y321011D01*
X150445Y321081D01*
X150534Y321148D01*
X150625Y321211D01*
X150718Y321272D01*
X150813Y321329D01*
X150909Y321382D01*
X151008Y321433D01*
X151109Y321480D01*
X151211Y321523D01*
X151314Y321563D01*
X151419Y321599D01*
X151525Y321631D01*
X151632Y321660D01*
X151740Y321685D01*
X151849Y321706D01*
X151958Y321723D01*
X152068Y321737D01*
X152179Y321746D01*
X152289Y321752D01*
X152400Y321754D01*
X157480Y321754D01*
X157591Y321752D01*
X157701Y321746D01*
X157812Y321737D01*
X157922Y321723D01*
X158031Y321706D01*
X158140Y321685D01*
X158248Y321660D01*
X158355Y321631D01*
X158461Y321599D01*
X158566Y321563D01*
X158669Y321523D01*
X158771Y321480D01*
X158872Y321433D01*
X158971Y321382D01*
X159068Y321329D01*
X159162Y321272D01*
X159255Y321211D01*
X159346Y321148D01*
X159435Y321081D01*
X159521Y321011D01*
X159604Y320938D01*
X159686Y320863D01*
X159764Y320785D01*
X159839Y320703D01*
X159912Y320620D01*
X159982Y320534D01*
X160049Y320445D01*
X160112Y320354D01*
X160173Y320261D01*
X160230Y320166D01*
X160283Y320070D01*
X160334Y319971D01*
X160381Y319870D01*
X160424Y319768D01*
X160464Y319665D01*
X160500Y319560D01*
X160532Y319454D01*
X160561Y319347D01*
X160586Y319239D01*
X160607Y319130D01*
X160624Y319021D01*
X160638Y318911D01*
X160647Y318800D01*
X160653Y318690D01*
X160655Y318579D01*
X160653Y318468D01*
X160647Y318358D01*
X160638Y318247D01*
X160624Y318137D01*
X160607Y318028D01*
X160586Y317919D01*
X160561Y317811D01*
X160532Y317704D01*
X160500Y317598D01*
X160464Y317493D01*
X160424Y317390D01*
X160381Y317288D01*
X160334Y317187D01*
X160283Y317088D01*
X160230Y316991D01*
X160173Y316897D01*
X160112Y316804D01*
X160049Y316713D01*
X159982Y316624D01*
X159912Y316538D01*
X159839Y316455D01*
X159764Y316373D01*
X159686Y316295D01*
X159604Y316220D01*
X159521Y316147D01*
X159435Y316077D01*
X159346Y316010D01*
X159255Y315947D01*
X159162Y315886D01*
X159067Y315829D01*
X158971Y315776D01*
X158872Y315725D01*
X158771Y315678D01*
X158669Y315635D01*
X158566Y315595D01*
X158461Y315559D01*
X158355Y315527D01*
X158248Y315498D01*
X158140Y315473D01*
X158031Y315452D01*
X157922Y315435D01*
X157812Y315421D01*
X157701Y315412D01*
X157591Y315406D01*
X157480Y315404D01*
X154305Y327406D02*
X154305Y330581D01*
X154307Y330692D01*
X154313Y330802D01*
X154322Y330913D01*
X154336Y331023D01*
X154353Y331132D01*
X154374Y331241D01*
X154399Y331349D01*
X154428Y331456D01*
X154460Y331562D01*
X154496Y331667D01*
X154536Y331770D01*
X154579Y331872D01*
X154626Y331973D01*
X154677Y332072D01*
X154730Y332169D01*
X154787Y332263D01*
X154848Y332356D01*
X154911Y332447D01*
X154978Y332536D01*
X155048Y332622D01*
X155121Y332705D01*
X155196Y332787D01*
X155274Y332865D01*
X155356Y332940D01*
X155439Y333013D01*
X155525Y333083D01*
X155614Y333150D01*
X155705Y333213D01*
X155798Y333274D01*
X155893Y333331D01*
X155989Y333384D01*
X156088Y333435D01*
X156189Y333482D01*
X156291Y333525D01*
X156394Y333565D01*
X156499Y333601D01*
X156605Y333633D01*
X156712Y333662D01*
X156820Y333687D01*
X156929Y333708D01*
X157038Y333725D01*
X157148Y333739D01*
X157259Y333748D01*
X157369Y333754D01*
X157480Y333756D01*
X157591Y333754D01*
X157701Y333748D01*
X157812Y333739D01*
X157922Y333725D01*
X158031Y333708D01*
X158140Y333687D01*
X158248Y333662D01*
X158355Y333633D01*
X158461Y333601D01*
X158566Y333565D01*
X158669Y333525D01*
X158771Y333482D01*
X158872Y333435D01*
X158971Y333384D01*
X159068Y333331D01*
X159162Y333274D01*
X159255Y333213D01*
X159346Y333150D01*
X159435Y333083D01*
X159521Y333013D01*
X159604Y332940D01*
X159686Y332865D01*
X159764Y332787D01*
X159839Y332705D01*
X159912Y332622D01*
X159982Y332536D01*
X160049Y332447D01*
X160112Y332356D01*
X160173Y332263D01*
X160230Y332169D01*
X160283Y332072D01*
X160334Y331973D01*
X160381Y331872D01*
X160424Y331770D01*
X160464Y331667D01*
X160500Y331562D01*
X160532Y331456D01*
X160561Y331349D01*
X160586Y331241D01*
X160607Y331132D01*
X160624Y331023D01*
X160638Y330913D01*
X160647Y330802D01*
X160653Y330692D01*
X160655Y330581D01*
X160655Y327406D01*
X149225Y327406D01*
X149225Y330581D01*
X149227Y330681D01*
X149233Y330780D01*
X149243Y330880D01*
X149256Y330978D01*
X149274Y331077D01*
X149295Y331174D01*
X149320Y331270D01*
X149349Y331366D01*
X149382Y331460D01*
X149418Y331553D01*
X149458Y331644D01*
X149502Y331734D01*
X149549Y331822D01*
X149599Y331908D01*
X149653Y331992D01*
X149710Y332074D01*
X149770Y332153D01*
X149834Y332231D01*
X149900Y332305D01*
X149969Y332377D01*
X150041Y332446D01*
X150115Y332512D01*
X150193Y332576D01*
X150272Y332636D01*
X150354Y332693D01*
X150438Y332747D01*
X150524Y332797D01*
X150612Y332844D01*
X150702Y332888D01*
X150793Y332928D01*
X150886Y332964D01*
X150980Y332997D01*
X151076Y333026D01*
X151172Y333051D01*
X151269Y333072D01*
X151368Y333090D01*
X151466Y333103D01*
X151566Y333113D01*
X151665Y333119D01*
X151765Y333121D01*
X151865Y333119D01*
X151964Y333113D01*
X152064Y333103D01*
X152162Y333090D01*
X152261Y333072D01*
X152358Y333051D01*
X152454Y333026D01*
X152550Y332997D01*
X152644Y332964D01*
X152737Y332928D01*
X152828Y332888D01*
X152918Y332844D01*
X153006Y332797D01*
X153092Y332747D01*
X153176Y332693D01*
X153258Y332636D01*
X153337Y332576D01*
X153415Y332512D01*
X153489Y332446D01*
X153561Y332377D01*
X153630Y332305D01*
X153696Y332231D01*
X153760Y332153D01*
X153820Y332074D01*
X153877Y331992D01*
X153931Y331908D01*
X153981Y331822D01*
X154028Y331734D01*
X154072Y331644D01*
X154112Y331553D01*
X154148Y331460D01*
X154181Y331366D01*
X154210Y331270D01*
X154235Y331174D01*
X154256Y331077D01*
X154274Y330978D01*
X154287Y330880D01*
X154297Y330780D01*
X154303Y330681D01*
X154305Y330581D01*
X160655Y338671D02*
X160655Y343751D01*
X160655Y338671D02*
X149225Y338671D01*
X149225Y343751D01*
X154305Y342481D02*
X154305Y338671D01*
X152400Y348170D02*
X157480Y348170D01*
X152400Y348170D02*
X152289Y348172D01*
X152179Y348178D01*
X152068Y348187D01*
X151958Y348201D01*
X151849Y348218D01*
X151740Y348239D01*
X151632Y348264D01*
X151525Y348293D01*
X151419Y348325D01*
X151314Y348361D01*
X151211Y348401D01*
X151109Y348444D01*
X151008Y348491D01*
X150909Y348542D01*
X150813Y348595D01*
X150718Y348652D01*
X150625Y348713D01*
X150534Y348776D01*
X150445Y348843D01*
X150359Y348913D01*
X150276Y348986D01*
X150194Y349061D01*
X150116Y349139D01*
X150041Y349221D01*
X149968Y349304D01*
X149898Y349390D01*
X149831Y349479D01*
X149768Y349570D01*
X149707Y349663D01*
X149650Y349758D01*
X149597Y349854D01*
X149546Y349953D01*
X149499Y350054D01*
X149456Y350156D01*
X149416Y350259D01*
X149380Y350364D01*
X149348Y350470D01*
X149319Y350577D01*
X149294Y350685D01*
X149273Y350794D01*
X149256Y350903D01*
X149242Y351013D01*
X149233Y351124D01*
X149227Y351234D01*
X149225Y351345D01*
X149227Y351456D01*
X149233Y351566D01*
X149242Y351677D01*
X149256Y351787D01*
X149273Y351896D01*
X149294Y352005D01*
X149319Y352113D01*
X149348Y352220D01*
X149380Y352326D01*
X149416Y352431D01*
X149456Y352534D01*
X149499Y352636D01*
X149546Y352737D01*
X149597Y352836D01*
X149650Y352933D01*
X149707Y353027D01*
X149768Y353120D01*
X149831Y353211D01*
X149898Y353300D01*
X149968Y353386D01*
X150041Y353469D01*
X150116Y353551D01*
X150194Y353629D01*
X150276Y353704D01*
X150359Y353777D01*
X150445Y353847D01*
X150534Y353914D01*
X150625Y353977D01*
X150718Y354038D01*
X150813Y354095D01*
X150909Y354148D01*
X151008Y354199D01*
X151109Y354246D01*
X151211Y354289D01*
X151314Y354329D01*
X151419Y354365D01*
X151525Y354397D01*
X151632Y354426D01*
X151740Y354451D01*
X151849Y354472D01*
X151958Y354489D01*
X152068Y354503D01*
X152179Y354512D01*
X152289Y354518D01*
X152400Y354520D01*
X157480Y354520D01*
X157591Y354518D01*
X157701Y354512D01*
X157812Y354503D01*
X157922Y354489D01*
X158031Y354472D01*
X158140Y354451D01*
X158248Y354426D01*
X158355Y354397D01*
X158461Y354365D01*
X158566Y354329D01*
X158669Y354289D01*
X158771Y354246D01*
X158872Y354199D01*
X158971Y354148D01*
X159068Y354095D01*
X159162Y354038D01*
X159255Y353977D01*
X159346Y353914D01*
X159435Y353847D01*
X159521Y353777D01*
X159604Y353704D01*
X159686Y353629D01*
X159764Y353551D01*
X159839Y353469D01*
X159912Y353386D01*
X159982Y353300D01*
X160049Y353211D01*
X160112Y353120D01*
X160173Y353027D01*
X160230Y352932D01*
X160283Y352836D01*
X160334Y352737D01*
X160381Y352636D01*
X160424Y352534D01*
X160464Y352431D01*
X160500Y352326D01*
X160532Y352220D01*
X160561Y352113D01*
X160586Y352005D01*
X160607Y351896D01*
X160624Y351787D01*
X160638Y351677D01*
X160647Y351566D01*
X160653Y351456D01*
X160655Y351345D01*
X160653Y351234D01*
X160647Y351124D01*
X160638Y351013D01*
X160624Y350903D01*
X160607Y350794D01*
X160586Y350685D01*
X160561Y350577D01*
X160532Y350470D01*
X160500Y350364D01*
X160464Y350259D01*
X160424Y350156D01*
X160381Y350054D01*
X160334Y349953D01*
X160283Y349854D01*
X160230Y349757D01*
X160173Y349663D01*
X160112Y349570D01*
X160049Y349479D01*
X159982Y349390D01*
X159912Y349304D01*
X159839Y349221D01*
X159764Y349139D01*
X159686Y349061D01*
X159604Y348986D01*
X159521Y348913D01*
X159435Y348843D01*
X159346Y348776D01*
X159255Y348713D01*
X159162Y348652D01*
X159067Y348595D01*
X158971Y348542D01*
X158872Y348491D01*
X158771Y348444D01*
X158669Y348401D01*
X158566Y348361D01*
X158461Y348325D01*
X158355Y348293D01*
X158248Y348264D01*
X158140Y348239D01*
X158031Y348218D01*
X157922Y348201D01*
X157812Y348187D01*
X157701Y348178D01*
X157591Y348172D01*
X157480Y348170D01*
X157480Y359981D02*
X149225Y359981D01*
X157480Y359981D02*
X157591Y359983D01*
X157701Y359989D01*
X157812Y359998D01*
X157922Y360012D01*
X158031Y360029D01*
X158140Y360050D01*
X158248Y360075D01*
X158355Y360104D01*
X158461Y360136D01*
X158566Y360172D01*
X158669Y360212D01*
X158771Y360255D01*
X158872Y360302D01*
X158971Y360353D01*
X159067Y360406D01*
X159162Y360463D01*
X159255Y360524D01*
X159346Y360587D01*
X159435Y360654D01*
X159521Y360724D01*
X159604Y360797D01*
X159686Y360872D01*
X159764Y360950D01*
X159839Y361032D01*
X159912Y361115D01*
X159982Y361201D01*
X160049Y361290D01*
X160112Y361381D01*
X160173Y361474D01*
X160230Y361568D01*
X160283Y361665D01*
X160334Y361764D01*
X160381Y361865D01*
X160424Y361967D01*
X160464Y362070D01*
X160500Y362175D01*
X160532Y362281D01*
X160561Y362388D01*
X160586Y362496D01*
X160607Y362605D01*
X160624Y362714D01*
X160638Y362824D01*
X160647Y362935D01*
X160653Y363045D01*
X160655Y363156D01*
X160653Y363267D01*
X160647Y363377D01*
X160638Y363488D01*
X160624Y363598D01*
X160607Y363707D01*
X160586Y363816D01*
X160561Y363924D01*
X160532Y364031D01*
X160500Y364137D01*
X160464Y364242D01*
X160424Y364345D01*
X160381Y364447D01*
X160334Y364548D01*
X160283Y364647D01*
X160230Y364743D01*
X160173Y364838D01*
X160112Y364931D01*
X160049Y365022D01*
X159982Y365111D01*
X159912Y365197D01*
X159839Y365280D01*
X159764Y365362D01*
X159686Y365440D01*
X159604Y365515D01*
X159521Y365588D01*
X159435Y365658D01*
X159346Y365725D01*
X159255Y365788D01*
X159162Y365849D01*
X159068Y365906D01*
X158971Y365959D01*
X158872Y366010D01*
X158771Y366057D01*
X158669Y366100D01*
X158566Y366140D01*
X158461Y366176D01*
X158355Y366208D01*
X158248Y366237D01*
X158140Y366262D01*
X158031Y366283D01*
X157922Y366300D01*
X157812Y366314D01*
X157701Y366323D01*
X157591Y366329D01*
X157480Y366331D01*
X149225Y366331D01*
X149225Y374205D02*
X160655Y374205D01*
X149225Y371030D02*
X149225Y377380D01*
X283854Y491491D02*
X283467Y491995D01*
X283091Y492508D01*
X282728Y493030D01*
X282377Y493560D01*
X282040Y494098D01*
X281715Y494645D01*
X281403Y495199D01*
X281104Y495760D01*
X280819Y496329D01*
X280548Y496904D01*
X280290Y497485D01*
X280047Y498072D01*
X279817Y498665D01*
X279602Y499263D01*
X279401Y499866D01*
X279214Y500474D01*
X279042Y501086D01*
X278884Y501702D01*
X278742Y502322D01*
X278614Y502944D01*
X278501Y503570D01*
X278402Y504198D01*
X278319Y504828D01*
X278251Y505461D01*
X278251Y505460D02*
X278197Y506109D01*
X278159Y506758D01*
X278137Y507409D01*
X278130Y508060D01*
X278139Y508711D01*
X278165Y509361D01*
X278206Y510011D01*
X278263Y510659D01*
X278336Y511306D01*
X278424Y511951D01*
X278529Y512594D01*
X278649Y513234D01*
X278784Y513870D01*
X278935Y514504D01*
X279102Y515133D01*
X279283Y515758D01*
X279480Y516379D01*
X279692Y516994D01*
X279919Y517604D01*
X280161Y518209D01*
X280418Y518807D01*
X280689Y519399D01*
X280974Y519984D01*
X281274Y520562D01*
X281587Y521132D01*
X281915Y521695D01*
X282256Y522249D01*
X282610Y522795D01*
X282978Y523332D01*
X283359Y523861D01*
X283752Y524379D01*
X284158Y524888D01*
X284576Y525387D01*
X285007Y525875D01*
X285449Y526353D01*
X285903Y526820D01*
X286368Y527275D01*
X286844Y527719D01*
X287330Y528152D01*
X287827Y528572D01*
X288334Y528980D01*
X288851Y529376D01*
X289378Y529759D01*
X289914Y530129D01*
X290458Y530486D01*
X291011Y530829D01*
X291572Y531159D01*
X292142Y531475D01*
X292718Y531777D01*
X293302Y532064D01*
X293893Y532338D01*
X294490Y532597D01*
X295094Y532841D01*
X295703Y533071D01*
X296317Y533285D01*
X296937Y533485D01*
X312663Y533485D02*
X313278Y533286D01*
X313889Y533074D01*
X314494Y532846D01*
X315093Y532604D01*
X315686Y532347D01*
X316273Y532076D01*
X316853Y531791D01*
X317426Y531492D01*
X317992Y531179D01*
X318550Y530852D01*
X319100Y530512D01*
X319641Y530159D01*
X320174Y529793D01*
X320697Y529414D01*
X321212Y529022D01*
X321716Y528619D01*
X322211Y528202D01*
X322696Y527775D01*
X323170Y527335D01*
X323633Y526884D01*
X324085Y526422D01*
X324526Y525949D01*
X324955Y525466D01*
X325372Y524972D01*
X325778Y524469D01*
X326171Y523956D01*
X326551Y523433D01*
X326919Y522901D01*
X327273Y522361D01*
X327615Y521812D01*
X327943Y521255D01*
X328257Y520690D01*
X328558Y520118D01*
X328845Y519539D01*
X329117Y518952D01*
X329376Y518360D01*
X329619Y517761D01*
X329849Y517157D01*
X330063Y516547D01*
X330263Y515932D01*
X330448Y515313D01*
X330618Y514689D01*
X330772Y514061D01*
X330911Y513430D01*
X331035Y512796D01*
X331144Y512158D01*
X331237Y511519D01*
X331314Y510877D01*
X331376Y510234D01*
X331423Y509589D01*
X331453Y508943D01*
X331468Y508297D01*
X331468Y507651D01*
X331451Y507004D01*
X331419Y506359D01*
X331372Y505714D01*
X331309Y505071D01*
X331230Y504429D01*
X331136Y503790D01*
X331026Y503153D01*
X330901Y502518D01*
X330760Y501887D01*
X330604Y501260D01*
X330433Y500637D01*
X330247Y500018D01*
X330046Y499403D01*
X329831Y498794D01*
X329600Y498190D01*
X329355Y497592D01*
X329096Y497000D01*
X328822Y496414D01*
X328534Y495835D01*
X328232Y495264D01*
X327917Y494699D01*
X327588Y494143D01*
X327245Y493595D01*
X326889Y493055D01*
X326521Y492524D01*
X326139Y492002D01*
X325745Y491490D01*
X283855Y491490D01*
X282263Y505460D02*
X278251Y505460D01*
X301937Y505460D02*
X307663Y505460D01*
X327337Y505460D02*
X331349Y505460D01*
X340360Y514985D02*
X345440Y514985D01*
X340360Y514985D02*
X340249Y514987D01*
X340139Y514993D01*
X340028Y515002D01*
X339918Y515016D01*
X339809Y515033D01*
X339700Y515054D01*
X339592Y515079D01*
X339485Y515108D01*
X339379Y515140D01*
X339274Y515176D01*
X339171Y515216D01*
X339069Y515259D01*
X338968Y515306D01*
X338869Y515357D01*
X338773Y515410D01*
X338678Y515467D01*
X338585Y515528D01*
X338494Y515591D01*
X338405Y515658D01*
X338319Y515728D01*
X338236Y515801D01*
X338154Y515876D01*
X338076Y515954D01*
X338001Y516036D01*
X337928Y516119D01*
X337858Y516205D01*
X337791Y516294D01*
X337728Y516385D01*
X337667Y516478D01*
X337610Y516573D01*
X337557Y516669D01*
X337506Y516768D01*
X337459Y516869D01*
X337416Y516971D01*
X337376Y517074D01*
X337340Y517179D01*
X337308Y517285D01*
X337279Y517392D01*
X337254Y517500D01*
X337233Y517609D01*
X337216Y517718D01*
X337202Y517828D01*
X337193Y517939D01*
X337187Y518049D01*
X337185Y518160D01*
X337187Y518271D01*
X337193Y518381D01*
X337202Y518492D01*
X337216Y518602D01*
X337233Y518711D01*
X337254Y518820D01*
X337279Y518928D01*
X337308Y519035D01*
X337340Y519141D01*
X337376Y519246D01*
X337416Y519349D01*
X337459Y519451D01*
X337506Y519552D01*
X337557Y519651D01*
X337610Y519748D01*
X337667Y519842D01*
X337728Y519935D01*
X337791Y520026D01*
X337858Y520115D01*
X337928Y520201D01*
X338001Y520284D01*
X338076Y520366D01*
X338154Y520444D01*
X338236Y520519D01*
X338319Y520592D01*
X338405Y520662D01*
X338494Y520729D01*
X338585Y520792D01*
X338678Y520853D01*
X338773Y520910D01*
X338869Y520963D01*
X338968Y521014D01*
X339069Y521061D01*
X339171Y521104D01*
X339274Y521144D01*
X339379Y521180D01*
X339485Y521212D01*
X339592Y521241D01*
X339700Y521266D01*
X339809Y521287D01*
X339918Y521304D01*
X340028Y521318D01*
X340139Y521327D01*
X340249Y521333D01*
X340360Y521335D01*
X345440Y521335D01*
X345551Y521333D01*
X345661Y521327D01*
X345772Y521318D01*
X345882Y521304D01*
X345991Y521287D01*
X346100Y521266D01*
X346208Y521241D01*
X346315Y521212D01*
X346421Y521180D01*
X346526Y521144D01*
X346629Y521104D01*
X346731Y521061D01*
X346832Y521014D01*
X346931Y520963D01*
X347028Y520910D01*
X347122Y520853D01*
X347215Y520792D01*
X347306Y520729D01*
X347395Y520662D01*
X347481Y520592D01*
X347564Y520519D01*
X347646Y520444D01*
X347724Y520366D01*
X347799Y520284D01*
X347872Y520201D01*
X347942Y520115D01*
X348009Y520026D01*
X348072Y519935D01*
X348133Y519842D01*
X348190Y519747D01*
X348243Y519651D01*
X348294Y519552D01*
X348341Y519451D01*
X348384Y519349D01*
X348424Y519246D01*
X348460Y519141D01*
X348492Y519035D01*
X348521Y518928D01*
X348546Y518820D01*
X348567Y518711D01*
X348584Y518602D01*
X348598Y518492D01*
X348607Y518381D01*
X348613Y518271D01*
X348615Y518160D01*
X348613Y518049D01*
X348607Y517939D01*
X348598Y517828D01*
X348584Y517718D01*
X348567Y517609D01*
X348546Y517500D01*
X348521Y517392D01*
X348492Y517285D01*
X348460Y517179D01*
X348424Y517074D01*
X348384Y516971D01*
X348341Y516869D01*
X348294Y516768D01*
X348243Y516669D01*
X348190Y516572D01*
X348133Y516478D01*
X348072Y516385D01*
X348009Y516294D01*
X347942Y516205D01*
X347872Y516119D01*
X347799Y516036D01*
X347724Y515954D01*
X347646Y515876D01*
X347564Y515801D01*
X347481Y515728D01*
X347395Y515658D01*
X347306Y515591D01*
X347215Y515528D01*
X347122Y515467D01*
X347028Y515410D01*
X346931Y515357D01*
X346832Y515306D01*
X346731Y515259D01*
X346629Y515216D01*
X346526Y515176D01*
X346421Y515140D01*
X346315Y515108D01*
X346208Y515079D01*
X346100Y515054D01*
X345991Y515033D01*
X345882Y515016D01*
X345772Y515002D01*
X345661Y514993D01*
X345551Y514987D01*
X345440Y514985D01*
X346075Y520065D02*
X348615Y522605D01*
X339725Y526046D02*
X337185Y529221D01*
X348615Y529221D01*
X348615Y526046D02*
X348615Y532396D01*
X354451Y353061D02*
X354519Y352428D01*
X354602Y351798D01*
X354701Y351170D01*
X354814Y350544D01*
X354942Y349922D01*
X355084Y349302D01*
X355242Y348686D01*
X355414Y348074D01*
X355601Y347466D01*
X355802Y346863D01*
X356017Y346265D01*
X356247Y345672D01*
X356490Y345085D01*
X356748Y344504D01*
X357019Y343929D01*
X357304Y343360D01*
X357603Y342799D01*
X357915Y342245D01*
X358240Y341698D01*
X358577Y341160D01*
X358928Y340630D01*
X359291Y340108D01*
X359667Y339595D01*
X360054Y339091D01*
X354451Y353060D02*
X354397Y353709D01*
X354359Y354358D01*
X354337Y355009D01*
X354330Y355660D01*
X354339Y356311D01*
X354365Y356961D01*
X354406Y357611D01*
X354463Y358259D01*
X354536Y358906D01*
X354624Y359551D01*
X354729Y360194D01*
X354849Y360834D01*
X354984Y361470D01*
X355135Y362104D01*
X355302Y362733D01*
X355483Y363358D01*
X355680Y363979D01*
X355892Y364594D01*
X356119Y365204D01*
X356361Y365809D01*
X356618Y366407D01*
X356889Y366999D01*
X357174Y367584D01*
X357474Y368162D01*
X357787Y368732D01*
X358115Y369295D01*
X358456Y369849D01*
X358810Y370395D01*
X359178Y370932D01*
X359559Y371461D01*
X359952Y371979D01*
X360358Y372488D01*
X360776Y372987D01*
X361207Y373475D01*
X361649Y373953D01*
X362103Y374420D01*
X362568Y374875D01*
X363044Y375319D01*
X363530Y375752D01*
X364027Y376172D01*
X364534Y376580D01*
X365051Y376976D01*
X365578Y377359D01*
X366114Y377729D01*
X366658Y378086D01*
X367211Y378429D01*
X367772Y378759D01*
X368342Y379075D01*
X368918Y379377D01*
X369502Y379664D01*
X370093Y379938D01*
X370690Y380197D01*
X371294Y380441D01*
X371903Y380671D01*
X372517Y380885D01*
X373137Y381085D01*
X388863Y381085D02*
X389478Y380886D01*
X390089Y380674D01*
X390694Y380446D01*
X391293Y380204D01*
X391886Y379947D01*
X392473Y379676D01*
X393053Y379391D01*
X393626Y379092D01*
X394192Y378779D01*
X394750Y378452D01*
X395300Y378112D01*
X395841Y377759D01*
X396374Y377393D01*
X396897Y377014D01*
X397412Y376622D01*
X397916Y376219D01*
X398411Y375802D01*
X398896Y375375D01*
X399370Y374935D01*
X399833Y374484D01*
X400285Y374022D01*
X400726Y373549D01*
X401155Y373066D01*
X401572Y372572D01*
X401978Y372069D01*
X402371Y371556D01*
X402751Y371033D01*
X403119Y370501D01*
X403473Y369961D01*
X403815Y369412D01*
X404143Y368855D01*
X404457Y368290D01*
X404758Y367718D01*
X405045Y367139D01*
X405317Y366552D01*
X405576Y365960D01*
X405819Y365361D01*
X406049Y364757D01*
X406263Y364147D01*
X406463Y363532D01*
X406648Y362913D01*
X406818Y362289D01*
X406972Y361661D01*
X407111Y361030D01*
X407235Y360396D01*
X407344Y359758D01*
X407437Y359119D01*
X407514Y358477D01*
X407576Y357834D01*
X407623Y357189D01*
X407653Y356543D01*
X407668Y355897D01*
X407668Y355251D01*
X407651Y354604D01*
X407619Y353959D01*
X407572Y353314D01*
X407509Y352671D01*
X407430Y352029D01*
X407336Y351390D01*
X407226Y350753D01*
X407101Y350118D01*
X406960Y349487D01*
X406804Y348860D01*
X406633Y348237D01*
X406447Y347618D01*
X406246Y347003D01*
X406031Y346394D01*
X405800Y345790D01*
X405555Y345192D01*
X405296Y344600D01*
X405022Y344014D01*
X404734Y343435D01*
X404432Y342864D01*
X404117Y342299D01*
X403788Y341743D01*
X403445Y341195D01*
X403089Y340655D01*
X402721Y340124D01*
X402339Y339602D01*
X401945Y339090D01*
X360055Y339090D01*
X358463Y353060D02*
X354451Y353060D01*
X378137Y353060D02*
X383863Y353060D01*
X403537Y353060D02*
X407549Y353060D01*
X362585Y391160D02*
X362585Y396240D01*
X362587Y396351D01*
X362593Y396461D01*
X362602Y396572D01*
X362616Y396682D01*
X362633Y396791D01*
X362654Y396900D01*
X362679Y397008D01*
X362708Y397115D01*
X362740Y397221D01*
X362776Y397326D01*
X362816Y397429D01*
X362859Y397531D01*
X362906Y397632D01*
X362957Y397731D01*
X363010Y397828D01*
X363067Y397922D01*
X363128Y398015D01*
X363191Y398106D01*
X363258Y398195D01*
X363328Y398281D01*
X363401Y398364D01*
X363476Y398446D01*
X363554Y398524D01*
X363636Y398599D01*
X363719Y398672D01*
X363805Y398742D01*
X363894Y398809D01*
X363985Y398872D01*
X364078Y398933D01*
X364173Y398990D01*
X364269Y399043D01*
X364368Y399094D01*
X364469Y399141D01*
X364571Y399184D01*
X364674Y399224D01*
X364779Y399260D01*
X364885Y399292D01*
X364992Y399321D01*
X365100Y399346D01*
X365209Y399367D01*
X365318Y399384D01*
X365428Y399398D01*
X365539Y399407D01*
X365649Y399413D01*
X365760Y399415D01*
X365871Y399413D01*
X365981Y399407D01*
X366092Y399398D01*
X366202Y399384D01*
X366311Y399367D01*
X366420Y399346D01*
X366528Y399321D01*
X366635Y399292D01*
X366741Y399260D01*
X366846Y399224D01*
X366949Y399184D01*
X367051Y399141D01*
X367152Y399094D01*
X367251Y399043D01*
X367348Y398990D01*
X367442Y398933D01*
X367535Y398872D01*
X367626Y398809D01*
X367715Y398742D01*
X367801Y398672D01*
X367884Y398599D01*
X367966Y398524D01*
X368044Y398446D01*
X368119Y398364D01*
X368192Y398281D01*
X368262Y398195D01*
X368329Y398106D01*
X368392Y398015D01*
X368453Y397922D01*
X368510Y397828D01*
X368563Y397731D01*
X368614Y397632D01*
X368661Y397531D01*
X368704Y397429D01*
X368744Y397326D01*
X368780Y397221D01*
X368812Y397115D01*
X368841Y397008D01*
X368866Y396900D01*
X368887Y396791D01*
X368904Y396682D01*
X368918Y396572D01*
X368927Y396461D01*
X368933Y396351D01*
X368935Y396240D01*
X368935Y391160D01*
X368933Y391049D01*
X368927Y390939D01*
X368918Y390828D01*
X368904Y390718D01*
X368887Y390609D01*
X368866Y390500D01*
X368841Y390392D01*
X368812Y390285D01*
X368780Y390179D01*
X368744Y390074D01*
X368704Y389971D01*
X368661Y389869D01*
X368614Y389768D01*
X368563Y389669D01*
X368510Y389572D01*
X368453Y389478D01*
X368392Y389385D01*
X368329Y389294D01*
X368262Y389205D01*
X368192Y389119D01*
X368119Y389036D01*
X368044Y388954D01*
X367966Y388876D01*
X367884Y388801D01*
X367801Y388728D01*
X367715Y388658D01*
X367626Y388591D01*
X367535Y388528D01*
X367442Y388467D01*
X367347Y388410D01*
X367251Y388357D01*
X367152Y388306D01*
X367051Y388259D01*
X366949Y388216D01*
X366846Y388176D01*
X366741Y388140D01*
X366635Y388108D01*
X366528Y388079D01*
X366420Y388054D01*
X366311Y388033D01*
X366202Y388016D01*
X366092Y388002D01*
X365981Y387993D01*
X365871Y387987D01*
X365760Y387985D01*
X365649Y387987D01*
X365539Y387993D01*
X365428Y388002D01*
X365318Y388016D01*
X365209Y388033D01*
X365100Y388054D01*
X364992Y388079D01*
X364885Y388108D01*
X364779Y388140D01*
X364674Y388176D01*
X364571Y388216D01*
X364469Y388259D01*
X364368Y388306D01*
X364269Y388357D01*
X364173Y388410D01*
X364078Y388467D01*
X363985Y388528D01*
X363894Y388591D01*
X363805Y388658D01*
X363719Y388728D01*
X363636Y388801D01*
X363554Y388876D01*
X363476Y388954D01*
X363401Y389036D01*
X363328Y389119D01*
X363258Y389205D01*
X363191Y389294D01*
X363128Y389385D01*
X363067Y389478D01*
X363010Y389573D01*
X362957Y389669D01*
X362906Y389768D01*
X362859Y389869D01*
X362816Y389971D01*
X362776Y390074D01*
X362740Y390179D01*
X362708Y390285D01*
X362679Y390392D01*
X362654Y390500D01*
X362633Y390609D01*
X362616Y390718D01*
X362602Y390828D01*
X362593Y390939D01*
X362587Y391049D01*
X362585Y391160D01*
X367665Y390525D02*
X370205Y387985D01*
X379996Y396558D02*
X379994Y396662D01*
X379988Y396767D01*
X379979Y396871D01*
X379966Y396974D01*
X379948Y397077D01*
X379928Y397179D01*
X379903Y397281D01*
X379875Y397381D01*
X379843Y397481D01*
X379807Y397579D01*
X379768Y397676D01*
X379726Y397771D01*
X379680Y397865D01*
X379630Y397957D01*
X379578Y398047D01*
X379522Y398135D01*
X379462Y398221D01*
X379400Y398305D01*
X379335Y398386D01*
X379267Y398465D01*
X379195Y398542D01*
X379122Y398615D01*
X379045Y398687D01*
X378966Y398755D01*
X378885Y398820D01*
X378801Y398882D01*
X378715Y398942D01*
X378627Y398998D01*
X378537Y399050D01*
X378445Y399100D01*
X378351Y399146D01*
X378256Y399188D01*
X378159Y399227D01*
X378061Y399263D01*
X377961Y399295D01*
X377861Y399323D01*
X377759Y399348D01*
X377657Y399368D01*
X377554Y399386D01*
X377451Y399399D01*
X377347Y399408D01*
X377242Y399414D01*
X377138Y399416D01*
X377138Y399415D02*
X377020Y399413D01*
X376901Y399407D01*
X376783Y399398D01*
X376666Y399385D01*
X376549Y399367D01*
X376432Y399347D01*
X376316Y399322D01*
X376201Y399294D01*
X376088Y399261D01*
X375975Y399226D01*
X375863Y399186D01*
X375753Y399144D01*
X375644Y399097D01*
X375536Y399047D01*
X375431Y398994D01*
X375327Y398937D01*
X375225Y398877D01*
X375125Y398814D01*
X375027Y398747D01*
X374931Y398678D01*
X374838Y398605D01*
X374747Y398529D01*
X374658Y398451D01*
X374572Y398369D01*
X374489Y398285D01*
X374408Y398199D01*
X374331Y398109D01*
X374256Y398018D01*
X374184Y397924D01*
X374115Y397827D01*
X374050Y397729D01*
X373987Y397628D01*
X373928Y397525D01*
X373872Y397421D01*
X373820Y397315D01*
X373771Y397207D01*
X373726Y397098D01*
X373684Y396987D01*
X373646Y396875D01*
X379043Y394336D02*
X379119Y394411D01*
X379194Y394490D01*
X379265Y394571D01*
X379334Y394655D01*
X379399Y394741D01*
X379461Y394829D01*
X379521Y394919D01*
X379577Y395011D01*
X379630Y395106D01*
X379679Y395202D01*
X379725Y395300D01*
X379768Y395399D01*
X379807Y395500D01*
X379842Y395602D01*
X379874Y395705D01*
X379902Y395809D01*
X379927Y395914D01*
X379948Y396021D01*
X379965Y396127D01*
X379978Y396234D01*
X379987Y396342D01*
X379993Y396450D01*
X379995Y396558D01*
X379043Y394335D02*
X373646Y387985D01*
X379996Y387985D01*
D10*
X436254Y491490D02*
X435860Y492003D01*
X435479Y492525D01*
X435110Y493056D01*
X434755Y493595D01*
X434412Y494144D01*
X434083Y494700D01*
X433767Y495264D01*
X433466Y495836D01*
X433178Y496415D01*
X432904Y497000D01*
X432645Y497592D01*
X432400Y498190D01*
X432169Y498794D01*
X431953Y499404D01*
X431752Y500018D01*
X431566Y500637D01*
X431396Y501261D01*
X431240Y501888D01*
X431099Y502519D01*
X430974Y503153D01*
X430864Y503790D01*
X430770Y504430D01*
X430691Y505071D01*
X430628Y505714D01*
X430581Y506359D01*
X430549Y507005D01*
X430532Y507651D01*
X430532Y508297D01*
X430547Y508944D01*
X430577Y509589D01*
X430624Y510234D01*
X430686Y510877D01*
X430763Y511519D01*
X430856Y512159D01*
X430965Y512796D01*
X431089Y513431D01*
X431228Y514062D01*
X431383Y514689D01*
X431552Y515313D01*
X431737Y515933D01*
X431937Y516547D01*
X432151Y517157D01*
X432381Y517762D01*
X432625Y518360D01*
X432883Y518953D01*
X433155Y519539D01*
X433442Y520118D01*
X433743Y520690D01*
X434057Y521255D01*
X434385Y521812D01*
X434727Y522361D01*
X435081Y522902D01*
X435449Y523433D01*
X435829Y523956D01*
X436222Y524469D01*
X436628Y524973D01*
X437045Y525466D01*
X437474Y525950D01*
X437915Y526422D01*
X438367Y526884D01*
X438831Y527335D01*
X439305Y527775D01*
X439789Y528203D01*
X440284Y528619D01*
X440788Y529023D01*
X441303Y529414D01*
X441826Y529793D01*
X442359Y530159D01*
X442901Y530513D01*
X443450Y530852D01*
X444008Y531179D01*
X444574Y531492D01*
X445147Y531791D01*
X445727Y532076D01*
X446314Y532347D01*
X446907Y532604D01*
X447506Y532846D01*
X448111Y533074D01*
X448722Y533287D01*
X449337Y533485D01*
X465068Y533485D02*
X465683Y533286D01*
X466294Y533074D01*
X466899Y532846D01*
X467498Y532604D01*
X468091Y532347D01*
X468678Y532076D01*
X469258Y531791D01*
X469831Y531492D01*
X470397Y531179D01*
X470955Y530852D01*
X471505Y530512D01*
X472046Y530159D01*
X472579Y529793D01*
X473102Y529414D01*
X473617Y529022D01*
X474121Y528619D01*
X474616Y528202D01*
X475101Y527775D01*
X475575Y527335D01*
X476038Y526884D01*
X476490Y526422D01*
X476931Y525949D01*
X477360Y525466D01*
X477777Y524972D01*
X478183Y524469D01*
X478576Y523956D01*
X478956Y523433D01*
X479324Y522901D01*
X479678Y522361D01*
X480020Y521812D01*
X480348Y521255D01*
X480662Y520690D01*
X480963Y520118D01*
X481250Y519539D01*
X481522Y518952D01*
X481781Y518360D01*
X482024Y517761D01*
X482254Y517157D01*
X482468Y516547D01*
X482668Y515932D01*
X482853Y515313D01*
X483023Y514689D01*
X483177Y514061D01*
X483316Y513430D01*
X483440Y512796D01*
X483549Y512158D01*
X483642Y511519D01*
X483719Y510877D01*
X483781Y510234D01*
X483828Y509589D01*
X483858Y508943D01*
X483873Y508297D01*
X483873Y507651D01*
X483856Y507004D01*
X483824Y506359D01*
X483777Y505714D01*
X483714Y505071D01*
X483635Y504429D01*
X483541Y503790D01*
X483431Y503153D01*
X483306Y502518D01*
X483165Y501887D01*
X483009Y501260D01*
X482838Y500637D01*
X482652Y500018D01*
X482451Y499403D01*
X482236Y498794D01*
X482005Y498190D01*
X481760Y497592D01*
X481501Y497000D01*
X481227Y496414D01*
X480939Y495835D01*
X480637Y495264D01*
X480322Y494699D01*
X479993Y494143D01*
X479650Y493595D01*
X479294Y493055D01*
X478926Y492524D01*
X478544Y492002D01*
X478150Y491490D01*
X436250Y491490D01*
X434660Y505460D02*
X430650Y505460D01*
X454340Y505460D02*
X460060Y505460D01*
X479740Y505460D02*
X483750Y505460D01*
D12*
X492760Y514985D02*
X497840Y514985D01*
X492760Y514985D02*
X492649Y514987D01*
X492539Y514993D01*
X492428Y515002D01*
X492318Y515016D01*
X492209Y515033D01*
X492100Y515054D01*
X491992Y515079D01*
X491885Y515108D01*
X491779Y515140D01*
X491674Y515176D01*
X491571Y515216D01*
X491469Y515259D01*
X491368Y515306D01*
X491269Y515357D01*
X491173Y515410D01*
X491078Y515467D01*
X490985Y515528D01*
X490894Y515591D01*
X490805Y515658D01*
X490719Y515728D01*
X490636Y515801D01*
X490554Y515876D01*
X490476Y515954D01*
X490401Y516036D01*
X490328Y516119D01*
X490258Y516205D01*
X490191Y516294D01*
X490128Y516385D01*
X490067Y516478D01*
X490010Y516573D01*
X489957Y516669D01*
X489906Y516768D01*
X489859Y516869D01*
X489816Y516971D01*
X489776Y517074D01*
X489740Y517179D01*
X489708Y517285D01*
X489679Y517392D01*
X489654Y517500D01*
X489633Y517609D01*
X489616Y517718D01*
X489602Y517828D01*
X489593Y517939D01*
X489587Y518049D01*
X489585Y518160D01*
X489587Y518271D01*
X489593Y518381D01*
X489602Y518492D01*
X489616Y518602D01*
X489633Y518711D01*
X489654Y518820D01*
X489679Y518928D01*
X489708Y519035D01*
X489740Y519141D01*
X489776Y519246D01*
X489816Y519349D01*
X489859Y519451D01*
X489906Y519552D01*
X489957Y519651D01*
X490010Y519748D01*
X490067Y519842D01*
X490128Y519935D01*
X490191Y520026D01*
X490258Y520115D01*
X490328Y520201D01*
X490401Y520284D01*
X490476Y520366D01*
X490554Y520444D01*
X490636Y520519D01*
X490719Y520592D01*
X490805Y520662D01*
X490894Y520729D01*
X490985Y520792D01*
X491078Y520853D01*
X491173Y520910D01*
X491269Y520963D01*
X491368Y521014D01*
X491469Y521061D01*
X491571Y521104D01*
X491674Y521144D01*
X491779Y521180D01*
X491885Y521212D01*
X491992Y521241D01*
X492100Y521266D01*
X492209Y521287D01*
X492318Y521304D01*
X492428Y521318D01*
X492539Y521327D01*
X492649Y521333D01*
X492760Y521335D01*
X497840Y521335D01*
X497951Y521333D01*
X498061Y521327D01*
X498172Y521318D01*
X498282Y521304D01*
X498391Y521287D01*
X498500Y521266D01*
X498608Y521241D01*
X498715Y521212D01*
X498821Y521180D01*
X498926Y521144D01*
X499029Y521104D01*
X499131Y521061D01*
X499232Y521014D01*
X499331Y520963D01*
X499428Y520910D01*
X499522Y520853D01*
X499615Y520792D01*
X499706Y520729D01*
X499795Y520662D01*
X499881Y520592D01*
X499964Y520519D01*
X500046Y520444D01*
X500124Y520366D01*
X500199Y520284D01*
X500272Y520201D01*
X500342Y520115D01*
X500409Y520026D01*
X500472Y519935D01*
X500533Y519842D01*
X500590Y519747D01*
X500643Y519651D01*
X500694Y519552D01*
X500741Y519451D01*
X500784Y519349D01*
X500824Y519246D01*
X500860Y519141D01*
X500892Y519035D01*
X500921Y518928D01*
X500946Y518820D01*
X500967Y518711D01*
X500984Y518602D01*
X500998Y518492D01*
X501007Y518381D01*
X501013Y518271D01*
X501015Y518160D01*
X501013Y518049D01*
X501007Y517939D01*
X500998Y517828D01*
X500984Y517718D01*
X500967Y517609D01*
X500946Y517500D01*
X500921Y517392D01*
X500892Y517285D01*
X500860Y517179D01*
X500824Y517074D01*
X500784Y516971D01*
X500741Y516869D01*
X500694Y516768D01*
X500643Y516669D01*
X500590Y516572D01*
X500533Y516478D01*
X500472Y516385D01*
X500409Y516294D01*
X500342Y516205D01*
X500272Y516119D01*
X500199Y516036D01*
X500124Y515954D01*
X500046Y515876D01*
X499964Y515801D01*
X499881Y515728D01*
X499795Y515658D01*
X499706Y515591D01*
X499615Y515528D01*
X499522Y515467D01*
X499428Y515410D01*
X499331Y515357D01*
X499232Y515306D01*
X499131Y515259D01*
X499029Y515216D01*
X498926Y515176D01*
X498821Y515140D01*
X498715Y515108D01*
X498608Y515079D01*
X498500Y515054D01*
X498391Y515033D01*
X498282Y515016D01*
X498172Y515002D01*
X498061Y514993D01*
X497951Y514987D01*
X497840Y514985D01*
X498475Y520065D02*
X501015Y522605D01*
X501015Y526046D02*
X501015Y529221D01*
X501013Y529332D01*
X501007Y529442D01*
X500998Y529553D01*
X500984Y529663D01*
X500967Y529772D01*
X500946Y529881D01*
X500921Y529989D01*
X500892Y530096D01*
X500860Y530202D01*
X500824Y530307D01*
X500784Y530410D01*
X500741Y530512D01*
X500694Y530613D01*
X500643Y530712D01*
X500590Y530809D01*
X500533Y530903D01*
X500472Y530996D01*
X500409Y531087D01*
X500342Y531176D01*
X500272Y531262D01*
X500199Y531345D01*
X500124Y531427D01*
X500046Y531505D01*
X499964Y531580D01*
X499881Y531653D01*
X499795Y531723D01*
X499706Y531790D01*
X499615Y531853D01*
X499522Y531914D01*
X499428Y531971D01*
X499331Y532024D01*
X499232Y532075D01*
X499131Y532122D01*
X499029Y532165D01*
X498926Y532205D01*
X498821Y532241D01*
X498715Y532273D01*
X498608Y532302D01*
X498500Y532327D01*
X498391Y532348D01*
X498282Y532365D01*
X498172Y532379D01*
X498061Y532388D01*
X497951Y532394D01*
X497840Y532396D01*
X497729Y532394D01*
X497619Y532388D01*
X497508Y532379D01*
X497398Y532365D01*
X497289Y532348D01*
X497180Y532327D01*
X497072Y532302D01*
X496965Y532273D01*
X496859Y532241D01*
X496754Y532205D01*
X496651Y532165D01*
X496549Y532122D01*
X496448Y532075D01*
X496349Y532024D01*
X496253Y531971D01*
X496158Y531914D01*
X496065Y531853D01*
X495974Y531790D01*
X495885Y531723D01*
X495799Y531653D01*
X495716Y531580D01*
X495634Y531505D01*
X495556Y531427D01*
X495481Y531345D01*
X495408Y531262D01*
X495338Y531176D01*
X495271Y531087D01*
X495208Y530996D01*
X495147Y530903D01*
X495090Y530809D01*
X495037Y530712D01*
X494986Y530613D01*
X494939Y530512D01*
X494896Y530410D01*
X494856Y530307D01*
X494820Y530202D01*
X494788Y530096D01*
X494759Y529989D01*
X494734Y529881D01*
X494713Y529772D01*
X494696Y529663D01*
X494682Y529553D01*
X494673Y529442D01*
X494667Y529332D01*
X494665Y529221D01*
X489585Y529856D02*
X489585Y526046D01*
X489585Y529856D02*
X489587Y529956D01*
X489593Y530055D01*
X489603Y530155D01*
X489616Y530253D01*
X489634Y530352D01*
X489655Y530449D01*
X489680Y530545D01*
X489709Y530641D01*
X489742Y530735D01*
X489778Y530828D01*
X489818Y530919D01*
X489862Y531009D01*
X489909Y531097D01*
X489959Y531183D01*
X490013Y531267D01*
X490070Y531349D01*
X490130Y531428D01*
X490194Y531506D01*
X490260Y531580D01*
X490329Y531652D01*
X490401Y531721D01*
X490475Y531787D01*
X490553Y531851D01*
X490632Y531911D01*
X490714Y531968D01*
X490798Y532022D01*
X490884Y532072D01*
X490972Y532119D01*
X491062Y532163D01*
X491153Y532203D01*
X491246Y532239D01*
X491340Y532272D01*
X491436Y532301D01*
X491532Y532326D01*
X491629Y532347D01*
X491728Y532365D01*
X491826Y532378D01*
X491926Y532388D01*
X492025Y532394D01*
X492125Y532396D01*
X492225Y532394D01*
X492324Y532388D01*
X492424Y532378D01*
X492522Y532365D01*
X492621Y532347D01*
X492718Y532326D01*
X492814Y532301D01*
X492910Y532272D01*
X493004Y532239D01*
X493097Y532203D01*
X493188Y532163D01*
X493278Y532119D01*
X493366Y532072D01*
X493452Y532022D01*
X493536Y531968D01*
X493618Y531911D01*
X493697Y531851D01*
X493775Y531787D01*
X493849Y531721D01*
X493921Y531652D01*
X493990Y531580D01*
X494056Y531506D01*
X494120Y531428D01*
X494180Y531349D01*
X494237Y531267D01*
X494291Y531183D01*
X494341Y531097D01*
X494388Y531009D01*
X494432Y530919D01*
X494472Y530828D01*
X494508Y530735D01*
X494541Y530641D01*
X494570Y530545D01*
X494595Y530449D01*
X494616Y530352D01*
X494634Y530253D01*
X494647Y530155D01*
X494657Y530055D01*
X494663Y529956D01*
X494665Y529856D01*
X494665Y527316D01*
D10*
X751840Y459740D02*
X751842Y459640D01*
X751848Y459541D01*
X751858Y459441D01*
X751871Y459343D01*
X751889Y459244D01*
X751910Y459147D01*
X751935Y459051D01*
X751964Y458955D01*
X751997Y458861D01*
X752033Y458768D01*
X752073Y458677D01*
X752117Y458587D01*
X752164Y458499D01*
X752214Y458413D01*
X752268Y458329D01*
X752325Y458247D01*
X752385Y458168D01*
X752449Y458090D01*
X752515Y458016D01*
X752584Y457944D01*
X752656Y457875D01*
X752730Y457809D01*
X752808Y457745D01*
X752887Y457685D01*
X752969Y457628D01*
X753053Y457574D01*
X753139Y457524D01*
X753227Y457477D01*
X753317Y457433D01*
X753408Y457393D01*
X753501Y457357D01*
X753595Y457324D01*
X753691Y457295D01*
X753787Y457270D01*
X753884Y457249D01*
X753983Y457231D01*
X754081Y457218D01*
X754181Y457208D01*
X754280Y457202D01*
X754380Y457200D01*
X769620Y457200D02*
X769720Y457202D01*
X769819Y457208D01*
X769919Y457218D01*
X770017Y457231D01*
X770116Y457249D01*
X770213Y457270D01*
X770309Y457295D01*
X770405Y457324D01*
X770499Y457357D01*
X770592Y457393D01*
X770683Y457433D01*
X770773Y457477D01*
X770861Y457524D01*
X770947Y457574D01*
X771031Y457628D01*
X771113Y457685D01*
X771192Y457745D01*
X771270Y457809D01*
X771344Y457875D01*
X771416Y457944D01*
X771485Y458016D01*
X771551Y458090D01*
X771615Y458168D01*
X771675Y458247D01*
X771732Y458329D01*
X771786Y458413D01*
X771836Y458499D01*
X771883Y458587D01*
X771927Y458677D01*
X771967Y458768D01*
X772003Y458861D01*
X772036Y458955D01*
X772065Y459051D01*
X772090Y459147D01*
X772111Y459244D01*
X772129Y459343D01*
X772142Y459441D01*
X772152Y459541D01*
X772158Y459640D01*
X772160Y459740D01*
X772160Y505460D02*
X772158Y505560D01*
X772152Y505659D01*
X772142Y505759D01*
X772129Y505857D01*
X772111Y505956D01*
X772090Y506053D01*
X772065Y506149D01*
X772036Y506245D01*
X772003Y506339D01*
X771967Y506432D01*
X771927Y506523D01*
X771883Y506613D01*
X771836Y506701D01*
X771786Y506787D01*
X771732Y506871D01*
X771675Y506953D01*
X771615Y507032D01*
X771551Y507110D01*
X771485Y507184D01*
X771416Y507256D01*
X771344Y507325D01*
X771270Y507391D01*
X771192Y507455D01*
X771113Y507515D01*
X771031Y507572D01*
X770947Y507626D01*
X770861Y507676D01*
X770773Y507723D01*
X770683Y507767D01*
X770592Y507807D01*
X770499Y507843D01*
X770405Y507876D01*
X770309Y507905D01*
X770213Y507930D01*
X770116Y507951D01*
X770017Y507969D01*
X769919Y507982D01*
X769819Y507992D01*
X769720Y507998D01*
X769620Y508000D01*
X754380Y508000D02*
X754280Y507998D01*
X754181Y507992D01*
X754081Y507982D01*
X753983Y507969D01*
X753884Y507951D01*
X753787Y507930D01*
X753691Y507905D01*
X753595Y507876D01*
X753501Y507843D01*
X753408Y507807D01*
X753317Y507767D01*
X753227Y507723D01*
X753139Y507676D01*
X753053Y507626D01*
X752969Y507572D01*
X752887Y507515D01*
X752808Y507455D01*
X752730Y507391D01*
X752656Y507325D01*
X752584Y507256D01*
X752515Y507184D01*
X752449Y507110D01*
X752385Y507032D01*
X752325Y506953D01*
X752268Y506871D01*
X752214Y506787D01*
X752164Y506701D01*
X752117Y506613D01*
X752073Y506523D01*
X752033Y506432D01*
X751997Y506339D01*
X751964Y506245D01*
X751935Y506149D01*
X751910Y506053D01*
X751889Y505956D01*
X751871Y505857D01*
X751858Y505759D01*
X751848Y505659D01*
X751842Y505560D01*
X751840Y505460D01*
X754380Y457200D02*
X769620Y457200D01*
X751840Y459740D02*
X751840Y463550D01*
X753110Y464820D01*
X772160Y463550D02*
X772160Y459740D01*
X772160Y463550D02*
X770890Y464820D01*
X753110Y500380D02*
X751840Y501650D01*
X753110Y500380D02*
X753110Y464820D01*
X770890Y500380D02*
X772160Y501650D01*
X770890Y500380D02*
X770890Y464820D01*
X751840Y501650D02*
X751840Y505460D01*
X772160Y505460D02*
X772160Y501650D01*
X769620Y508000D02*
X754380Y508000D01*
D16*
X762000Y509905D03*
X762000Y455295D03*
D17*
X748538Y483108D02*
X739648Y483108D01*
X739648Y485577D01*
X739650Y485675D01*
X739656Y485773D01*
X739666Y485871D01*
X739679Y485968D01*
X739697Y486065D01*
X739718Y486161D01*
X739743Y486255D01*
X739772Y486349D01*
X739804Y486442D01*
X739841Y486533D01*
X739880Y486623D01*
X739924Y486711D01*
X739971Y486797D01*
X740021Y486882D01*
X740074Y486964D01*
X740131Y487044D01*
X740191Y487122D01*
X740254Y487197D01*
X740320Y487270D01*
X740389Y487340D01*
X740460Y487407D01*
X740534Y487472D01*
X740611Y487533D01*
X740690Y487592D01*
X740771Y487647D01*
X740854Y487699D01*
X740940Y487747D01*
X741027Y487792D01*
X741116Y487834D01*
X741206Y487872D01*
X741298Y487906D01*
X741391Y487937D01*
X741486Y487964D01*
X741581Y487987D01*
X741678Y488007D01*
X741774Y488022D01*
X741872Y488034D01*
X741970Y488042D01*
X742068Y488046D01*
X742166Y488046D01*
X742264Y488042D01*
X742362Y488034D01*
X742460Y488022D01*
X742556Y488007D01*
X742653Y487987D01*
X742748Y487964D01*
X742843Y487937D01*
X742936Y487906D01*
X743028Y487872D01*
X743118Y487834D01*
X743207Y487792D01*
X743294Y487747D01*
X743380Y487699D01*
X743463Y487647D01*
X743544Y487592D01*
X743623Y487533D01*
X743700Y487472D01*
X743774Y487407D01*
X743845Y487340D01*
X743914Y487270D01*
X743980Y487197D01*
X744043Y487122D01*
X744103Y487044D01*
X744160Y486964D01*
X744213Y486882D01*
X744263Y486797D01*
X744310Y486711D01*
X744354Y486623D01*
X744393Y486533D01*
X744430Y486442D01*
X744462Y486349D01*
X744491Y486255D01*
X744516Y486161D01*
X744537Y486065D01*
X744555Y485968D01*
X744568Y485871D01*
X744578Y485773D01*
X744584Y485675D01*
X744586Y485577D01*
X744587Y485577D02*
X744587Y483108D01*
X744587Y486071D02*
X748538Y488047D01*
X741624Y491958D02*
X739648Y494427D01*
X748538Y494427D01*
X748538Y491958D02*
X748538Y496897D01*
D10*
X772160Y683260D02*
X772158Y683360D01*
X772152Y683459D01*
X772142Y683559D01*
X772129Y683657D01*
X772111Y683756D01*
X772090Y683853D01*
X772065Y683949D01*
X772036Y684045D01*
X772003Y684139D01*
X771967Y684232D01*
X771927Y684323D01*
X771883Y684413D01*
X771836Y684501D01*
X771786Y684587D01*
X771732Y684671D01*
X771675Y684753D01*
X771615Y684832D01*
X771551Y684910D01*
X771485Y684984D01*
X771416Y685056D01*
X771344Y685125D01*
X771270Y685191D01*
X771192Y685255D01*
X771113Y685315D01*
X771031Y685372D01*
X770947Y685426D01*
X770861Y685476D01*
X770773Y685523D01*
X770683Y685567D01*
X770592Y685607D01*
X770499Y685643D01*
X770405Y685676D01*
X770309Y685705D01*
X770213Y685730D01*
X770116Y685751D01*
X770017Y685769D01*
X769919Y685782D01*
X769819Y685792D01*
X769720Y685798D01*
X769620Y685800D01*
X754380Y685800D02*
X754280Y685798D01*
X754181Y685792D01*
X754081Y685782D01*
X753983Y685769D01*
X753884Y685751D01*
X753787Y685730D01*
X753691Y685705D01*
X753595Y685676D01*
X753501Y685643D01*
X753408Y685607D01*
X753317Y685567D01*
X753227Y685523D01*
X753139Y685476D01*
X753053Y685426D01*
X752969Y685372D01*
X752887Y685315D01*
X752808Y685255D01*
X752730Y685191D01*
X752656Y685125D01*
X752584Y685056D01*
X752515Y684984D01*
X752449Y684910D01*
X752385Y684832D01*
X752325Y684753D01*
X752268Y684671D01*
X752214Y684587D01*
X752164Y684501D01*
X752117Y684413D01*
X752073Y684323D01*
X752033Y684232D01*
X751997Y684139D01*
X751964Y684045D01*
X751935Y683949D01*
X751910Y683853D01*
X751889Y683756D01*
X751871Y683657D01*
X751858Y683559D01*
X751848Y683459D01*
X751842Y683360D01*
X751840Y683260D01*
X751840Y637540D02*
X751842Y637440D01*
X751848Y637341D01*
X751858Y637241D01*
X751871Y637143D01*
X751889Y637044D01*
X751910Y636947D01*
X751935Y636851D01*
X751964Y636755D01*
X751997Y636661D01*
X752033Y636568D01*
X752073Y636477D01*
X752117Y636387D01*
X752164Y636299D01*
X752214Y636213D01*
X752268Y636129D01*
X752325Y636047D01*
X752385Y635968D01*
X752449Y635890D01*
X752515Y635816D01*
X752584Y635744D01*
X752656Y635675D01*
X752730Y635609D01*
X752808Y635545D01*
X752887Y635485D01*
X752969Y635428D01*
X753053Y635374D01*
X753139Y635324D01*
X753227Y635277D01*
X753317Y635233D01*
X753408Y635193D01*
X753501Y635157D01*
X753595Y635124D01*
X753691Y635095D01*
X753787Y635070D01*
X753884Y635049D01*
X753983Y635031D01*
X754081Y635018D01*
X754181Y635008D01*
X754280Y635002D01*
X754380Y635000D01*
X769620Y635000D02*
X769720Y635002D01*
X769819Y635008D01*
X769919Y635018D01*
X770017Y635031D01*
X770116Y635049D01*
X770213Y635070D01*
X770309Y635095D01*
X770405Y635124D01*
X770499Y635157D01*
X770592Y635193D01*
X770683Y635233D01*
X770773Y635277D01*
X770861Y635324D01*
X770947Y635374D01*
X771031Y635428D01*
X771113Y635485D01*
X771192Y635545D01*
X771270Y635609D01*
X771344Y635675D01*
X771416Y635744D01*
X771485Y635816D01*
X771551Y635890D01*
X771615Y635968D01*
X771675Y636047D01*
X771732Y636129D01*
X771786Y636213D01*
X771836Y636299D01*
X771883Y636387D01*
X771927Y636477D01*
X771967Y636568D01*
X772003Y636661D01*
X772036Y636755D01*
X772065Y636851D01*
X772090Y636947D01*
X772111Y637044D01*
X772129Y637143D01*
X772142Y637241D01*
X772152Y637341D01*
X772158Y637440D01*
X772160Y637540D01*
X769620Y685800D02*
X754380Y685800D01*
X772160Y683260D02*
X772160Y679450D01*
X770890Y678180D01*
X751840Y679450D02*
X751840Y683260D01*
X751840Y679450D02*
X753110Y678180D01*
X770890Y642620D02*
X772160Y641350D01*
X770890Y642620D02*
X770890Y678180D01*
X753110Y642620D02*
X751840Y641350D01*
X753110Y642620D02*
X753110Y678180D01*
X772160Y641350D02*
X772160Y637540D01*
X751840Y637540D02*
X751840Y641350D01*
X754380Y635000D02*
X769620Y635000D01*
D16*
X762000Y633095D03*
X762000Y687705D03*
D17*
X775462Y646103D02*
X784352Y646103D01*
X775462Y646103D02*
X775462Y648573D01*
X775464Y648671D01*
X775470Y648769D01*
X775480Y648867D01*
X775493Y648964D01*
X775511Y649061D01*
X775532Y649157D01*
X775557Y649251D01*
X775586Y649345D01*
X775618Y649438D01*
X775655Y649529D01*
X775694Y649619D01*
X775738Y649707D01*
X775785Y649793D01*
X775835Y649878D01*
X775888Y649960D01*
X775945Y650040D01*
X776005Y650118D01*
X776068Y650193D01*
X776134Y650266D01*
X776203Y650336D01*
X776274Y650403D01*
X776348Y650468D01*
X776425Y650529D01*
X776504Y650588D01*
X776585Y650643D01*
X776668Y650695D01*
X776754Y650743D01*
X776841Y650788D01*
X776930Y650830D01*
X777020Y650868D01*
X777112Y650902D01*
X777205Y650933D01*
X777300Y650960D01*
X777395Y650983D01*
X777492Y651003D01*
X777588Y651018D01*
X777686Y651030D01*
X777784Y651038D01*
X777882Y651042D01*
X777980Y651042D01*
X778078Y651038D01*
X778176Y651030D01*
X778274Y651018D01*
X778370Y651003D01*
X778467Y650983D01*
X778562Y650960D01*
X778657Y650933D01*
X778750Y650902D01*
X778842Y650868D01*
X778932Y650830D01*
X779021Y650788D01*
X779108Y650743D01*
X779194Y650695D01*
X779277Y650643D01*
X779358Y650588D01*
X779437Y650529D01*
X779514Y650468D01*
X779588Y650403D01*
X779659Y650336D01*
X779728Y650266D01*
X779794Y650193D01*
X779857Y650118D01*
X779917Y650040D01*
X779974Y649960D01*
X780027Y649878D01*
X780077Y649793D01*
X780124Y649707D01*
X780168Y649619D01*
X780207Y649529D01*
X780244Y649438D01*
X780276Y649345D01*
X780305Y649251D01*
X780330Y649157D01*
X780351Y649061D01*
X780369Y648964D01*
X780382Y648867D01*
X780392Y648769D01*
X780398Y648671D01*
X780400Y648573D01*
X780401Y648573D02*
X780401Y646103D01*
X780401Y649067D02*
X784352Y651042D01*
X784352Y654953D02*
X784352Y657423D01*
X784350Y657521D01*
X784344Y657619D01*
X784334Y657717D01*
X784321Y657814D01*
X784303Y657911D01*
X784282Y658007D01*
X784257Y658101D01*
X784228Y658195D01*
X784196Y658288D01*
X784159Y658379D01*
X784120Y658469D01*
X784076Y658557D01*
X784029Y658643D01*
X783979Y658728D01*
X783926Y658810D01*
X783869Y658890D01*
X783809Y658968D01*
X783746Y659043D01*
X783680Y659116D01*
X783611Y659186D01*
X783540Y659253D01*
X783466Y659318D01*
X783389Y659379D01*
X783310Y659438D01*
X783229Y659493D01*
X783146Y659545D01*
X783060Y659593D01*
X782973Y659638D01*
X782884Y659680D01*
X782794Y659718D01*
X782702Y659752D01*
X782609Y659783D01*
X782514Y659810D01*
X782419Y659833D01*
X782322Y659853D01*
X782226Y659868D01*
X782128Y659880D01*
X782030Y659888D01*
X781932Y659892D01*
X781834Y659892D01*
X781736Y659888D01*
X781638Y659880D01*
X781540Y659868D01*
X781444Y659853D01*
X781347Y659833D01*
X781252Y659810D01*
X781157Y659783D01*
X781064Y659752D01*
X780972Y659718D01*
X780882Y659680D01*
X780793Y659638D01*
X780706Y659593D01*
X780620Y659545D01*
X780537Y659493D01*
X780456Y659438D01*
X780377Y659379D01*
X780300Y659318D01*
X780226Y659253D01*
X780155Y659186D01*
X780086Y659116D01*
X780020Y659043D01*
X779957Y658968D01*
X779897Y658890D01*
X779840Y658810D01*
X779787Y658728D01*
X779737Y658643D01*
X779690Y658557D01*
X779646Y658469D01*
X779607Y658379D01*
X779570Y658288D01*
X779538Y658195D01*
X779509Y658101D01*
X779484Y658007D01*
X779463Y657911D01*
X779445Y657814D01*
X779432Y657717D01*
X779422Y657619D01*
X779416Y657521D01*
X779414Y657423D01*
X775462Y657916D02*
X775462Y654953D01*
X775462Y657916D02*
X775464Y658003D01*
X775470Y658091D01*
X775479Y658178D01*
X775493Y658264D01*
X775510Y658350D01*
X775531Y658434D01*
X775556Y658518D01*
X775585Y658601D01*
X775617Y658682D01*
X775652Y658762D01*
X775691Y658840D01*
X775734Y658917D01*
X775780Y658991D01*
X775829Y659063D01*
X775881Y659133D01*
X775937Y659201D01*
X775995Y659266D01*
X776056Y659329D01*
X776120Y659388D01*
X776187Y659445D01*
X776255Y659499D01*
X776327Y659550D01*
X776400Y659597D01*
X776475Y659642D01*
X776553Y659683D01*
X776632Y659720D01*
X776712Y659754D01*
X776794Y659784D01*
X776877Y659811D01*
X776962Y659834D01*
X777047Y659853D01*
X777133Y659868D01*
X777220Y659880D01*
X777307Y659888D01*
X777394Y659892D01*
X777482Y659892D01*
X777569Y659888D01*
X777656Y659880D01*
X777743Y659868D01*
X777829Y659853D01*
X777914Y659834D01*
X777999Y659811D01*
X778082Y659784D01*
X778164Y659754D01*
X778244Y659720D01*
X778323Y659683D01*
X778401Y659642D01*
X778476Y659597D01*
X778549Y659550D01*
X778621Y659499D01*
X778689Y659445D01*
X778756Y659388D01*
X778820Y659329D01*
X778881Y659266D01*
X778939Y659201D01*
X778995Y659133D01*
X779047Y659063D01*
X779096Y658991D01*
X779142Y658917D01*
X779185Y658840D01*
X779224Y658762D01*
X779259Y658682D01*
X779291Y658601D01*
X779320Y658518D01*
X779345Y658434D01*
X779366Y658350D01*
X779383Y658264D01*
X779397Y658178D01*
X779406Y658091D01*
X779412Y658003D01*
X779414Y657916D01*
X779413Y657916D02*
X779413Y655941D01*
D10*
X642620Y330200D02*
X642720Y330198D01*
X642819Y330192D01*
X642919Y330182D01*
X643017Y330169D01*
X643116Y330151D01*
X643213Y330130D01*
X643309Y330105D01*
X643405Y330076D01*
X643499Y330043D01*
X643592Y330007D01*
X643683Y329967D01*
X643773Y329923D01*
X643861Y329876D01*
X643947Y329826D01*
X644031Y329772D01*
X644113Y329715D01*
X644192Y329655D01*
X644270Y329591D01*
X644344Y329525D01*
X644416Y329456D01*
X644485Y329384D01*
X644551Y329310D01*
X644615Y329232D01*
X644675Y329153D01*
X644732Y329071D01*
X644786Y328987D01*
X644836Y328901D01*
X644883Y328813D01*
X644927Y328723D01*
X644967Y328632D01*
X645003Y328539D01*
X645036Y328445D01*
X645065Y328349D01*
X645090Y328253D01*
X645111Y328156D01*
X645129Y328057D01*
X645142Y327959D01*
X645152Y327859D01*
X645158Y327760D01*
X645160Y327660D01*
X627380Y330200D02*
X627280Y330198D01*
X627181Y330192D01*
X627081Y330182D01*
X626983Y330169D01*
X626884Y330151D01*
X626787Y330130D01*
X626691Y330105D01*
X626595Y330076D01*
X626501Y330043D01*
X626408Y330007D01*
X626317Y329967D01*
X626227Y329923D01*
X626139Y329876D01*
X626053Y329826D01*
X625969Y329772D01*
X625887Y329715D01*
X625808Y329655D01*
X625730Y329591D01*
X625656Y329525D01*
X625584Y329456D01*
X625515Y329384D01*
X625449Y329310D01*
X625385Y329232D01*
X625325Y329153D01*
X625268Y329071D01*
X625214Y328987D01*
X625164Y328901D01*
X625117Y328813D01*
X625073Y328723D01*
X625033Y328632D01*
X624997Y328539D01*
X624964Y328445D01*
X624935Y328349D01*
X624910Y328253D01*
X624889Y328156D01*
X624871Y328057D01*
X624858Y327959D01*
X624848Y327859D01*
X624842Y327760D01*
X624840Y327660D01*
X624840Y281940D02*
X624842Y281840D01*
X624848Y281741D01*
X624858Y281641D01*
X624871Y281543D01*
X624889Y281444D01*
X624910Y281347D01*
X624935Y281251D01*
X624964Y281155D01*
X624997Y281061D01*
X625033Y280968D01*
X625073Y280877D01*
X625117Y280787D01*
X625164Y280699D01*
X625214Y280613D01*
X625268Y280529D01*
X625325Y280447D01*
X625385Y280368D01*
X625449Y280290D01*
X625515Y280216D01*
X625584Y280144D01*
X625656Y280075D01*
X625730Y280009D01*
X625808Y279945D01*
X625887Y279885D01*
X625969Y279828D01*
X626053Y279774D01*
X626139Y279724D01*
X626227Y279677D01*
X626317Y279633D01*
X626408Y279593D01*
X626501Y279557D01*
X626595Y279524D01*
X626691Y279495D01*
X626787Y279470D01*
X626884Y279449D01*
X626983Y279431D01*
X627081Y279418D01*
X627181Y279408D01*
X627280Y279402D01*
X627380Y279400D01*
X642620Y279400D02*
X642720Y279402D01*
X642819Y279408D01*
X642919Y279418D01*
X643017Y279431D01*
X643116Y279449D01*
X643213Y279470D01*
X643309Y279495D01*
X643405Y279524D01*
X643499Y279557D01*
X643592Y279593D01*
X643683Y279633D01*
X643773Y279677D01*
X643861Y279724D01*
X643947Y279774D01*
X644031Y279828D01*
X644113Y279885D01*
X644192Y279945D01*
X644270Y280009D01*
X644344Y280075D01*
X644416Y280144D01*
X644485Y280216D01*
X644551Y280290D01*
X644615Y280368D01*
X644675Y280447D01*
X644732Y280529D01*
X644786Y280613D01*
X644836Y280699D01*
X644883Y280787D01*
X644927Y280877D01*
X644967Y280968D01*
X645003Y281061D01*
X645036Y281155D01*
X645065Y281251D01*
X645090Y281347D01*
X645111Y281444D01*
X645129Y281543D01*
X645142Y281641D01*
X645152Y281741D01*
X645158Y281840D01*
X645160Y281940D01*
X642620Y330200D02*
X627380Y330200D01*
X645160Y327660D02*
X645160Y323850D01*
X643890Y322580D01*
X624840Y323850D02*
X624840Y327660D01*
X624840Y323850D02*
X626110Y322580D01*
X643890Y287020D02*
X645160Y285750D01*
X643890Y287020D02*
X643890Y322580D01*
X626110Y287020D02*
X624840Y285750D01*
X626110Y287020D02*
X626110Y322580D01*
X645160Y285750D02*
X645160Y281940D01*
X624840Y281940D02*
X624840Y285750D01*
X627380Y279400D02*
X642620Y279400D01*
D16*
X635000Y277495D03*
X635000Y332105D03*
D17*
X648462Y290503D02*
X657352Y290503D01*
X648462Y290503D02*
X648462Y292973D01*
X648464Y293071D01*
X648470Y293169D01*
X648480Y293267D01*
X648493Y293364D01*
X648511Y293461D01*
X648532Y293557D01*
X648557Y293651D01*
X648586Y293745D01*
X648618Y293838D01*
X648655Y293929D01*
X648694Y294019D01*
X648738Y294107D01*
X648785Y294193D01*
X648835Y294278D01*
X648888Y294360D01*
X648945Y294440D01*
X649005Y294518D01*
X649068Y294593D01*
X649134Y294666D01*
X649203Y294736D01*
X649274Y294803D01*
X649348Y294868D01*
X649425Y294929D01*
X649504Y294988D01*
X649585Y295043D01*
X649668Y295095D01*
X649754Y295143D01*
X649841Y295188D01*
X649930Y295230D01*
X650020Y295268D01*
X650112Y295302D01*
X650205Y295333D01*
X650300Y295360D01*
X650395Y295383D01*
X650492Y295403D01*
X650588Y295418D01*
X650686Y295430D01*
X650784Y295438D01*
X650882Y295442D01*
X650980Y295442D01*
X651078Y295438D01*
X651176Y295430D01*
X651274Y295418D01*
X651370Y295403D01*
X651467Y295383D01*
X651562Y295360D01*
X651657Y295333D01*
X651750Y295302D01*
X651842Y295268D01*
X651932Y295230D01*
X652021Y295188D01*
X652108Y295143D01*
X652194Y295095D01*
X652277Y295043D01*
X652358Y294988D01*
X652437Y294929D01*
X652514Y294868D01*
X652588Y294803D01*
X652659Y294736D01*
X652728Y294666D01*
X652794Y294593D01*
X652857Y294518D01*
X652917Y294440D01*
X652974Y294360D01*
X653027Y294278D01*
X653077Y294193D01*
X653124Y294107D01*
X653168Y294019D01*
X653207Y293929D01*
X653244Y293838D01*
X653276Y293745D01*
X653305Y293651D01*
X653330Y293557D01*
X653351Y293461D01*
X653369Y293364D01*
X653382Y293267D01*
X653392Y293169D01*
X653398Y293071D01*
X653400Y292973D01*
X653401Y292973D02*
X653401Y290503D01*
X653401Y293467D02*
X657352Y295442D01*
X655376Y299353D02*
X648462Y301329D01*
X655376Y299353D02*
X655376Y304292D01*
X653401Y302810D02*
X657352Y302810D01*
D10*
X627380Y457200D02*
X627280Y457202D01*
X627181Y457208D01*
X627081Y457218D01*
X626983Y457231D01*
X626884Y457249D01*
X626787Y457270D01*
X626691Y457295D01*
X626595Y457324D01*
X626501Y457357D01*
X626408Y457393D01*
X626317Y457433D01*
X626227Y457477D01*
X626139Y457524D01*
X626053Y457574D01*
X625969Y457628D01*
X625887Y457685D01*
X625808Y457745D01*
X625730Y457809D01*
X625656Y457875D01*
X625584Y457944D01*
X625515Y458016D01*
X625449Y458090D01*
X625385Y458168D01*
X625325Y458247D01*
X625268Y458329D01*
X625214Y458413D01*
X625164Y458499D01*
X625117Y458587D01*
X625073Y458677D01*
X625033Y458768D01*
X624997Y458861D01*
X624964Y458955D01*
X624935Y459051D01*
X624910Y459147D01*
X624889Y459244D01*
X624871Y459343D01*
X624858Y459441D01*
X624848Y459541D01*
X624842Y459640D01*
X624840Y459740D01*
X642620Y457200D02*
X642720Y457202D01*
X642819Y457208D01*
X642919Y457218D01*
X643017Y457231D01*
X643116Y457249D01*
X643213Y457270D01*
X643309Y457295D01*
X643405Y457324D01*
X643499Y457357D01*
X643592Y457393D01*
X643683Y457433D01*
X643773Y457477D01*
X643861Y457524D01*
X643947Y457574D01*
X644031Y457628D01*
X644113Y457685D01*
X644192Y457745D01*
X644270Y457809D01*
X644344Y457875D01*
X644416Y457944D01*
X644485Y458016D01*
X644551Y458090D01*
X644615Y458168D01*
X644675Y458247D01*
X644732Y458329D01*
X644786Y458413D01*
X644836Y458499D01*
X644883Y458587D01*
X644927Y458677D01*
X644967Y458768D01*
X645003Y458861D01*
X645036Y458955D01*
X645065Y459051D01*
X645090Y459147D01*
X645111Y459244D01*
X645129Y459343D01*
X645142Y459441D01*
X645152Y459541D01*
X645158Y459640D01*
X645160Y459740D01*
X645160Y505460D02*
X645158Y505560D01*
X645152Y505659D01*
X645142Y505759D01*
X645129Y505857D01*
X645111Y505956D01*
X645090Y506053D01*
X645065Y506149D01*
X645036Y506245D01*
X645003Y506339D01*
X644967Y506432D01*
X644927Y506523D01*
X644883Y506613D01*
X644836Y506701D01*
X644786Y506787D01*
X644732Y506871D01*
X644675Y506953D01*
X644615Y507032D01*
X644551Y507110D01*
X644485Y507184D01*
X644416Y507256D01*
X644344Y507325D01*
X644270Y507391D01*
X644192Y507455D01*
X644113Y507515D01*
X644031Y507572D01*
X643947Y507626D01*
X643861Y507676D01*
X643773Y507723D01*
X643683Y507767D01*
X643592Y507807D01*
X643499Y507843D01*
X643405Y507876D01*
X643309Y507905D01*
X643213Y507930D01*
X643116Y507951D01*
X643017Y507969D01*
X642919Y507982D01*
X642819Y507992D01*
X642720Y507998D01*
X642620Y508000D01*
X627380Y508000D02*
X627280Y507998D01*
X627181Y507992D01*
X627081Y507982D01*
X626983Y507969D01*
X626884Y507951D01*
X626787Y507930D01*
X626691Y507905D01*
X626595Y507876D01*
X626501Y507843D01*
X626408Y507807D01*
X626317Y507767D01*
X626227Y507723D01*
X626139Y507676D01*
X626053Y507626D01*
X625969Y507572D01*
X625887Y507515D01*
X625808Y507455D01*
X625730Y507391D01*
X625656Y507325D01*
X625584Y507256D01*
X625515Y507184D01*
X625449Y507110D01*
X625385Y507032D01*
X625325Y506953D01*
X625268Y506871D01*
X625214Y506787D01*
X625164Y506701D01*
X625117Y506613D01*
X625073Y506523D01*
X625033Y506432D01*
X624997Y506339D01*
X624964Y506245D01*
X624935Y506149D01*
X624910Y506053D01*
X624889Y505956D01*
X624871Y505857D01*
X624858Y505759D01*
X624848Y505659D01*
X624842Y505560D01*
X624840Y505460D01*
X627380Y457200D02*
X642620Y457200D01*
X624840Y459740D02*
X624840Y463550D01*
X626110Y464820D01*
X645160Y463550D02*
X645160Y459740D01*
X645160Y463550D02*
X643890Y464820D01*
X626110Y500380D02*
X624840Y501650D01*
X626110Y500380D02*
X626110Y464820D01*
X643890Y500380D02*
X645160Y501650D01*
X643890Y500380D02*
X643890Y464820D01*
X624840Y501650D02*
X624840Y505460D01*
X645160Y505460D02*
X645160Y501650D01*
X642620Y508000D02*
X627380Y508000D01*
D16*
X635000Y509905D03*
X635000Y455295D03*
D17*
X621538Y470408D02*
X612648Y470408D01*
X612648Y472877D01*
X612650Y472975D01*
X612656Y473073D01*
X612666Y473171D01*
X612679Y473268D01*
X612697Y473365D01*
X612718Y473461D01*
X612743Y473555D01*
X612772Y473649D01*
X612804Y473742D01*
X612841Y473833D01*
X612880Y473923D01*
X612924Y474011D01*
X612971Y474097D01*
X613021Y474182D01*
X613074Y474264D01*
X613131Y474344D01*
X613191Y474422D01*
X613254Y474497D01*
X613320Y474570D01*
X613389Y474640D01*
X613460Y474707D01*
X613534Y474772D01*
X613611Y474833D01*
X613690Y474892D01*
X613771Y474947D01*
X613854Y474999D01*
X613940Y475047D01*
X614027Y475092D01*
X614116Y475134D01*
X614206Y475172D01*
X614298Y475206D01*
X614391Y475237D01*
X614486Y475264D01*
X614581Y475287D01*
X614678Y475307D01*
X614774Y475322D01*
X614872Y475334D01*
X614970Y475342D01*
X615068Y475346D01*
X615166Y475346D01*
X615264Y475342D01*
X615362Y475334D01*
X615460Y475322D01*
X615556Y475307D01*
X615653Y475287D01*
X615748Y475264D01*
X615843Y475237D01*
X615936Y475206D01*
X616028Y475172D01*
X616118Y475134D01*
X616207Y475092D01*
X616294Y475047D01*
X616380Y474999D01*
X616463Y474947D01*
X616544Y474892D01*
X616623Y474833D01*
X616700Y474772D01*
X616774Y474707D01*
X616845Y474640D01*
X616914Y474570D01*
X616980Y474497D01*
X617043Y474422D01*
X617103Y474344D01*
X617160Y474264D01*
X617213Y474182D01*
X617263Y474097D01*
X617310Y474011D01*
X617354Y473923D01*
X617393Y473833D01*
X617430Y473742D01*
X617462Y473649D01*
X617491Y473555D01*
X617516Y473461D01*
X617537Y473365D01*
X617555Y473268D01*
X617568Y473171D01*
X617578Y473073D01*
X617584Y472975D01*
X617586Y472877D01*
X617587Y472877D02*
X617587Y470408D01*
X617587Y473371D02*
X621538Y475347D01*
X621538Y479258D02*
X621538Y482221D01*
X621536Y482310D01*
X621530Y482398D01*
X621520Y482486D01*
X621506Y482574D01*
X621488Y482661D01*
X621467Y482747D01*
X621441Y482832D01*
X621412Y482915D01*
X621379Y482998D01*
X621342Y483078D01*
X621302Y483157D01*
X621258Y483234D01*
X621211Y483310D01*
X621161Y483382D01*
X621107Y483453D01*
X621050Y483521D01*
X620990Y483587D01*
X620928Y483649D01*
X620862Y483709D01*
X620794Y483766D01*
X620723Y483820D01*
X620651Y483870D01*
X620576Y483917D01*
X620498Y483961D01*
X620419Y484001D01*
X620339Y484038D01*
X620256Y484071D01*
X620173Y484100D01*
X620088Y484126D01*
X620002Y484147D01*
X619915Y484165D01*
X619827Y484179D01*
X619739Y484189D01*
X619651Y484195D01*
X619562Y484197D01*
X618575Y484197D01*
X618489Y484195D01*
X618403Y484189D01*
X618317Y484180D01*
X618232Y484167D01*
X618147Y484150D01*
X618064Y484130D01*
X617981Y484106D01*
X617899Y484078D01*
X617819Y484047D01*
X617740Y484012D01*
X617663Y483974D01*
X617587Y483932D01*
X617513Y483888D01*
X617442Y483840D01*
X617372Y483789D01*
X617305Y483735D01*
X617240Y483678D01*
X617178Y483618D01*
X617118Y483556D01*
X617061Y483491D01*
X617007Y483424D01*
X616956Y483354D01*
X616908Y483283D01*
X616864Y483209D01*
X616822Y483133D01*
X616784Y483056D01*
X616749Y482977D01*
X616718Y482897D01*
X616690Y482815D01*
X616666Y482732D01*
X616646Y482649D01*
X616629Y482564D01*
X616616Y482479D01*
X616607Y482393D01*
X616601Y482307D01*
X616599Y482221D01*
X616599Y479258D01*
X612648Y479258D01*
X612648Y484197D01*
D10*
X627380Y635000D02*
X627280Y635002D01*
X627181Y635008D01*
X627081Y635018D01*
X626983Y635031D01*
X626884Y635049D01*
X626787Y635070D01*
X626691Y635095D01*
X626595Y635124D01*
X626501Y635157D01*
X626408Y635193D01*
X626317Y635233D01*
X626227Y635277D01*
X626139Y635324D01*
X626053Y635374D01*
X625969Y635428D01*
X625887Y635485D01*
X625808Y635545D01*
X625730Y635609D01*
X625656Y635675D01*
X625584Y635744D01*
X625515Y635816D01*
X625449Y635890D01*
X625385Y635968D01*
X625325Y636047D01*
X625268Y636129D01*
X625214Y636213D01*
X625164Y636299D01*
X625117Y636387D01*
X625073Y636477D01*
X625033Y636568D01*
X624997Y636661D01*
X624964Y636755D01*
X624935Y636851D01*
X624910Y636947D01*
X624889Y637044D01*
X624871Y637143D01*
X624858Y637241D01*
X624848Y637341D01*
X624842Y637440D01*
X624840Y637540D01*
X642620Y635000D02*
X642720Y635002D01*
X642819Y635008D01*
X642919Y635018D01*
X643017Y635031D01*
X643116Y635049D01*
X643213Y635070D01*
X643309Y635095D01*
X643405Y635124D01*
X643499Y635157D01*
X643592Y635193D01*
X643683Y635233D01*
X643773Y635277D01*
X643861Y635324D01*
X643947Y635374D01*
X644031Y635428D01*
X644113Y635485D01*
X644192Y635545D01*
X644270Y635609D01*
X644344Y635675D01*
X644416Y635744D01*
X644485Y635816D01*
X644551Y635890D01*
X644615Y635968D01*
X644675Y636047D01*
X644732Y636129D01*
X644786Y636213D01*
X644836Y636299D01*
X644883Y636387D01*
X644927Y636477D01*
X644967Y636568D01*
X645003Y636661D01*
X645036Y636755D01*
X645065Y636851D01*
X645090Y636947D01*
X645111Y637044D01*
X645129Y637143D01*
X645142Y637241D01*
X645152Y637341D01*
X645158Y637440D01*
X645160Y637540D01*
X645160Y683260D02*
X645158Y683360D01*
X645152Y683459D01*
X645142Y683559D01*
X645129Y683657D01*
X645111Y683756D01*
X645090Y683853D01*
X645065Y683949D01*
X645036Y684045D01*
X645003Y684139D01*
X644967Y684232D01*
X644927Y684323D01*
X644883Y684413D01*
X644836Y684501D01*
X644786Y684587D01*
X644732Y684671D01*
X644675Y684753D01*
X644615Y684832D01*
X644551Y684910D01*
X644485Y684984D01*
X644416Y685056D01*
X644344Y685125D01*
X644270Y685191D01*
X644192Y685255D01*
X644113Y685315D01*
X644031Y685372D01*
X643947Y685426D01*
X643861Y685476D01*
X643773Y685523D01*
X643683Y685567D01*
X643592Y685607D01*
X643499Y685643D01*
X643405Y685676D01*
X643309Y685705D01*
X643213Y685730D01*
X643116Y685751D01*
X643017Y685769D01*
X642919Y685782D01*
X642819Y685792D01*
X642720Y685798D01*
X642620Y685800D01*
X627380Y685800D02*
X627280Y685798D01*
X627181Y685792D01*
X627081Y685782D01*
X626983Y685769D01*
X626884Y685751D01*
X626787Y685730D01*
X626691Y685705D01*
X626595Y685676D01*
X626501Y685643D01*
X626408Y685607D01*
X626317Y685567D01*
X626227Y685523D01*
X626139Y685476D01*
X626053Y685426D01*
X625969Y685372D01*
X625887Y685315D01*
X625808Y685255D01*
X625730Y685191D01*
X625656Y685125D01*
X625584Y685056D01*
X625515Y684984D01*
X625449Y684910D01*
X625385Y684832D01*
X625325Y684753D01*
X625268Y684671D01*
X625214Y684587D01*
X625164Y684501D01*
X625117Y684413D01*
X625073Y684323D01*
X625033Y684232D01*
X624997Y684139D01*
X624964Y684045D01*
X624935Y683949D01*
X624910Y683853D01*
X624889Y683756D01*
X624871Y683657D01*
X624858Y683559D01*
X624848Y683459D01*
X624842Y683360D01*
X624840Y683260D01*
X627380Y635000D02*
X642620Y635000D01*
X624840Y637540D02*
X624840Y641350D01*
X626110Y642620D01*
X645160Y641350D02*
X645160Y637540D01*
X645160Y641350D02*
X643890Y642620D01*
X626110Y678180D02*
X624840Y679450D01*
X626110Y678180D02*
X626110Y642620D01*
X643890Y678180D02*
X645160Y679450D01*
X643890Y678180D02*
X643890Y642620D01*
X624840Y679450D02*
X624840Y683260D01*
X645160Y683260D02*
X645160Y679450D01*
X642620Y685800D02*
X627380Y685800D01*
D16*
X635000Y687705D03*
X635000Y633095D03*
D17*
X647954Y646103D02*
X656844Y646103D01*
X647954Y646103D02*
X647954Y648573D01*
X647956Y648671D01*
X647962Y648769D01*
X647972Y648867D01*
X647985Y648964D01*
X648003Y649061D01*
X648024Y649157D01*
X648049Y649251D01*
X648078Y649345D01*
X648110Y649438D01*
X648147Y649529D01*
X648186Y649619D01*
X648230Y649707D01*
X648277Y649793D01*
X648327Y649878D01*
X648380Y649960D01*
X648437Y650040D01*
X648497Y650118D01*
X648560Y650193D01*
X648626Y650266D01*
X648695Y650336D01*
X648766Y650403D01*
X648840Y650468D01*
X648917Y650529D01*
X648996Y650588D01*
X649077Y650643D01*
X649160Y650695D01*
X649246Y650743D01*
X649333Y650788D01*
X649422Y650830D01*
X649512Y650868D01*
X649604Y650902D01*
X649697Y650933D01*
X649792Y650960D01*
X649887Y650983D01*
X649984Y651003D01*
X650080Y651018D01*
X650178Y651030D01*
X650276Y651038D01*
X650374Y651042D01*
X650472Y651042D01*
X650570Y651038D01*
X650668Y651030D01*
X650766Y651018D01*
X650862Y651003D01*
X650959Y650983D01*
X651054Y650960D01*
X651149Y650933D01*
X651242Y650902D01*
X651334Y650868D01*
X651424Y650830D01*
X651513Y650788D01*
X651600Y650743D01*
X651686Y650695D01*
X651769Y650643D01*
X651850Y650588D01*
X651929Y650529D01*
X652006Y650468D01*
X652080Y650403D01*
X652151Y650336D01*
X652220Y650266D01*
X652286Y650193D01*
X652349Y650118D01*
X652409Y650040D01*
X652466Y649960D01*
X652519Y649878D01*
X652569Y649793D01*
X652616Y649707D01*
X652660Y649619D01*
X652699Y649529D01*
X652736Y649438D01*
X652768Y649345D01*
X652797Y649251D01*
X652822Y649157D01*
X652843Y649061D01*
X652861Y648964D01*
X652874Y648867D01*
X652884Y648769D01*
X652890Y648671D01*
X652892Y648573D01*
X652893Y648573D02*
X652893Y646103D01*
X652893Y649067D02*
X656844Y651042D01*
X651905Y654953D02*
X651905Y657916D01*
X651907Y658002D01*
X651913Y658088D01*
X651922Y658174D01*
X651935Y658259D01*
X651952Y658344D01*
X651972Y658427D01*
X651996Y658510D01*
X652024Y658592D01*
X652055Y658672D01*
X652090Y658751D01*
X652128Y658828D01*
X652170Y658904D01*
X652214Y658978D01*
X652262Y659049D01*
X652313Y659119D01*
X652367Y659186D01*
X652424Y659251D01*
X652484Y659313D01*
X652546Y659373D01*
X652611Y659430D01*
X652678Y659484D01*
X652748Y659535D01*
X652819Y659583D01*
X652893Y659627D01*
X652969Y659669D01*
X653046Y659707D01*
X653125Y659742D01*
X653205Y659773D01*
X653287Y659801D01*
X653370Y659825D01*
X653453Y659845D01*
X653538Y659862D01*
X653623Y659875D01*
X653709Y659884D01*
X653795Y659890D01*
X653881Y659892D01*
X654375Y659892D01*
X654473Y659890D01*
X654571Y659884D01*
X654669Y659874D01*
X654766Y659861D01*
X654863Y659843D01*
X654959Y659822D01*
X655053Y659797D01*
X655147Y659768D01*
X655240Y659736D01*
X655331Y659699D01*
X655421Y659660D01*
X655509Y659616D01*
X655595Y659569D01*
X655680Y659519D01*
X655762Y659466D01*
X655842Y659409D01*
X655920Y659349D01*
X655995Y659286D01*
X656068Y659220D01*
X656138Y659151D01*
X656205Y659080D01*
X656270Y659006D01*
X656331Y658929D01*
X656390Y658850D01*
X656445Y658769D01*
X656497Y658686D01*
X656545Y658600D01*
X656590Y658513D01*
X656632Y658424D01*
X656670Y658334D01*
X656704Y658242D01*
X656735Y658149D01*
X656762Y658054D01*
X656785Y657959D01*
X656805Y657862D01*
X656820Y657766D01*
X656832Y657668D01*
X656840Y657570D01*
X656844Y657472D01*
X656844Y657374D01*
X656840Y657276D01*
X656832Y657178D01*
X656820Y657080D01*
X656805Y656984D01*
X656785Y656887D01*
X656762Y656792D01*
X656735Y656697D01*
X656704Y656604D01*
X656670Y656512D01*
X656632Y656422D01*
X656590Y656333D01*
X656545Y656246D01*
X656497Y656160D01*
X656445Y656077D01*
X656390Y655996D01*
X656331Y655917D01*
X656270Y655840D01*
X656205Y655766D01*
X656138Y655695D01*
X656068Y655626D01*
X655995Y655560D01*
X655920Y655497D01*
X655842Y655437D01*
X655762Y655380D01*
X655680Y655327D01*
X655595Y655277D01*
X655509Y655230D01*
X655421Y655186D01*
X655331Y655147D01*
X655240Y655110D01*
X655147Y655078D01*
X655053Y655049D01*
X654959Y655024D01*
X654863Y655003D01*
X654766Y654985D01*
X654669Y654972D01*
X654571Y654962D01*
X654473Y654956D01*
X654375Y654954D01*
X654375Y654953D02*
X651905Y654953D01*
X651781Y654955D01*
X651657Y654961D01*
X651533Y654971D01*
X651410Y654984D01*
X651287Y655002D01*
X651165Y655023D01*
X651043Y655048D01*
X650922Y655077D01*
X650803Y655110D01*
X650684Y655146D01*
X650567Y655187D01*
X650451Y655230D01*
X650336Y655278D01*
X650223Y655329D01*
X650111Y655384D01*
X650002Y655442D01*
X649894Y655503D01*
X649788Y655568D01*
X649684Y655636D01*
X649583Y655708D01*
X649483Y655782D01*
X649387Y655860D01*
X649292Y655940D01*
X649200Y656024D01*
X649111Y656110D01*
X649025Y656199D01*
X648941Y656291D01*
X648861Y656386D01*
X648783Y656482D01*
X648709Y656582D01*
X648637Y656683D01*
X648569Y656787D01*
X648504Y656893D01*
X648443Y657001D01*
X648385Y657110D01*
X648330Y657222D01*
X648279Y657335D01*
X648231Y657450D01*
X648188Y657566D01*
X648147Y657683D01*
X648111Y657802D01*
X648078Y657921D01*
X648049Y658042D01*
X648024Y658164D01*
X648003Y658286D01*
X647985Y658409D01*
X647972Y658532D01*
X647962Y658656D01*
X647956Y658780D01*
X647954Y658904D01*
D10*
X76200Y425450D02*
X76200Y412750D01*
X76200Y425450D02*
X82550Y431800D01*
X95250Y431800D02*
X101600Y425450D01*
X82550Y431800D02*
X76200Y438150D01*
X76200Y450850D01*
X82550Y457200D01*
X95250Y457200D02*
X101600Y450850D01*
X101600Y438150D01*
X95250Y431800D01*
X95250Y406400D02*
X82550Y406400D01*
X76200Y412750D01*
X95250Y406400D02*
X101600Y412750D01*
X101600Y425450D01*
X82550Y457200D02*
X76200Y463550D01*
X76200Y476250D01*
X82550Y482600D01*
X95250Y482600D02*
X101600Y476250D01*
X101600Y463550D01*
X95250Y457200D01*
X76200Y488950D02*
X76200Y501650D01*
X82550Y508000D01*
X95250Y508000D01*
X101600Y501650D01*
X82550Y482600D02*
X76200Y488950D01*
X95250Y482600D02*
X101600Y488950D01*
X101600Y501650D01*
D12*
X83185Y398780D02*
X85725Y395605D01*
X83185Y398780D02*
X94615Y398780D01*
X94615Y395605D02*
X94615Y401955D01*
X92075Y511175D02*
X83185Y513715D01*
X92075Y511175D02*
X92075Y517525D01*
X89535Y515620D02*
X94615Y515620D01*
X69215Y413385D02*
X69315Y413383D01*
X69414Y413377D01*
X69514Y413367D01*
X69612Y413354D01*
X69711Y413336D01*
X69808Y413315D01*
X69904Y413290D01*
X70000Y413261D01*
X70094Y413228D01*
X70187Y413192D01*
X70278Y413152D01*
X70368Y413108D01*
X70456Y413061D01*
X70542Y413011D01*
X70626Y412957D01*
X70708Y412900D01*
X70787Y412840D01*
X70865Y412776D01*
X70939Y412710D01*
X71011Y412641D01*
X71080Y412569D01*
X71146Y412495D01*
X71210Y412417D01*
X71270Y412338D01*
X71327Y412256D01*
X71381Y412172D01*
X71431Y412086D01*
X71478Y411998D01*
X71522Y411908D01*
X71562Y411817D01*
X71598Y411724D01*
X71631Y411630D01*
X71660Y411534D01*
X71685Y411438D01*
X71706Y411341D01*
X71724Y411242D01*
X71737Y411144D01*
X71747Y411044D01*
X71753Y410945D01*
X71755Y410845D01*
X71753Y410704D01*
X71748Y410563D01*
X71738Y410422D01*
X71725Y410281D01*
X71709Y410141D01*
X71688Y410001D01*
X71664Y409862D01*
X71636Y409723D01*
X71605Y409586D01*
X71570Y409449D01*
X71532Y409313D01*
X71490Y409178D01*
X71444Y409045D01*
X71395Y408912D01*
X71342Y408781D01*
X71286Y408652D01*
X71227Y408523D01*
X71164Y408397D01*
X71098Y408272D01*
X71029Y408149D01*
X70956Y408028D01*
X70880Y407909D01*
X70801Y407791D01*
X70720Y407676D01*
X70635Y407564D01*
X70547Y407453D01*
X70456Y407345D01*
X70363Y407239D01*
X70266Y407136D01*
X70167Y407035D01*
X62865Y407353D02*
X62765Y407355D01*
X62666Y407361D01*
X62566Y407371D01*
X62468Y407384D01*
X62369Y407402D01*
X62272Y407423D01*
X62176Y407448D01*
X62080Y407477D01*
X61986Y407510D01*
X61893Y407546D01*
X61802Y407586D01*
X61712Y407630D01*
X61624Y407677D01*
X61538Y407727D01*
X61454Y407781D01*
X61372Y407838D01*
X61293Y407898D01*
X61215Y407962D01*
X61141Y408028D01*
X61069Y408097D01*
X61000Y408169D01*
X60934Y408243D01*
X60870Y408321D01*
X60810Y408400D01*
X60753Y408482D01*
X60699Y408566D01*
X60649Y408652D01*
X60602Y408740D01*
X60558Y408830D01*
X60518Y408921D01*
X60482Y409014D01*
X60449Y409108D01*
X60420Y409204D01*
X60395Y409300D01*
X60374Y409397D01*
X60356Y409496D01*
X60343Y409594D01*
X60333Y409694D01*
X60327Y409793D01*
X60325Y409893D01*
X60327Y410026D01*
X60332Y410159D01*
X60342Y410292D01*
X60355Y410425D01*
X60372Y410557D01*
X60392Y410689D01*
X60416Y410820D01*
X60444Y410950D01*
X60475Y411080D01*
X60510Y411208D01*
X60549Y411336D01*
X60591Y411462D01*
X60637Y411587D01*
X60686Y411711D01*
X60738Y411834D01*
X60794Y411955D01*
X60854Y412074D01*
X60916Y412192D01*
X60982Y412307D01*
X61051Y412421D01*
X61124Y412533D01*
X61199Y412643D01*
X61278Y412751D01*
X65088Y408622D02*
X65036Y408538D01*
X64981Y408455D01*
X64922Y408375D01*
X64861Y408297D01*
X64797Y408222D01*
X64729Y408149D01*
X64659Y408078D01*
X64587Y408011D01*
X64512Y407946D01*
X64434Y407884D01*
X64354Y407825D01*
X64272Y407769D01*
X64188Y407717D01*
X64102Y407668D01*
X64014Y407622D01*
X63924Y407579D01*
X63833Y407540D01*
X63740Y407505D01*
X63646Y407473D01*
X63551Y407445D01*
X63455Y407420D01*
X63358Y407400D01*
X63260Y407382D01*
X63162Y407369D01*
X63063Y407360D01*
X62964Y407354D01*
X62865Y407352D01*
X66992Y412115D02*
X67044Y412199D01*
X67099Y412282D01*
X67158Y412362D01*
X67219Y412440D01*
X67283Y412515D01*
X67351Y412588D01*
X67421Y412659D01*
X67493Y412726D01*
X67568Y412791D01*
X67646Y412853D01*
X67726Y412912D01*
X67808Y412968D01*
X67892Y413020D01*
X67978Y413069D01*
X68066Y413115D01*
X68156Y413158D01*
X68247Y413197D01*
X68340Y413232D01*
X68434Y413264D01*
X68529Y413292D01*
X68625Y413317D01*
X68722Y413337D01*
X68820Y413355D01*
X68918Y413368D01*
X69017Y413377D01*
X69116Y413383D01*
X69215Y413385D01*
X66993Y412115D02*
X65088Y408623D01*
X71755Y420587D02*
X71755Y423127D01*
X71755Y420587D02*
X71753Y420487D01*
X71747Y420388D01*
X71737Y420288D01*
X71724Y420190D01*
X71706Y420091D01*
X71685Y419994D01*
X71660Y419898D01*
X71631Y419802D01*
X71598Y419708D01*
X71562Y419615D01*
X71522Y419524D01*
X71478Y419434D01*
X71431Y419346D01*
X71381Y419260D01*
X71327Y419176D01*
X71270Y419094D01*
X71210Y419015D01*
X71146Y418937D01*
X71080Y418863D01*
X71011Y418791D01*
X70939Y418722D01*
X70865Y418656D01*
X70787Y418592D01*
X70708Y418532D01*
X70626Y418475D01*
X70542Y418421D01*
X70456Y418371D01*
X70368Y418324D01*
X70278Y418280D01*
X70187Y418240D01*
X70094Y418204D01*
X70000Y418171D01*
X69904Y418142D01*
X69808Y418117D01*
X69711Y418096D01*
X69612Y418078D01*
X69514Y418065D01*
X69414Y418055D01*
X69315Y418049D01*
X69215Y418047D01*
X62865Y418047D01*
X62765Y418049D01*
X62666Y418055D01*
X62566Y418065D01*
X62468Y418078D01*
X62369Y418096D01*
X62272Y418117D01*
X62176Y418142D01*
X62080Y418171D01*
X61986Y418204D01*
X61893Y418240D01*
X61802Y418280D01*
X61712Y418324D01*
X61624Y418371D01*
X61538Y418421D01*
X61454Y418475D01*
X61372Y418532D01*
X61293Y418592D01*
X61215Y418656D01*
X61141Y418722D01*
X61069Y418791D01*
X61000Y418863D01*
X60934Y418937D01*
X60870Y419015D01*
X60810Y419094D01*
X60753Y419176D01*
X60699Y419260D01*
X60649Y419346D01*
X60602Y419434D01*
X60558Y419524D01*
X60518Y419615D01*
X60482Y419708D01*
X60449Y419802D01*
X60420Y419898D01*
X60395Y419994D01*
X60374Y420091D01*
X60356Y420190D01*
X60343Y420288D01*
X60333Y420388D01*
X60327Y420487D01*
X60325Y420587D01*
X60325Y423127D01*
X63500Y427609D02*
X68580Y427609D01*
X63500Y427609D02*
X63389Y427611D01*
X63279Y427617D01*
X63168Y427626D01*
X63058Y427640D01*
X62949Y427657D01*
X62840Y427678D01*
X62732Y427703D01*
X62625Y427732D01*
X62519Y427764D01*
X62414Y427800D01*
X62311Y427840D01*
X62209Y427883D01*
X62108Y427930D01*
X62009Y427981D01*
X61913Y428034D01*
X61818Y428091D01*
X61725Y428152D01*
X61634Y428215D01*
X61545Y428282D01*
X61459Y428352D01*
X61376Y428425D01*
X61294Y428500D01*
X61216Y428578D01*
X61141Y428660D01*
X61068Y428743D01*
X60998Y428829D01*
X60931Y428918D01*
X60868Y429009D01*
X60807Y429102D01*
X60750Y429197D01*
X60697Y429293D01*
X60646Y429392D01*
X60599Y429493D01*
X60556Y429595D01*
X60516Y429698D01*
X60480Y429803D01*
X60448Y429909D01*
X60419Y430016D01*
X60394Y430124D01*
X60373Y430233D01*
X60356Y430342D01*
X60342Y430452D01*
X60333Y430563D01*
X60327Y430673D01*
X60325Y430784D01*
X60327Y430895D01*
X60333Y431005D01*
X60342Y431116D01*
X60356Y431226D01*
X60373Y431335D01*
X60394Y431444D01*
X60419Y431552D01*
X60448Y431659D01*
X60480Y431765D01*
X60516Y431870D01*
X60556Y431973D01*
X60599Y432075D01*
X60646Y432176D01*
X60697Y432275D01*
X60750Y432372D01*
X60807Y432466D01*
X60868Y432559D01*
X60931Y432650D01*
X60998Y432739D01*
X61068Y432825D01*
X61141Y432908D01*
X61216Y432990D01*
X61294Y433068D01*
X61376Y433143D01*
X61459Y433216D01*
X61545Y433286D01*
X61634Y433353D01*
X61725Y433416D01*
X61818Y433477D01*
X61913Y433534D01*
X62009Y433587D01*
X62108Y433638D01*
X62209Y433685D01*
X62311Y433728D01*
X62414Y433768D01*
X62519Y433804D01*
X62625Y433836D01*
X62732Y433865D01*
X62840Y433890D01*
X62949Y433911D01*
X63058Y433928D01*
X63168Y433942D01*
X63279Y433951D01*
X63389Y433957D01*
X63500Y433959D01*
X68580Y433959D01*
X68691Y433957D01*
X68801Y433951D01*
X68912Y433942D01*
X69022Y433928D01*
X69131Y433911D01*
X69240Y433890D01*
X69348Y433865D01*
X69455Y433836D01*
X69561Y433804D01*
X69666Y433768D01*
X69769Y433728D01*
X69871Y433685D01*
X69972Y433638D01*
X70071Y433587D01*
X70168Y433534D01*
X70262Y433477D01*
X70355Y433416D01*
X70446Y433353D01*
X70535Y433286D01*
X70621Y433216D01*
X70704Y433143D01*
X70786Y433068D01*
X70864Y432990D01*
X70939Y432908D01*
X71012Y432825D01*
X71082Y432739D01*
X71149Y432650D01*
X71212Y432559D01*
X71273Y432466D01*
X71330Y432371D01*
X71383Y432275D01*
X71434Y432176D01*
X71481Y432075D01*
X71524Y431973D01*
X71564Y431870D01*
X71600Y431765D01*
X71632Y431659D01*
X71661Y431552D01*
X71686Y431444D01*
X71707Y431335D01*
X71724Y431226D01*
X71738Y431116D01*
X71747Y431005D01*
X71753Y430895D01*
X71755Y430784D01*
X71753Y430673D01*
X71747Y430563D01*
X71738Y430452D01*
X71724Y430342D01*
X71707Y430233D01*
X71686Y430124D01*
X71661Y430016D01*
X71632Y429909D01*
X71600Y429803D01*
X71564Y429698D01*
X71524Y429595D01*
X71481Y429493D01*
X71434Y429392D01*
X71383Y429293D01*
X71330Y429196D01*
X71273Y429102D01*
X71212Y429009D01*
X71149Y428918D01*
X71082Y428829D01*
X71012Y428743D01*
X70939Y428660D01*
X70864Y428578D01*
X70786Y428500D01*
X70704Y428425D01*
X70621Y428352D01*
X70535Y428282D01*
X70446Y428215D01*
X70355Y428152D01*
X70262Y428091D01*
X70167Y428034D01*
X70071Y427981D01*
X69972Y427930D01*
X69871Y427883D01*
X69769Y427840D01*
X69666Y427800D01*
X69561Y427764D01*
X69455Y427732D01*
X69348Y427703D01*
X69240Y427678D01*
X69131Y427657D01*
X69022Y427640D01*
X68912Y427626D01*
X68801Y427617D01*
X68691Y427611D01*
X68580Y427609D01*
X71755Y439610D02*
X60325Y439610D01*
X60325Y442785D01*
X60327Y442896D01*
X60333Y443006D01*
X60342Y443117D01*
X60356Y443227D01*
X60373Y443336D01*
X60394Y443445D01*
X60419Y443553D01*
X60448Y443660D01*
X60480Y443766D01*
X60516Y443871D01*
X60556Y443974D01*
X60599Y444076D01*
X60646Y444177D01*
X60697Y444276D01*
X60750Y444373D01*
X60807Y444467D01*
X60868Y444560D01*
X60931Y444651D01*
X60998Y444740D01*
X61068Y444826D01*
X61141Y444909D01*
X61216Y444991D01*
X61294Y445069D01*
X61376Y445144D01*
X61459Y445217D01*
X61545Y445287D01*
X61634Y445354D01*
X61725Y445417D01*
X61818Y445478D01*
X61912Y445535D01*
X62009Y445588D01*
X62108Y445639D01*
X62209Y445686D01*
X62311Y445729D01*
X62414Y445769D01*
X62519Y445805D01*
X62625Y445837D01*
X62732Y445866D01*
X62840Y445891D01*
X62949Y445912D01*
X63058Y445929D01*
X63168Y445943D01*
X63279Y445952D01*
X63389Y445958D01*
X63500Y445960D01*
X63611Y445958D01*
X63721Y445952D01*
X63832Y445943D01*
X63942Y445929D01*
X64051Y445912D01*
X64160Y445891D01*
X64268Y445866D01*
X64375Y445837D01*
X64481Y445805D01*
X64586Y445769D01*
X64689Y445729D01*
X64791Y445686D01*
X64892Y445639D01*
X64991Y445588D01*
X65088Y445535D01*
X65182Y445478D01*
X65275Y445417D01*
X65366Y445354D01*
X65455Y445287D01*
X65541Y445217D01*
X65624Y445144D01*
X65706Y445069D01*
X65784Y444991D01*
X65859Y444909D01*
X65932Y444826D01*
X66002Y444740D01*
X66069Y444651D01*
X66132Y444560D01*
X66193Y444467D01*
X66250Y444373D01*
X66303Y444276D01*
X66354Y444177D01*
X66401Y444076D01*
X66444Y443974D01*
X66484Y443871D01*
X66520Y443766D01*
X66552Y443660D01*
X66581Y443553D01*
X66606Y443445D01*
X66627Y443336D01*
X66644Y443227D01*
X66658Y443117D01*
X66667Y443006D01*
X66673Y442896D01*
X66675Y442785D01*
X66675Y439610D01*
X60325Y449834D02*
X65723Y453644D01*
X60325Y457454D01*
X65723Y453644D02*
X71755Y453644D01*
D10*
X717550Y774700D02*
X730250Y774700D01*
X717550Y774700D02*
X711200Y781050D01*
X711200Y793750D01*
X717550Y800100D01*
X711200Y781050D02*
X704850Y774700D01*
X692150Y774700D01*
X685800Y781050D01*
X685800Y793750D01*
X692150Y800100D01*
X704850Y800100D01*
X711200Y793750D01*
X736600Y793750D02*
X736600Y781050D01*
X730250Y774700D01*
X736600Y793750D02*
X730250Y800100D01*
X717550Y800100D01*
X685800Y781050D02*
X679450Y774700D01*
X666750Y774700D01*
X660400Y781050D01*
X660400Y793750D01*
X666750Y800100D01*
X679450Y800100D01*
X685800Y793750D01*
X383540Y137160D02*
X383540Y130810D01*
X378460Y130810D01*
X378460Y137160D01*
X372110Y137160D01*
X372110Y142240D01*
X378460Y142240D01*
X378460Y148590D01*
X383540Y148590D01*
X383540Y142240D01*
X389890Y142240D01*
X389890Y137160D01*
X383540Y137160D01*
X372110Y101600D02*
X346710Y101600D01*
X389890Y148590D02*
X394970Y153670D01*
X372110Y148590D02*
X367030Y153670D01*
X394970Y139700D02*
X400050Y139700D01*
X367030Y139700D02*
X361950Y139700D01*
X391160Y129540D02*
X393700Y127000D01*
X370840Y129540D02*
X368300Y127000D01*
X364490Y177800D02*
X397510Y177800D01*
X346710Y177800D02*
X346588Y177798D01*
X346466Y177792D01*
X346344Y177782D01*
X346223Y177769D01*
X346102Y177751D01*
X345982Y177730D01*
X345862Y177704D01*
X345744Y177675D01*
X345626Y177643D01*
X345509Y177606D01*
X345394Y177566D01*
X345280Y177522D01*
X345168Y177474D01*
X345057Y177423D01*
X344948Y177368D01*
X344840Y177310D01*
X344735Y177248D01*
X344632Y177183D01*
X344530Y177115D01*
X344431Y177043D01*
X344335Y176969D01*
X344240Y176891D01*
X344149Y176810D01*
X344059Y176727D01*
X343973Y176641D01*
X343890Y176551D01*
X343809Y176460D01*
X343731Y176365D01*
X343657Y176269D01*
X343585Y176170D01*
X343517Y176068D01*
X343452Y175965D01*
X343390Y175860D01*
X343332Y175752D01*
X343277Y175643D01*
X343226Y175532D01*
X343178Y175420D01*
X343134Y175306D01*
X343094Y175191D01*
X343057Y175074D01*
X343025Y174956D01*
X342996Y174838D01*
X342970Y174718D01*
X342949Y174598D01*
X342931Y174477D01*
X342918Y174356D01*
X342908Y174234D01*
X342902Y174112D01*
X342900Y173990D01*
X342900Y105410D02*
X342902Y105288D01*
X342908Y105166D01*
X342918Y105044D01*
X342931Y104923D01*
X342949Y104802D01*
X342970Y104682D01*
X342996Y104562D01*
X343025Y104444D01*
X343057Y104326D01*
X343094Y104209D01*
X343134Y104094D01*
X343178Y103980D01*
X343226Y103868D01*
X343277Y103757D01*
X343332Y103648D01*
X343390Y103540D01*
X343452Y103435D01*
X343517Y103332D01*
X343585Y103230D01*
X343657Y103131D01*
X343731Y103035D01*
X343809Y102940D01*
X343890Y102849D01*
X343973Y102759D01*
X344059Y102673D01*
X344149Y102590D01*
X344240Y102509D01*
X344335Y102431D01*
X344431Y102357D01*
X344530Y102285D01*
X344632Y102217D01*
X344735Y102152D01*
X344840Y102090D01*
X344948Y102032D01*
X345057Y101977D01*
X345168Y101926D01*
X345280Y101878D01*
X345394Y101834D01*
X345509Y101794D01*
X345626Y101757D01*
X345744Y101725D01*
X345862Y101696D01*
X345982Y101670D01*
X346102Y101649D01*
X346223Y101631D01*
X346344Y101618D01*
X346466Y101608D01*
X346588Y101602D01*
X346710Y101600D01*
X415290Y101600D02*
X415412Y101602D01*
X415534Y101608D01*
X415656Y101618D01*
X415777Y101631D01*
X415898Y101649D01*
X416018Y101670D01*
X416138Y101696D01*
X416256Y101725D01*
X416374Y101757D01*
X416491Y101794D01*
X416606Y101834D01*
X416720Y101878D01*
X416832Y101926D01*
X416943Y101977D01*
X417052Y102032D01*
X417160Y102090D01*
X417265Y102152D01*
X417368Y102217D01*
X417470Y102285D01*
X417569Y102357D01*
X417665Y102431D01*
X417760Y102509D01*
X417851Y102590D01*
X417941Y102673D01*
X418027Y102759D01*
X418110Y102849D01*
X418191Y102940D01*
X418269Y103035D01*
X418343Y103131D01*
X418415Y103230D01*
X418483Y103332D01*
X418548Y103435D01*
X418610Y103540D01*
X418668Y103648D01*
X418723Y103757D01*
X418774Y103868D01*
X418822Y103980D01*
X418866Y104094D01*
X418906Y104209D01*
X418943Y104326D01*
X418975Y104444D01*
X419004Y104562D01*
X419030Y104682D01*
X419051Y104802D01*
X419069Y104923D01*
X419082Y105044D01*
X419092Y105166D01*
X419098Y105288D01*
X419100Y105410D01*
X419100Y173990D02*
X419098Y174112D01*
X419092Y174234D01*
X419082Y174356D01*
X419069Y174477D01*
X419051Y174598D01*
X419030Y174718D01*
X419004Y174838D01*
X418975Y174956D01*
X418943Y175074D01*
X418906Y175191D01*
X418866Y175306D01*
X418822Y175420D01*
X418774Y175532D01*
X418723Y175643D01*
X418668Y175752D01*
X418610Y175860D01*
X418548Y175965D01*
X418483Y176068D01*
X418415Y176170D01*
X418343Y176269D01*
X418269Y176365D01*
X418191Y176460D01*
X418110Y176551D01*
X418027Y176641D01*
X417941Y176727D01*
X417851Y176810D01*
X417760Y176891D01*
X417665Y176969D01*
X417569Y177043D01*
X417470Y177115D01*
X417368Y177183D01*
X417265Y177248D01*
X417160Y177310D01*
X417052Y177368D01*
X416943Y177423D01*
X416832Y177474D01*
X416720Y177522D01*
X416606Y177566D01*
X416491Y177606D01*
X416374Y177643D01*
X416256Y177675D01*
X416138Y177704D01*
X416018Y177730D01*
X415898Y177751D01*
X415777Y177769D01*
X415656Y177782D01*
X415534Y177792D01*
X415412Y177798D01*
X415290Y177800D01*
X415290Y101600D02*
X389890Y101600D01*
X342900Y105410D02*
X342900Y154940D01*
X419100Y154940D02*
X419100Y105410D01*
D12*
X388068Y97155D02*
X388068Y85725D01*
X388068Y97155D02*
X391243Y97155D01*
X391354Y97153D01*
X391464Y97147D01*
X391575Y97138D01*
X391685Y97124D01*
X391794Y97107D01*
X391903Y97086D01*
X392011Y97061D01*
X392118Y97032D01*
X392224Y97000D01*
X392329Y96964D01*
X392432Y96924D01*
X392534Y96881D01*
X392635Y96834D01*
X392734Y96783D01*
X392831Y96730D01*
X392925Y96673D01*
X393018Y96612D01*
X393109Y96549D01*
X393198Y96482D01*
X393284Y96412D01*
X393367Y96339D01*
X393449Y96264D01*
X393527Y96186D01*
X393602Y96104D01*
X393675Y96021D01*
X393745Y95935D01*
X393812Y95846D01*
X393875Y95755D01*
X393936Y95662D01*
X393993Y95567D01*
X394046Y95471D01*
X394097Y95372D01*
X394144Y95271D01*
X394187Y95169D01*
X394227Y95066D01*
X394263Y94961D01*
X394295Y94855D01*
X394324Y94748D01*
X394349Y94640D01*
X394370Y94531D01*
X394387Y94422D01*
X394401Y94312D01*
X394410Y94201D01*
X394416Y94091D01*
X394418Y93980D01*
X394416Y93869D01*
X394410Y93759D01*
X394401Y93648D01*
X394387Y93538D01*
X394370Y93429D01*
X394349Y93320D01*
X394324Y93212D01*
X394295Y93105D01*
X394263Y92999D01*
X394227Y92894D01*
X394187Y92791D01*
X394144Y92689D01*
X394097Y92588D01*
X394046Y92489D01*
X393993Y92392D01*
X393936Y92298D01*
X393875Y92205D01*
X393812Y92114D01*
X393745Y92025D01*
X393675Y91939D01*
X393602Y91856D01*
X393527Y91774D01*
X393449Y91696D01*
X393367Y91621D01*
X393284Y91548D01*
X393198Y91478D01*
X393109Y91411D01*
X393018Y91348D01*
X392925Y91287D01*
X392831Y91230D01*
X392734Y91177D01*
X392635Y91126D01*
X392534Y91079D01*
X392432Y91036D01*
X392329Y90996D01*
X392224Y90960D01*
X392118Y90928D01*
X392011Y90899D01*
X391903Y90874D01*
X391794Y90853D01*
X391685Y90836D01*
X391575Y90822D01*
X391464Y90813D01*
X391354Y90807D01*
X391243Y90805D01*
X388068Y90805D01*
X391878Y90805D02*
X394418Y85725D01*
X405766Y94298D02*
X405764Y94402D01*
X405758Y94507D01*
X405749Y94611D01*
X405736Y94714D01*
X405718Y94817D01*
X405698Y94919D01*
X405673Y95021D01*
X405645Y95121D01*
X405613Y95221D01*
X405577Y95319D01*
X405538Y95416D01*
X405496Y95511D01*
X405450Y95605D01*
X405400Y95697D01*
X405348Y95787D01*
X405292Y95875D01*
X405232Y95961D01*
X405170Y96045D01*
X405105Y96126D01*
X405037Y96205D01*
X404965Y96282D01*
X404892Y96355D01*
X404815Y96427D01*
X404736Y96495D01*
X404655Y96560D01*
X404571Y96622D01*
X404485Y96682D01*
X404397Y96738D01*
X404307Y96790D01*
X404215Y96840D01*
X404121Y96886D01*
X404026Y96928D01*
X403929Y96967D01*
X403831Y97003D01*
X403731Y97035D01*
X403631Y97063D01*
X403529Y97088D01*
X403427Y97108D01*
X403324Y97126D01*
X403221Y97139D01*
X403117Y97148D01*
X403012Y97154D01*
X402908Y97156D01*
X402908Y97155D02*
X402790Y97153D01*
X402671Y97147D01*
X402553Y97138D01*
X402436Y97125D01*
X402319Y97107D01*
X402202Y97087D01*
X402086Y97062D01*
X401971Y97034D01*
X401858Y97001D01*
X401745Y96966D01*
X401633Y96926D01*
X401523Y96884D01*
X401414Y96837D01*
X401306Y96787D01*
X401201Y96734D01*
X401097Y96677D01*
X400995Y96617D01*
X400895Y96554D01*
X400797Y96487D01*
X400701Y96418D01*
X400608Y96345D01*
X400517Y96269D01*
X400428Y96191D01*
X400342Y96109D01*
X400259Y96025D01*
X400178Y95939D01*
X400101Y95849D01*
X400026Y95758D01*
X399954Y95664D01*
X399885Y95567D01*
X399820Y95469D01*
X399757Y95368D01*
X399698Y95265D01*
X399642Y95161D01*
X399590Y95055D01*
X399541Y94947D01*
X399496Y94838D01*
X399454Y94727D01*
X399416Y94615D01*
X404813Y92076D02*
X404889Y92151D01*
X404964Y92230D01*
X405035Y92311D01*
X405104Y92395D01*
X405169Y92481D01*
X405231Y92569D01*
X405291Y92659D01*
X405347Y92751D01*
X405400Y92846D01*
X405449Y92942D01*
X405495Y93040D01*
X405538Y93139D01*
X405577Y93240D01*
X405612Y93342D01*
X405644Y93445D01*
X405672Y93549D01*
X405697Y93654D01*
X405718Y93761D01*
X405735Y93867D01*
X405748Y93974D01*
X405757Y94082D01*
X405763Y94190D01*
X405765Y94298D01*
X404813Y92075D02*
X399415Y85725D01*
X405765Y85725D01*
M02*
