G04 EAGLE Gerber RS-274X export*
G75*
%MOMM*%
%FSLAX34Y34*%
%LPD*%
%INSoldermask Top*%
%IPPOS*%
%AMOC8*
5,1,8,0,0,1.08239X$1,22.5*%
G01*
%ADD10C,0.553200*%
%ADD11C,2.743200*%
%ADD12P,2.969212X8X202.500000*%
%ADD13C,2.133600*%
%ADD14C,1.727200*%
%ADD15P,1.649562X8X22.500000*%
%ADD16P,1.649562X8X112.500000*%
%ADD17P,1.649562X8X292.500000*%
%ADD18C,1.727200*%
%ADD19P,1.869504X8X202.500000*%
%ADD20C,2.108200*%
%ADD21P,2.281895X8X202.500000*%
%ADD22C,0.959600*%


D10*
X25400Y825500D03*
X800100Y825500D03*
X800100Y25400D03*
X25400Y25400D03*
D11*
X774700Y114300D03*
D12*
X723900Y114300D03*
D13*
X254000Y660400D03*
X254000Y762000D03*
X139700Y762000D03*
X139700Y660400D03*
D14*
X170180Y304800D02*
X185420Y304800D01*
X185420Y330200D02*
X170180Y330200D01*
X170180Y355600D02*
X185420Y355600D01*
X185420Y381000D02*
X170180Y381000D01*
D15*
X317500Y508000D03*
X304800Y527050D03*
X292100Y508000D03*
X393700Y355600D03*
X381000Y374650D03*
X368300Y355600D03*
X469900Y508000D03*
X457200Y527050D03*
X444500Y508000D03*
D16*
X762000Y444500D03*
X762000Y520700D03*
D17*
X762000Y698500D03*
X762000Y622300D03*
X635000Y342900D03*
X635000Y266700D03*
D16*
X635000Y444500D03*
X635000Y520700D03*
X635000Y622300D03*
X635000Y698500D03*
D14*
X96520Y419100D02*
X81280Y419100D01*
X81280Y444500D02*
X96520Y444500D01*
X96520Y469900D02*
X81280Y469900D01*
X81280Y495300D02*
X96520Y495300D01*
D18*
X723900Y787400D03*
X698500Y787400D03*
X673100Y787400D03*
D14*
X388620Y114300D02*
X373380Y114300D01*
X406400Y157480D02*
X406400Y172720D01*
X355600Y172720D02*
X355600Y157480D01*
D19*
X88900Y203200D03*
X88900Y228600D03*
X88900Y254000D03*
X88900Y279400D03*
X88900Y304800D03*
X88900Y330200D03*
D20*
X482600Y749300D03*
D21*
X431800Y749300D03*
D22*
X330200Y546100D03*
X368300Y584200D03*
X723900Y596900D03*
X596900Y546100D03*
X508000Y342900D03*
X787400Y203200D03*
X127000Y241300D03*
X355600Y508000D03*
X406400Y508000D03*
X266700Y546100D03*
X304800Y444500D03*
X279400Y88900D03*
X241300Y88900D03*
X495300Y508000D03*
X596900Y279400D03*
X330200Y635000D03*
X241300Y546100D03*
X228600Y304800D03*
X546100Y444500D03*
M02*
