G04 EAGLE Gerber RS-274X export*
G75*
%MOMM*%
%FSLAX34Y34*%
%LPD*%
%INSoldermask Top*%
%IPPOS*%
%AMOC8*
5,1,8,0,0,1.08239X$1,22.5*%
G01*
%ADD10C,0.553200*%
%ADD11C,1.524000*%
%ADD12C,2.743200*%
%ADD13P,2.969212X8X202.500000*%
%ADD14C,2.133600*%
%ADD15C,1.727200*%
%ADD16P,1.649562X8X22.500000*%
%ADD17P,1.649562X8X112.500000*%
%ADD18P,1.649562X8X292.500000*%
%ADD19C,1.727200*%
%ADD20C,0.959600*%


D10*
X25400Y825500D03*
X800100Y825500D03*
X800100Y25400D03*
X25400Y25400D03*
D11*
X82296Y241300D02*
X95504Y241300D01*
X95504Y215900D02*
X82296Y215900D01*
X82296Y190500D02*
X95504Y190500D01*
X95504Y165100D02*
X82296Y165100D01*
X82296Y139700D02*
X95504Y139700D01*
D12*
X457200Y711200D03*
D13*
X406400Y711200D03*
D12*
X774700Y114300D03*
D13*
X723900Y114300D03*
D14*
X254000Y660400D03*
X254000Y762000D03*
X139700Y762000D03*
X139700Y660400D03*
D15*
X170180Y304800D02*
X185420Y304800D01*
X185420Y330200D02*
X170180Y330200D01*
X170180Y355600D02*
X185420Y355600D01*
X185420Y381000D02*
X170180Y381000D01*
D16*
X317500Y508000D03*
X304800Y527050D03*
X292100Y508000D03*
X393700Y355600D03*
X381000Y374650D03*
X368300Y355600D03*
X469900Y508000D03*
X457200Y527050D03*
X444500Y508000D03*
D17*
X762000Y444500D03*
X762000Y520700D03*
D18*
X762000Y698500D03*
X762000Y622300D03*
X635000Y342900D03*
X635000Y266700D03*
D17*
X635000Y444500D03*
X635000Y520700D03*
X635000Y622300D03*
X635000Y698500D03*
D15*
X96520Y419100D02*
X81280Y419100D01*
X81280Y444500D02*
X96520Y444500D01*
X96520Y469900D02*
X81280Y469900D01*
X81280Y495300D02*
X96520Y495300D01*
D19*
X723900Y787400D03*
X698500Y787400D03*
X673100Y787400D03*
D15*
X388620Y114300D02*
X373380Y114300D01*
X406400Y157480D02*
X406400Y172720D01*
X355600Y172720D02*
X355600Y157480D01*
D20*
X330200Y546100D03*
X368300Y584200D03*
X723900Y596900D03*
X596900Y546100D03*
X355600Y508000D03*
X406400Y508000D03*
X266700Y546100D03*
X304800Y444500D03*
X330200Y635000D03*
X241300Y546100D03*
X228600Y304800D03*
X546100Y444500D03*
M02*
