M48
;GenerationSoftware,Autodesk,EAGLE,9.6.2*%
;CreationDate,2021-04-29T00:51:34Z*%
FMAT,2
ICI,OFF
METRIC,TZ,000.000
T4C0.350
T3C0.813
T2C1.016
T1C1.118
%
G90
M71
T1
X13970Y66040
X13970Y76200
X25400Y76200
X25400Y66040
T2
X8890Y33020
X8890Y30480
X8890Y27940
X8890Y25400
X8890Y22860
X8890Y20320
X35560Y16510
X40640Y16510
X38100Y11430
X67310Y78740
X69850Y78740
X72390Y78740
X8890Y49530
X8890Y46990
X8890Y44450
X8890Y41910
X17780Y38100
X17780Y35560
X17780Y33020
X17780Y30480
X77470Y11430
X72390Y11430
T3
X43180Y74930
X63500Y44450
X48260Y74930
X29210Y50800
X63500Y69850
X63500Y62230
X63500Y52070
X31750Y50800
X30480Y52705
X63500Y26670
X39370Y35560
X38100Y37465
X36830Y35560
X46990Y50800
X45720Y52705
X44450Y50800
X76200Y44450
X76200Y52070
X76200Y69850
X76200Y62230
X63500Y34290
T4
X2540Y2540
X80010Y2540
X24130Y54610
X22860Y30480
X54610Y44450
X33020Y63500
X59690Y27940
X49530Y50800
X24130Y8890
X27940Y8890
X30480Y44450
X26670Y54610
X40640Y50800
X35560Y50800
X12700Y24130
X78740Y20320
X50800Y34290
X59690Y54610
X72390Y59690
X36830Y58420
X2540Y82550
X80010Y82550
X33020Y54610
M30