M48
;GenerationSoftware,Autodesk,EAGLE,9.6.2*%
;CreationDate,2021-04-16T21:44:20Z*%
FMAT,2
ICI,OFF
METRIC,TZ,000.000
T4C0.350
T3C0.813
T2C1.016
T1C1.118
%
G90
M71
T1
X13970Y66040
X13970Y76200
X25400Y76200
X25400Y66040
T2
X35560Y16510
X17780Y38100
X40640Y16510
X38100Y11430
X67310Y78740
X69850Y78740
X72390Y78740
X8890Y49530
X8890Y46990
X8890Y44450
X8890Y41910
X17780Y33020
X17780Y30480
X17780Y35560
X72390Y11430
X77470Y11430
X40640Y71120
X45720Y71120
T3
X8890Y13970
X8890Y16510
X8890Y19050
X63500Y62230
X63500Y52070
X63500Y44450
X8890Y21590
X8890Y24130
X63500Y69850
X63500Y26670
X31750Y50800
X63500Y34290
X30480Y52705
X29210Y50800
X39370Y35560
X38100Y37465
X36830Y35560
X46990Y50800
X45720Y52705
X44450Y50800
X76200Y44450
X76200Y52070
X76200Y69850
X76200Y62230
T4
X40640Y50800
X35560Y50800
X36830Y58420
X72390Y59690
X59690Y54610
X2540Y2540
X80010Y2540
X80010Y82550
X2540Y82550
X54610Y44450
X22860Y30480
X24130Y54610
X33020Y63500
X30480Y44450
X26670Y54610
X33020Y54610
M30