M48
;GenerationSoftware,Autodesk,EAGLE,9.6.2*%
;CreationDate,2021-04-16T14:43:57Z*%
FMAT,2
ICI,OFF
METRIC,TZ,000.000
T4C0.350
T3C0.813
T2C1.016
T1C1.118
%
G90
M71
T1
X48260Y21590
X48260Y11430
X54610Y11430
X54610Y21590
T2
X31750Y15240
X15240Y21590
X36830Y15240
X34290Y10160
X41910Y54610
X44450Y54610
X46990Y54610
X6350Y38100
X6350Y35560
X6350Y33020
X6350Y30480
X15240Y16510
X15240Y13970
X15240Y19050
X26670Y30480
X31750Y30480
X19050Y34290
X13970Y34290
T3
X6350Y13970
X6350Y16510
X43180Y45720
X43180Y38100
X49530Y33020
X6350Y19050
X6350Y21590
X6350Y24130
X49530Y25400
X13335Y46990
X15240Y48260
X43180Y25400
X15240Y45720
X33020Y46990
X31750Y48895
X30480Y46990
X24130Y48260
X22225Y46990
X24130Y45720
X49530Y45720
X49530Y38100
X55880Y45720
X55880Y38100
X43180Y33020
T4
X40640Y22860
X38100Y36830
X19050Y27940
X29210Y24130
X41910Y34290
X3810Y3810
X57150Y3810
X57150Y55880
X3810Y55880
X39370Y43180
X26670Y43180
X46990Y25400
X39370Y38100
X35560Y38100
X19050Y27940
M30